<svg width="53" height="53" viewBox="0 0 53 53" fill="none" xmlns="http://www.w3.org/2000/svg">
<circle cx="26.5" cy="26.5" r="26.5" fill="#222222"/>
<path d="M15.9522 11.7998V25.4374L20.1494 21.2667H24.148L18.5473 26.682L24.5585 34.1628H20.6923L16.4289 28.721L15.9522 29.1976V34.1628H12.9732V11.7998H15.9522ZM38.9508 33.8583C38.9508 34.4673 38.9287 35.0013 38.8846 35.4603C38.8492 35.9282 38.7963 36.3386 38.7257 36.6917C38.5138 37.6627 38.099 38.4968 37.4811 39.1941C36.3159 40.5358 34.7138 41.2067 32.6748 41.2067C30.9536 41.2067 29.5369 40.7432 28.4247 39.8164C27.2772 38.8631 26.6151 37.5435 26.4386 35.8575H29.4309C29.5457 36.4931 29.7355 36.983 30.0003 37.3272C30.6182 38.1305 31.5185 38.5321 32.7013 38.5321C34.8816 38.5321 35.9717 37.1948 35.9717 34.5203V32.7196C34.7889 33.9289 33.4251 34.5335 31.8804 34.5335C30.1238 34.5335 28.6851 33.898 27.564 32.6269C26.4342 31.3382 25.8693 29.7273 25.8693 27.7942C25.8693 25.914 26.3945 24.3164 27.4449 23.0011C28.5747 21.6065 30.0665 20.9092 31.9201 20.9092C33.5443 20.9092 34.8948 21.5138 35.9717 22.7231V21.2667H38.9508V33.8583ZM36.0908 27.7412C36.0908 26.4878 35.7554 25.4859 35.0846 24.7356C34.4049 23.9677 33.5354 23.5837 32.4762 23.5837C31.3464 23.5837 30.4549 24.003 29.8017 24.8416C29.2103 25.5918 28.9146 26.5628 28.9146 27.7544C28.9146 28.9284 29.2103 29.8906 29.8017 30.6408C30.446 31.4617 31.3375 31.8722 32.4762 31.8722C33.6149 31.8722 34.5152 31.4573 35.1773 30.6276C35.7863 29.8773 36.0908 28.9152 36.0908 27.7412Z" fill="white"/>
</svg>
