<svg width="211" height="271" viewBox="0 0 211 271" fill="none" xmlns="http://www.w3.org/2000/svg">
<g filter="url(#filter0_d)">
<path fill-rule="evenodd" clip-rule="evenodd" d="M4.28906 5.8367C4.28906 3.71775 6.00681 2 8.12577 2H202.519C204.638 2 206.356 3.71775 206.356 5.83671V260.338C206.356 262.457 204.638 264.175 202.519 264.175H8.12576C6.00681 264.175 4.28906 262.457 4.28906 260.338L4.28906 5.8367Z" fill="white"/>
<path d="M4.78906 5.8367C4.78906 3.99389 6.28296 2.5 8.12577 2.5H202.519C204.362 2.5 205.856 3.99389 205.856 5.83671V260.338C205.856 262.181 204.362 263.675 202.519 263.675H8.12576C6.28295 263.675 4.78906 262.181 4.78906 260.338V5.8367Z" stroke="#E1E1E1"/>
</g>
<path d="M37.9901 33.5784H35.1725V39.1836H32.6447V24.6361H37.7603C39.4388 24.6361 40.7344 25.0124 41.6469 25.7651C42.5595 26.5178 43.0157 27.6069 43.0157 29.0323C43.0157 30.0048 42.7793 30.8208 42.3064 31.4802C41.8401 32.133 41.1873 32.6359 40.348 32.9889L43.6152 39.0537V39.1836H40.9076L37.9901 33.5784ZM35.1725 31.5501H37.7703C38.6229 31.5501 39.2889 31.337 39.7685 30.9107C40.2481 30.4777 40.4879 29.8882 40.4879 29.1422C40.4879 28.3629 40.2648 27.7601 39.8185 27.3338C39.3789 26.9075 38.7194 26.6877 37.8402 26.6743H35.1725V31.5501ZM50.1956 39.3834C48.6569 39.3834 47.408 38.9005 46.4488 37.9347C45.4963 36.9622 45.02 35.6699 45.02 34.058V33.7583C45.02 32.6792 45.2265 31.7167 45.6395 30.8707C46.0591 30.0181 46.6453 29.3554 47.398 28.8824C48.1507 28.4095 48.99 28.173 49.9158 28.173C51.3879 28.173 52.5236 28.6426 53.3229 29.5818C54.1289 30.521 54.5319 31.8499 54.5319 33.5684V34.5476H47.4679C47.5412 35.4401 47.8376 36.1462 48.3572 36.6658C48.8834 37.1853 49.5428 37.4451 50.3355 37.4451C51.4478 37.4451 52.3537 36.9955 53.0531 36.0962L54.362 37.3452C53.929 37.9913 53.3495 38.4942 52.6235 38.8539C51.9041 39.2069 51.0948 39.3834 50.1956 39.3834ZM49.9058 30.1214C49.2397 30.1214 48.7002 30.3545 48.2872 30.8208C47.8809 31.287 47.6211 31.9365 47.5079 32.7691H52.1339V32.5893C52.0806 31.7766 51.8641 31.1638 51.4845 30.7508C51.1048 30.3312 50.5786 30.1214 49.9058 30.1214ZM61.1222 37.4451C61.7283 37.4451 62.2312 37.2686 62.6309 36.9155C63.0306 36.5625 63.2437 36.1262 63.2704 35.6067H65.5584C65.5317 36.2794 65.3219 36.9089 64.9289 37.495C64.5359 38.0745 64.0031 38.5342 63.3303 38.8739C62.6575 39.2136 61.9315 39.3834 61.1522 39.3834C59.6401 39.3834 58.4412 38.8938 57.5553 37.9147C56.6694 36.9355 56.2264 35.5834 56.2264 33.8582V33.6084C56.2264 31.9631 56.666 30.6476 57.5453 29.6618C58.4245 28.6693 59.6235 28.173 61.1422 28.173C62.4277 28.173 63.4735 28.5494 64.2795 29.3021C65.0921 30.0481 65.5184 31.0306 65.5584 32.2495H63.2704C63.2437 31.6301 63.0306 31.1205 62.6309 30.7209C62.2379 30.3212 61.735 30.1214 61.1222 30.1214C60.3362 30.1214 59.7301 30.4078 59.3038 30.9806C58.8775 31.5468 58.661 32.4094 58.6543 33.5684V33.9581C58.6543 35.1304 58.8641 36.0063 59.2838 36.5858C59.7101 37.1587 60.3229 37.4451 61.1222 37.4451ZM67.193 33.6783C67.193 32.6192 67.4028 31.6667 67.8224 30.8208C68.2421 29.9682 68.8316 29.3154 69.5909 28.8625C70.3503 28.4029 71.2229 28.173 72.2087 28.173C73.6674 28.173 74.8497 28.6426 75.7556 29.5818C76.6682 30.521 77.1611 31.7666 77.2344 33.3186L77.2444 33.8881C77.2444 34.9539 77.0379 35.9064 76.6249 36.7457C76.2186 37.585 75.6324 38.2344 74.8664 38.694C74.107 39.1536 73.2278 39.3834 72.2287 39.3834C70.7033 39.3834 69.481 38.8772 68.5618 37.8647C67.6493 36.8456 67.193 35.4901 67.193 33.7982V33.6783ZM69.6209 33.8881C69.6209 35.0005 69.8507 35.8731 70.3103 36.5059C70.7699 37.132 71.4094 37.4451 72.2287 37.4451C73.048 37.4451 73.6841 37.1254 74.137 36.4859C74.5966 35.8465 74.8264 34.9106 74.8264 33.6783C74.8264 32.5859 74.59 31.72 74.117 31.0806C73.6508 30.4411 73.0147 30.1214 72.2087 30.1214C71.416 30.1214 70.7866 30.4378 70.3203 31.0706C69.854 31.6967 69.6209 32.6359 69.6209 33.8881ZM83.2052 36.1062L85.4933 28.3729H88.0011L84.2543 39.1836H82.1461L78.3694 28.3729H80.8872L83.2052 36.1062ZM94.4016 39.3834C92.8629 39.3834 91.614 38.9005 90.6548 37.9347C89.7023 36.9622 89.2261 35.6699 89.2261 34.058V33.7583C89.2261 32.6792 89.4326 31.7167 89.8455 30.8707C90.2652 30.0181 90.8513 29.3554 91.604 28.8824C92.3567 28.4095 93.196 28.173 94.1219 28.173C95.5939 28.173 96.7296 28.6426 97.5289 29.5818C98.3349 30.521 98.7379 31.8499 98.7379 33.5684V34.5476H91.674C91.7472 35.4401 92.0436 36.1462 92.5632 36.6658C93.0894 37.1853 93.7488 37.4451 94.5415 37.4451C95.6539 37.4451 96.5598 36.9955 97.2592 36.0962L98.568 37.3452C98.1351 37.9913 97.5556 38.4942 96.8295 38.8539C96.1102 39.2069 95.3008 39.3834 94.4016 39.3834ZM94.1119 30.1214C93.4458 30.1214 92.9062 30.3545 92.4933 30.8208C92.0869 31.287 91.8272 31.9365 91.7139 32.7691H96.34V32.5893C96.2867 31.7766 96.0702 31.1638 95.6905 30.7508C95.3108 30.3312 94.7846 30.1214 94.1119 30.1214ZM106.547 30.591C106.227 30.5377 105.898 30.511 105.558 30.511C104.446 30.511 103.696 30.9373 103.31 31.7899V39.1836H100.882V28.3729H103.2L103.26 29.5818C103.846 28.6426 104.659 28.173 105.698 28.173C106.044 28.173 106.331 28.2197 106.557 28.3129L106.547 30.591ZM112.298 35.7066L114.496 28.3729H117.084L112.788 40.8222C112.128 42.6406 111.009 43.5498 109.431 43.5498C109.078 43.5498 108.688 43.4899 108.262 43.37V41.4916L108.721 41.5216C109.334 41.5216 109.794 41.4083 110.1 41.1819C110.413 40.9621 110.66 40.5891 110.84 40.0628L111.189 39.1336L107.392 28.3729H110.01L112.298 35.7066ZM130.555 39.1836C130.448 38.9771 130.355 38.6407 130.275 38.1745C129.502 38.9804 128.556 39.3834 127.437 39.3834C126.352 39.3834 125.466 39.0737 124.78 38.4542C124.093 37.8348 123.75 37.0687 123.75 36.1562C123.75 35.0038 124.177 34.1213 125.029 33.5085C125.889 32.889 127.114 32.5793 128.706 32.5793H130.195V31.8699C130.195 31.3104 130.038 30.8641 129.725 30.531C129.412 30.1913 128.936 30.0215 128.297 30.0215C127.744 30.0215 127.291 30.1613 126.938 30.4411C126.585 30.7142 126.408 31.0639 126.408 31.4902H123.98C123.98 30.8974 124.177 30.3445 124.57 29.8316C124.963 29.3121 125.496 28.9058 126.168 28.6127C126.848 28.3196 127.604 28.173 128.436 28.173C129.702 28.173 130.711 28.4928 131.464 29.1322C132.216 29.765 132.603 30.6576 132.623 31.8099V36.6857C132.623 37.6582 132.759 38.4342 133.032 39.0137V39.1836H130.555ZM127.887 37.4351C128.366 37.4351 128.816 37.3185 129.236 37.0854C129.662 36.8523 129.982 36.5392 130.195 36.1462V34.108H128.886C127.987 34.108 127.311 34.2645 126.858 34.5775C126.405 34.8906 126.178 35.3336 126.178 35.9064C126.178 36.3727 126.332 36.7457 126.638 37.0254C126.951 37.2985 127.367 37.4351 127.887 37.4351ZM144.908 33.8881C144.908 35.5667 144.532 36.9022 143.779 37.8947C143.033 38.8872 142.004 39.3834 140.692 39.3834C139.426 39.3834 138.44 38.9271 137.734 38.0146L137.615 39.1836H135.416V23.8368H137.844V29.412C138.544 28.586 139.486 28.173 140.672 28.173C141.991 28.173 143.027 28.6626 143.779 29.6418C144.532 30.6209 144.908 31.9898 144.908 33.7483V33.8881ZM142.48 33.6783C142.48 32.506 142.274 31.6268 141.861 31.0406C141.448 30.4544 140.848 30.1613 140.062 30.1613C139.01 30.1613 138.271 30.6209 137.844 31.5402V35.9963C138.277 36.9355 139.023 37.4051 140.082 37.4051C140.842 37.4051 141.428 37.122 141.841 36.5559C142.254 35.9897 142.467 35.1337 142.48 33.9881V33.6783ZM149.79 39.1836H147.362V28.3729H149.79V39.1836ZM147.212 25.5653C147.212 25.1923 147.329 24.8825 147.562 24.6361C147.802 24.3896 148.141 24.2664 148.581 24.2664C149.021 24.2664 149.36 24.3896 149.6 24.6361C149.84 24.8825 149.96 25.1923 149.96 25.5653C149.96 25.9316 149.84 26.238 149.6 26.4845C149.36 26.7243 149.021 26.8442 148.581 26.8442C148.141 26.8442 147.802 26.7243 147.562 26.4845C147.329 26.238 147.212 25.9316 147.212 25.5653ZM155.281 39.1836H152.853V23.8368H155.281V39.1836ZM160.773 39.1836H158.345V28.3729H160.773V39.1836ZM158.195 25.5653C158.195 25.1923 158.311 24.8825 158.545 24.6361C158.784 24.3896 159.124 24.2664 159.564 24.2664C160.003 24.2664 160.343 24.3896 160.583 24.6361C160.823 24.8825 160.942 25.1923 160.942 25.5653C160.942 25.9316 160.823 26.238 160.583 26.4845C160.343 26.7243 160.003 26.8442 159.564 26.8442C159.124 26.8442 158.784 26.7243 158.545 26.4845C158.311 26.238 158.195 25.9316 158.195 25.5653ZM166.724 25.7451V28.3729H168.632V30.1713H166.724V36.2062C166.724 36.6191 166.803 36.9189 166.963 37.1054C167.13 37.2852 167.423 37.3751 167.843 37.3751C168.122 37.3751 168.405 37.3418 168.692 37.2752V39.1536C168.139 39.3068 167.606 39.3834 167.093 39.3834C165.228 39.3834 164.296 38.3543 164.296 36.2961V30.1713H162.517V28.3729H164.296V25.7451H166.724ZM174.533 35.7066L176.731 28.3729H179.319L175.022 40.8222C174.363 42.6406 173.244 43.5498 171.665 43.5498C171.312 43.5498 170.923 43.4899 170.496 43.37V41.4916L170.956 41.5216C171.569 41.5216 172.028 41.4083 172.335 41.1819C172.648 40.9621 172.894 40.5891 173.074 40.0628L173.424 39.1336L169.627 28.3729H172.245L174.533 35.7066Z" fill="#121212"/>
<rect x="64.3975" y="165.699" width="81.8497" height="25.578" rx="12.789" fill="#FFAE10"/>
<path d="M96.1891 178.862C96.1891 180.109 95.9793 181.199 95.5597 182.131C95.14 183.058 94.5455 183.766 93.7762 184.256C93.0069 184.745 92.1093 184.99 91.0835 184.99C90.081 184.99 89.1922 184.745 88.417 184.256C87.6419 183.761 87.0386 183.058 86.6073 182.149C86.1819 181.234 85.9633 180.176 85.9517 178.975V178.057C85.9517 176.834 86.1644 175.752 86.5899 174.814C87.0153 173.876 87.6156 173.159 88.3908 172.663C89.1718 172.162 90.0635 171.912 91.066 171.912C92.086 171.912 92.9835 172.159 93.7587 172.655C94.5397 173.144 95.14 173.858 95.5597 174.797C95.9793 175.729 96.1891 176.816 96.1891 178.057V178.862ZM94.5193 178.04C94.5193 176.53 94.2162 175.374 93.6101 174.569C93.0039 173.759 92.1559 173.354 91.066 173.354C90.0053 173.354 89.1689 173.759 88.5569 174.569C87.9508 175.374 87.639 176.493 87.6215 177.926V178.862C87.6215 180.325 87.9275 181.476 88.5394 182.315C89.1572 183.149 90.0053 183.565 91.0835 183.565C92.1676 183.565 93.0069 183.172 93.6013 182.385C94.1958 181.592 94.5018 180.459 94.5193 178.984V178.04ZM101.541 180.435L100.527 181.493V184.815H98.9098V171.387H100.527V179.509L101.393 178.468L104.339 175.356H106.306L102.625 179.308L106.734 184.815H104.837L101.541 180.435ZM114.263 184.815C114.17 184.629 114.094 184.297 114.036 183.819C113.284 184.6 112.387 184.99 111.343 184.99C110.411 184.99 109.644 184.728 109.044 184.203C108.45 183.673 108.152 183.003 108.152 182.193C108.152 181.208 108.525 180.444 109.271 179.902C110.023 179.354 111.078 179.08 112.436 179.08H114.01V178.337C114.01 177.772 113.841 177.323 113.503 176.991C113.165 176.653 112.666 176.484 112.008 176.484C111.431 176.484 110.947 176.63 110.557 176.921C110.166 177.212 109.971 177.565 109.971 177.979H108.345C108.345 177.507 108.511 177.052 108.843 176.615C109.181 176.172 109.636 175.822 110.207 175.566C110.784 175.309 111.416 175.181 112.104 175.181C113.194 175.181 114.048 175.455 114.666 176.003C115.283 176.545 115.604 177.294 115.627 178.25V182.604C115.627 183.472 115.738 184.163 115.959 184.676V184.815H114.263ZM111.579 183.583C112.086 183.583 112.567 183.452 113.022 183.189C113.477 182.927 113.806 182.586 114.01 182.166V180.226H112.742C110.761 180.226 109.77 180.806 109.77 181.965C109.77 182.472 109.939 182.869 110.277 183.154C110.615 183.44 111.049 183.583 111.579 183.583ZM121.565 182.446L123.768 175.356H125.499L121.696 186.275C121.108 187.849 120.172 188.636 118.89 188.636L118.584 188.61L117.981 188.496V187.185L118.418 187.22C118.966 187.22 119.391 187.109 119.694 186.887C120.003 186.666 120.257 186.261 120.455 185.672L120.813 184.711L117.439 175.356H119.205L121.565 182.446Z" fill="white"/>
<path d="M51.3216 213.728L54.6438 207.337H56.5497L52.1609 215.319V220.066H50.4824V215.319L46.0936 207.337H48.017L51.3216 213.728ZM57.3819 215.249C57.3819 214.323 57.5626 213.489 57.924 212.749C58.2912 212.009 58.7982 211.438 59.4452 211.035C60.0979 210.633 60.8411 210.432 61.6745 210.432C62.9626 210.432 64.0029 210.878 64.7956 211.77C65.5941 212.662 65.9933 213.848 65.9933 215.328V215.442C65.9933 216.363 65.8155 217.19 65.46 217.924C65.1103 218.653 64.6062 219.221 63.9476 219.629C63.2948 220.037 62.5429 220.241 61.692 220.241C60.4098 220.241 59.3694 219.795 58.5709 218.904C57.7783 218.012 57.3819 216.832 57.3819 215.363V215.249ZM59.008 215.442C59.008 216.491 59.2499 217.333 59.7337 217.968C60.2233 218.603 60.876 218.921 61.692 218.921C62.5138 218.921 63.1666 218.601 63.6503 217.959C64.1341 217.313 64.3759 216.409 64.3759 215.249C64.3759 214.212 64.1282 213.373 63.6328 212.731C63.1432 212.085 62.4905 211.761 61.6745 211.761C60.876 211.761 60.232 212.079 59.7424 212.714C59.2528 213.349 59.008 214.258 59.008 215.442ZM74.3092 219.131C73.6797 219.871 72.7559 220.241 71.5378 220.241C70.5295 220.241 69.7601 219.95 69.2298 219.367C68.7052 218.778 68.44 217.91 68.4342 216.762V210.607H70.0516V216.718C70.0516 218.152 70.6344 218.869 71.8001 218.869C73.0357 218.869 73.8575 218.408 74.2654 217.487V210.607H75.8828V220.066H74.3441L74.3092 219.131ZM83.3681 212.058C83.1233 212.017 82.8581 211.997 82.5726 211.997C81.5118 211.997 80.792 212.449 80.4132 213.352V220.066H78.7958V210.607H80.3695L80.3957 211.7C80.9261 210.855 81.6779 210.432 82.6512 210.432C82.966 210.432 83.2049 210.473 83.3681 210.555V212.058ZM98.2076 215.442C98.2076 216.887 97.8754 218.05 97.211 218.93C96.5466 219.804 95.6548 220.241 94.5358 220.241C93.341 220.241 92.4172 219.819 91.7644 218.974L91.6857 220.066H90.1995V206.638H91.8169V211.647C92.4696 210.837 93.3701 210.432 94.5183 210.432C95.6665 210.432 96.567 210.866 97.2197 211.735C97.8783 212.603 98.2076 213.792 98.2076 215.302V215.442ZM96.5903 215.258C96.5903 214.156 96.3775 213.306 95.9521 212.705C95.5266 212.105 94.9146 211.805 94.1161 211.805C93.0496 211.805 92.2831 212.3 91.8169 213.291V217.382C92.3123 218.373 93.0845 218.869 94.1336 218.869C94.9088 218.869 95.512 218.569 95.9433 217.968C96.3746 217.368 96.5903 216.464 96.5903 215.258ZM100.273 215.249C100.273 214.323 100.453 213.489 100.815 212.749C101.182 212.009 101.689 211.438 102.336 211.035C102.989 210.633 103.732 210.432 104.565 210.432C105.853 210.432 106.894 210.878 107.686 211.77C108.485 212.662 108.884 213.848 108.884 215.328V215.442C108.884 216.363 108.706 217.19 108.351 217.924C108.001 218.653 107.497 219.221 106.838 219.629C106.185 220.037 105.434 220.241 104.583 220.241C103.3 220.241 102.26 219.795 101.462 218.904C100.669 218.012 100.273 216.832 100.273 215.363V215.249ZM101.899 215.442C101.899 216.491 102.141 217.333 102.624 217.968C103.114 218.603 103.767 218.921 104.583 218.921C105.404 218.921 106.057 218.601 106.541 217.959C107.025 217.313 107.267 216.409 107.267 215.249C107.267 214.212 107.019 213.373 106.523 212.731C106.034 212.085 105.381 211.761 104.565 211.761C103.767 211.761 103.123 212.079 102.633 212.714C102.144 213.349 101.899 214.258 101.899 215.442ZM110.966 215.258C110.966 213.807 111.31 212.641 111.998 211.761C112.686 210.875 113.586 210.432 114.699 210.432C115.807 210.432 116.684 210.811 117.331 211.569V206.638H118.948V220.066H117.462L117.383 219.052C116.736 219.845 115.836 220.241 114.682 220.241C113.586 220.241 112.692 219.792 111.998 218.895C111.31 217.997 110.966 216.826 110.966 215.38V215.258ZM112.584 215.442C112.584 216.514 112.805 217.353 113.248 217.959C113.691 218.566 114.303 218.869 115.084 218.869C116.11 218.869 116.859 218.408 117.331 217.487V213.142C116.847 212.251 116.104 211.805 115.102 211.805C114.309 211.805 113.691 212.111 113.248 212.723C112.805 213.335 112.584 214.241 112.584 215.442ZM125.009 217.697L127.212 210.607H128.943L125.14 221.526C124.551 223.1 123.616 223.887 122.333 223.887L122.027 223.861L121.424 223.747V222.436L121.861 222.471C122.409 222.471 122.835 222.36 123.138 222.138C123.447 221.917 123.7 221.512 123.898 220.923L124.257 219.961L120.882 210.607H122.648L125.009 217.697ZM137.348 211.752C138.065 210.872 138.997 210.432 140.145 210.432C142.144 210.432 143.153 211.56 143.17 213.816V220.066H141.553V213.807C141.547 213.125 141.39 212.621 141.081 212.294C140.778 211.968 140.303 211.805 139.656 211.805C139.131 211.805 138.671 211.945 138.274 212.224C137.878 212.504 137.569 212.871 137.348 213.326V220.066H135.73V206.638H137.348V211.752ZM151.88 220.066C151.786 219.88 151.711 219.548 151.652 219.07C150.9 219.851 150.003 220.241 148.96 220.241C148.027 220.241 147.261 219.979 146.66 219.454C146.066 218.924 145.769 218.254 145.769 217.444C145.769 216.459 146.142 215.695 146.888 215.153C147.639 214.605 148.694 214.331 150.052 214.331H151.626V213.588C151.626 213.023 151.457 212.574 151.119 212.242C150.781 211.904 150.283 211.735 149.624 211.735C149.047 211.735 148.563 211.881 148.173 212.172C147.782 212.463 147.587 212.816 147.587 213.23H145.961C145.961 212.758 146.127 212.303 146.459 211.866C146.797 211.423 147.252 211.073 147.823 210.817C148.4 210.56 149.032 210.432 149.72 210.432C150.81 210.432 151.664 210.706 152.282 211.254C152.899 211.796 153.22 212.545 153.243 213.501V217.855C153.243 218.723 153.354 219.414 153.576 219.927V220.066H151.88ZM149.196 218.834C149.703 218.834 150.183 218.703 150.638 218.44C151.093 218.178 151.422 217.837 151.626 217.417V215.477H150.358C148.377 215.477 147.386 216.057 147.386 217.216C147.386 217.723 147.555 218.12 147.893 218.405C148.231 218.691 148.665 218.834 149.196 218.834ZM161.734 217.557C161.734 217.12 161.568 216.782 161.236 216.543C160.909 216.298 160.335 216.089 159.513 215.914C158.698 215.739 158.048 215.529 157.564 215.284C157.086 215.039 156.73 214.748 156.497 214.41C156.27 214.072 156.156 213.67 156.156 213.204C156.156 212.428 156.483 211.773 157.136 211.236C157.794 210.7 158.633 210.432 159.653 210.432C160.726 210.432 161.594 210.709 162.259 211.263C162.929 211.816 163.264 212.525 163.264 213.387H161.638C161.638 212.944 161.448 212.562 161.07 212.242C160.697 211.921 160.225 211.761 159.653 211.761C159.065 211.761 158.604 211.889 158.272 212.146C157.94 212.402 157.774 212.737 157.774 213.151C157.774 213.542 157.928 213.836 158.237 214.034C158.546 214.232 159.103 214.422 159.907 214.602C160.717 214.783 161.373 214.999 161.874 215.249C162.375 215.5 162.745 215.803 162.984 216.159C163.229 216.508 163.351 216.937 163.351 217.444C163.351 218.289 163.013 218.968 162.337 219.481C161.661 219.988 160.784 220.241 159.706 220.241C158.948 220.241 158.278 220.107 157.695 219.839C157.112 219.571 156.655 219.198 156.322 218.72C155.996 218.236 155.833 217.715 155.833 217.155H157.45C157.479 217.697 157.695 218.128 158.097 218.449C158.505 218.764 159.041 218.921 159.706 218.921C160.318 218.921 160.807 218.799 161.175 218.554C161.548 218.303 161.734 217.971 161.734 217.557ZM41.621 241.241C40.3388 241.241 39.2955 240.822 38.4912 239.982C37.6869 239.137 37.2847 238.009 37.2847 236.599V236.302C37.2847 235.363 37.4625 234.527 37.818 233.793C38.1794 233.052 38.6806 232.475 39.3217 232.062C39.9687 231.642 40.6681 231.432 41.4199 231.432C42.6497 231.432 43.6055 231.837 44.2874 232.647C44.9694 233.458 45.3103 234.617 45.3103 236.127V236.8H38.9021C38.9254 237.733 39.1964 238.487 39.7151 239.064C40.2397 239.636 40.9041 239.921 41.7084 239.921C42.2796 239.921 42.7633 239.805 43.1597 239.571C43.556 239.338 43.9028 239.029 44.2 238.645L45.1879 239.414C44.3953 240.632 43.2063 241.241 41.621 241.241ZM41.4199 232.761C40.7671 232.761 40.2193 233 39.7763 233.478C39.3334 233.95 39.0594 234.614 38.9545 235.471H43.693V235.349C43.6463 234.527 43.4249 233.892 43.0285 233.443C42.6322 232.988 42.096 232.761 41.4199 232.761ZM49.1675 231.607L49.22 232.796C49.9427 231.887 50.8869 231.432 52.0525 231.432C54.0516 231.432 55.0599 232.56 55.0774 234.816V241.066H53.4601V234.807C53.4542 234.125 53.2969 233.621 52.988 233.294C52.6849 232.968 52.2099 232.805 51.5629 232.805C51.0384 232.805 50.578 232.945 50.1816 233.224C49.7853 233.504 49.4764 233.871 49.2549 234.326V241.066H47.6376V231.607H49.1675ZM57.5358 236.249C57.5358 235.323 57.7165 234.489 58.0779 233.749C58.445 233.009 58.9521 232.438 59.599 232.035C60.2518 231.633 60.9949 231.432 61.8284 231.432C63.1164 231.432 64.1568 231.878 64.9494 232.77C65.7479 233.662 66.1472 234.848 66.1472 236.328V236.442C66.1472 237.363 65.9694 238.19 65.6139 238.924C65.2642 239.653 64.76 240.221 64.1014 240.629C63.4487 241.037 62.6968 241.241 61.8459 241.241C60.5636 241.241 59.5233 240.795 58.7248 239.904C57.9321 239.012 57.5358 237.832 57.5358 236.363V236.249ZM59.1619 236.442C59.1619 237.491 59.4038 238.333 59.8875 238.968C60.3771 239.603 61.0299 239.921 61.8459 239.921C62.6677 239.921 63.3204 239.601 63.8042 238.959C64.2879 238.313 64.5298 237.409 64.5298 236.249C64.5298 235.212 64.2821 234.373 63.7867 233.731C63.2971 233.085 62.6443 232.761 61.8284 232.761C61.0299 232.761 60.3859 233.079 59.8963 233.714C59.4067 234.349 59.1619 235.258 59.1619 236.442ZM74.463 240.131C73.8336 240.871 72.9098 241.241 71.6917 241.241C70.6834 241.241 69.914 240.95 69.3836 240.367C68.8591 239.778 68.5939 238.91 68.5881 237.762V231.607H70.2054V237.718C70.2054 239.152 70.7883 239.869 71.9539 239.869C73.1895 239.869 74.0113 239.408 74.4193 238.487V231.607H76.0367V241.066H74.498L74.463 240.131ZM78.565 236.258C78.565 234.783 78.906 233.612 79.5879 232.744C80.2698 231.869 81.1732 231.432 82.2981 231.432C83.4521 231.432 84.3525 231.84 84.9995 232.656L85.0782 231.607H86.5556V240.839C86.5556 242.063 86.1914 243.028 85.4628 243.733C84.7401 244.438 83.7668 244.791 82.5428 244.791C81.8609 244.791 81.1936 244.645 80.5408 244.354C79.888 244.062 79.3897 243.663 79.0458 243.156L79.8851 242.185C80.5787 243.042 81.4267 243.471 82.4292 243.471C83.216 243.471 83.828 243.249 84.2651 242.806C84.7081 242.363 84.9295 241.74 84.9295 240.935V240.122C84.2826 240.868 83.3996 241.241 82.2806 241.241C81.1732 241.241 80.2756 240.795 79.5879 239.904C78.906 239.012 78.565 237.797 78.565 236.258ZM80.1911 236.442C80.1911 237.508 80.4097 238.347 80.8468 238.959C81.2839 239.566 81.8959 239.869 82.6827 239.869C83.7027 239.869 84.4516 239.405 84.9295 238.479V234.16C84.4341 233.256 83.691 232.805 82.7002 232.805C81.9134 232.805 81.2985 233.111 80.8555 233.723C80.4126 234.335 80.1911 235.241 80.1911 236.442ZM91.0685 232.752C91.7854 231.872 92.7179 231.432 93.8661 231.432C95.8652 231.432 96.8735 232.56 96.891 234.816V241.066H95.2737V234.807C95.2678 234.125 95.1105 233.621 94.8016 233.294C94.4985 232.968 94.0235 232.805 93.3765 232.805C92.852 232.805 92.3915 232.945 91.9952 233.224C91.5989 233.504 91.29 233.871 91.0685 234.326V241.066H89.4512V227.638H91.0685V232.752ZM109.221 233.058C108.977 233.017 108.711 232.997 108.426 232.997C107.365 232.997 106.645 233.449 106.266 234.352V241.066H104.649V231.607H106.223L106.249 232.7C106.779 231.855 107.531 231.432 108.505 231.432C108.819 231.432 109.058 231.473 109.221 231.555V233.058ZM114.915 241.241C113.632 241.241 112.589 240.822 111.785 239.982C110.98 239.137 110.578 238.009 110.578 236.599V236.302C110.578 235.363 110.756 234.527 111.112 233.793C111.473 233.052 111.974 232.475 112.615 232.062C113.262 231.642 113.962 231.432 114.713 231.432C115.943 231.432 116.899 231.837 117.581 232.647C118.263 233.458 118.604 234.617 118.604 236.127V236.8H112.196C112.219 237.733 112.49 238.487 113.009 239.064C113.533 239.636 114.198 239.921 115.002 239.921C115.573 239.921 116.057 239.805 116.453 239.571C116.85 239.338 117.196 239.029 117.494 238.645L118.481 239.414C117.689 240.632 116.5 241.241 114.915 241.241ZM114.713 232.761C114.061 232.761 113.513 233 113.07 233.478C112.627 233.95 112.353 234.614 112.248 235.471H116.987V235.349C116.94 234.527 116.718 233.892 116.322 233.443C115.926 232.988 115.39 232.761 114.713 232.761ZM126.439 238.557C126.439 238.12 126.273 237.782 125.941 237.543C125.614 237.298 125.04 237.089 124.218 236.914C123.402 236.739 122.752 236.529 122.269 236.284C121.791 236.039 121.435 235.748 121.202 235.41C120.975 235.072 120.861 234.67 120.861 234.204C120.861 233.428 121.188 232.773 121.84 232.236C122.499 231.7 123.338 231.432 124.358 231.432C125.431 231.432 126.299 231.709 126.963 232.263C127.634 232.816 127.969 233.525 127.969 234.387H126.343C126.343 233.944 126.153 233.562 125.774 233.242C125.401 232.921 124.929 232.761 124.358 232.761C123.77 232.761 123.309 232.889 122.977 233.146C122.645 233.402 122.479 233.737 122.479 234.151C122.479 234.542 122.633 234.836 122.942 235.034C123.251 235.232 123.807 235.422 124.612 235.602C125.422 235.783 126.078 235.999 126.579 236.249C127.08 236.5 127.45 236.803 127.689 237.159C127.934 237.508 128.056 237.937 128.056 238.444C128.056 239.289 127.718 239.968 127.042 240.481C126.366 240.988 125.489 241.241 124.411 241.241C123.653 241.241 122.983 241.107 122.4 240.839C121.817 240.571 121.359 240.198 121.027 239.72C120.701 239.236 120.538 238.715 120.538 238.155H122.155C122.184 238.697 122.4 239.128 122.802 239.449C123.21 239.764 123.746 239.921 124.411 239.921C125.023 239.921 125.512 239.799 125.879 239.554C126.252 239.303 126.439 238.971 126.439 238.557ZM134.536 241.241C133.254 241.241 132.211 240.822 131.406 239.982C130.602 239.137 130.2 238.009 130.2 236.599V236.302C130.2 235.363 130.378 234.527 130.733 233.793C131.095 233.052 131.596 232.475 132.237 232.062C132.884 231.642 133.583 231.432 134.335 231.432C135.565 231.432 136.521 231.837 137.203 232.647C137.885 233.458 138.226 234.617 138.226 236.127V236.8H131.817C131.841 237.733 132.112 238.487 132.63 239.064C133.155 239.636 133.819 239.921 134.624 239.921C135.195 239.921 135.679 239.805 136.075 239.571C136.471 239.338 136.818 239.029 137.115 238.645L138.103 239.414C137.31 240.632 136.121 241.241 134.536 241.241ZM134.335 232.761C133.682 232.761 133.134 233 132.692 233.478C132.249 233.95 131.975 234.614 131.87 235.471H136.608V235.349C136.562 234.527 136.34 233.892 135.944 233.443C135.547 232.988 135.011 232.761 134.335 232.761ZM145.125 233.058C144.88 233.017 144.615 232.997 144.33 232.997C143.269 232.997 142.549 233.449 142.17 234.352V241.066H140.553V231.607H142.126L142.153 232.7C142.683 231.855 143.435 231.432 144.408 231.432C144.723 231.432 144.962 231.473 145.125 231.555V233.058ZM150.346 238.872L152.689 231.607H154.341L150.949 241.066H149.717L146.29 231.607H147.942L150.346 238.872ZM160.148 241.241C158.866 241.241 157.823 240.822 157.018 239.982C156.214 239.137 155.812 238.009 155.812 236.599V236.302C155.812 235.363 155.99 234.527 156.345 233.793C156.707 233.052 157.208 232.475 157.849 232.062C158.496 231.642 159.195 231.432 159.947 231.432C161.177 231.432 162.133 231.837 162.815 232.647C163.497 233.458 163.838 234.617 163.838 236.127V236.8H157.429C157.453 237.733 157.724 238.487 158.242 239.064C158.767 239.636 159.431 239.921 160.236 239.921C160.807 239.921 161.291 239.805 161.687 239.571C162.083 239.338 162.43 239.029 162.727 238.645L163.715 239.414C162.922 240.632 161.734 241.241 160.148 241.241ZM159.947 232.761C159.294 232.761 158.746 233 158.304 233.478C157.861 233.95 157.587 234.614 157.482 235.471H162.22V235.349C162.174 234.527 161.952 233.892 161.556 233.443C161.159 232.988 160.623 232.761 159.947 232.761ZM171.673 238.557C171.673 238.12 171.506 237.782 171.174 237.543C170.848 237.298 170.274 237.089 169.452 236.914C168.636 236.739 167.986 236.529 167.502 236.284C167.024 236.039 166.669 235.748 166.436 235.41C166.208 235.072 166.095 234.67 166.095 234.204C166.095 233.428 166.421 232.773 167.074 232.236C167.733 231.7 168.572 231.432 169.592 231.432C170.664 231.432 171.533 231.709 172.197 232.263C172.867 232.816 173.202 233.525 173.202 234.387H171.576C171.576 233.944 171.387 233.562 171.008 233.242C170.635 232.921 170.163 232.761 169.592 232.761C169.003 232.761 168.543 232.889 168.211 233.146C167.878 233.402 167.712 233.737 167.712 234.151C167.712 234.542 167.867 234.836 168.176 235.034C168.484 235.232 169.041 235.422 169.845 235.602C170.656 235.783 171.311 235.999 171.812 236.249C172.314 236.5 172.684 236.803 172.923 237.159C173.168 237.508 173.29 237.937 173.29 238.444C173.29 239.289 172.952 239.968 172.276 240.481C171.6 240.988 170.723 241.241 169.644 241.241C168.887 241.241 168.216 241.107 167.634 240.839C167.051 240.571 166.593 240.198 166.261 239.72C165.935 239.236 165.771 238.715 165.771 238.155H167.389C167.418 238.697 167.634 239.128 168.036 239.449C168.444 239.764 168.98 239.921 169.644 239.921C170.256 239.921 170.746 239.799 171.113 239.554C171.486 239.303 171.673 238.971 171.673 238.557Z" fill="#121212"/>
<rect x="152.142" y="81.292" width="54.6243" height="97.9769" rx="10.2312" transform="rotate(90 152.142 81.292)" fill="#575A60"/>
<rect x="149.542" y="83.8936" width="49.422" height="92.7746" rx="6.39451" transform="rotate(90 149.542 83.8936)" fill="white"/>
<path d="M79.3094 86.4941L79.3094 130.714L63.204 130.714C61.085 130.714 59.3672 128.996 59.3672 126.877L59.3673 90.3308C59.3673 88.2119 61.085 86.4941 63.204 86.4941L79.3094 86.4941Z" fill="#FFAE10"/>
<path d="M101.855 86.4941L101.855 130.714L81.9129 130.714L81.9129 86.4941L101.855 86.4941Z" fill="#FFAE10"/>
<path d="M152.641 97.7666C154.76 97.7666 156.478 99.4844 156.478 101.603L156.478 115.606C156.478 117.725 154.76 119.443 152.641 119.443L149.542 119.443L149.542 97.7666L152.641 97.7666Z" fill="#575A60"/>
<defs>
<filter id="filter0_d" x="0.452357" y="0.721098" width="209.74" height="269.848" filterUnits="userSpaceOnUse" color-interpolation-filters="sRGB">
<feFlood flood-opacity="0" result="BackgroundImageFix"/>
<feColorMatrix in="SourceAlpha" type="matrix" values="0 0 0 0 0 0 0 0 0 0 0 0 0 0 0 0 0 0 127 0"/>
<feOffset dy="2.5578"/>
<feGaussianBlur stdDeviation="1.91835"/>
<feColorMatrix type="matrix" values="0 0 0 0 0 0 0 0 0 0 0 0 0 0 0 0 0 0 0.1 0"/>
<feBlend mode="normal" in2="BackgroundImageFix" result="effect1_dropShadow"/>
<feBlend mode="normal" in="SourceGraphic" in2="effect1_dropShadow" result="shape"/>
</filter>
</defs>
</svg>
