<svg width="210" height="271" viewBox="0 0 210 271" fill="none" xmlns="http://www.w3.org/2000/svg">
<g filter="url(#filter0_d)">
<path fill-rule="evenodd" clip-rule="evenodd" d="M4 5.8367C4 3.71775 5.71775 2 7.83671 2H202.23C204.349 2 206.066 3.71775 206.066 5.83671V260.338C206.066 262.457 204.349 264.175 202.23 264.175H7.8367C5.71774 264.175 4 262.457 4 260.338L4 5.8367Z" fill="white"/>
<path d="M4.5 5.8367C4.5 3.99389 5.99389 2.5 7.83671 2.5H202.23C204.073 2.5 205.566 3.99389 205.566 5.83671V260.338C205.566 262.181 204.073 263.675 202.23 263.675H7.8367C5.99389 263.675 4.5 262.181 4.5 260.338V5.8367Z" stroke="#E1E1E1"/>
</g>
<path d="M37.701 33.5784H34.8835V39.1836H32.3556V24.6361H37.4712C39.1498 24.6361 40.4453 25.0124 41.3579 25.7651C42.2704 26.5178 42.7267 27.6069 42.7267 29.0323C42.7267 30.0048 42.4903 30.8208 42.0173 31.4802C41.5511 32.133 40.8983 32.6359 40.059 32.9889L43.3262 39.0537V39.1836H40.6185L37.701 33.5784ZM34.8835 31.5501H37.4812C38.3338 31.5501 38.9999 31.337 39.4795 30.9107C39.9591 30.4777 40.1989 29.8882 40.1989 29.1422C40.1989 28.3629 39.9757 27.7601 39.5295 27.3338C39.0898 26.9075 38.4304 26.6877 37.5512 26.6743H34.8835V31.5501ZM49.9065 39.3834C48.3679 39.3834 47.1189 38.9005 46.1598 37.9347C45.2073 36.9622 44.731 35.6699 44.731 34.058V33.7583C44.731 32.6792 44.9375 31.7167 45.3505 30.8707C45.7701 30.0181 46.3563 29.3554 47.109 28.8824C47.8616 28.4095 48.7009 28.173 49.6268 28.173C51.0989 28.173 52.2346 28.6426 53.0339 29.5818C53.8398 30.521 54.2428 31.8499 54.2428 33.5684V34.5476H47.1789C47.2522 35.4401 47.5486 36.1462 48.0681 36.6658C48.5943 37.1853 49.2538 37.4451 50.0464 37.4451C51.1588 37.4451 52.0647 36.9955 52.7641 36.0962L54.073 37.3452C53.64 37.9913 53.0605 38.4942 52.3345 38.8539C51.6151 39.2069 50.8058 39.3834 49.9065 39.3834ZM49.6168 30.1214C48.9507 30.1214 48.4112 30.3545 47.9982 30.8208C47.5919 31.287 47.3321 31.9365 47.2189 32.7691H51.8449V32.5893C51.7916 31.7766 51.5751 31.1638 51.1954 30.7508C50.8158 30.3312 50.2896 30.1214 49.6168 30.1214ZM60.8332 37.4451C61.4393 37.4451 61.9422 37.2686 62.3419 36.9155C62.7415 36.5625 62.9547 36.1262 62.9813 35.6067H65.2694C65.2427 36.2794 65.0329 36.9089 64.6399 37.495C64.2469 38.0745 63.714 38.5342 63.0413 38.8739C62.3685 39.2136 61.6425 39.3834 60.8631 39.3834C59.3511 39.3834 58.1521 38.8938 57.2662 37.9147C56.3803 36.9355 55.9374 35.5834 55.9374 33.8582V33.6084C55.9374 31.9631 56.377 30.6476 57.2562 29.6618C58.1355 28.6693 59.3345 28.173 60.8531 28.173C62.1387 28.173 63.1845 28.5494 63.9905 29.3021C64.8031 30.0481 65.2294 31.0306 65.2694 32.2495H62.9813C62.9547 31.6301 62.7415 31.1205 62.3419 30.7209C61.9489 30.3212 61.446 30.1214 60.8332 30.1214C60.0472 30.1214 59.441 30.4078 59.0147 30.9806C58.5884 31.5468 58.3719 32.4094 58.3653 33.5684V33.9581C58.3653 35.1304 58.5751 36.0063 58.9947 36.5858C59.421 37.1587 60.0339 37.4451 60.8332 37.4451ZM66.904 33.6783C66.904 32.6192 67.1138 31.6667 67.5334 30.8208C67.9531 29.9682 68.5425 29.3154 69.3019 28.8625C70.0612 28.4029 70.9338 28.173 71.9196 28.173C73.3784 28.173 74.5607 28.6426 75.4666 29.5818C76.3791 30.521 76.8721 31.7666 76.9453 33.3186L76.9553 33.8881C76.9553 34.9539 76.7488 35.9064 76.3359 36.7457C75.9295 37.585 75.3434 38.2344 74.5774 38.694C73.818 39.1536 72.9388 39.3834 71.9396 39.3834C70.4143 39.3834 69.192 38.8772 68.2728 37.8647C67.3602 36.8456 66.904 35.4901 66.904 33.7982V33.6783ZM69.3319 33.8881C69.3319 35.0005 69.5617 35.8731 70.0213 36.5059C70.4809 37.132 71.1203 37.4451 71.9396 37.4451C72.7589 37.4451 73.395 37.1254 73.848 36.4859C74.3076 35.8465 74.5374 34.9106 74.5374 33.6783C74.5374 32.5859 74.3009 31.72 73.828 31.0806C73.3617 30.4411 72.7256 30.1214 71.9196 30.1214C71.127 30.1214 70.4975 30.4378 70.0313 31.0706C69.565 31.6967 69.3319 32.6359 69.3319 33.8881ZM82.9162 36.1062L85.2042 28.3729H87.7121L83.9653 39.1836H81.8571L78.0804 28.3729H80.5982L82.9162 36.1062ZM94.1126 39.3834C92.5739 39.3834 91.325 38.9005 90.3658 37.9347C89.4133 36.9622 88.937 35.6699 88.937 34.058V33.7583C88.937 32.6792 89.1435 31.7167 89.5565 30.8707C89.9761 30.0181 90.5623 29.3554 91.315 28.8824C92.0677 28.4095 92.907 28.173 93.8328 28.173C95.3049 28.173 96.4406 28.6426 97.2399 29.5818C98.0459 30.521 98.4489 31.8499 98.4489 33.5684V34.5476H91.3849C91.4582 35.4401 91.7546 36.1462 92.2742 36.6658C92.8004 37.1853 93.4598 37.4451 94.2525 37.4451C95.3648 37.4451 96.2707 36.9955 96.9701 36.0962L98.279 37.3452C97.846 37.9913 97.2665 38.4942 96.5405 38.8539C95.8211 39.2069 95.0118 39.3834 94.1126 39.3834ZM93.8228 30.1214C93.1567 30.1214 92.6172 30.3545 92.2042 30.8208C91.7979 31.287 91.5381 31.9365 91.4249 32.7691H96.0509V32.5893C95.9976 31.7766 95.7812 31.1638 95.4015 30.7508C95.0218 30.3312 94.4956 30.1214 93.8228 30.1214ZM106.258 30.591C105.938 30.5377 105.609 30.511 105.269 30.511C104.157 30.511 103.407 30.9373 103.021 31.7899V39.1836H100.593V28.3729H102.911L102.971 29.5818C103.557 28.6426 104.37 28.173 105.409 28.173C105.755 28.173 106.042 28.2197 106.268 28.3129L106.258 30.591ZM112.009 35.7066L114.207 28.3729H116.795L112.499 40.8222C111.839 42.6406 110.72 43.5498 109.142 43.5498C108.789 43.5498 108.399 43.4899 107.973 43.37V41.4916L108.432 41.5216C109.045 41.5216 109.505 41.4083 109.811 41.1819C110.124 40.9621 110.371 40.5891 110.55 40.0628L110.9 39.1336L107.103 28.3729H109.721L112.009 35.7066ZM130.266 39.1836C130.159 38.9771 130.066 38.6407 129.986 38.1745C129.213 38.9804 128.267 39.3834 127.148 39.3834C126.062 39.3834 125.177 39.0737 124.491 38.4542C123.804 37.8348 123.461 37.0687 123.461 36.1562C123.461 35.0038 123.888 34.1213 124.74 33.5085C125.6 32.889 126.825 32.5793 128.417 32.5793H129.906V31.8699C129.906 31.3104 129.749 30.8641 129.436 30.531C129.123 30.1913 128.647 30.0215 128.007 30.0215C127.455 30.0215 127.002 30.1613 126.649 30.4411C126.296 30.7142 126.119 31.0639 126.119 31.4902H123.691C123.691 30.8974 123.888 30.3445 124.281 29.8316C124.674 29.3121 125.207 28.9058 125.879 28.6127C126.559 28.3196 127.315 28.173 128.147 28.173C129.413 28.173 130.422 28.4928 131.175 29.1322C131.927 29.765 132.314 30.6576 132.334 31.8099V36.6857C132.334 37.6582 132.47 38.4342 132.743 39.0137V39.1836H130.266ZM127.598 37.4351C128.077 37.4351 128.527 37.3185 128.947 37.0854C129.373 36.8523 129.693 36.5392 129.906 36.1462V34.108H128.597C127.698 34.108 127.022 34.2645 126.569 34.5775C126.116 34.8906 125.889 35.3336 125.889 35.9064C125.889 36.3727 126.043 36.7457 126.349 37.0254C126.662 37.2985 127.078 37.4351 127.598 37.4351ZM144.619 33.8881C144.619 35.5667 144.243 36.9022 143.49 37.8947C142.744 38.8872 141.715 39.3834 140.403 39.3834C139.137 39.3834 138.151 38.9271 137.445 38.0146L137.325 39.1836H135.127V23.8368H137.555V29.412C138.255 28.586 139.197 28.173 140.383 28.173C141.702 28.173 142.737 28.6626 143.49 29.6418C144.243 30.6209 144.619 31.9898 144.619 33.7483V33.8881ZM142.191 33.6783C142.191 32.506 141.985 31.6268 141.572 31.0406C141.159 30.4544 140.559 30.1613 139.773 30.1613C138.721 30.1613 137.982 30.6209 137.555 31.5402V35.9963C137.988 36.9355 138.734 37.4051 139.793 37.4051C140.553 37.4051 141.139 37.122 141.552 36.5559C141.965 35.9897 142.178 35.1337 142.191 33.9881V33.6783ZM149.501 39.1836H147.073V28.3729H149.501V39.1836ZM146.923 25.5653C146.923 25.1923 147.04 24.8825 147.273 24.6361C147.513 24.3896 147.852 24.2664 148.292 24.2664C148.732 24.2664 149.071 24.3896 149.311 24.6361C149.551 24.8825 149.671 25.1923 149.671 25.5653C149.671 25.9316 149.551 26.238 149.311 26.4845C149.071 26.7243 148.732 26.8442 148.292 26.8442C147.852 26.8442 147.513 26.7243 147.273 26.4845C147.04 26.238 146.923 25.9316 146.923 25.5653ZM154.992 39.1836H152.564V23.8368H154.992V39.1836ZM160.484 39.1836H158.056V28.3729H160.484V39.1836ZM157.906 25.5653C157.906 25.1923 158.022 24.8825 158.256 24.6361C158.495 24.3896 158.835 24.2664 159.275 24.2664C159.714 24.2664 160.054 24.3896 160.294 24.6361C160.534 24.8825 160.653 25.1923 160.653 25.5653C160.653 25.9316 160.534 26.238 160.294 26.4845C160.054 26.7243 159.714 26.8442 159.275 26.8442C158.835 26.8442 158.495 26.7243 158.256 26.4845C158.022 26.238 157.906 25.9316 157.906 25.5653ZM166.434 25.7451V28.3729H168.343V30.1713H166.434V36.2062C166.434 36.6191 166.514 36.9189 166.674 37.1054C166.841 37.2852 167.134 37.3751 167.554 37.3751C167.833 37.3751 168.116 37.3418 168.403 37.2752V39.1536C167.85 39.3068 167.317 39.3834 166.804 39.3834C164.939 39.3834 164.007 38.3543 164.007 36.2961V30.1713H162.228V28.3729H164.007V25.7451H166.434ZM174.244 35.7066L176.442 28.3729H179.03L174.733 40.8222C174.074 42.6406 172.955 43.5498 171.376 43.5498C171.023 43.5498 170.634 43.4899 170.207 43.37V41.4916L170.667 41.5216C171.28 41.5216 171.739 41.4083 172.046 41.1819C172.359 40.9621 172.605 40.5891 172.785 40.0628L173.135 39.1336L169.338 28.3729H171.956L174.244 35.7066Z" fill="#121212"/>
<rect x="37.2515" y="165.699" width="135.564" height="25.578" rx="12.789" fill="#31BFDE"/>
<path d="M76.0706 178.932H70.5541V183.443H76.9624V184.815H68.8756V172.086H76.8749V173.468H70.5541V177.559H76.0706V178.932ZM82.4194 178.809L84.5176 175.356H86.406L83.3112 180.033L86.5022 184.815H84.6313L82.4456 181.275L80.26 184.815H78.3804L81.5714 180.033L78.4766 175.356H80.3474L82.4194 178.809ZM92.1953 183.67C92.7723 183.67 93.2764 183.495 93.7077 183.146C94.139 182.796 94.378 182.359 94.4246 181.834H95.9545C95.9254 182.376 95.7389 182.892 95.395 183.382C95.0512 183.871 94.5907 184.262 94.0137 184.553C93.4425 184.845 92.8364 184.99 92.1953 184.99C90.9072 184.99 89.8814 184.562 89.1179 183.705C88.3602 182.843 87.9814 181.665 87.9814 180.173V179.902C87.9814 178.981 88.1504 178.162 88.4885 177.446C88.8265 176.729 89.3103 176.172 89.9397 175.776C90.575 175.379 91.3239 175.181 92.1865 175.181C93.2473 175.181 94.1274 175.499 94.8268 176.134C95.532 176.769 95.9079 177.594 95.9545 178.608H94.4246C94.378 177.996 94.1448 177.495 93.7252 177.105C93.3114 176.708 92.7985 176.51 92.1865 176.51C91.3647 176.51 90.7265 176.807 90.2719 177.402C89.8231 177.99 89.5988 178.844 89.5988 179.963V180.269C89.5988 181.359 89.8231 182.199 90.2719 182.787C90.7207 183.376 91.3618 183.67 92.1953 183.67ZM102.146 184.99C100.864 184.99 99.8205 184.571 99.0162 183.731C98.2119 182.886 97.8097 181.758 97.8097 180.348V180.051C97.8097 179.112 97.9875 178.276 98.343 177.542C98.7044 176.801 99.2056 176.224 99.8467 175.811C100.494 175.391 101.193 175.181 101.945 175.181C103.175 175.181 104.131 175.586 104.812 176.396C105.494 177.207 105.835 178.366 105.835 179.876V180.549H99.4271C99.4504 181.482 99.7214 182.236 100.24 182.813C100.765 183.385 101.429 183.67 102.233 183.67C102.805 183.67 103.288 183.554 103.685 183.32C104.081 183.087 104.428 182.778 104.725 182.394L105.713 183.163C104.92 184.381 103.731 184.99 102.146 184.99ZM101.945 176.51C101.292 176.51 100.744 176.749 100.301 177.227C99.8584 177.699 99.5844 178.363 99.4795 179.22H104.218V179.098C104.171 178.276 103.95 177.641 103.554 177.192C103.157 176.737 102.621 176.51 101.945 176.51ZM109.92 184.815H108.302V171.387H109.92V184.815ZM114.721 184.815H113.104V171.387H114.721V184.815ZM121.691 184.99C120.408 184.99 119.365 184.571 118.561 183.731C117.757 182.886 117.354 181.758 117.354 180.348V180.051C117.354 179.112 117.532 178.276 117.888 177.542C118.249 176.801 118.75 176.224 119.391 175.811C120.038 175.391 120.738 175.181 121.49 175.181C122.719 175.181 123.675 175.586 124.357 176.396C125.039 177.207 125.38 178.366 125.38 179.876V180.549H118.972C118.995 181.482 119.266 182.236 119.785 182.813C120.309 183.385 120.974 183.67 121.778 183.67C122.349 183.67 122.833 183.554 123.229 183.32C123.626 183.087 123.972 182.778 124.27 182.394L125.258 183.163C124.465 184.381 123.276 184.99 121.691 184.99ZM121.49 176.51C120.837 176.51 120.289 176.749 119.846 177.227C119.403 177.699 119.129 178.363 119.024 179.22H123.763V179.098C123.716 178.276 123.495 177.641 123.098 177.192C122.702 176.737 122.166 176.51 121.49 176.51ZM129.237 175.356L129.29 176.545C130.012 175.636 130.957 175.181 132.122 175.181C134.121 175.181 135.13 176.309 135.147 178.565V184.815H133.53V178.556C133.524 177.874 133.367 177.37 133.058 177.043C132.755 176.717 132.28 176.554 131.633 176.554C131.108 176.554 130.648 176.694 130.251 176.973C129.855 177.253 129.546 177.62 129.325 178.075V184.815H127.707V175.356H129.237ZM140.228 173.066V175.356H141.994V176.606H140.228V182.472C140.228 182.851 140.307 183.137 140.464 183.329C140.622 183.516 140.89 183.609 141.269 183.609C141.455 183.609 141.712 183.574 142.038 183.504V184.815C141.613 184.932 141.199 184.99 140.797 184.99C140.074 184.99 139.529 184.772 139.162 184.335C138.795 183.897 138.611 183.277 138.611 182.472V176.606H136.889V175.356H138.611V173.066H140.228Z" fill="white"/>
<path d="M51.0326 213.728L54.3547 207.337H56.2606L51.8719 215.319V220.066H50.1933V215.319L45.8046 207.337H47.7279L51.0326 213.728ZM57.0929 215.249C57.0929 214.323 57.2736 213.489 57.6349 212.749C58.0021 212.009 58.5092 211.438 59.1561 211.035C59.8089 210.633 60.552 210.432 61.3854 210.432C62.6735 210.432 63.7139 210.878 64.5065 211.77C65.305 212.662 65.7042 213.848 65.7042 215.328V215.442C65.7042 216.363 65.5265 217.19 65.1709 217.924C64.8212 218.653 64.3171 219.221 63.6585 219.629C63.0057 220.037 62.2539 220.241 61.4029 220.241C60.1207 220.241 59.0803 219.795 58.2819 218.904C57.4892 218.012 57.0929 216.832 57.0929 215.363V215.249ZM58.719 215.442C58.719 216.491 58.9609 217.333 59.4446 217.968C59.9342 218.603 60.587 218.921 61.4029 218.921C62.2247 218.921 62.8775 218.601 63.3612 217.959C63.845 217.313 64.0869 216.409 64.0869 215.249C64.0869 214.212 63.8392 213.373 63.3438 212.731C62.8542 212.085 62.2014 211.761 61.3854 211.761C60.587 211.761 59.9429 212.079 59.4534 212.714C58.9638 213.349 58.719 214.258 58.719 215.442ZM74.0201 219.131C73.3906 219.871 72.4668 220.241 71.2487 220.241C70.2404 220.241 69.4711 219.95 68.9407 219.367C68.4162 218.778 68.151 217.91 68.1451 216.762V210.607H69.7625V216.718C69.7625 218.152 70.3453 218.869 71.511 218.869C72.7466 218.869 73.5684 218.408 73.9764 217.487V210.607H75.5937V220.066H74.0551L74.0201 219.131ZM83.0791 212.058C82.8343 212.017 82.5691 211.997 82.2835 211.997C81.2227 211.997 80.5029 212.449 80.1241 213.352V220.066H78.5067V210.607H80.0804L80.1066 211.7C80.637 210.855 81.3888 210.432 82.3622 210.432C82.6769 210.432 82.9159 210.473 83.0791 210.555V212.058ZM97.9186 215.442C97.9186 216.887 97.5863 218.05 96.9219 218.93C96.2575 219.804 95.3658 220.241 94.2467 220.241C93.0519 220.241 92.1281 219.819 91.4753 218.974L91.3967 220.066H89.9104V206.638H91.5278V211.647C92.1806 210.837 93.0811 210.432 94.2292 210.432C95.3774 210.432 96.2779 210.866 96.9307 211.735C97.5893 212.603 97.9186 213.792 97.9186 215.302V215.442ZM96.3012 215.258C96.3012 214.156 96.0885 213.306 95.663 212.705C95.2375 212.105 94.6256 211.805 93.8271 211.805C92.7605 211.805 91.9941 212.3 91.5278 213.291V217.382C92.0232 218.373 92.7955 218.869 93.8446 218.869C94.6197 218.869 95.223 218.569 95.6543 217.968C96.0856 217.368 96.3012 216.464 96.3012 215.258ZM99.9835 215.249C99.9835 214.323 100.164 213.489 100.526 212.749C100.893 212.009 101.4 211.438 102.047 211.035C102.7 210.633 103.443 210.432 104.276 210.432C105.564 210.432 106.605 210.878 107.397 211.77C108.196 212.662 108.595 213.848 108.595 215.328V215.442C108.595 216.363 108.417 217.19 108.062 217.924C107.712 218.653 107.208 219.221 106.549 219.629C105.896 220.037 105.145 220.241 104.294 220.241C103.011 220.241 101.971 219.795 101.173 218.904C100.38 218.012 99.9835 216.832 99.9835 215.363V215.249ZM101.61 215.442C101.61 216.491 101.852 217.333 102.335 217.968C102.825 218.603 103.478 218.921 104.294 218.921C105.115 218.921 105.768 218.601 106.252 217.959C106.736 217.313 106.978 216.409 106.978 215.249C106.978 214.212 106.73 213.373 106.234 212.731C105.745 212.085 105.092 211.761 104.276 211.761C103.478 211.761 102.834 212.079 102.344 212.714C101.854 213.349 101.61 214.258 101.61 215.442ZM110.677 215.258C110.677 213.807 111.021 212.641 111.709 211.761C112.397 210.875 113.297 210.432 114.41 210.432C115.518 210.432 116.395 210.811 117.042 211.569V206.638H118.659V220.066H117.173L117.094 219.052C116.447 219.845 115.547 220.241 114.393 220.241C113.297 220.241 112.403 219.792 111.709 218.895C111.021 217.997 110.677 216.826 110.677 215.38V215.258ZM112.295 215.442C112.295 216.514 112.516 217.353 112.959 217.959C113.402 218.566 114.014 218.869 114.795 218.869C115.821 218.869 116.57 218.408 117.042 217.487V213.142C116.558 212.251 115.815 211.805 114.813 211.805C114.02 211.805 113.402 212.111 112.959 212.723C112.516 213.335 112.295 214.241 112.295 215.442ZM124.72 217.697L126.923 210.607H128.654L124.851 221.526C124.262 223.1 123.327 223.887 122.044 223.887L121.738 223.861L121.135 223.747V222.436L121.572 222.471C122.12 222.471 122.546 222.36 122.849 222.138C123.158 221.917 123.411 221.512 123.609 220.923L123.968 219.961L120.593 210.607H122.359L124.72 217.697ZM137.059 211.752C137.776 210.872 138.708 210.432 139.856 210.432C141.855 210.432 142.864 211.56 142.881 213.816V220.066H141.264V213.807C141.258 213.125 141.101 212.621 140.792 212.294C140.489 211.968 140.014 211.805 139.367 211.805C138.842 211.805 138.382 211.945 137.985 212.224C137.589 212.504 137.28 212.871 137.059 213.326V220.066H135.441V206.638H137.059V211.752ZM151.59 220.066C151.497 219.88 151.421 219.548 151.363 219.07C150.611 219.851 149.714 220.241 148.67 220.241C147.738 220.241 146.972 219.979 146.371 219.454C145.777 218.924 145.479 218.254 145.479 217.444C145.479 216.459 145.852 215.695 146.599 215.153C147.35 214.605 148.405 214.331 149.763 214.331H151.337V213.588C151.337 213.023 151.168 212.574 150.83 212.242C150.492 211.904 149.994 211.735 149.335 211.735C148.758 211.735 148.274 211.881 147.884 212.172C147.493 212.463 147.298 212.816 147.298 213.23H145.672C145.672 212.758 145.838 212.303 146.17 211.866C146.508 211.423 146.963 211.073 147.534 210.817C148.111 210.56 148.743 210.432 149.431 210.432C150.521 210.432 151.375 210.706 151.993 211.254C152.61 211.796 152.931 212.545 152.954 213.501V217.855C152.954 218.723 153.065 219.414 153.287 219.927V220.066H151.59ZM148.907 218.834C149.414 218.834 149.894 218.703 150.349 218.44C150.804 218.178 151.133 217.837 151.337 217.417V215.477H150.069C148.088 215.477 147.097 216.057 147.097 217.216C147.097 217.723 147.266 218.12 147.604 218.405C147.942 218.691 148.376 218.834 148.907 218.834ZM161.445 217.557C161.445 217.12 161.279 216.782 160.947 216.543C160.62 216.298 160.046 216.089 159.224 215.914C158.408 215.739 157.759 215.529 157.275 215.284C156.797 215.039 156.441 214.748 156.208 214.41C155.981 214.072 155.867 213.67 155.867 213.204C155.867 212.428 156.194 211.773 156.846 211.236C157.505 210.7 158.344 210.432 159.364 210.432C160.437 210.432 161.305 210.709 161.97 211.263C162.64 211.816 162.975 212.525 162.975 213.387H161.349C161.349 212.944 161.159 212.562 160.781 212.242C160.408 211.921 159.935 211.761 159.364 211.761C158.776 211.761 158.315 211.889 157.983 212.146C157.651 212.402 157.485 212.737 157.485 213.151C157.485 213.542 157.639 213.836 157.948 214.034C158.257 214.232 158.814 214.422 159.618 214.602C160.428 214.783 161.084 214.999 161.585 215.249C162.086 215.5 162.456 215.803 162.695 216.159C162.94 216.508 163.062 216.937 163.062 217.444C163.062 218.289 162.724 218.968 162.048 219.481C161.372 219.988 160.495 220.241 159.417 220.241C158.659 220.241 157.989 220.107 157.406 219.839C156.823 219.571 156.366 219.198 156.033 218.72C155.707 218.236 155.544 217.715 155.544 217.155H157.161C157.19 217.697 157.406 218.128 157.808 218.449C158.216 218.764 158.752 218.921 159.417 218.921C160.029 218.921 160.518 218.799 160.885 218.554C161.258 218.303 161.445 217.971 161.445 217.557ZM34.2732 238.557C34.2732 238.12 34.1071 237.782 33.7749 237.543C33.4485 237.298 32.8744 237.089 32.0526 236.914C31.2367 236.739 30.5868 236.529 30.1031 236.284C29.6251 236.039 29.2696 235.748 29.0365 235.41C28.8092 235.072 28.6955 234.67 28.6955 234.204C28.6955 233.428 29.0219 232.773 29.6747 232.236C30.3333 231.7 31.1726 231.432 32.1925 231.432C33.2649 231.432 34.1334 231.709 34.7978 232.263C35.468 232.816 35.8032 233.525 35.8032 234.387H34.1771C34.1771 233.944 33.9876 233.562 33.6088 233.242C33.2358 232.921 32.7637 232.761 32.1925 232.761C31.6039 232.761 31.1434 232.889 30.8112 233.146C30.479 233.402 30.3129 233.737 30.3129 234.151C30.3129 234.542 30.4673 234.836 30.7762 235.034C31.0851 235.232 31.6417 235.422 32.446 235.602C33.2562 235.783 33.9119 235.999 34.4131 236.249C34.9143 236.5 35.2844 236.803 35.5234 237.159C35.7682 237.508 35.8906 237.937 35.8906 238.444C35.8906 239.289 35.5525 239.968 34.8765 240.481C34.2004 240.988 33.3232 241.241 32.245 241.241C31.4873 241.241 30.817 241.107 30.2342 240.839C29.6514 240.571 29.1938 240.198 28.8616 239.72C28.5352 239.236 28.372 238.715 28.372 238.155H29.9894C30.0186 238.697 30.2342 239.128 30.6364 239.449C31.0443 239.764 31.5805 239.921 32.245 239.921C32.8569 239.921 33.3465 239.799 33.7137 239.554C34.0867 239.303 34.2732 238.971 34.2732 238.557ZM44.2851 240.131C43.6557 240.871 42.7319 241.241 41.5138 241.241C40.5055 241.241 39.7361 240.95 39.2057 240.367C38.6812 239.778 38.416 238.91 38.4102 237.762V231.607H40.0275V237.718C40.0275 239.152 40.6104 239.869 41.776 239.869C43.0116 239.869 43.8334 239.408 44.2414 238.487V231.607H45.8588V241.066H44.3201L44.2851 240.131ZM49.5673 241.066V232.857H48.0724V231.607H49.5673V230.637C49.5673 229.622 49.8384 228.839 50.3804 228.285C50.9224 227.731 51.6889 227.454 52.6797 227.454C53.0527 227.454 53.4228 227.504 53.79 227.603L53.7025 228.914C53.4286 228.862 53.1372 228.836 52.8283 228.836C52.3037 228.836 51.8987 228.99 51.6131 229.299C51.3275 229.602 51.1847 230.039 51.1847 230.61V231.607H53.2042V232.857H51.1847V241.066H49.5673ZM56.2396 241.066V232.857H54.7446V231.607H56.2396V230.637C56.2396 229.622 56.5106 228.839 57.0527 228.285C57.5947 227.731 58.3611 227.454 59.3519 227.454C59.725 227.454 60.0951 227.504 60.4622 227.603L60.3748 228.914C60.1009 228.862 59.8095 228.836 59.5006 228.836C58.976 228.836 58.5709 228.99 58.2854 229.299C57.9998 229.602 57.857 230.039 57.857 230.61V231.607H59.8765V232.857H57.857V241.066H56.2396ZM63.8736 241.066H62.2562V231.607H63.8736V241.066ZM62.1251 229.098C62.1251 228.836 62.2037 228.614 62.3611 228.434C62.5243 228.253 62.7633 228.162 63.078 228.162C63.3927 228.162 63.6317 228.253 63.7949 228.434C63.9581 228.614 64.0397 228.836 64.0397 229.098C64.0397 229.36 63.9581 229.579 63.7949 229.754C63.6317 229.928 63.3927 230.016 63.078 230.016C62.7633 230.016 62.5243 229.928 62.3611 229.754C62.2037 229.579 62.1251 229.36 62.1251 229.098ZM70.7119 239.921C71.2889 239.921 71.7931 239.746 72.2244 239.397C72.6557 239.047 72.8946 238.61 72.9413 238.085H74.4712C74.4421 238.627 74.2556 239.143 73.9117 239.633C73.5678 240.122 73.1074 240.513 72.5304 240.804C71.9592 241.096 71.3531 241.241 70.7119 241.241C69.4239 241.241 68.3981 240.813 67.6346 239.956C66.8769 239.094 66.4981 237.916 66.4981 236.424V236.153C66.4981 235.232 66.6671 234.413 67.0051 233.696C67.3432 232.98 67.8269 232.423 68.4564 232.027C69.0917 231.63 69.8406 231.432 70.7032 231.432C71.7639 231.432 72.644 231.75 73.3434 232.385C74.0487 233.02 74.4246 233.845 74.4712 234.859H72.9413C72.8946 234.247 72.6615 233.746 72.2419 233.356C71.8281 232.959 71.3152 232.761 70.7032 232.761C69.8814 232.761 69.2432 233.058 68.7886 233.653C68.3398 234.241 68.1154 235.095 68.1154 236.214V236.52C68.1154 237.61 68.3398 238.449 68.7886 239.038C69.2374 239.627 69.8785 239.921 70.7119 239.921ZM78.4945 241.066H76.8771V231.607H78.4945V241.066ZM76.746 229.098C76.746 228.836 76.8247 228.614 76.9821 228.434C77.1452 228.253 77.3842 228.162 77.6989 228.162C78.0137 228.162 78.2526 228.253 78.4158 228.434C78.579 228.614 78.6606 228.836 78.6606 229.098C78.6606 229.36 78.579 229.579 78.4158 229.754C78.2526 229.928 78.0137 230.016 77.6989 230.016C77.3842 230.016 77.1452 229.928 76.9821 229.754C76.8247 229.579 76.746 229.36 76.746 229.098ZM85.464 241.241C84.1818 241.241 83.1385 240.822 82.3342 239.982C81.5299 239.137 81.1277 238.009 81.1277 236.599V236.302C81.1277 235.363 81.3055 234.527 81.661 233.793C82.0224 233.052 82.5236 232.475 83.1647 232.062C83.8117 231.642 84.5111 231.432 85.2629 231.432C86.4927 231.432 87.4486 231.837 88.1305 232.647C88.8124 233.458 89.1533 234.617 89.1533 236.127V236.8H82.7451C82.7684 237.733 83.0394 238.487 83.5582 239.064C84.0827 239.636 84.7471 239.921 85.5514 239.921C86.1226 239.921 86.6064 239.805 87.0027 239.571C87.399 239.338 87.7458 239.029 88.0431 238.645L89.031 239.414C88.2383 240.632 87.0493 241.241 85.464 241.241ZM85.2629 232.761C84.6102 232.761 84.0623 233 83.6194 233.478C83.1764 233.95 82.9025 234.614 82.7976 235.471H87.536V235.349C87.4894 234.527 87.2679 233.892 86.8716 233.443C86.4752 232.988 85.939 232.761 85.2629 232.761ZM93.0105 231.607L93.063 232.796C93.7857 231.887 94.7299 231.432 95.8956 231.432C97.8947 231.432 98.903 232.56 98.9205 234.816V241.066H97.3031V234.807C97.2973 234.125 97.1399 233.621 96.831 233.294C96.5279 232.968 96.0529 232.805 95.406 232.805C94.8814 232.805 94.421 232.945 94.0247 233.224C93.6283 233.504 93.3194 233.871 93.098 234.326V241.066H91.4806V231.607H93.0105ZM104.002 229.316V231.607H105.768V232.857H104.002V238.723C104.002 239.102 104.08 239.388 104.238 239.58C104.395 239.767 104.663 239.86 105.042 239.86C105.228 239.86 105.485 239.825 105.811 239.755V241.066C105.386 241.183 104.972 241.241 104.57 241.241C103.847 241.241 103.302 241.023 102.935 240.586C102.568 240.148 102.384 239.528 102.384 238.723V232.857H100.662V231.607H102.384V229.316H104.002ZM117.573 233.058C117.329 233.017 117.063 232.997 116.778 232.997C115.717 232.997 114.997 233.449 114.618 234.352V241.066H113.001V231.607H114.575L114.601 232.7C115.131 231.855 115.883 231.432 116.857 231.432C117.171 231.432 117.41 231.473 117.573 231.555V233.058ZM123.267 241.241C121.984 241.241 120.941 240.822 120.137 239.982C119.332 239.137 118.93 238.009 118.93 236.599V236.302C118.93 235.363 119.108 234.527 119.464 233.793C119.825 233.052 120.326 232.475 120.967 232.062C121.614 231.642 122.314 231.432 123.065 231.432C124.295 231.432 125.251 231.837 125.933 232.647C126.615 233.458 126.956 234.617 126.956 236.127V236.8H120.548C120.571 237.733 120.842 238.487 121.361 239.064C121.885 239.636 122.55 239.921 123.354 239.921C123.925 239.921 124.409 239.805 124.805 239.571C125.202 239.338 125.548 239.029 125.846 238.645L126.833 239.414C126.041 240.632 124.852 241.241 123.267 241.241ZM123.065 232.761C122.413 232.761 121.865 233 121.422 233.478C120.979 233.95 120.705 234.614 120.6 235.471H125.339V235.349C125.292 234.527 125.07 233.892 124.674 233.443C124.278 232.988 123.742 232.761 123.065 232.761ZM134.791 238.557C134.791 238.12 134.625 237.782 134.293 237.543C133.966 237.298 133.392 237.089 132.57 236.914C131.754 236.739 131.104 236.529 130.621 236.284C130.143 236.039 129.787 235.748 129.554 235.41C129.327 235.072 129.213 234.67 129.213 234.204C129.213 233.428 129.54 232.773 130.192 232.236C130.851 231.7 131.69 231.432 132.71 231.432C133.783 231.432 134.651 231.709 135.315 232.263C135.986 232.816 136.321 233.525 136.321 234.387H134.695C134.695 233.944 134.505 233.562 134.126 233.242C133.753 232.921 133.281 232.761 132.71 232.761C132.122 232.761 131.661 232.889 131.329 233.146C130.997 233.402 130.831 233.737 130.831 234.151C130.831 234.542 130.985 234.836 131.294 235.034C131.603 235.232 132.159 235.422 132.964 235.602C133.774 235.783 134.43 235.999 134.931 236.249C135.432 236.5 135.802 236.803 136.041 237.159C136.286 237.508 136.408 237.937 136.408 238.444C136.408 239.289 136.07 239.968 135.394 240.481C134.718 240.988 133.841 241.241 132.763 241.241C132.005 241.241 131.335 241.107 130.752 240.839C130.169 240.571 129.712 240.198 129.379 239.72C129.053 239.236 128.89 238.715 128.89 238.155H130.507C130.536 238.697 130.752 239.128 131.154 239.449C131.562 239.764 132.098 239.921 132.763 239.921C133.375 239.921 133.864 239.799 134.231 239.554C134.604 239.303 134.791 238.971 134.791 238.557ZM142.888 241.241C141.606 241.241 140.563 240.822 139.758 239.982C138.954 239.137 138.552 238.009 138.552 236.599V236.302C138.552 235.363 138.73 234.527 139.085 233.793C139.447 233.052 139.948 232.475 140.589 232.062C141.236 231.642 141.935 231.432 142.687 231.432C143.917 231.432 144.873 231.837 145.555 232.647C146.237 233.458 146.578 234.617 146.578 236.127V236.8H140.169C140.193 237.733 140.464 238.487 140.982 239.064C141.507 239.636 142.171 239.921 142.976 239.921C143.547 239.921 144.031 239.805 144.427 239.571C144.823 239.338 145.17 239.029 145.467 238.645L146.455 239.414C145.662 240.632 144.474 241.241 142.888 241.241ZM142.687 232.761C142.034 232.761 141.486 233 141.044 233.478C140.601 233.95 140.327 234.614 140.222 235.471H144.96V235.349C144.914 234.527 144.692 233.892 144.296 233.443C143.899 232.988 143.363 232.761 142.687 232.761ZM153.477 233.058C153.232 233.017 152.967 232.997 152.682 232.997C151.621 232.997 150.901 233.449 150.522 234.352V241.066H148.905V231.607H150.478L150.505 232.7C151.035 231.855 151.787 231.432 152.76 231.432C153.075 231.432 153.314 231.473 153.477 231.555V233.058ZM158.698 238.872L161.041 231.607H162.693L159.301 241.066H158.069L154.642 231.607H156.294L158.698 238.872ZM168.5 241.241C167.218 241.241 166.175 240.822 165.37 239.982C164.566 239.137 164.164 238.009 164.164 236.599V236.302C164.164 235.363 164.342 234.527 164.697 233.793C165.059 233.052 165.56 232.475 166.201 232.062C166.848 231.642 167.547 231.432 168.299 231.432C169.529 231.432 170.485 231.837 171.167 232.647C171.849 233.458 172.19 234.617 172.19 236.127V236.8H165.781C165.805 237.733 166.076 238.487 166.594 239.064C167.119 239.636 167.783 239.921 168.588 239.921C169.159 239.921 169.643 239.805 170.039 239.571C170.435 239.338 170.782 239.029 171.079 238.645L172.067 239.414C171.274 240.632 170.085 241.241 168.5 241.241ZM168.299 232.761C167.646 232.761 167.098 233 166.656 233.478C166.213 233.95 165.939 234.614 165.834 235.471H170.572V235.349C170.526 234.527 170.304 233.892 169.908 233.443C169.511 232.988 168.975 232.761 168.299 232.761ZM180.025 238.557C180.025 238.12 179.858 237.782 179.526 237.543C179.2 237.298 178.626 237.089 177.804 236.914C176.988 236.739 176.338 236.529 175.854 236.284C175.376 236.039 175.021 235.748 174.788 235.41C174.561 235.072 174.447 234.67 174.447 234.204C174.447 233.428 174.773 232.773 175.426 232.236C176.085 231.7 176.924 231.432 177.944 231.432C179.016 231.432 179.885 231.709 180.549 232.263C181.219 232.816 181.555 233.525 181.555 234.387H179.928C179.928 233.944 179.739 233.562 179.36 233.242C178.987 232.921 178.515 232.761 177.944 232.761C177.355 232.761 176.895 232.889 176.563 233.146C176.23 233.402 176.064 233.737 176.064 234.151C176.064 234.542 176.219 234.836 176.528 235.034C176.836 235.232 177.393 235.422 178.197 235.602C179.008 235.783 179.663 235.999 180.164 236.249C180.666 236.5 181.036 236.803 181.275 237.159C181.52 237.508 181.642 237.937 181.642 238.444C181.642 239.289 181.304 239.968 180.628 240.481C179.952 240.988 179.075 241.241 177.996 241.241C177.239 241.241 176.568 241.107 175.986 240.839C175.403 240.571 174.945 240.198 174.613 239.72C174.287 239.236 174.123 238.715 174.123 238.155H175.741C175.77 238.697 175.986 239.128 176.388 239.449C176.796 239.764 177.332 239.921 177.996 239.921C178.608 239.921 179.098 239.799 179.465 239.554C179.838 239.303 180.025 238.971 180.025 238.557Z" fill="#121212"/>
<rect x="151.853" y="81.292" width="54.6243" height="97.9769" rx="10.2312" transform="rotate(90 151.853 81.292)" fill="#575A60"/>
<rect x="149.253" y="83.8936" width="49.422" height="92.7746" rx="6.39451" transform="rotate(90 149.253 83.8936)" fill="white"/>
<path d="M79.0204 86.4941L79.0204 130.714L62.915 130.714C60.796 130.714 59.0782 128.996 59.0782 126.877L59.0782 90.3308C59.0782 88.2119 60.796 86.4941 62.915 86.4941L79.0204 86.4941Z" fill="#31BFDE"/>
<path d="M101.566 86.4941L101.566 130.714L81.6239 130.714L81.6239 86.4941L101.566 86.4941Z" fill="#31BFDE"/>
<path d="M124.109 86.4941L124.109 130.714L104.167 130.714L104.167 86.4941L124.109 86.4941Z" fill="#31BFDE"/>
<path d="M126.709 130.715L126.709 86.4952L142.815 86.4952C144.934 86.4952 146.652 88.2129 146.652 90.3319L146.652 126.878C146.652 128.997 144.934 130.715 142.815 130.715L126.709 130.715Z" fill="#31BFDE"/>
<path d="M152.353 97.7666C154.471 97.7666 156.189 99.4844 156.189 101.603L156.189 115.606C156.189 117.725 154.471 119.443 152.353 119.443L149.253 119.443L149.253 97.7666L152.353 97.7666Z" fill="#575A60"/>
<defs>
<filter id="filter0_d" x="0.163295" y="0.721098" width="209.74" height="269.848" filterUnits="userSpaceOnUse" color-interpolation-filters="sRGB">
<feFlood flood-opacity="0" result="BackgroundImageFix"/>
<feColorMatrix in="SourceAlpha" type="matrix" values="0 0 0 0 0 0 0 0 0 0 0 0 0 0 0 0 0 0 127 0"/>
<feOffset dy="2.5578"/>
<feGaussianBlur stdDeviation="1.91835"/>
<feColorMatrix type="matrix" values="0 0 0 0 0 0 0 0 0 0 0 0 0 0 0 0 0 0 0.1 0"/>
<feBlend mode="normal" in2="BackgroundImageFix" result="effect1_dropShadow"/>
<feBlend mode="normal" in="SourceGraphic" in2="effect1_dropShadow" result="shape"/>
</filter>
</defs>
</svg>
