<svg width="211" height="271" viewBox="0 0 211 271" fill="none" xmlns="http://www.w3.org/2000/svg">
<g filter="url(#filter0_d)">
<path fill-rule="evenodd" clip-rule="evenodd" d="M4.28906 5.58963C4.28906 3.47068 6.00681 1.75293 8.12577 1.75293H202.519C204.638 1.75293 206.356 3.47068 206.356 5.58963V260.091C206.356 262.21 204.638 263.928 202.519 263.928H8.12576C6.00681 263.928 4.28906 262.21 4.28906 260.091L4.28906 5.58963Z" fill="white"/>
<path d="M4.78906 5.58963C4.78906 3.74682 6.28296 2.25293 8.12577 2.25293H202.519C204.362 2.25293 205.856 3.74682 205.856 5.58963V260.091C205.856 261.934 204.362 263.428 202.519 263.428H8.12576C6.28295 263.428 4.78906 261.934 4.78906 260.091V5.58963Z" stroke="#E1E1E1"/>
</g>
<path d="M56.3063 35.1897C56.3063 34.5503 56.0798 34.0574 55.6269 33.711C55.1806 33.3646 54.3713 33.0149 53.199 32.6619C52.0266 32.3089 51.0941 31.9159 50.4014 31.4829C49.0758 30.6503 48.4131 29.5646 48.4131 28.2257C48.4131 27.0534 48.8893 26.0876 49.8419 25.3282C50.801 24.5689 52.0433 24.1892 53.5686 24.1892C54.5811 24.1892 55.4837 24.3757 56.2763 24.7487C57.069 25.1217 57.6918 25.6546 58.1447 26.3473C58.5977 27.0334 58.8241 27.7961 58.8241 28.6354H56.3063C56.3063 27.876 56.0665 27.2832 55.5869 26.8569C55.114 26.4239 54.4346 26.2075 53.5487 26.2075C52.7227 26.2075 52.0799 26.384 51.6203 26.737C51.1674 27.09 50.9409 27.5829 50.9409 28.2157C50.9409 28.7486 51.1874 29.1949 51.6803 29.5546C52.1732 29.9076 52.9858 30.254 54.1182 30.5937C55.2505 30.9267 56.1598 31.3097 56.8458 31.7427C57.5319 32.169 58.0348 32.6619 58.3545 33.2214C58.6743 33.7743 58.8341 34.4237 58.8341 35.1698C58.8341 36.3821 58.3679 37.3479 57.4353 38.0673C56.5095 38.78 55.2505 39.1364 53.6586 39.1364C52.6061 39.1364 51.637 38.9432 50.7511 38.5568C49.8718 38.1639 49.1857 37.6243 48.6928 36.9382C48.2066 36.2522 47.9635 35.4528 47.9635 34.5403H50.4913C50.4913 35.3663 50.7644 36.0057 51.3106 36.4587C51.8568 36.9116 52.6394 37.1381 53.6586 37.1381C54.5378 37.1381 55.1973 36.9616 55.6369 36.6085C56.0832 36.2488 56.3063 35.7759 56.3063 35.1897ZM64.1156 25.4981V28.1258H66.024V29.9243H64.1156V35.9591C64.1156 36.3721 64.1955 36.6718 64.3554 36.8583C64.5219 37.0382 64.815 37.1281 65.2346 37.1281C65.5144 37.1281 65.7975 37.0948 66.0839 37.0282V38.9065C65.531 39.0598 64.9982 39.1364 64.4853 39.1364C62.6202 39.1364 61.6877 38.1072 61.6877 36.049V29.9243H59.9092V28.1258H61.6877V25.4981H64.1156ZM73.8033 30.3439C73.4835 30.2906 73.1538 30.264 72.8141 30.264C71.7017 30.264 70.9524 30.6903 70.5661 31.5429V38.9365H68.1381V28.1258H70.4561L70.5161 29.3348C71.1023 28.3956 71.9149 27.926 72.954 27.926C73.3004 27.926 73.5868 27.9726 73.8133 28.0659L73.8033 30.3439ZM80.1538 39.1364C78.6151 39.1364 77.3662 38.6534 76.407 37.6876C75.4545 36.7151 74.9783 35.4229 74.9783 33.8109V33.5112C74.9783 32.4321 75.1848 31.4696 75.5977 30.6237C76.0174 29.7711 76.6035 29.1083 77.3562 28.6354C78.1089 28.1624 78.9482 27.926 79.8741 27.926C81.3461 27.926 82.4818 28.3956 83.2811 29.3348C84.0871 30.274 84.4901 31.6028 84.4901 33.3213V34.3005H77.4262C77.4994 35.1931 77.7958 35.8991 78.3154 36.4187C78.8416 36.9382 79.501 37.198 80.2937 37.198C81.4061 37.198 82.312 36.7484 83.0114 35.8492L84.3202 37.0981C83.8873 37.7442 83.3078 38.2471 82.5817 38.6068C81.8624 38.9598 81.053 39.1364 80.1538 39.1364ZM79.8641 29.8743C79.198 29.8743 78.6584 30.1074 78.2455 30.5737C77.8391 31.04 77.5794 31.6894 77.4661 32.522H82.0922V32.3422C82.0389 31.5296 81.8224 30.9167 81.4427 30.5038C81.063 30.0841 80.5368 29.8743 79.8641 29.8743ZM92.699 35.999C92.699 35.5661 92.5192 35.2364 92.1595 35.0099C91.8065 34.7834 91.217 34.5836 90.391 34.4104C89.5651 34.2372 88.8757 34.0174 88.3228 33.751C87.1105 33.1648 86.5044 32.3155 86.5044 31.2032C86.5044 30.2706 86.8974 29.4913 87.6834 28.8652C88.4693 28.239 89.4685 27.926 90.6808 27.926C91.973 27.926 93.0154 28.2457 93.8081 28.8852C94.6074 29.5246 95.0071 30.3539 95.0071 31.373H92.5791C92.5791 30.9068 92.406 30.5204 92.0596 30.214C91.7132 29.9009 91.2536 29.7444 90.6808 29.7444C90.1479 29.7444 89.7116 29.8676 89.3719 30.1141C89.0389 30.3606 88.8723 30.6903 88.8723 31.1033C88.8723 31.4763 89.0289 31.766 89.3419 31.9725C89.655 32.179 90.2878 32.3888 91.2403 32.602C92.1928 32.8085 92.9388 33.0582 93.4784 33.3513C94.0246 33.6377 94.4276 33.9841 94.6873 34.3904C94.9538 34.7967 95.087 35.2897 95.087 35.8692C95.087 36.8417 94.684 37.631 93.878 38.2371C93.0721 38.8366 92.0163 39.1364 90.7108 39.1364C89.8248 39.1364 89.0355 38.9765 88.3428 38.6568C87.65 38.337 87.1105 37.8974 86.7242 37.3379C86.3378 36.7784 86.1447 36.1756 86.1447 35.5294H88.5026C88.536 36.1023 88.7524 36.5452 89.1521 36.8583C89.5517 37.1647 90.0813 37.3179 90.7407 37.3179C91.3802 37.3179 91.8664 37.198 92.1995 36.9582C92.5325 36.7118 92.699 36.392 92.699 35.999ZM103.526 35.999C103.526 35.5661 103.346 35.2364 102.986 35.0099C102.633 34.7834 102.044 34.5836 101.218 34.4104C100.392 34.2372 99.7024 34.0174 99.1495 33.751C97.9372 33.1648 97.3311 32.3155 97.3311 31.2032C97.3311 30.2706 97.7241 29.4913 98.5101 28.8652C99.296 28.239 100.295 27.926 101.507 27.926C102.8 27.926 103.842 28.2457 104.635 28.8852C105.434 29.5246 105.834 30.3539 105.834 31.373H103.406C103.406 30.9068 103.233 30.5204 102.886 30.214C102.54 29.9009 102.08 29.7444 101.507 29.7444C100.975 29.7444 100.538 29.8676 100.199 30.1141C99.8656 30.3606 99.699 30.6903 99.699 31.1033C99.699 31.4763 99.8556 31.766 100.169 31.9725C100.482 32.179 101.114 32.3888 102.067 32.602C103.02 32.8085 103.766 33.0582 104.305 33.3513C104.851 33.6377 105.254 33.9841 105.514 34.3904C105.78 34.7967 105.914 35.2897 105.914 35.8692C105.914 36.8417 105.511 37.631 104.705 38.2371C103.899 38.8366 102.843 39.1364 101.537 39.1364C100.652 39.1364 99.8622 38.9765 99.1695 38.6568C98.4767 38.337 97.9372 37.8974 97.5509 37.3379C97.1645 36.7784 96.9714 36.1756 96.9714 35.5294H99.3294C99.3627 36.1023 99.5791 36.5452 99.9788 36.8583C100.378 37.1647 100.908 37.3179 101.567 37.3179C102.207 37.3179 102.693 37.198 103.026 36.9582C103.359 36.7118 103.526 36.392 103.526 35.999ZM116.547 38.9365H114.029V24.389H116.547V38.9365ZM121.928 28.1258L121.998 29.3747C122.797 28.4089 123.846 27.926 125.145 27.926C127.397 27.926 128.542 29.2149 128.582 31.7927V38.9365H126.154V31.9325C126.154 31.2465 126.004 30.7402 125.705 30.4138C125.412 30.0808 124.929 29.9143 124.256 29.9143C123.277 29.9143 122.547 30.3572 122.068 31.2431V38.9365H119.64V28.1258H121.928ZM130.866 33.4512C130.866 31.786 131.253 30.4505 132.025 29.4447C132.798 28.4322 133.834 27.926 135.133 27.926C136.278 27.926 137.204 28.3256 137.91 29.1249V23.5897H140.338V38.9365H138.14L138.02 37.8175C137.294 38.6967 136.325 39.1364 135.113 39.1364C133.847 39.1364 132.821 38.6268 132.035 37.6077C131.256 36.5885 130.866 35.2031 130.866 33.4512ZM133.294 33.6611C133.294 34.7601 133.504 35.6194 133.924 36.2388C134.35 36.8516 134.953 37.1581 135.732 37.1581C136.725 37.1581 137.451 36.7151 137.91 35.8292V31.2132C137.464 30.3472 136.745 29.9143 135.752 29.9143C134.966 29.9143 134.36 30.2273 133.934 30.8535C133.507 31.4729 133.294 32.4088 133.294 33.6611ZM147.888 39.1364C146.349 39.1364 145.1 38.6534 144.141 37.6876C143.188 36.7151 142.712 35.4229 142.712 33.8109V33.5112C142.712 32.4321 142.919 31.4696 143.332 30.6237C143.751 29.7711 144.337 29.1083 145.09 28.6354C145.843 28.1624 146.682 27.926 147.608 27.926C149.08 27.926 150.216 28.3956 151.015 29.3348C151.821 30.274 152.224 31.6028 152.224 33.3213V34.3005H145.16C145.233 35.1931 145.53 35.8991 146.049 36.4187C146.575 36.9382 147.235 37.198 148.028 37.198C149.14 37.198 150.046 36.7484 150.745 35.8492L152.054 37.0981C151.621 37.7442 151.042 38.2471 150.316 38.6068C149.596 38.9598 148.787 39.1364 147.888 39.1364ZM147.598 29.8743C146.932 29.8743 146.392 30.1074 145.979 30.5737C145.573 31.04 145.313 31.6894 145.2 32.522H149.826V32.3422C149.773 31.5296 149.556 30.9167 149.177 30.5038C148.797 30.0841 148.271 29.8743 147.598 29.8743ZM158.255 31.6828L160.313 28.1258H163.011L159.704 33.4512L163.121 38.9365H160.443L158.285 35.2397L156.137 38.9365H153.439L156.856 33.4512L153.559 28.1258H156.236L158.255 31.6828Z" fill="#121212"/>
<path d="M29.9376 213.481L33.2597 207.09H35.1656L30.7768 215.072V219.819H29.0983V215.072L24.7095 207.09H26.6329L29.9376 213.481ZM35.9978 215.002C35.9978 214.076 36.1785 213.242 36.5399 212.502C36.9071 211.762 37.4141 211.19 38.0611 210.788C38.7139 210.386 39.457 210.185 40.2904 210.185C41.5785 210.185 42.6188 210.631 43.4115 211.523C44.21 212.414 44.6092 213.601 44.6092 215.081V215.195C44.6092 216.115 44.4314 216.943 44.0759 217.677C43.7262 218.406 43.2221 218.974 42.5635 219.382C41.9107 219.79 41.1588 219.994 40.3079 219.994C39.0257 219.994 37.9853 219.548 37.1868 218.657C36.3942 217.765 35.9978 216.585 35.9978 215.116V215.002ZM37.624 215.195C37.624 216.244 37.8658 217.086 38.3496 217.721C38.8392 218.356 39.4919 218.674 40.3079 218.674C41.1297 218.674 41.7825 218.354 42.2662 217.712C42.75 217.065 42.9918 216.162 42.9918 215.002C42.9918 213.965 42.7441 213.126 42.2487 212.484C41.7592 211.837 41.1064 211.514 40.2904 211.514C39.4919 211.514 38.8479 211.832 38.3583 212.467C37.8687 213.102 37.624 214.011 37.624 215.195ZM52.9251 218.884C52.2956 219.624 51.3718 219.994 50.1537 219.994C49.1454 219.994 48.3761 219.703 47.8457 219.12C47.3211 218.531 47.0559 217.663 47.0501 216.515V210.36H48.6675V216.471C48.6675 217.905 49.2503 218.622 50.416 218.622C51.6516 218.622 52.4734 218.161 52.8813 217.24V210.36H54.4987V219.819H52.96L52.9251 218.884ZM68.1405 219.819C68.0472 219.633 67.9715 219.301 67.9132 218.823C67.1613 219.604 66.2638 219.994 65.2205 219.994C64.288 219.994 63.5215 219.732 62.9212 219.207C62.3267 218.677 62.0295 218.007 62.0295 217.197C62.0295 216.212 62.4025 215.448 63.1485 214.906C63.9004 214.358 64.9553 214.084 66.3133 214.084H67.887V213.341C67.887 212.776 67.7179 212.327 67.3799 211.995C67.0419 211.657 66.5435 211.488 65.8849 211.488C65.3079 211.488 64.8242 211.633 64.4337 211.925C64.0432 212.216 63.8479 212.569 63.8479 212.983H62.2218C62.2218 212.511 62.3879 212.056 62.7201 211.619C63.0582 211.176 63.5128 210.826 64.084 210.57C64.661 210.313 65.2934 210.185 65.9811 210.185C67.071 210.185 67.9248 210.459 68.5426 211.007C69.1605 211.549 69.481 212.298 69.5043 213.254V217.607C69.5043 218.476 69.6151 219.167 69.8365 219.679V219.819H68.1405ZM65.4565 218.587C65.9636 218.587 66.4445 218.456 66.8991 218.193C67.3537 217.931 67.683 217.59 67.887 217.17V215.23H66.6193C64.6377 215.23 63.6469 215.809 63.6469 216.969C63.6469 217.476 63.8159 217.873 64.1539 218.158C64.492 218.444 64.9262 218.587 65.4565 218.587ZM77.0596 211.811C76.8148 211.77 76.5496 211.75 76.264 211.75C75.2033 211.75 74.4835 212.202 74.1046 213.105V219.819H72.4873V210.36H74.0609L74.0871 211.453C74.6175 210.608 75.3694 210.185 76.3427 210.185C76.6574 210.185 76.8964 210.226 77.0596 210.308V211.811ZM82.7527 219.994C81.4705 219.994 80.4272 219.575 79.6229 218.735C78.8186 217.89 78.4164 216.762 78.4164 215.352V215.055C78.4164 214.116 78.5942 213.28 78.9497 212.546C79.3111 211.805 79.8123 211.228 80.4534 210.815C81.1004 210.395 81.7998 210.185 82.5516 210.185C83.7814 210.185 84.7372 210.59 85.4192 211.4C86.1011 212.21 86.442 213.37 86.442 214.88V215.553H80.0338C80.0571 216.486 80.3281 217.24 80.8468 217.817C81.3714 218.388 82.0358 218.674 82.8401 218.674C83.4113 218.674 83.895 218.558 84.2914 218.324C84.6877 218.091 85.0345 217.782 85.3317 217.398L86.3196 218.167C85.527 219.385 84.338 219.994 82.7527 219.994ZM82.5516 211.514C81.8988 211.514 81.351 211.753 80.908 212.231C80.4651 212.703 80.1911 213.367 80.0862 214.224H84.8247V214.102C84.778 213.28 84.5566 212.645 84.1602 212.196C83.7639 211.741 83.2277 211.514 82.5516 211.514ZM95.1793 210.36L95.223 211.409C95.9166 210.593 96.852 210.185 98.0293 210.185C99.3524 210.185 100.253 210.692 100.731 211.706C101.045 211.252 101.453 210.885 101.955 210.605C102.462 210.325 103.059 210.185 103.747 210.185C105.822 210.185 106.877 211.284 106.912 213.481V219.819H105.294V213.577C105.294 212.901 105.14 212.397 104.831 212.065C104.522 211.727 104.003 211.558 103.275 211.558C102.674 211.558 102.176 211.738 101.78 212.1C101.384 212.455 101.153 212.936 101.089 213.542V219.819H99.4631V213.621C99.4631 212.245 98.7899 211.558 97.4436 211.558C96.3828 211.558 95.6572 212.009 95.2667 212.913V219.819H93.6493V210.36H95.1793ZM109.379 215.002C109.379 214.076 109.56 213.242 109.921 212.502C110.288 211.762 110.795 211.19 111.442 210.788C112.095 210.386 112.838 210.185 113.671 210.185C114.959 210.185 116 210.631 116.792 211.523C117.591 212.414 117.99 213.601 117.99 215.081V215.195C117.99 216.115 117.812 216.943 117.457 217.677C117.107 218.406 116.603 218.974 115.944 219.382C115.292 219.79 114.54 219.994 113.689 219.994C112.407 219.994 111.366 219.548 110.568 218.657C109.775 217.765 109.379 216.585 109.379 215.116V215.002ZM111.005 215.195C111.005 216.244 111.247 217.086 111.731 217.721C112.22 218.356 112.873 218.674 113.689 218.674C114.511 218.674 115.163 218.354 115.647 217.712C116.131 217.065 116.373 216.162 116.373 215.002C116.373 213.965 116.125 213.126 115.63 212.484C115.14 211.837 114.487 211.514 113.671 211.514C112.873 211.514 112.229 211.832 111.739 212.467C111.25 213.102 111.005 214.011 111.005 215.195ZM120.073 215.011C120.073 213.56 120.417 212.394 121.104 211.514C121.792 210.628 122.692 210.185 123.806 210.185C124.913 210.185 125.79 210.564 126.437 211.322V206.391H128.055V219.819H126.568L126.49 218.805C125.843 219.598 124.942 219.994 123.788 219.994C122.692 219.994 121.798 219.545 121.104 218.648C120.417 217.75 120.073 216.579 120.073 215.133V215.011ZM121.69 215.195C121.69 216.267 121.911 217.106 122.354 217.712C122.797 218.319 123.409 218.622 124.19 218.622C125.216 218.622 125.965 218.161 126.437 217.24V212.895C125.953 212.004 125.21 211.558 124.208 211.558C123.415 211.558 122.797 211.864 122.354 212.476C121.911 213.088 121.69 213.994 121.69 215.195ZM134.945 219.994C133.663 219.994 132.62 219.575 131.816 218.735C131.011 217.89 130.609 216.762 130.609 215.352V215.055C130.609 214.116 130.787 213.28 131.142 212.546C131.504 211.805 132.005 211.228 132.646 210.815C133.293 210.395 133.992 210.185 134.744 210.185C135.974 210.185 136.93 210.59 137.612 211.4C138.294 212.21 138.635 213.37 138.635 214.88V215.553H132.226C132.25 216.486 132.521 217.24 133.04 217.817C133.564 218.388 134.228 218.674 135.033 218.674C135.604 218.674 136.088 218.558 136.484 218.324C136.88 218.091 137.227 217.782 137.524 217.398L138.512 218.167C137.72 219.385 136.531 219.994 134.945 219.994ZM134.744 211.514C134.092 211.514 133.544 211.753 133.101 212.231C132.658 212.703 132.384 213.367 132.279 214.224H137.017V214.102C136.971 213.28 136.749 212.645 136.353 212.196C135.957 211.741 135.42 211.514 134.744 211.514ZM145.534 211.811C145.289 211.77 145.024 211.75 144.739 211.75C143.678 211.75 142.958 212.202 142.579 213.105V219.819H140.962V210.36H142.536L142.562 211.453C143.092 210.608 143.844 210.185 144.817 210.185C145.132 210.185 145.371 210.226 145.534 210.308V211.811ZM152.967 219.819C152.874 219.633 152.798 219.301 152.74 218.823C151.988 219.604 151.09 219.994 150.047 219.994C149.115 219.994 148.348 219.732 147.748 219.207C147.153 218.677 146.856 218.007 146.856 217.197C146.856 216.212 147.229 215.448 147.975 214.906C148.727 214.358 149.782 214.084 151.14 214.084H152.714V213.341C152.714 212.776 152.545 212.327 152.207 211.995C151.869 211.657 151.37 211.488 150.712 211.488C150.135 211.488 149.651 211.633 149.26 211.925C148.87 212.216 148.675 212.569 148.675 212.983H147.048C147.048 212.511 147.215 212.056 147.547 211.619C147.885 211.176 148.339 210.826 148.911 210.57C149.488 210.313 150.12 210.185 150.808 210.185C151.898 210.185 152.751 210.459 153.369 211.007C153.987 211.549 154.308 212.298 154.331 213.254V217.607C154.331 218.476 154.442 219.167 154.663 219.679V219.819H152.967ZM150.283 218.587C150.79 218.587 151.271 218.456 151.726 218.193C152.18 217.931 152.51 217.59 152.714 217.17V215.23H151.446C149.464 215.23 148.474 215.809 148.474 216.969C148.474 217.476 148.643 217.873 148.981 218.158C149.319 218.444 149.753 218.587 150.283 218.587ZM159.508 208.069V210.36H161.274V211.61H159.508V217.476C159.508 217.855 159.587 218.141 159.744 218.333C159.902 218.52 160.17 218.613 160.549 218.613C160.735 218.613 160.992 218.578 161.318 218.508V219.819C160.893 219.936 160.479 219.994 160.077 219.994C159.354 219.994 158.809 219.776 158.442 219.338C158.075 218.901 157.891 218.281 157.891 217.476V211.61H156.169V210.36H157.891V208.069H159.508ZM167.544 219.994C166.262 219.994 165.219 219.575 164.415 218.735C163.61 217.89 163.208 216.762 163.208 215.352V215.055C163.208 214.116 163.386 213.28 163.741 212.546C164.103 211.805 164.604 211.228 165.245 210.815C165.892 210.395 166.591 210.185 167.343 210.185C168.573 210.185 169.529 210.59 170.211 211.4C170.893 212.21 171.234 213.37 171.234 214.88V215.553H164.825C164.849 216.486 165.12 217.24 165.639 217.817C166.163 218.388 166.827 218.674 167.632 218.674C168.203 218.674 168.687 218.558 169.083 218.324C169.479 218.091 169.826 217.782 170.123 217.398L171.111 218.167C170.319 219.385 169.13 219.994 167.544 219.994ZM167.343 211.514C166.691 211.514 166.143 211.753 165.7 212.231C165.257 212.703 164.983 213.367 164.878 214.224H169.616V214.102C169.57 213.28 169.348 212.645 168.952 212.196C168.556 211.741 168.019 211.514 167.343 211.514ZM175.318 219.819H173.701V206.391H175.318V219.819ZM181.457 217.45L183.66 210.36H185.391L181.588 221.279C181 222.853 180.064 223.64 178.782 223.64L178.476 223.614L177.873 223.5V222.189L178.31 222.224C178.858 222.224 179.283 222.113 179.586 221.891C179.895 221.67 180.149 221.265 180.347 220.676L180.705 219.714L177.331 210.36H179.097L181.457 217.45ZM76.2168 238.31C76.2168 237.873 76.0507 237.535 75.7185 237.296C75.3921 237.051 74.818 236.842 73.9962 236.667C73.1802 236.492 72.5304 236.282 72.0466 236.037C71.5687 235.792 71.2132 235.501 70.9801 235.163C70.7527 234.825 70.6391 234.423 70.6391 233.956C70.6391 233.181 70.9655 232.526 71.6183 231.989C72.2769 231.453 73.1161 231.185 74.1361 231.185C75.2085 231.185 76.0769 231.462 76.7414 232.016C77.4116 232.569 77.7467 233.277 77.7467 234.14H76.1206C76.1206 233.697 75.9312 233.315 75.5524 232.995C75.1794 232.674 74.7073 232.514 74.1361 232.514C73.5474 232.514 73.087 232.642 72.7548 232.899C72.4226 233.155 72.2565 233.49 72.2565 233.904C72.2565 234.295 72.4109 234.589 72.7198 234.787C73.0287 234.985 73.5853 235.175 74.3896 235.355C75.1998 235.536 75.8555 235.752 76.3567 236.002C76.8579 236.253 77.228 236.556 77.467 236.911C77.7118 237.261 77.8342 237.69 77.8342 238.197C77.8342 239.042 77.4961 239.721 76.82 240.234C76.144 240.741 75.2668 240.994 74.1885 240.994C73.4309 240.994 72.7606 240.86 72.1778 240.592C71.5949 240.324 71.1374 239.951 70.8052 239.473C70.4788 238.989 70.3156 238.468 70.3156 237.908H71.933C71.9621 238.45 72.1778 238.881 72.5799 239.202C72.9879 239.517 73.5241 239.674 74.1885 239.674C74.8005 239.674 75.2901 239.552 75.6573 239.307C76.0303 239.056 76.2168 238.724 76.2168 238.31ZM82.5831 229.069V231.36H84.3491V232.61H82.5831V238.476C82.5831 238.855 82.6618 239.141 82.8191 239.333C82.9765 239.52 83.2446 239.613 83.6234 239.613C83.81 239.613 84.0664 239.578 84.3928 239.508V240.819C83.9673 240.936 83.5535 240.994 83.1514 240.994C82.4286 240.994 81.8837 240.776 81.5165 240.338C81.1493 239.901 80.9657 239.281 80.9657 238.476V232.61H79.2435V231.36H80.9657V229.069H82.5831ZM91.2661 232.811C91.0213 232.77 90.7562 232.75 90.4706 232.75C89.4098 232.75 88.69 233.202 88.3112 234.105V240.819H86.6938V231.36H88.2675L88.2937 232.453C88.8241 231.608 89.5759 231.185 90.5493 231.185C90.864 231.185 91.1029 231.226 91.2661 231.308V232.811ZM96.9592 240.994C95.677 240.994 94.6337 240.575 93.8294 239.735C93.0251 238.89 92.623 237.762 92.623 236.352V236.055C92.623 235.116 92.8007 234.28 93.1563 233.546C93.5176 232.805 94.0188 232.228 94.66 231.815C95.3069 231.395 96.0063 231.185 96.7582 231.185C97.9879 231.185 98.9438 231.59 99.6257 232.4C100.308 233.21 100.649 234.37 100.649 235.88V236.553H94.2403C94.2636 237.486 94.5347 238.24 95.0534 238.817C95.5779 239.388 96.2424 239.674 97.0467 239.674C97.6178 239.674 98.1016 239.558 98.4979 239.324C98.8942 239.091 99.241 238.782 99.5383 238.398L100.526 239.167C99.7335 240.385 98.5445 240.994 96.9592 240.994ZM96.7582 232.514C96.1054 232.514 95.5575 232.753 95.1146 233.231C94.6716 233.703 94.3977 234.367 94.2928 235.224H99.0312V235.102C98.9846 234.28 98.7631 233.645 98.3668 233.196C97.9705 232.741 97.4342 232.514 96.7582 232.514ZM108.484 238.31C108.484 237.873 108.317 237.535 107.985 237.296C107.659 237.051 107.085 236.842 106.263 236.667C105.447 236.492 104.797 236.282 104.313 236.037C103.836 235.792 103.48 235.501 103.247 235.163C103.02 234.825 102.906 234.423 102.906 233.956C102.906 233.181 103.232 232.526 103.885 231.989C104.544 231.453 105.383 231.185 106.403 231.185C107.475 231.185 108.344 231.462 109.008 232.016C109.678 232.569 110.014 233.277 110.014 234.14H108.387C108.387 233.697 108.198 233.315 107.819 232.995C107.446 232.674 106.974 232.514 106.403 232.514C105.814 232.514 105.354 232.642 105.022 232.899C104.689 233.155 104.523 233.49 104.523 233.904C104.523 234.295 104.678 234.589 104.987 234.787C105.296 234.985 105.852 235.175 106.656 235.355C107.467 235.536 108.122 235.752 108.623 236.002C109.125 236.253 109.495 236.556 109.734 236.911C109.979 237.261 110.101 237.69 110.101 238.197C110.101 239.042 109.763 239.721 109.087 240.234C108.411 240.741 107.534 240.994 106.455 240.994C105.698 240.994 105.027 240.86 104.445 240.592C103.862 240.324 103.404 239.951 103.072 239.473C102.746 238.989 102.582 238.468 102.582 237.908H104.2C104.229 238.45 104.445 238.881 104.847 239.202C105.255 239.517 105.791 239.674 106.455 239.674C107.067 239.674 107.557 239.552 107.924 239.307C108.297 239.056 108.484 238.724 108.484 238.31ZM118.163 238.31C118.163 237.873 117.997 237.535 117.665 237.296C117.339 237.051 116.764 236.842 115.943 236.667C115.127 236.492 114.477 236.282 113.993 236.037C113.515 235.792 113.16 235.501 112.927 235.163C112.699 234.825 112.586 234.423 112.586 233.956C112.586 233.181 112.912 232.526 113.565 231.989C114.223 231.453 115.063 231.185 116.083 231.185C117.155 231.185 118.023 231.462 118.688 232.016C119.358 232.569 119.693 233.277 119.693 234.14H118.067C118.067 233.697 117.878 233.315 117.499 232.995C117.126 232.674 116.654 232.514 116.083 232.514C115.494 232.514 115.033 232.642 114.701 232.899C114.369 233.155 114.203 233.49 114.203 233.904C114.203 234.295 114.357 234.589 114.666 234.787C114.975 234.985 115.532 235.175 116.336 235.355C117.146 235.536 117.802 235.752 118.303 236.002C118.804 236.253 119.174 236.556 119.413 236.911C119.658 237.261 119.781 237.69 119.781 238.197C119.781 239.042 119.443 239.721 118.767 240.234C118.09 240.741 117.213 240.994 116.135 240.994C115.377 240.994 114.707 240.86 114.124 240.592C113.541 240.324 113.084 239.951 112.752 239.473C112.425 238.989 112.262 238.468 112.262 237.908H113.879C113.909 238.45 114.124 238.881 114.526 239.202C114.934 239.517 115.471 239.674 116.135 239.674C116.747 239.674 117.237 239.552 117.604 239.307C117.977 239.056 118.163 238.724 118.163 238.31ZM126.261 240.994C124.978 240.994 123.935 240.575 123.131 239.735C122.326 238.89 121.924 237.762 121.924 236.352V236.055C121.924 235.116 122.102 234.28 122.458 233.546C122.819 232.805 123.32 232.228 123.961 231.815C124.608 231.395 125.308 231.185 126.06 231.185C127.289 231.185 128.245 231.59 128.927 232.4C129.609 233.21 129.95 234.37 129.95 235.88V236.553H123.542C123.565 237.486 123.836 238.24 124.355 238.817C124.879 239.388 125.544 239.674 126.348 239.674C126.919 239.674 127.403 239.558 127.799 239.324C128.196 239.091 128.542 238.782 128.84 238.398L129.828 239.167C129.035 240.385 127.846 240.994 126.261 240.994ZM126.06 232.514C125.407 232.514 124.859 232.753 124.416 233.231C123.973 233.703 123.699 234.367 123.594 235.224H128.333V235.102C128.286 234.28 128.064 233.645 127.668 233.196C127.272 232.741 126.736 232.514 126.06 232.514ZM131.884 236.011C131.884 234.56 132.228 233.394 132.915 232.514C133.603 231.628 134.504 231.185 135.617 231.185C136.724 231.185 137.601 231.564 138.248 232.322V227.391H139.866V240.819H138.379L138.301 239.805C137.654 240.598 136.753 240.994 135.599 240.994C134.504 240.994 133.609 240.545 132.915 239.648C132.228 238.75 131.884 237.579 131.884 236.133V236.011ZM133.501 236.195C133.501 237.267 133.723 238.106 134.166 238.712C134.608 239.319 135.22 239.622 136.001 239.622C137.027 239.622 137.776 239.161 138.248 238.24V233.895C137.765 233.004 137.021 232.558 136.019 232.558C135.226 232.558 134.608 232.864 134.166 233.476C133.723 234.088 133.501 234.994 133.501 236.195Z" fill="#121212"/>
<path d="M86.5584 138.736V140.519H86.3486C85.3694 140.534 84.5801 140.789 83.9806 141.284C83.3861 141.778 83.0289 142.465 82.909 143.344C83.4885 142.755 84.2204 142.46 85.1046 142.46C86.0538 142.46 86.8082 142.8 87.3677 143.479C87.9272 144.159 88.207 145.053 88.207 146.162C88.207 146.871 88.0521 147.513 87.7424 148.088C87.4376 148.662 87.003 149.109 86.4385 149.429C85.879 149.749 85.2445 149.909 84.5351 149.909C83.3861 149.909 82.4569 149.509 81.7475 148.71C81.0431 147.91 80.6909 146.844 80.6909 145.51V144.731C80.6909 143.547 80.9132 142.503 81.3578 141.598C81.8075 140.689 82.4494 139.987 83.2837 139.493C84.123 138.993 85.0946 138.741 86.1987 138.736H86.5584ZM84.4452 144.199C84.0955 144.199 83.7783 144.291 83.4935 144.476C83.2088 144.656 82.9989 144.895 82.864 145.195V145.855C82.864 146.579 83.0064 147.146 83.2912 147.556C83.5759 147.96 83.9756 148.163 84.4902 148.163C84.9548 148.163 85.3294 147.98 85.6142 147.616C85.9039 147.246 86.0488 146.769 86.0488 146.184C86.0488 145.59 85.9039 145.11 85.6142 144.746C85.3244 144.381 84.9348 144.199 84.4452 144.199ZM96.7991 141.748C96.7991 142.278 96.6667 142.747 96.4019 143.157C96.1372 143.567 95.7725 143.894 95.3079 144.139C95.8374 144.393 96.257 144.746 96.5668 145.195C96.8765 145.64 97.0314 146.164 97.0314 146.769C97.0314 147.738 96.7017 148.505 96.0422 149.069C95.3828 149.629 94.4861 149.909 93.352 149.909C92.218 149.909 91.3188 149.626 90.6544 149.062C89.9899 148.497 89.6577 147.733 89.6577 146.769C89.6577 146.164 89.8126 145.637 90.1223 145.188C90.4321 144.738 90.8492 144.388 91.3737 144.139C90.9091 143.894 90.5445 143.567 90.2797 143.157C90.0199 142.747 89.89 142.278 89.89 141.748C89.89 140.819 90.1998 140.08 90.8192 139.53C91.4387 138.976 92.2805 138.698 93.3446 138.698C94.4036 138.698 95.2429 138.973 95.8624 139.523C96.4869 140.067 96.7991 140.809 96.7991 141.748ZM94.8583 146.611C94.8583 146.137 94.7209 145.757 94.4461 145.472C94.1713 145.188 93.8017 145.045 93.3371 145.045C92.8775 145.045 92.5103 145.188 92.2355 145.472C91.9607 145.752 91.8234 146.132 91.8234 146.611C91.8234 147.076 91.9582 147.451 92.228 147.736C92.4978 148.02 92.8725 148.163 93.352 148.163C93.8216 148.163 94.1888 148.025 94.4536 147.751C94.7234 147.476 94.8583 147.096 94.8583 146.611ZM94.6334 141.853C94.6334 141.428 94.521 141.089 94.2962 140.834C94.0714 140.574 93.7542 140.444 93.3446 140.444C92.9399 140.444 92.6252 140.569 92.4004 140.819C92.1756 141.069 92.0632 141.413 92.0632 141.853C92.0632 142.288 92.1756 142.637 92.4004 142.902C92.6252 143.167 92.9424 143.299 93.352 143.299C93.7617 143.299 94.0764 143.167 94.2962 142.902C94.521 142.637 94.6334 142.288 94.6334 141.853ZM99.4638 150.695H97.8527L101.869 138.848H103.48L99.4638 150.695ZM109.884 149.759H107.719V141.411L105.133 142.213V140.452L109.652 138.833H109.884V149.759ZM120.972 145.248C120.972 146.756 120.66 147.91 120.035 148.71C119.411 149.509 118.496 149.909 117.292 149.909C116.104 149.909 115.194 149.516 114.565 148.732C113.935 147.948 113.613 146.824 113.598 145.36V143.352C113.598 141.828 113.913 140.672 114.542 139.882C115.177 139.093 116.089 138.698 117.277 138.698C118.466 138.698 119.376 139.09 120.005 139.875C120.635 140.654 120.957 141.776 120.972 143.239V145.248ZM118.806 143.045C118.806 142.14 118.681 141.483 118.432 141.074C118.187 140.659 117.802 140.452 117.277 140.452C116.768 140.452 116.391 140.649 116.146 141.044C115.906 141.433 115.779 142.045 115.764 142.88V145.532C115.764 146.422 115.884 147.084 116.123 147.518C116.368 147.948 116.758 148.163 117.292 148.163C117.822 148.163 118.204 147.955 118.439 147.541C118.674 147.126 118.796 146.492 118.806 145.637V143.045ZM129.976 145.248C129.976 146.756 129.664 147.91 129.039 148.71C128.415 149.509 127.501 149.909 126.297 149.909C125.108 149.909 124.199 149.516 123.569 148.732C122.94 147.948 122.617 146.824 122.602 145.36V143.352C122.602 141.828 122.917 140.672 123.547 139.882C124.181 139.093 125.093 138.698 126.282 138.698C127.471 138.698 128.38 139.09 129.009 139.875C129.639 140.654 129.961 141.776 129.976 143.239V145.248ZM127.81 143.045C127.81 142.14 127.686 141.483 127.436 141.074C127.191 140.659 126.806 140.452 126.282 140.452C125.772 140.452 125.395 140.649 125.15 141.044C124.91 141.433 124.783 142.045 124.768 142.88V145.532C124.768 146.422 124.888 147.084 125.128 147.518C125.373 147.948 125.762 148.163 126.297 148.163C126.826 148.163 127.208 147.955 127.443 147.541C127.678 147.126 127.8 146.492 127.81 145.637V143.045Z" fill="#121212"/>
<path d="M155.199 121.97C155.199 93.7168 132.868 70.8135 105.322 70.8135C77.7756 70.8135 55.4448 93.7168 55.4448 121.97" stroke="url(#paint0_angular)" stroke-width="8.95231" stroke-linecap="round"/>
<path d="M64.6444 81.6182L72.445 89.5009" stroke="white" stroke-width="1.2789"/>
<path d="M146.127 82.667L138.326 90.5497" stroke="white" stroke-width="1.2789"/>
<path d="M105.322 64.4189V75.9291" stroke="white" stroke-width="1.2789"/>
<path fill-rule="evenodd" clip-rule="evenodd" d="M128.342 84.881C132.58 84.881 136.016 81.4455 136.016 77.2076C136.016 72.9697 132.58 69.5342 128.342 69.5342C124.104 69.5342 120.669 72.9697 120.669 77.2076C120.669 81.4455 124.104 84.881 128.342 84.881Z" fill="#FFAE10" stroke="white" stroke-width="1.2789"/>
<path fill-rule="evenodd" clip-rule="evenodd" d="M113.971 97.5895C114.434 97.1109 115.229 97.5698 115.046 98.2099L109.707 116.871C108.725 120.306 104.775 121.903 101.681 120.117C98.5869 118.331 97.9954 114.112 100.479 111.543L113.971 97.5895ZM103.601 116.794C102.684 116.265 102.369 115.091 102.899 114.174C103.429 113.256 104.602 112.942 105.519 113.472C106.437 114.001 106.751 115.175 106.222 116.092C105.692 117.01 104.519 117.324 103.601 116.794Z" fill="#575A60"/>
<rect x="54.1661" y="166.731" width="102.312" height="25.578" rx="12.789" fill="#FFAE10"/>
<path d="M97.3953 185.847H95.708V179.963H89.291V185.847H87.6125V173.118H89.291V178.59H95.708V173.118H97.3953V185.847ZM102.328 185.847H100.71V176.387H102.328V185.847ZM100.579 173.878C100.579 173.616 100.658 173.394 100.815 173.214C100.979 173.033 101.218 172.943 101.532 172.943C101.847 172.943 102.086 173.033 102.249 173.214C102.412 173.394 102.494 173.616 102.494 173.878C102.494 174.14 102.412 174.359 102.249 174.534C102.086 174.709 101.847 174.796 101.532 174.796C101.218 174.796 100.979 174.709 100.815 174.534C100.658 174.359 100.579 174.14 100.579 173.878ZM104.987 181.038C104.987 179.564 105.328 178.392 106.01 177.524C106.692 176.65 107.595 176.212 108.72 176.212C109.874 176.212 110.775 176.62 111.422 177.436L111.5 176.387H112.978V185.619C112.978 186.843 112.614 187.808 111.885 188.513C111.162 189.218 110.189 189.571 108.965 189.571C108.283 189.571 107.616 189.425 106.963 189.134C106.31 188.842 105.812 188.443 105.468 187.936L106.307 186.966C107.001 187.822 107.849 188.251 108.851 188.251C109.638 188.251 110.25 188.029 110.687 187.586C111.13 187.143 111.352 186.52 111.352 185.716V184.902C110.705 185.649 109.822 186.022 108.703 186.022C107.595 186.022 106.698 185.576 106.01 184.684C105.328 183.792 104.987 182.577 104.987 181.038ZM106.613 181.222C106.613 182.288 106.832 183.128 107.269 183.74C107.706 184.346 108.318 184.649 109.105 184.649C110.125 184.649 110.874 184.186 111.352 183.259V178.94C110.856 178.037 110.113 177.585 109.123 177.585C108.336 177.585 107.721 177.891 107.278 178.503C106.835 179.115 106.613 180.021 106.613 181.222ZM117.491 177.533C118.208 176.652 119.14 176.212 120.288 176.212C122.288 176.212 123.296 177.34 123.313 179.596V185.847H121.696V179.587C121.69 178.905 121.533 178.401 121.224 178.075C120.921 177.748 120.446 177.585 119.799 177.585C119.274 177.585 118.814 177.725 118.418 178.005C118.021 178.284 117.712 178.652 117.491 179.106V185.847H115.873V172.418H117.491V177.533Z" fill="white"/>
<defs>
<filter id="filter0_d" x="0.452357" y="0.474028" width="209.74" height="269.848" filterUnits="userSpaceOnUse" color-interpolation-filters="sRGB">
<feFlood flood-opacity="0" result="BackgroundImageFix"/>
<feColorMatrix in="SourceAlpha" type="matrix" values="0 0 0 0 0 0 0 0 0 0 0 0 0 0 0 0 0 0 127 0"/>
<feOffset dy="2.5578"/>
<feGaussianBlur stdDeviation="1.91835"/>
<feColorMatrix type="matrix" values="0 0 0 0 0 0 0 0 0 0 0 0 0 0 0 0 0 0 0.1 0"/>
<feBlend mode="normal" in2="BackgroundImageFix" result="effect1_dropShadow"/>
<feBlend mode="normal" in="SourceGraphic" in2="effect1_dropShadow" result="shape"/>
</filter>
<radialGradient id="paint0_angular" cx="0" cy="0" r="1" gradientUnits="userSpaceOnUse" gradientTransform="translate(105.322 96.3915) scale(49.8772 25.578)">
<stop offset="0.140625" stop-color="#FF6C4C"/>
<stop offset="0.375" stop-color="#31BFDE"/>
<stop offset="0.666667" stop-color="#36CB83"/>
<stop offset="0.817708" stop-color="#FFAE10"/>
</radialGradient>
</defs>
</svg>
