<svg width="210" height="271" viewBox="0 0 210 271" fill="none" xmlns="http://www.w3.org/2000/svg">
<g filter="url(#filter0_d)">
<path fill-rule="evenodd" clip-rule="evenodd" d="M3.93359 5.8367C3.93359 3.71775 5.65135 2 7.7703 2H202.163C204.282 2 206 3.71775 206 5.83671V260.338C206 262.457 204.282 264.175 202.163 264.175H7.77029C5.65134 264.175 3.93359 262.457 3.93359 260.338L3.93359 5.8367Z" fill="white"/>
<path d="M4.43359 5.8367C4.43359 3.99389 5.92749 2.5 7.7703 2.5H202.163C204.006 2.5 205.5 3.99389 205.5 5.83671V260.338C205.5 262.181 204.006 263.675 202.163 263.675H7.77029C5.92748 263.675 4.43359 262.181 4.43359 260.338V5.8367Z" stroke="#E1E1E1"/>
</g>
<path d="M37.6346 33.5784H34.8171V39.1836H32.2892V24.6361H37.4048C39.0834 24.6361 40.3789 25.0124 41.2915 25.7651C42.204 26.5178 42.6603 27.6069 42.6603 29.0323C42.6603 30.0048 42.4239 30.8208 41.9509 31.4802C41.4847 32.133 40.8319 32.6359 39.9926 32.9889L43.2598 39.0537V39.1836H40.5521L37.6346 33.5784ZM34.8171 31.5501H37.4148C38.2674 31.5501 38.9335 31.337 39.4131 30.9107C39.8927 30.4777 40.1325 29.8882 40.1325 29.1422C40.1325 28.3629 39.9093 27.7601 39.4631 27.3338C39.0234 26.9075 38.364 26.6877 37.4848 26.6743H34.8171V31.5501ZM49.8402 39.3834C48.3015 39.3834 47.0525 38.9005 46.0934 37.9347C45.1409 36.9622 44.6646 35.6699 44.6646 34.058V33.7583C44.6646 32.6792 44.8711 31.7167 45.2841 30.8707C45.7037 30.0181 46.2899 29.3554 47.0426 28.8824C47.7952 28.4095 48.6345 28.173 49.5604 28.173C51.0325 28.173 52.1682 28.6426 52.9675 29.5818C53.7734 30.521 54.1764 31.8499 54.1764 33.5684V34.5476H47.1125C47.1858 35.4401 47.4822 36.1462 48.0017 36.6658C48.5279 37.1853 49.1874 37.4451 49.98 37.4451C51.0924 37.4451 51.9983 36.9955 52.6977 36.0962L54.0066 37.3452C53.5736 37.9913 52.9941 38.4942 52.2681 38.8539C51.5487 39.2069 50.7394 39.3834 49.8402 39.3834ZM49.5504 30.1214C48.8843 30.1214 48.3448 30.3545 47.9318 30.8208C47.5255 31.287 47.2657 31.9365 47.1525 32.7691H51.7785V32.5893C51.7252 31.7766 51.5087 31.1638 51.129 30.7508C50.7494 30.3312 50.2232 30.1214 49.5504 30.1214ZM60.7668 37.4451C61.3729 37.4451 61.8758 37.2686 62.2755 36.9155C62.6751 36.5625 62.8883 36.1262 62.9149 35.6067H65.203C65.1763 36.2794 64.9665 36.9089 64.5735 37.495C64.1805 38.0745 63.6476 38.5342 62.9749 38.8739C62.3021 39.2136 61.5761 39.3834 60.7967 39.3834C59.2847 39.3834 58.0857 38.8938 57.1998 37.9147C56.3139 36.9355 55.871 35.5834 55.871 33.8582V33.6084C55.871 31.9631 56.3106 30.6476 57.1898 29.6618C58.0691 28.6693 59.2681 28.173 60.7868 28.173C62.0723 28.173 63.1181 28.5494 63.9241 29.3021C64.7367 30.0481 65.163 31.0306 65.203 32.2495H62.9149C62.8883 31.6301 62.6751 31.1205 62.2755 30.7209C61.8825 30.3212 61.3796 30.1214 60.7668 30.1214C59.9808 30.1214 59.3746 30.4078 58.9483 30.9806C58.522 31.5468 58.3055 32.4094 58.2989 33.5684V33.9581C58.2989 35.1304 58.5087 36.0063 58.9283 36.5858C59.3546 37.1587 59.9675 37.4451 60.7668 37.4451ZM66.8376 33.6783C66.8376 32.6192 67.0474 31.6667 67.467 30.8208C67.8867 29.9682 68.4761 29.3154 69.2355 28.8625C69.9948 28.4029 70.8674 28.173 71.8532 28.173C73.312 28.173 74.4943 28.6426 75.4002 29.5818C76.3128 30.521 76.8057 31.7666 76.8789 33.3186L76.8889 33.8881C76.8889 34.9539 76.6824 35.9064 76.2695 36.7457C75.8631 37.585 75.277 38.2344 74.511 38.694C73.7516 39.1536 72.8724 39.3834 71.8732 39.3834C70.3479 39.3834 69.1256 38.8772 68.2064 37.8647C67.2938 36.8456 66.8376 35.4901 66.8376 33.7982V33.6783ZM69.2655 33.8881C69.2655 35.0005 69.4953 35.8731 69.9549 36.5059C70.4145 37.132 71.0539 37.4451 71.8732 37.4451C72.6925 37.4451 73.3286 37.1254 73.7816 36.4859C74.2412 35.8465 74.471 34.9106 74.471 33.6783C74.471 32.5859 74.2345 31.72 73.7616 31.0806C73.2953 30.4411 72.6592 30.1214 71.8532 30.1214C71.0606 30.1214 70.4311 30.4378 69.9649 31.0706C69.4986 31.6967 69.2655 32.6359 69.2655 33.8881ZM82.8498 36.1062L85.1378 28.3729H87.6457L83.8989 39.1836H81.7907L78.014 28.3729H80.5318L82.8498 36.1062ZM94.0462 39.3834C92.5075 39.3834 91.2586 38.9005 90.2994 37.9347C89.3469 36.9622 88.8706 35.6699 88.8706 34.058V33.7583C88.8706 32.6792 89.0771 31.7167 89.4901 30.8707C89.9097 30.0181 90.4959 29.3554 91.2486 28.8824C92.0013 28.4095 92.8406 28.173 93.7664 28.173C95.2385 28.173 96.3742 28.6426 97.1735 29.5818C97.9795 30.521 98.3825 31.8499 98.3825 33.5684V34.5476H91.3185C91.3918 35.4401 91.6882 36.1462 92.2078 36.6658C92.734 37.1853 93.3934 37.4451 94.1861 37.4451C95.2984 37.4451 96.2043 36.9955 96.9037 36.0962L98.2126 37.3452C97.7796 37.9913 97.2001 38.4942 96.4741 38.8539C95.7547 39.2069 94.9454 39.3834 94.0462 39.3834ZM93.7564 30.1214C93.0903 30.1214 92.5508 30.3545 92.1378 30.8208C91.7315 31.287 91.4717 31.9365 91.3585 32.7691H95.9845V32.5893C95.9312 31.7766 95.7148 31.1638 95.3351 30.7508C94.9554 30.3312 94.4292 30.1214 93.7564 30.1214ZM106.192 30.591C105.872 30.5377 105.542 30.511 105.203 30.511C104.09 30.511 103.341 30.9373 102.955 31.7899V39.1836H100.527V28.3729H102.845L102.905 29.5818C103.491 28.6426 104.303 28.173 105.342 28.173C105.689 28.173 105.975 28.2197 106.202 28.3129L106.192 30.591ZM111.943 35.7066L114.141 28.3729H116.729L112.432 40.8222C111.773 42.6406 110.654 43.5498 109.075 43.5498C108.722 43.5498 108.333 43.4899 107.906 43.37V41.4916L108.366 41.5216C108.979 41.5216 109.438 41.4083 109.745 41.1819C110.058 40.9621 110.304 40.5891 110.484 40.0628L110.834 39.1336L107.037 28.3729H109.655L111.943 35.7066ZM130.199 39.1836C130.093 38.9771 129.999 38.6407 129.919 38.1745C129.147 38.9804 128.201 39.3834 127.082 39.3834C125.996 39.3834 125.11 39.0737 124.424 38.4542C123.738 37.8348 123.395 37.0687 123.395 36.1562C123.395 35.0038 123.821 34.1213 124.674 33.5085C125.533 32.889 126.759 32.5793 128.351 32.5793H129.839V31.8699C129.839 31.3104 129.683 30.8641 129.37 30.531C129.057 30.1913 128.581 30.0215 127.941 30.0215C127.388 30.0215 126.935 30.1613 126.582 30.4411C126.229 30.7142 126.053 31.0639 126.053 31.4902H123.625C123.625 30.8974 123.821 30.3445 124.214 29.8316C124.607 29.3121 125.14 28.9058 125.813 28.6127C126.492 28.3196 127.248 28.173 128.081 28.173C129.347 28.173 130.356 28.4928 131.108 29.1322C131.861 29.765 132.247 30.6576 132.267 31.8099V36.6857C132.267 37.6582 132.404 38.4342 132.677 39.0137V39.1836H130.199ZM127.531 37.4351C128.011 37.4351 128.461 37.3185 128.88 37.0854C129.307 36.8523 129.626 36.5392 129.839 36.1462V34.108H128.531C127.631 34.108 126.955 34.2645 126.502 34.5775C126.049 34.8906 125.823 35.3336 125.823 35.9064C125.823 36.3727 125.976 36.7457 126.283 37.0254C126.596 37.2985 127.012 37.4351 127.531 37.4351ZM144.553 33.8881C144.553 35.5667 144.176 36.9022 143.424 37.8947C142.678 38.8872 141.649 39.3834 140.336 39.3834C139.071 39.3834 138.085 38.9271 137.379 38.0146L137.259 39.1836H135.061V23.8368H137.489V29.412C138.188 28.586 139.131 28.173 140.316 28.173C141.635 28.173 142.671 28.6626 143.424 29.6418C144.176 30.6209 144.553 31.9898 144.553 33.7483V33.8881ZM142.125 33.6783C142.125 32.506 141.918 31.6268 141.505 31.0406C141.092 30.4544 140.493 30.1613 139.707 30.1613C138.655 30.1613 137.915 30.6209 137.489 31.5402V35.9963C137.922 36.9355 138.668 37.4051 139.727 37.4051C140.486 37.4051 141.072 37.122 141.485 36.5559C141.898 35.9897 142.112 35.1337 142.125 33.9881V33.6783ZM149.435 39.1836H147.007V28.3729H149.435V39.1836ZM146.857 25.5653C146.857 25.1923 146.973 24.8825 147.207 24.6361C147.446 24.3896 147.786 24.2664 148.226 24.2664C148.665 24.2664 149.005 24.3896 149.245 24.6361C149.485 24.8825 149.604 25.1923 149.604 25.5653C149.604 25.9316 149.485 26.238 149.245 26.4845C149.005 26.7243 148.665 26.8442 148.226 26.8442C147.786 26.8442 147.446 26.7243 147.207 26.4845C146.973 26.238 146.857 25.9316 146.857 25.5653ZM154.926 39.1836H152.498V23.8368H154.926V39.1836ZM160.417 39.1836H157.989V28.3729H160.417V39.1836ZM157.839 25.5653C157.839 25.1923 157.956 24.8825 158.189 24.6361C158.429 24.3896 158.769 24.2664 159.208 24.2664C159.648 24.2664 159.988 24.3896 160.227 24.6361C160.467 24.8825 160.587 25.1923 160.587 25.5653C160.587 25.9316 160.467 26.238 160.227 26.4845C159.988 26.7243 159.648 26.8442 159.208 26.8442C158.769 26.8442 158.429 26.7243 158.189 26.4845C157.956 26.238 157.839 25.9316 157.839 25.5653ZM166.368 25.7451V28.3729H168.276V30.1713H166.368V36.2062C166.368 36.6191 166.448 36.9189 166.608 37.1054C166.774 37.2852 167.067 37.3751 167.487 37.3751C167.767 37.3751 168.05 37.3418 168.336 37.2752V39.1536C167.784 39.3068 167.251 39.3834 166.738 39.3834C164.873 39.3834 163.94 38.3543 163.94 36.2961V30.1713H162.162V28.3729H163.94V25.7451H166.368ZM174.177 35.7066L176.375 28.3729H178.963L174.667 40.8222C174.008 42.6406 172.888 43.5498 171.31 43.5498C170.957 43.5498 170.567 43.4899 170.141 43.37V41.4916L170.6 41.5216C171.213 41.5216 171.673 41.4083 171.979 41.1819C172.292 40.9621 172.539 40.5891 172.719 40.0628L173.068 39.1336L169.272 28.3729H171.889L174.177 35.7066Z" fill="#121212"/>
<rect x="64.0419" y="165.699" width="81.8497" height="25.578" rx="12.789" fill="#FF6C4C"/>
<path d="M88.6209 179.832V184.815H86.9423V172.086H91.637C93.03 172.086 94.1199 172.442 94.9067 173.153C95.6994 173.864 96.0957 174.805 96.0957 175.977C96.0957 177.212 95.7081 178.165 94.9329 178.836C94.1636 179.5 93.0591 179.832 91.6195 179.832H88.6209ZM88.6209 178.46H91.637C92.5346 178.46 93.2223 178.25 93.7002 177.83C94.1782 177.405 94.4171 176.793 94.4171 175.994C94.4171 175.237 94.1782 174.63 93.7002 174.176C93.2223 173.721 92.5666 173.485 91.7332 173.468H88.6209V178.46ZM97.8809 179.998C97.8809 179.072 98.0616 178.238 98.4229 177.498C98.7901 176.758 99.2972 176.187 99.9441 175.784C100.597 175.382 101.34 175.181 102.173 175.181C103.462 175.181 104.502 175.627 105.295 176.519C106.093 177.411 106.492 178.597 106.492 180.077V180.191C106.492 181.112 106.314 181.939 105.959 182.674C105.609 183.402 105.105 183.97 104.447 184.378C103.794 184.786 103.042 184.99 102.191 184.99C100.909 184.99 99.8684 184.544 99.0699 183.653C98.2772 182.761 97.8809 181.581 97.8809 180.112V179.998ZM99.507 180.191C99.507 181.24 99.7489 182.082 100.233 182.717C100.722 183.353 101.375 183.67 102.191 183.67C103.013 183.67 103.666 183.35 104.149 182.708C104.633 182.062 104.875 181.158 104.875 179.998C104.875 178.961 104.627 178.122 104.132 177.48C103.642 176.834 102.989 176.51 102.173 176.51C101.375 176.51 100.731 176.828 100.241 177.463C99.7518 178.098 99.507 179.008 99.507 180.191ZM108.54 179.998C108.54 179.072 108.72 178.238 109.082 177.498C109.449 176.758 109.956 176.187 110.603 175.784C111.256 175.382 111.999 175.181 112.832 175.181C114.12 175.181 115.161 175.627 115.953 176.519C116.752 177.411 117.151 178.597 117.151 180.077V180.191C117.151 181.112 116.973 181.939 116.618 182.674C116.268 183.402 115.764 183.97 115.105 184.378C114.453 184.786 113.701 184.99 112.85 184.99C111.568 184.99 110.527 184.544 109.729 183.653C108.936 182.761 108.54 181.581 108.54 180.112V179.998ZM110.166 180.191C110.166 181.24 110.408 182.082 110.891 182.717C111.381 183.353 112.034 183.67 112.85 183.67C113.672 183.67 114.324 183.35 114.808 182.708C115.292 182.062 115.534 181.158 115.534 179.998C115.534 178.961 115.286 178.122 114.791 177.48C114.301 176.834 113.648 176.51 112.832 176.51C112.034 176.51 111.39 176.828 110.9 177.463C110.411 178.098 110.166 179.008 110.166 180.191ZM124.199 176.807C123.955 176.767 123.689 176.746 123.404 176.746C122.343 176.746 121.623 177.198 121.244 178.101V184.815H119.627V175.356H121.201L121.227 176.449C121.757 175.604 122.509 175.181 123.482 175.181C123.797 175.181 124.036 175.222 124.199 175.304V176.807Z" fill="white"/>
<path d="M50.9662 213.728L54.2883 207.337H56.1942L51.8055 215.319V220.066H50.1269V215.319L45.7382 207.337H47.6615L50.9662 213.728ZM57.0265 215.249C57.0265 214.323 57.2072 213.489 57.5685 212.749C57.9357 212.009 58.4428 211.438 59.0897 211.035C59.7425 210.633 60.4856 210.432 61.319 210.432C62.6071 210.432 63.6475 210.878 64.4401 211.77C65.2386 212.662 65.6378 213.848 65.6378 215.328V215.442C65.6378 216.363 65.4601 217.19 65.1045 217.924C64.7548 218.653 64.2507 219.221 63.5921 219.629C62.9393 220.037 62.1875 220.241 61.3365 220.241C60.0543 220.241 59.0139 219.795 58.2155 218.904C57.4228 218.012 57.0265 216.832 57.0265 215.363V215.249ZM58.6526 215.442C58.6526 216.491 58.8945 217.333 59.3782 217.968C59.8678 218.603 60.5206 218.921 61.3365 218.921C62.1583 218.921 62.8111 218.601 63.2948 217.959C63.7786 217.313 64.0205 216.409 64.0205 215.249C64.0205 214.212 63.7728 213.373 63.2774 212.731C62.7878 212.085 62.135 211.761 61.319 211.761C60.5206 211.761 59.8765 212.079 59.3869 212.714C58.8974 213.349 58.6526 214.258 58.6526 215.442ZM73.9537 219.131C73.3242 219.871 72.4004 220.241 71.1823 220.241C70.174 220.241 69.4047 219.95 68.8743 219.367C68.3498 218.778 68.0846 217.91 68.0787 216.762V210.607H69.6961V216.718C69.6961 218.152 70.2789 218.869 71.4446 218.869C72.6802 218.869 73.502 218.408 73.91 217.487V210.607H75.5273V220.066H73.9887L73.9537 219.131ZM83.0127 212.058C82.7679 212.017 82.5027 211.997 82.2171 211.997C81.1563 211.997 80.4365 212.449 80.0577 213.352V220.066H78.4403V210.607H80.014L80.0402 211.7C80.5706 210.855 81.3224 210.432 82.2958 210.432C82.6105 210.432 82.8495 210.473 83.0127 210.555V212.058ZM97.8522 215.442C97.8522 216.887 97.5199 218.05 96.8555 218.93C96.1911 219.804 95.2994 220.241 94.1803 220.241C92.9855 220.241 92.0617 219.819 91.4089 218.974L91.3303 220.066H89.844V206.638H91.4614V211.647C92.1142 210.837 93.0146 210.432 94.1628 210.432C95.311 210.432 96.2115 210.866 96.8643 211.735C97.5229 212.603 97.8522 213.792 97.8522 215.302V215.442ZM96.2348 215.258C96.2348 214.156 96.0221 213.306 95.5966 212.705C95.1711 212.105 94.5592 211.805 93.7607 211.805C92.6941 211.805 91.9277 212.3 91.4614 213.291V217.382C91.9568 218.373 92.7291 218.869 93.7782 218.869C94.5533 218.869 95.1566 218.569 95.5879 217.968C96.0191 217.368 96.2348 216.464 96.2348 215.258ZM99.9171 215.249C99.9171 214.323 100.098 213.489 100.459 212.749C100.826 212.009 101.333 211.438 101.98 211.035C102.633 210.633 103.376 210.432 104.21 210.432C105.498 210.432 106.538 210.878 107.331 211.77C108.129 212.662 108.528 213.848 108.528 215.328V215.442C108.528 216.363 108.351 217.19 107.995 217.924C107.646 218.653 107.141 219.221 106.483 219.629C105.83 220.037 105.078 220.241 104.227 220.241C102.945 220.241 101.905 219.795 101.106 218.904C100.313 218.012 99.9171 216.832 99.9171 215.363V215.249ZM101.543 215.442C101.543 216.491 101.785 217.333 102.269 217.968C102.758 218.603 103.411 218.921 104.227 218.921C105.049 218.921 105.702 218.601 106.186 217.959C106.669 217.313 106.911 216.409 106.911 215.249C106.911 214.212 106.663 213.373 106.168 212.731C105.678 212.085 105.026 211.761 104.21 211.761C103.411 211.761 102.767 212.079 102.278 212.714C101.788 213.349 101.543 214.258 101.543 215.442ZM110.611 215.258C110.611 213.807 110.955 212.641 111.643 211.761C112.33 210.875 113.231 210.432 114.344 210.432C115.451 210.432 116.329 210.811 116.975 211.569V206.638H118.593V220.066H117.107L117.028 219.052C116.381 219.845 115.481 220.241 114.327 220.241C113.231 220.241 112.336 219.792 111.643 218.895C110.955 217.997 110.611 216.826 110.611 215.38V215.258ZM112.228 215.442C112.228 216.514 112.45 217.353 112.893 217.959C113.336 218.566 113.948 218.869 114.729 218.869C115.754 218.869 116.503 218.408 116.975 217.487V213.142C116.492 212.251 115.749 211.805 114.746 211.805C113.954 211.805 113.336 212.111 112.893 212.723C112.45 213.335 112.228 214.241 112.228 215.442ZM124.653 217.697L126.856 210.607H128.587L124.784 221.526C124.196 223.1 123.26 223.887 121.978 223.887L121.672 223.861L121.069 223.747V222.436L121.506 222.471C122.054 222.471 122.479 222.36 122.782 222.138C123.091 221.917 123.345 221.512 123.543 220.923L123.901 219.961L120.527 210.607H122.293L124.653 217.697ZM136.992 211.752C137.709 210.872 138.642 210.432 139.79 210.432C141.789 210.432 142.797 211.56 142.815 213.816V220.066H141.197V213.807C141.192 213.125 141.034 212.621 140.725 212.294C140.422 211.968 139.947 211.805 139.3 211.805C138.776 211.805 138.315 211.945 137.919 212.224C137.523 212.504 137.214 212.871 136.992 213.326V220.066H135.375V206.638H136.992V211.752ZM151.524 220.066C151.431 219.88 151.355 219.548 151.297 219.07C150.545 219.851 149.647 220.241 148.604 220.241C147.672 220.241 146.905 219.979 146.305 219.454C145.71 218.924 145.413 218.254 145.413 217.444C145.413 216.459 145.786 215.695 146.532 215.153C147.284 214.605 148.339 214.331 149.697 214.331H151.271V213.588C151.271 213.023 151.102 212.574 150.763 212.242C150.425 211.904 149.927 211.735 149.269 211.735C148.692 211.735 148.208 211.881 147.817 212.172C147.427 212.463 147.232 212.816 147.232 213.23H145.605C145.605 212.758 145.772 212.303 146.104 211.866C146.442 211.423 146.896 211.073 147.468 210.817C148.045 210.56 148.677 210.432 149.365 210.432C150.455 210.432 151.308 210.706 151.926 211.254C152.544 211.796 152.865 212.545 152.888 213.501V217.855C152.888 218.723 152.999 219.414 153.22 219.927V220.066H151.524ZM148.84 218.834C149.347 218.834 149.828 218.703 150.283 218.44C150.737 218.178 151.067 217.837 151.271 217.417V215.477H150.003C148.021 215.477 147.03 216.057 147.03 217.216C147.03 217.723 147.199 218.12 147.537 218.405C147.876 218.691 148.31 218.834 148.84 218.834ZM161.379 217.557C161.379 217.12 161.212 216.782 160.88 216.543C160.554 216.298 159.98 216.089 159.158 215.914C158.342 215.739 157.692 215.529 157.208 215.284C156.731 215.039 156.375 214.748 156.142 214.41C155.915 214.072 155.801 213.67 155.801 213.204C155.801 212.428 156.127 211.773 156.78 211.236C157.439 210.7 158.278 210.432 159.298 210.432C160.37 210.432 161.239 210.709 161.903 211.263C162.573 211.816 162.909 212.525 162.909 213.387H161.282C161.282 212.944 161.093 212.562 160.714 212.242C160.341 211.921 159.869 211.761 159.298 211.761C158.709 211.761 158.249 211.889 157.917 212.146C157.584 212.402 157.418 212.737 157.418 213.151C157.418 213.542 157.573 213.836 157.882 214.034C158.191 214.232 158.747 214.422 159.551 214.602C160.362 214.783 161.017 214.999 161.518 215.249C162.02 215.5 162.39 215.803 162.629 216.159C162.874 216.508 162.996 216.937 162.996 217.444C162.996 218.289 162.658 218.968 161.982 219.481C161.306 219.988 160.429 220.241 159.35 220.241C158.593 220.241 157.922 220.107 157.34 219.839C156.757 219.571 156.299 219.198 155.967 218.72C155.641 218.236 155.477 217.715 155.477 217.155H157.095C157.124 217.697 157.34 218.128 157.742 218.449C158.15 218.764 158.686 218.921 159.35 218.921C159.962 218.921 160.452 218.799 160.819 218.554C161.192 218.303 161.379 217.971 161.379 217.557ZM41.2655 241.241C39.9833 241.241 38.94 240.822 38.1357 239.982C37.3314 239.137 36.9292 238.009 36.9292 236.599V236.302C36.9292 235.363 37.107 234.527 37.4625 233.793C37.8239 233.052 38.3251 232.475 38.9662 232.062C39.6132 231.642 40.3126 231.432 41.0644 231.432C42.2942 231.432 43.2501 231.837 43.932 232.647C44.6139 233.458 44.9548 234.617 44.9548 236.127V236.8H38.5466C38.5699 237.733 38.8409 238.487 39.3597 239.064C39.8842 239.636 40.5486 239.921 41.3529 239.921C41.9241 239.921 42.4079 239.805 42.8042 239.571C43.2005 239.338 43.5473 239.029 43.8446 238.645L44.8325 239.414C44.0398 240.632 42.8508 241.241 41.2655 241.241ZM41.0644 232.761C40.4117 232.761 39.8638 233 39.4208 233.478C38.9779 233.95 38.704 234.614 38.5991 235.471H43.3375V235.349C43.2909 234.527 43.0694 233.892 42.6731 233.443C42.2767 232.988 41.7405 232.761 41.0644 232.761ZM48.812 231.607L48.8645 232.796C49.5872 231.887 50.5314 231.432 51.6971 231.432C53.6962 231.432 54.7045 232.56 54.722 234.816V241.066H53.1046V234.807C53.0988 234.125 52.9414 233.621 52.6325 233.294C52.3294 232.968 51.8544 232.805 51.2075 232.805C50.6829 232.805 50.2225 232.945 49.8262 233.224C49.4298 233.504 49.1209 233.871 48.8995 234.326V241.066H47.2821V231.607H48.812ZM57.1803 236.249C57.1803 235.323 57.361 234.489 57.7224 233.749C58.0896 233.009 58.5966 232.438 59.2436 232.035C59.8963 231.633 60.6395 231.432 61.4729 231.432C62.761 231.432 63.8013 231.878 64.594 232.77C65.3925 233.662 65.7917 234.848 65.7917 236.328V236.442C65.7917 237.363 65.6139 238.19 65.2584 238.924C64.9087 239.653 64.4046 240.221 63.746 240.629C63.0932 241.037 62.3413 241.241 61.4904 241.241C60.2082 241.241 59.1678 240.795 58.3693 239.904C57.5767 239.012 57.1803 237.832 57.1803 236.363V236.249ZM58.8065 236.442C58.8065 237.491 59.0483 238.333 59.5321 238.968C60.0217 239.603 60.6744 239.921 61.4904 239.921C62.3122 239.921 62.965 239.601 63.4487 238.959C63.9325 238.313 64.1743 237.409 64.1743 236.249C64.1743 235.212 63.9266 234.373 63.4312 233.731C62.9416 233.085 62.2889 232.761 61.4729 232.761C60.6744 232.761 60.0304 233.079 59.5408 233.714C59.0512 234.349 58.8065 235.258 58.8065 236.442ZM74.1076 240.131C73.4781 240.871 72.5543 241.241 71.3362 241.241C70.3279 241.241 69.5585 240.95 69.0282 240.367C68.5036 239.778 68.2384 238.91 68.2326 237.762V231.607H69.85V237.718C69.85 239.152 70.4328 239.869 71.5985 239.869C72.8341 239.869 73.6559 239.408 74.0638 238.487V231.607H75.6812V241.066H74.1425L74.1076 240.131ZM78.2095 236.258C78.2095 234.783 78.5505 233.612 79.2324 232.744C79.9143 231.869 80.8177 231.432 81.9426 231.432C83.0966 231.432 83.9971 231.84 84.644 232.656L84.7227 231.607H86.2002V240.839C86.2002 242.063 85.8359 243.028 85.1074 243.733C84.3847 244.438 83.4113 244.791 82.1874 244.791C81.5055 244.791 80.8381 244.645 80.1853 244.354C79.5326 244.062 79.0342 243.663 78.6904 243.156L79.5297 242.185C80.2232 243.042 81.0712 243.471 82.0737 243.471C82.8605 243.471 83.4725 243.249 83.9096 242.806C84.3526 242.363 84.5741 241.74 84.5741 240.935V240.122C83.9271 240.868 83.0441 241.241 81.9251 241.241C80.8177 241.241 79.9202 240.795 79.2324 239.904C78.5505 239.012 78.2095 237.797 78.2095 236.258ZM79.8356 236.442C79.8356 237.508 80.0542 238.347 80.4913 238.959C80.9285 239.566 81.5404 239.869 82.3273 239.869C83.3472 239.869 84.0961 239.405 84.5741 238.479V234.16C84.0787 233.256 83.3356 232.805 82.3447 232.805C81.5579 232.805 80.943 233.111 80.5001 233.723C80.0571 234.335 79.8356 235.241 79.8356 236.442ZM90.713 232.752C91.4299 231.872 92.3625 231.432 93.5106 231.432C95.5098 231.432 96.5181 232.56 96.5355 234.816V241.066H94.9182V234.807C94.9124 234.125 94.755 233.621 94.4461 233.294C94.143 232.968 93.668 232.805 93.0211 232.805C92.4965 232.805 92.0361 232.945 91.6398 233.224C91.2434 233.504 90.9345 233.871 90.713 234.326V241.066H89.0957V227.638H90.713V232.752ZM108.866 233.058C108.621 233.017 108.356 232.997 108.07 232.997C107.01 232.997 106.29 233.449 105.911 234.352V241.066H104.294V231.607H105.867L105.894 232.7C106.424 231.855 107.176 231.432 108.149 231.432C108.464 231.432 108.703 231.473 108.866 231.555V233.058ZM114.559 241.241C113.277 241.241 112.234 240.822 111.429 239.982C110.625 239.137 110.223 238.009 110.223 236.599V236.302C110.223 235.363 110.401 234.527 110.756 233.793C111.117 233.052 111.619 232.475 112.26 232.062C112.907 231.642 113.606 231.432 114.358 231.432C115.588 231.432 116.544 231.837 117.226 232.647C117.907 233.458 118.248 234.617 118.248 236.127V236.8H111.84C111.863 237.733 112.134 238.487 112.653 239.064C113.178 239.636 113.842 239.921 114.646 239.921C115.218 239.921 115.701 239.805 116.098 239.571C116.494 239.338 116.841 239.029 117.138 238.645L118.126 239.414C117.333 240.632 116.144 241.241 114.559 241.241ZM114.358 232.761C113.705 232.761 113.157 233 112.714 233.478C112.271 233.95 111.998 234.614 111.893 235.471H116.631V235.349C116.584 234.527 116.363 233.892 115.967 233.443C115.57 232.988 115.034 232.761 114.358 232.761ZM126.083 238.557C126.083 238.12 125.917 237.782 125.585 237.543C125.259 237.298 124.685 237.089 123.863 236.914C123.047 236.739 122.397 236.529 121.913 236.284C121.435 236.039 121.08 235.748 120.847 235.41C120.619 235.072 120.506 234.67 120.506 234.204C120.506 233.428 120.832 232.773 121.485 232.236C122.143 231.7 122.983 231.432 124.003 231.432C125.075 231.432 125.944 231.709 126.608 232.263C127.278 232.816 127.613 233.525 127.613 234.387H125.987C125.987 233.944 125.798 233.562 125.419 233.242C125.046 232.921 124.574 232.761 124.003 232.761C123.414 232.761 122.954 232.889 122.621 233.146C122.289 233.402 122.123 233.737 122.123 234.151C122.123 234.542 122.278 234.836 122.586 235.034C122.895 235.232 123.452 235.422 124.256 235.602C125.066 235.783 125.722 235.999 126.223 236.249C126.725 236.5 127.095 236.803 127.334 237.159C127.578 237.508 127.701 237.937 127.701 238.444C127.701 239.289 127.363 239.968 126.687 240.481C126.011 240.988 125.133 241.241 124.055 241.241C123.297 241.241 122.627 241.107 122.044 240.839C121.462 240.571 121.004 240.198 120.672 239.72C120.345 239.236 120.182 238.715 120.182 238.155H121.8C121.829 238.697 122.044 239.128 122.447 239.449C122.855 239.764 123.391 239.921 124.055 239.921C124.667 239.921 125.157 239.799 125.524 239.554C125.897 239.303 126.083 238.971 126.083 238.557ZM134.181 241.241C132.898 241.241 131.855 240.822 131.051 239.982C130.247 239.137 129.844 238.009 129.844 236.599V236.302C129.844 235.363 130.022 234.527 130.378 233.793C130.739 233.052 131.24 232.475 131.881 232.062C132.528 231.642 133.228 231.432 133.98 231.432C135.209 231.432 136.165 231.837 136.847 232.647C137.529 233.458 137.87 234.617 137.87 236.127V236.8H131.462C131.485 237.733 131.756 238.487 132.275 239.064C132.799 239.636 133.464 239.921 134.268 239.921C134.839 239.921 135.323 239.805 135.719 239.571C136.116 239.338 136.463 239.029 136.76 238.645L137.748 239.414C136.955 240.632 135.766 241.241 134.181 241.241ZM133.98 232.761C133.327 232.761 132.779 233 132.336 233.478C131.893 233.95 131.619 234.614 131.514 235.471H136.253V235.349C136.206 234.527 135.985 233.892 135.588 233.443C135.192 232.988 134.656 232.761 133.98 232.761ZM144.77 233.058C144.525 233.017 144.26 232.997 143.974 232.997C142.913 232.997 142.194 233.449 141.815 234.352V241.066H140.197V231.607H141.771L141.797 232.7C142.328 231.855 143.079 231.432 144.053 231.432C144.367 231.432 144.606 231.473 144.77 231.555V233.058ZM149.991 238.872L152.334 231.607H153.986L150.594 241.066H149.361L145.934 231.607H147.586L149.991 238.872ZM159.793 241.241C158.51 241.241 157.467 240.822 156.663 239.982C155.859 239.137 155.456 238.009 155.456 236.599V236.302C155.456 235.363 155.634 234.527 155.99 233.793C156.351 233.052 156.852 232.475 157.493 232.062C158.14 231.642 158.84 231.432 159.592 231.432C160.821 231.432 161.777 231.837 162.459 232.647C163.141 233.458 163.482 234.617 163.482 236.127V236.8H157.074C157.097 237.733 157.368 238.487 157.887 239.064C158.411 239.636 159.076 239.921 159.88 239.921C160.451 239.921 160.935 239.805 161.331 239.571C161.728 239.338 162.075 239.029 162.372 238.645L163.36 239.414C162.567 240.632 161.378 241.241 159.793 241.241ZM159.592 232.761C158.939 232.761 158.391 233 157.948 233.478C157.505 233.95 157.231 234.614 157.126 235.471H161.865V235.349C161.818 234.527 161.597 233.892 161.2 233.443C160.804 232.988 160.268 232.761 159.592 232.761ZM171.317 238.557C171.317 238.12 171.151 237.782 170.819 237.543C170.492 237.298 169.918 237.089 169.096 236.914C168.281 236.739 167.631 236.529 167.147 236.284C166.669 236.039 166.313 235.748 166.08 235.41C165.853 235.072 165.739 234.67 165.739 234.204C165.739 233.428 166.066 232.773 166.719 232.236C167.377 231.7 168.216 231.432 169.236 231.432C170.309 231.432 171.177 231.709 171.842 232.263C172.512 232.816 172.847 233.525 172.847 234.387H171.221C171.221 233.944 171.031 233.562 170.653 233.242C170.28 232.921 169.808 232.761 169.236 232.761C168.648 232.761 168.187 232.889 167.855 233.146C167.523 233.402 167.357 233.737 167.357 234.151C167.357 234.542 167.511 234.836 167.82 235.034C168.129 235.232 168.686 235.422 169.49 235.602C170.3 235.783 170.956 235.999 171.457 236.249C171.958 236.5 172.328 236.803 172.567 237.159C172.812 237.508 172.934 237.937 172.934 238.444C172.934 239.289 172.596 239.968 171.92 240.481C171.244 240.988 170.367 241.241 169.289 241.241C168.531 241.241 167.861 241.107 167.278 240.839C166.695 240.571 166.238 240.198 165.905 239.72C165.579 239.236 165.416 238.715 165.416 238.155H167.033C167.062 238.697 167.278 239.128 167.68 239.449C168.088 239.764 168.624 239.921 169.289 239.921C169.901 239.921 170.39 239.799 170.758 239.554C171.131 239.303 171.317 238.971 171.317 238.557Z" fill="#121212"/>
<rect x="151.786" y="81.292" width="54.6243" height="97.9769" rx="10.2312" transform="rotate(90 151.786 81.292)" fill="#575A60"/>
<rect x="149.186" y="83.8936" width="49.422" height="92.7746" rx="6.39451" transform="rotate(90 149.186 83.8936)" fill="white"/>
<path d="M78.9539 86.4941L78.9539 130.714L62.8484 130.714C60.7294 130.714 59.0117 128.996 59.0117 126.877L59.0117 90.3308C59.0117 88.2119 60.7294 86.4941 62.8484 86.4941L78.9539 86.4941Z" fill="#FF6C4C"/>
<path d="M152.286 97.7666C154.405 97.7666 156.123 99.4844 156.123 101.603L156.123 115.606C156.123 117.725 154.405 119.443 152.286 119.443L149.186 119.443L149.186 97.7666L152.286 97.7666Z" fill="#575A60"/>
<defs>
<filter id="filter0_d" x="0.0968885" y="0.721098" width="209.74" height="269.848" filterUnits="userSpaceOnUse" color-interpolation-filters="sRGB">
<feFlood flood-opacity="0" result="BackgroundImageFix"/>
<feColorMatrix in="SourceAlpha" type="matrix" values="0 0 0 0 0 0 0 0 0 0 0 0 0 0 0 0 0 0 127 0"/>
<feOffset dy="2.5578"/>
<feGaussianBlur stdDeviation="1.91835"/>
<feColorMatrix type="matrix" values="0 0 0 0 0 0 0 0 0 0 0 0 0 0 0 0 0 0 0.1 0"/>
<feBlend mode="normal" in2="BackgroundImageFix" result="effect1_dropShadow"/>
<feBlend mode="normal" in="SourceGraphic" in2="effect1_dropShadow" result="shape"/>
</filter>
</defs>
</svg>
