<svg width="210" height="271" viewBox="0 0 210 271" fill="none" xmlns="http://www.w3.org/2000/svg">
<g filter="url(#filter0_d)">
<path fill-rule="evenodd" clip-rule="evenodd" d="M3.93359 5.58963C3.93359 3.47068 5.65135 1.75293 7.7703 1.75293H202.163C204.282 1.75293 206 3.47068 206 5.58963V260.091C206 262.21 204.282 263.928 202.163 263.928H7.77029C5.65134 263.928 3.93359 262.21 3.93359 260.091L3.93359 5.58963Z" fill="white"/>
<path d="M4.43359 5.58963C4.43359 3.74682 5.92749 2.25293 7.7703 2.25293H202.163C204.006 2.25293 205.5 3.74682 205.5 5.58963V260.091C205.5 261.934 204.006 263.428 202.163 263.428H7.77029C5.92748 263.428 4.43359 261.934 4.43359 260.091V5.58963Z" stroke="#E1E1E1"/>
</g>
<path d="M55.9508 35.1897C55.9508 34.5503 55.7243 34.0574 55.2714 33.711C54.8251 33.3646 54.0158 33.0149 52.8435 32.6619C51.6711 32.3089 50.7386 31.9159 50.0459 31.4829C48.7203 30.6503 48.0576 29.5646 48.0576 28.2257C48.0576 27.0534 48.5338 26.0876 49.4864 25.3282C50.4455 24.5689 51.6878 24.1892 53.2132 24.1892C54.2256 24.1892 55.1282 24.3757 55.9208 24.7487C56.7135 25.1217 57.3363 25.6546 57.7892 26.3473C58.2422 27.0334 58.4686 27.7961 58.4686 28.6354H55.9508C55.9508 27.876 55.711 27.2832 55.2314 26.8569C54.7585 26.4239 54.0791 26.2075 53.1932 26.2075C52.3672 26.2075 51.7244 26.384 51.2648 26.737C50.8119 27.09 50.5854 27.5829 50.5854 28.2157C50.5854 28.7486 50.8319 29.1949 51.3248 29.5546C51.8177 29.9076 52.6303 30.254 53.7627 30.5937C54.895 30.9267 55.8043 31.3097 56.4903 31.7427C57.1764 32.169 57.6793 32.6619 57.999 33.2214C58.3188 33.7743 58.4786 34.4237 58.4786 35.1698C58.4786 36.3821 58.0124 37.3479 57.0798 38.0673C56.154 38.78 54.895 39.1364 53.3031 39.1364C52.2507 39.1364 51.2815 38.9432 50.3956 38.5568C49.5163 38.1639 48.8303 37.6243 48.3373 36.9382C47.8511 36.2522 47.608 35.4528 47.608 34.5403H50.1358C50.1358 35.3663 50.4089 36.0057 50.9551 36.4587C51.5013 36.9116 52.284 37.1381 53.3031 37.1381C54.1823 37.1381 54.8418 36.9616 55.2814 36.6085C55.7277 36.2488 55.9508 35.7759 55.9508 35.1897ZM63.7601 25.4981V28.1258H65.6685V29.9243H63.7601V35.9591C63.7601 36.3721 63.84 36.6718 63.9999 36.8583C64.1664 37.0382 64.4595 37.1281 64.8791 37.1281C65.1589 37.1281 65.442 37.0948 65.7284 37.0282V38.9065C65.1756 39.0598 64.6427 39.1364 64.1298 39.1364C62.2647 39.1364 61.3322 38.1072 61.3322 36.049V29.9243H59.5537V28.1258H61.3322V25.4981H63.7601ZM73.4478 30.3439C73.1281 30.2906 72.7983 30.264 72.4586 30.264C71.3463 30.264 70.5969 30.6903 70.2106 31.5429V38.9365H67.7826V28.1258H70.1007L70.1606 29.3348C70.7468 28.3956 71.5594 27.926 72.5985 27.926C72.9449 27.926 73.2313 27.9726 73.4578 28.0659L73.4478 30.3439ZM79.7983 39.1364C78.2596 39.1364 77.0107 38.6534 76.0515 37.6876C75.099 36.7151 74.6228 35.4229 74.6228 33.8109V33.5112C74.6228 32.4321 74.8293 31.4696 75.2422 30.6237C75.6619 29.7711 76.248 29.1083 77.0007 28.6354C77.7534 28.1624 78.5927 27.926 79.5186 27.926C80.9906 27.926 82.1263 28.3956 82.9256 29.3348C83.7316 30.274 84.1346 31.6028 84.1346 33.3213V34.3005H77.0707C77.1439 35.1931 77.4404 35.8991 77.9599 36.4187C78.4861 36.9382 79.1456 37.198 79.9382 37.198C81.0506 37.198 81.9565 36.7484 82.6559 35.8492L83.9647 37.0981C83.5318 37.7442 82.9523 38.2471 82.2262 38.6068C81.5069 38.9598 80.6976 39.1364 79.7983 39.1364ZM79.5086 29.8743C78.8425 29.8743 78.3029 30.1074 77.89 30.5737C77.4836 31.04 77.2239 31.6894 77.1106 32.522H81.7367V32.3422C81.6834 31.5296 81.4669 30.9167 81.0872 30.5038C80.7075 30.0841 80.1813 29.8743 79.5086 29.8743ZM92.3436 35.999C92.3436 35.5661 92.1637 35.2364 91.804 35.0099C91.451 34.7834 90.8615 34.5836 90.0355 34.4104C89.2096 34.2372 88.5202 34.0174 87.9673 33.751C86.755 33.1648 86.1489 32.3155 86.1489 31.2032C86.1489 30.2706 86.5419 29.4913 87.3279 28.8652C88.1139 28.239 89.113 27.926 90.3253 27.926C91.6175 27.926 92.6599 28.2457 93.4526 28.8852C94.2519 29.5246 94.6516 30.3539 94.6516 31.373H92.2237C92.2237 30.9068 92.0505 30.5204 91.7041 30.214C91.3577 29.9009 90.8981 29.7444 90.3253 29.7444C89.7924 29.7444 89.3561 29.8676 89.0164 30.1141C88.6834 30.3606 88.5168 30.6903 88.5168 31.1033C88.5168 31.4763 88.6734 31.766 88.9864 31.9725C89.2995 32.179 89.9323 32.3888 90.8848 32.602C91.8373 32.8085 92.5833 33.0582 93.1229 33.3513C93.6691 33.6377 94.0721 33.9841 94.3318 34.3904C94.5983 34.7967 94.7315 35.2897 94.7315 35.8692C94.7315 36.8417 94.3285 37.631 93.5225 38.2371C92.7166 38.8366 91.6608 39.1364 90.3553 39.1364C89.4694 39.1364 88.68 38.9765 87.9873 38.6568C87.2946 38.337 86.755 37.8974 86.3687 37.3379C85.9823 36.7784 85.7892 36.1756 85.7892 35.5294H88.1472C88.1805 36.1023 88.3969 36.5452 88.7966 36.8583C89.1963 37.1647 89.7258 37.3179 90.3852 37.3179C91.0247 37.3179 91.5109 37.198 91.844 36.9582C92.177 36.7118 92.3436 36.392 92.3436 35.999ZM103.17 35.999C103.17 35.5661 102.99 35.2364 102.631 35.0099C102.278 34.7834 101.688 34.5836 100.862 34.4104C100.036 34.2372 99.3469 34.0174 98.794 33.751C97.5817 33.1648 96.9756 32.3155 96.9756 31.2032C96.9756 30.2706 97.3686 29.4913 98.1546 28.8652C98.9406 28.239 99.9397 27.926 101.152 27.926C102.444 27.926 103.487 28.2457 104.279 28.8852C105.079 29.5246 105.478 30.3539 105.478 31.373H103.05C103.05 30.9068 102.877 30.5204 102.531 30.214C102.184 29.9009 101.725 29.7444 101.152 29.7444C100.619 29.7444 100.183 29.8676 99.8431 30.1141C99.5101 30.3606 99.3435 30.6903 99.3435 31.1033C99.3435 31.4763 99.5001 31.766 99.8131 31.9725C100.126 32.179 100.759 32.3888 101.712 32.602C102.664 32.8085 103.41 33.0582 103.95 33.3513C104.496 33.6377 104.899 33.9841 105.159 34.3904C105.425 34.7967 105.558 35.2897 105.558 35.8692C105.558 36.8417 105.155 37.631 104.349 38.2371C103.543 38.8366 102.488 39.1364 101.182 39.1364C100.296 39.1364 99.5067 38.9765 98.814 38.6568C98.1213 38.337 97.5817 37.8974 97.1954 37.3379C96.8091 36.7784 96.6159 36.1756 96.6159 35.5294H98.9739C99.0072 36.1023 99.2236 36.5452 99.6233 36.8583C100.023 37.1647 100.553 37.3179 101.212 37.3179C101.851 37.3179 102.338 37.198 102.671 36.9582C103.004 36.7118 103.17 36.392 103.17 35.999ZM116.191 38.9365H113.673V24.389H116.191V38.9365ZM121.572 28.1258L121.642 29.3747C122.442 28.4089 123.491 27.926 124.79 27.926C127.041 27.926 128.187 29.2149 128.227 31.7927V38.9365H125.799V31.9325C125.799 31.2465 125.649 30.7402 125.349 30.4138C125.056 30.0808 124.573 29.9143 123.9 29.9143C122.921 29.9143 122.192 30.3572 121.712 31.2431V38.9365H119.284V28.1258H121.572ZM130.511 33.4512C130.511 31.786 130.897 30.4505 131.67 29.4447C132.442 28.4322 133.478 27.926 134.777 27.926C135.923 27.926 136.849 28.3256 137.555 29.1249V23.5897H139.983V38.9365H137.785L137.665 37.8175C136.939 38.6967 135.969 39.1364 134.757 39.1364C133.492 39.1364 132.466 38.6268 131.68 37.6077C130.9 36.5885 130.511 35.2031 130.511 33.4512ZM132.939 33.6611C132.939 34.7601 133.149 35.6194 133.568 36.2388C133.994 36.8516 134.597 37.1581 135.377 37.1581C136.369 37.1581 137.095 36.7151 137.555 35.8292V31.2132C137.108 30.3472 136.389 29.9143 135.397 29.9143C134.611 29.9143 134.004 30.2273 133.578 30.8535C133.152 31.4729 132.939 32.4088 132.939 33.6611ZM147.532 39.1364C145.993 39.1364 144.745 38.6534 143.785 37.6876C142.833 36.7151 142.357 35.4229 142.357 33.8109V33.5112C142.357 32.4321 142.563 31.4696 142.976 30.6237C143.396 29.7711 143.982 29.1083 144.735 28.6354C145.487 28.1624 146.327 27.926 147.252 27.926C148.724 27.926 149.86 28.3956 150.659 29.3348C151.465 30.274 151.868 31.6028 151.868 33.3213V34.3005H144.804C144.878 35.1931 145.174 35.8991 145.694 36.4187C146.22 36.9382 146.879 37.198 147.672 37.198C148.784 37.198 149.69 36.7484 150.39 35.8492L151.699 37.0981C151.266 37.7442 150.686 38.2471 149.96 38.6068C149.241 38.9598 148.431 39.1364 147.532 39.1364ZM147.242 29.8743C146.576 29.8743 146.037 30.1074 145.624 30.5737C145.217 31.04 144.958 31.6894 144.844 32.522H149.47V32.3422C149.417 31.5296 149.201 30.9167 148.821 30.5038C148.441 30.0841 147.915 29.8743 147.242 29.8743ZM157.899 31.6828L159.957 28.1258H162.655L159.348 33.4512L162.765 38.9365H160.087L157.929 35.2397L155.781 38.9365H153.083L156.5 33.4512L153.203 28.1258H155.881L157.899 31.6828Z" fill="#121212"/>
<path d="M59.1281 213.481L62.4502 207.09H64.3561L59.9674 215.072V219.819H58.2888V215.072L53.9001 207.09H55.8234L59.1281 213.481ZM65.1884 215.002C65.1884 214.076 65.3691 213.242 65.7304 212.502C66.0976 211.762 66.6047 211.19 67.2516 210.788C67.9044 210.386 68.6475 210.185 69.4809 210.185C70.769 210.185 71.8094 210.631 72.602 211.523C73.4005 212.414 73.7997 213.601 73.7997 215.081V215.195C73.7997 216.115 73.622 216.943 73.2664 217.677C72.9167 218.406 72.4126 218.974 71.754 219.382C71.1012 219.79 70.3494 219.994 69.4984 219.994C68.2162 219.994 67.1758 219.548 66.3774 218.657C65.5847 217.765 65.1884 216.585 65.1884 215.116V215.002ZM66.8145 215.195C66.8145 216.244 67.0564 217.086 67.5401 217.721C68.0297 218.356 68.6825 218.674 69.4984 218.674C70.3202 218.674 70.973 218.354 71.4567 217.712C71.9405 217.065 72.1824 216.162 72.1824 215.002C72.1824 213.965 71.9347 213.126 71.4393 212.484C70.9497 211.837 70.2969 211.514 69.4809 211.514C68.6825 211.514 68.0384 211.832 67.5489 212.467C67.0593 213.102 66.8145 214.011 66.8145 215.195ZM82.1156 218.884C81.4861 219.624 80.5623 219.994 79.3442 219.994C78.3359 219.994 77.5666 219.703 77.0362 219.12C76.5117 218.531 76.2465 217.663 76.2406 216.515V210.36H77.858V216.471C77.858 217.905 78.4408 218.622 79.6065 218.622C80.8421 218.622 81.6639 218.161 82.0719 217.24V210.36H83.6892V219.819H82.1506L82.1156 218.884ZM97.331 219.819C97.2378 219.633 97.162 219.301 97.1037 218.823C96.3519 219.604 95.4543 219.994 94.411 219.994C93.4785 219.994 92.7121 219.732 92.1118 219.207C91.5173 218.677 91.22 218.007 91.22 217.197C91.22 216.212 91.593 215.448 92.3391 214.906C93.0909 214.358 94.1458 214.084 95.5038 214.084H97.0775V213.341C97.0775 212.776 96.9085 212.327 96.5704 211.995C96.2324 211.657 95.7341 211.488 95.0755 211.488C94.4985 211.488 94.0147 211.633 93.6242 211.925C93.2337 212.216 93.0385 212.569 93.0385 212.983H91.4124C91.4124 212.511 91.5785 212.056 91.9107 211.619C92.2487 211.176 92.7033 210.826 93.2745 210.57C93.8515 210.313 94.4839 210.185 95.1716 210.185C96.2615 210.185 97.1154 210.459 97.7332 211.007C98.351 211.549 98.6715 212.298 98.6949 213.254V217.607C98.6949 218.476 98.8056 219.167 99.0271 219.679V219.819H97.331ZM94.6471 218.587C95.1541 218.587 95.635 218.456 96.0896 218.193C96.5442 217.931 96.8735 217.59 97.0775 217.17V215.23H95.8098C93.8282 215.23 92.8374 215.809 92.8374 216.969C92.8374 217.476 93.0064 217.873 93.3444 218.158C93.6825 218.444 94.1167 218.587 94.6471 218.587ZM106.25 211.811C106.005 211.77 105.74 211.75 105.455 211.75C104.394 211.75 103.674 212.202 103.295 213.105V219.819H101.678V210.36H103.251L103.278 211.453C103.808 210.608 104.56 210.185 105.533 210.185C105.848 210.185 106.087 210.226 106.25 210.308V211.811ZM111.943 219.994C110.661 219.994 109.618 219.575 108.813 218.735C108.009 217.89 107.607 216.762 107.607 215.352V215.055C107.607 214.116 107.785 213.28 108.14 212.546C108.502 211.805 109.003 211.228 109.644 210.815C110.291 210.395 110.99 210.185 111.742 210.185C112.972 210.185 113.928 210.59 114.61 211.4C115.292 212.21 115.633 213.37 115.633 214.88V215.553H109.224C109.248 216.486 109.519 217.24 110.037 217.817C110.562 218.388 111.226 218.674 112.031 218.674C112.602 218.674 113.086 218.558 113.482 218.324C113.878 218.091 114.225 217.782 114.522 217.398L115.51 218.167C114.718 219.385 113.529 219.994 111.943 219.994ZM111.742 211.514C111.089 211.514 110.542 211.753 110.099 212.231C109.656 212.703 109.382 213.367 109.277 214.224H114.015V214.102C113.969 213.28 113.747 212.645 113.351 212.196C112.954 211.741 112.418 211.514 111.742 211.514ZM125.97 217.625L128.313 210.36H129.965L126.573 219.819H125.34L121.913 210.36H123.565L125.97 217.625ZM135.772 219.994C134.49 219.994 133.446 219.575 132.642 218.735C131.838 217.89 131.435 216.762 131.435 215.352V215.055C131.435 214.116 131.613 213.28 131.969 212.546C132.33 211.805 132.831 211.228 133.472 210.815C134.119 210.395 134.819 210.185 135.571 210.185C136.8 210.185 137.756 210.59 138.438 211.4C139.12 212.21 139.461 213.37 139.461 214.88V215.553H133.053C133.076 216.486 133.347 217.24 133.866 217.817C134.39 218.388 135.055 218.674 135.859 218.674C136.43 218.674 136.914 218.558 137.31 218.324C137.707 218.091 138.054 217.782 138.351 217.398L139.339 218.167C138.546 219.385 137.357 219.994 135.772 219.994ZM135.571 211.514C134.918 211.514 134.37 211.753 133.927 212.231C133.484 212.703 133.21 213.367 133.105 214.224H137.844V214.102C137.797 213.28 137.576 212.645 137.179 212.196C136.783 211.741 136.247 211.514 135.571 211.514ZM146.361 211.811C146.116 211.77 145.851 211.75 145.565 211.75C144.504 211.75 143.785 212.202 143.406 213.105V219.819H141.788V210.36H143.362L143.388 211.453C143.919 210.608 144.67 210.185 145.644 210.185C145.959 210.185 146.197 210.226 146.361 210.308V211.811ZM151.555 217.45L153.759 210.36H155.49L151.687 221.279C151.098 222.853 150.162 223.64 148.88 223.64L148.574 223.614L147.971 223.5V222.189L148.408 222.224C148.956 222.224 149.381 222.113 149.685 221.891C149.993 221.67 150.247 221.265 150.445 220.676L150.804 219.714L147.429 210.36H149.195L151.555 217.45ZM75.8612 238.31C75.8612 237.873 75.6951 237.535 75.3629 237.296C75.0365 237.051 74.4624 236.842 73.6406 236.667C72.8247 236.492 72.1748 236.282 71.691 236.037C71.2131 235.792 70.8576 235.501 70.6245 235.163C70.3972 234.825 70.2835 234.423 70.2835 233.956C70.2835 233.181 70.6099 232.526 71.2627 231.989C71.9213 231.453 72.7605 231.185 73.7805 231.185C74.8529 231.185 75.7213 231.462 76.3858 232.016C77.056 232.569 77.3912 233.277 77.3912 234.14H75.765C75.765 233.697 75.5756 233.315 75.1968 232.995C74.8238 232.674 74.3517 232.514 73.7805 232.514C73.1918 232.514 72.7314 232.642 72.3992 232.899C72.067 233.155 71.9009 233.49 71.9009 233.904C71.9009 234.295 72.0553 234.589 72.3642 234.787C72.6731 234.985 73.2297 235.175 74.034 235.355C74.8442 235.536 75.4999 235.752 76.0011 236.002C76.5023 236.253 76.8724 236.556 77.1114 236.911C77.3562 237.261 77.4786 237.69 77.4786 238.197C77.4786 239.042 77.1405 239.721 76.4644 240.234C75.7884 240.741 74.9112 240.994 73.833 240.994C73.0753 240.994 72.405 240.86 71.8222 240.592C71.2394 240.324 70.7818 239.951 70.4496 239.473C70.1232 238.989 69.96 238.468 69.96 237.908H71.5774C71.6065 238.45 71.8222 238.881 72.2243 239.202C72.6323 239.517 73.1685 239.674 73.833 239.674C74.4449 239.674 74.9345 239.552 75.3017 239.307C75.6747 239.056 75.8612 238.724 75.8612 238.31ZM82.2275 229.069V231.36H83.9935V232.61H82.2275V238.476C82.2275 238.855 82.3062 239.141 82.4635 239.333C82.6209 239.52 82.889 239.613 83.2679 239.613C83.4544 239.613 83.7108 239.578 84.0372 239.508V240.819C83.6117 240.936 83.1979 240.994 82.7958 240.994C82.073 240.994 81.5281 240.776 81.1609 240.338C80.7937 239.901 80.6101 239.281 80.6101 238.476V232.61H78.8879V231.36H80.6101V229.069H82.2275ZM90.9105 232.811C90.6658 232.77 90.4006 232.75 90.115 232.75C89.0542 232.75 88.3344 233.202 87.9556 234.105V240.819H86.3382V231.36H87.9119L87.9381 232.453C88.4685 231.608 89.2203 231.185 90.1937 231.185C90.5084 231.185 90.7474 231.226 90.9105 231.308V232.811ZM96.6037 240.994C95.3214 240.994 94.2781 240.575 93.4738 239.735C92.6695 238.89 92.2674 237.762 92.2674 236.352V236.055C92.2674 235.116 92.4451 234.28 92.8007 233.546C93.162 232.805 93.6633 232.228 94.3044 231.815C94.9513 231.395 95.6507 231.185 96.4026 231.185C97.6324 231.185 98.5882 231.59 99.2701 232.4C99.952 233.21 100.293 234.37 100.293 235.88V236.553H93.8847C93.908 237.486 94.1791 238.24 94.6978 238.817C95.2223 239.388 95.8868 239.674 96.6911 239.674C97.2623 239.674 97.746 239.558 98.1423 239.324C98.5387 239.091 98.8854 238.782 99.1827 238.398L100.171 239.167C99.3779 240.385 98.189 240.994 96.6037 240.994ZM96.4026 232.514C95.7498 232.514 95.2019 232.753 94.759 233.231C94.316 233.703 94.0421 234.367 93.9372 235.224H98.6756V235.102C98.629 234.28 98.4075 233.645 98.0112 233.196C97.6149 232.741 97.0787 232.514 96.4026 232.514ZM108.128 238.31C108.128 237.873 107.962 237.535 107.63 237.296C107.303 237.051 106.729 236.842 105.907 236.667C105.091 236.492 104.442 236.282 103.958 236.037C103.48 235.792 103.124 235.501 102.891 235.163C102.664 234.825 102.55 234.423 102.55 233.956C102.55 233.181 102.877 232.526 103.529 231.989C104.188 231.453 105.027 231.185 106.047 231.185C107.12 231.185 107.988 231.462 108.653 232.016C109.323 232.569 109.658 233.277 109.658 234.14H108.032C108.032 233.697 107.842 233.315 107.464 232.995C107.091 232.674 106.618 232.514 106.047 232.514C105.459 232.514 104.998 232.642 104.666 232.899C104.334 233.155 104.168 233.49 104.168 233.904C104.168 234.295 104.322 234.589 104.631 234.787C104.94 234.985 105.497 235.175 106.301 235.355C107.111 235.536 107.767 235.752 108.268 236.002C108.769 236.253 109.139 236.556 109.378 236.911C109.623 237.261 109.745 237.69 109.745 238.197C109.745 239.042 109.407 239.721 108.731 240.234C108.055 240.741 107.178 240.994 106.1 240.994C105.342 240.994 104.672 240.86 104.089 240.592C103.506 240.324 103.049 239.951 102.716 239.473C102.39 238.989 102.227 238.468 102.227 237.908H103.844C103.873 238.45 104.089 238.881 104.491 239.202C104.899 239.517 105.435 239.674 106.1 239.674C106.712 239.674 107.201 239.552 107.568 239.307C107.941 239.056 108.128 238.724 108.128 238.31ZM117.808 238.31C117.808 237.873 117.642 237.535 117.309 237.296C116.983 237.051 116.409 236.842 115.587 236.667C114.771 236.492 114.121 236.282 113.638 236.037C113.16 235.792 112.804 235.501 112.571 235.163C112.344 234.825 112.23 234.423 112.23 233.956C112.23 233.181 112.556 232.526 113.209 231.989C113.868 231.453 114.707 231.185 115.727 231.185C116.799 231.185 117.668 231.462 118.332 232.016C119.002 232.569 119.338 233.277 119.338 234.14H117.712C117.712 233.697 117.522 233.315 117.143 232.995C116.77 232.674 116.298 232.514 115.727 232.514C115.138 232.514 114.678 232.642 114.346 232.899C114.013 233.155 113.847 233.49 113.847 233.904C113.847 234.295 114.002 234.589 114.311 234.787C114.62 234.985 115.176 235.175 115.981 235.355C116.791 235.536 117.446 235.752 117.948 236.002C118.449 236.253 118.819 236.556 119.058 236.911C119.303 237.261 119.425 237.69 119.425 238.197C119.425 239.042 119.087 239.721 118.411 240.234C117.735 240.741 116.858 240.994 115.779 240.994C115.022 240.994 114.351 240.86 113.769 240.592C113.186 240.324 112.728 239.951 112.396 239.473C112.07 238.989 111.907 238.468 111.907 237.908H113.524C113.553 238.45 113.769 238.881 114.171 239.202C114.579 239.517 115.115 239.674 115.779 239.674C116.391 239.674 116.881 239.552 117.248 239.307C117.621 239.056 117.808 238.724 117.808 238.31ZM125.905 240.994C124.623 240.994 123.579 240.575 122.775 239.735C121.971 238.89 121.569 237.762 121.569 236.352V236.055C121.569 235.116 121.746 234.28 122.102 233.546C122.463 232.805 122.965 232.228 123.606 231.815C124.253 231.395 124.952 231.185 125.704 231.185C126.934 231.185 127.89 231.59 128.571 232.4C129.253 233.21 129.594 234.37 129.594 235.88V236.553H123.186C123.209 237.486 123.48 238.24 123.999 238.817C124.524 239.388 125.188 239.674 125.992 239.674C126.564 239.674 127.047 239.558 127.444 239.324C127.84 239.091 128.187 238.782 128.484 238.398L129.472 239.167C128.679 240.385 127.49 240.994 125.905 240.994ZM125.704 232.514C125.051 232.514 124.503 232.753 124.06 233.231C123.617 233.703 123.343 234.367 123.239 235.224H127.977V235.102C127.93 234.28 127.709 233.645 127.313 233.196C126.916 232.741 126.38 232.514 125.704 232.514ZM131.528 236.011C131.528 234.56 131.872 233.394 132.56 232.514C133.248 231.628 134.148 231.185 135.261 231.185C136.369 231.185 137.246 231.564 137.893 232.322V227.391H139.51V240.819H138.024L137.945 239.805C137.298 240.598 136.398 240.994 135.244 240.994C134.148 240.994 133.253 240.545 132.56 239.648C131.872 238.75 131.528 237.579 131.528 236.133V236.011ZM133.146 236.195C133.146 237.267 133.367 238.106 133.81 238.712C134.253 239.319 134.865 239.622 135.646 239.622C136.672 239.622 137.421 239.161 137.893 238.24V233.895C137.409 233.004 136.666 232.558 135.663 232.558C134.871 232.558 134.253 232.864 133.81 233.476C133.367 234.088 133.146 234.994 133.146 236.195Z" fill="#121212"/>
<path d="M85.3936 145.398C84.8291 145.952 84.1697 146.229 83.4153 146.229C82.4511 146.229 81.6793 145.9 81.0998 145.24C80.5203 144.576 80.2305 143.682 80.2305 142.557C80.2305 141.843 80.3854 141.189 80.6951 140.594C81.0099 139.995 81.447 139.53 82.0065 139.2C82.566 138.866 83.1955 138.698 83.8949 138.698C84.6143 138.698 85.2537 138.878 85.8132 139.238C86.3728 139.598 86.8074 140.115 87.1171 140.789C87.4269 141.463 87.5842 142.235 87.5892 143.105V143.906C87.5892 145.725 87.1371 147.154 86.2329 148.193C85.3287 149.232 84.0473 149.786 82.3887 149.856L81.8566 149.864V148.058L82.3362 148.05C84.2196 147.965 85.2387 147.081 85.3936 145.398ZM83.9473 144.573C84.297 144.573 84.5968 144.483 84.8466 144.303C85.1014 144.124 85.2937 143.906 85.4236 143.652V142.76C85.4236 142.025 85.2837 141.456 85.0039 141.051C84.7242 140.647 84.3495 140.444 83.8799 140.444C83.4453 140.444 83.0881 140.644 82.8083 141.044C82.5286 141.438 82.3887 141.936 82.3887 142.535C82.3887 143.129 82.5236 143.619 82.7933 144.004C83.0681 144.383 83.4528 144.573 83.9473 144.573ZM96.6759 145.248C96.6759 146.756 96.3637 147.91 95.7392 148.71C95.1148 149.509 94.2005 149.909 92.9966 149.909C91.8076 149.909 90.8984 149.516 90.2689 148.732C89.6395 147.948 89.3172 146.824 89.3022 145.36V143.352C89.3022 141.828 89.617 140.672 90.2464 139.882C90.8809 139.093 91.7926 138.698 92.9816 138.698C94.1706 138.698 95.0798 139.09 95.7092 139.875C96.3387 140.654 96.6609 141.776 96.6759 143.239V145.248ZM94.5103 143.045C94.5103 142.14 94.3854 141.483 94.1356 141.074C93.8908 140.659 93.5061 140.452 92.9816 140.452C92.472 140.452 92.0948 140.649 91.8501 141.044C91.6103 141.433 91.4829 142.045 91.4679 142.88V145.532C91.4679 146.422 91.5878 147.084 91.8276 147.518C92.0724 147.948 92.462 148.163 92.9966 148.163C93.5261 148.163 93.9083 147.955 94.1431 147.541C94.3779 147.126 94.5003 146.492 94.5103 145.637V143.045ZM99.1083 150.695H97.4972L101.514 138.848H103.125L99.1083 150.695ZM109.529 149.759H107.363V141.411L104.778 142.213V140.452L109.297 138.833H109.529V149.759ZM120.616 145.248C120.616 146.756 120.304 147.91 119.68 148.71C119.055 149.509 118.141 149.909 116.937 149.909C115.748 149.909 114.839 149.516 114.209 148.732C113.58 147.948 113.258 146.824 113.243 145.36V143.352C113.243 141.828 113.557 140.672 114.187 139.882C114.821 139.093 115.733 138.698 116.922 138.698C118.111 138.698 119.02 139.09 119.65 139.875C120.279 140.654 120.601 141.776 120.616 143.239V145.248ZM118.451 143.045C118.451 142.14 118.326 141.483 118.076 141.074C117.831 140.659 117.447 140.452 116.922 140.452C116.412 140.452 116.035 140.649 115.791 141.044C115.551 141.433 115.423 142.045 115.408 142.88V145.532C115.408 146.422 115.528 147.084 115.768 147.518C116.013 147.948 116.402 148.163 116.937 148.163C117.467 148.163 117.849 147.955 118.084 147.541C118.318 147.126 118.441 146.492 118.451 145.637V143.045ZM129.621 145.248C129.621 146.756 129.308 147.91 128.684 148.71C128.059 149.509 127.145 149.909 125.941 149.909C124.752 149.909 123.843 149.516 123.214 148.732C122.584 147.948 122.262 146.824 122.247 145.36V143.352C122.247 141.828 122.562 140.672 123.191 139.882C123.826 139.093 124.737 138.698 125.926 138.698C127.115 138.698 128.024 139.09 128.654 139.875C129.283 140.654 129.606 141.776 129.621 143.239V145.248ZM127.455 143.045C127.455 142.14 127.33 141.483 127.08 141.074C126.836 140.659 126.451 140.452 125.926 140.452C125.417 140.452 125.04 140.649 124.795 141.044C124.555 141.433 124.428 142.045 124.413 142.88V145.532C124.413 146.422 124.532 147.084 124.772 147.518C125.017 147.948 125.407 148.163 125.941 148.163C126.471 148.163 126.853 147.955 127.088 147.541C127.323 147.126 127.445 146.492 127.455 145.637V143.045Z" fill="#121212"/>
<path d="M154.844 121.97C154.844 93.7168 132.513 70.8135 104.967 70.8135C77.4201 70.8135 55.0894 93.7168 55.0894 121.97" stroke="url(#paint0_angular)" stroke-width="8.95231" stroke-linecap="round"/>
<path d="M64.2889 81.6182L72.0895 89.5009" stroke="white" stroke-width="1.2789"/>
<path d="M145.771 82.667L137.971 90.5497" stroke="white" stroke-width="1.2789"/>
<path d="M104.967 64.4189V75.9291" stroke="white" stroke-width="1.2789"/>
<path fill-rule="evenodd" clip-rule="evenodd" d="M154.844 116.854C159.082 116.854 162.517 113.418 162.517 109.18C162.517 104.942 159.082 101.507 154.844 101.507C150.606 101.507 147.17 104.942 147.17 109.18C147.17 113.418 150.606 116.854 154.844 116.854Z" fill="#FF6C4C" stroke="white" stroke-width="1.2789"/>
<path fill-rule="evenodd" clip-rule="evenodd" d="M123.883 111.689C124.548 111.726 124.721 112.627 124.117 112.907L106.514 121.085C103.274 122.591 99.4817 120.65 98.8071 117.141C98.1326 113.633 100.935 110.424 104.502 110.621L123.883 111.689ZM102.576 116.417C102.376 115.377 103.057 114.371 104.097 114.171C105.138 113.971 106.143 114.653 106.343 115.693C106.543 116.733 105.862 117.739 104.822 117.939C103.781 118.139 102.776 117.458 102.576 116.417Z" fill="#575A60"/>
<rect x="33.3483" y="166.731" width="143.237" height="25.578" rx="12.789" fill="#FF6C4C"/>
<path d="M71.9756 183.617L75.6125 173.118H77.4484L72.7275 185.847H71.2413L66.5291 173.118H68.3562L71.9756 183.617ZM82.8968 186.022C81.6145 186.022 80.5713 185.602 79.7669 184.763C78.9626 183.918 78.5605 182.79 78.5605 181.379V181.082C78.5605 180.144 78.7382 179.307 79.0938 178.573C79.4551 177.833 79.9564 177.256 80.5975 176.842C81.2444 176.422 81.9438 176.212 82.6957 176.212C83.9255 176.212 84.8813 176.618 85.5632 177.428C86.2451 178.238 86.5861 179.398 86.5861 180.907V181.58H80.1778C80.2012 182.513 80.4722 183.268 80.9909 183.845C81.5154 184.416 82.1799 184.701 82.9842 184.701C83.5554 184.701 84.0391 184.585 84.4354 184.352C84.8318 184.119 85.1785 183.81 85.4758 183.425L86.4637 184.194C85.671 185.412 84.4821 186.022 82.8968 186.022ZM82.6957 177.541C82.0429 177.541 81.495 177.78 81.0521 178.258C80.6091 178.73 80.3352 179.395 80.2303 180.251H84.9687V180.129C84.9221 179.307 84.7006 178.672 84.3043 178.223C83.908 177.769 83.3718 177.541 82.6957 177.541ZM93.4857 177.839C93.2409 177.798 92.9757 177.777 92.6901 177.777C91.6293 177.777 90.9095 178.229 90.5307 179.132V185.847H88.9133V176.387H90.487L90.5132 177.48C91.0436 176.635 91.7954 176.212 92.7688 176.212C93.0835 176.212 93.3225 176.253 93.4857 176.335V177.839ZM98.6804 183.477L100.884 176.387H102.615L98.8116 187.307C98.2229 188.88 97.2875 189.667 96.0052 189.667L95.6993 189.641L95.096 189.527V188.216L95.5332 188.251C96.081 188.251 96.5065 188.14 96.8096 187.919C97.1185 187.697 97.372 187.292 97.5702 186.703L97.9286 185.742L94.554 176.387H96.32L98.6804 183.477ZM111.02 177.533C111.736 176.652 112.669 176.212 113.817 176.212C115.816 176.212 116.825 177.34 116.842 179.596V185.847H115.225V179.587C115.219 178.905 115.062 178.401 114.753 178.075C114.45 177.748 113.975 177.585 113.328 177.585C112.803 177.585 112.343 177.725 111.946 178.005C111.55 178.284 111.241 178.652 111.02 179.106V185.847H109.402V172.418H111.02V177.533ZM121.469 185.847H119.851V176.387H121.469V185.847ZM119.72 173.878C119.72 173.616 119.799 173.394 119.956 173.214C120.119 173.033 120.358 172.943 120.673 172.943C120.988 172.943 121.227 173.033 121.39 173.214C121.553 173.394 121.635 173.616 121.635 173.878C121.635 174.14 121.553 174.359 121.39 174.534C121.227 174.709 120.988 174.796 120.673 174.796C120.358 174.796 120.119 174.709 119.956 174.534C119.799 174.359 119.72 174.14 119.72 173.878ZM124.128 181.038C124.128 179.564 124.469 178.392 125.151 177.524C125.833 176.65 126.736 176.212 127.861 176.212C129.015 176.212 129.916 176.62 130.563 177.436L130.641 176.387H132.119V185.619C132.119 186.843 131.754 187.808 131.026 188.513C130.303 189.218 129.33 189.571 128.106 189.571C127.424 189.571 126.757 189.425 126.104 189.134C125.451 188.842 124.953 188.443 124.609 187.936L125.448 186.966C126.142 187.822 126.99 188.251 127.992 188.251C128.779 188.251 129.391 188.029 129.828 187.586C130.271 187.143 130.493 186.52 130.493 185.716V184.902C129.846 185.649 128.963 186.022 127.844 186.022C126.736 186.022 125.839 185.576 125.151 184.684C124.469 183.792 124.128 182.577 124.128 181.038ZM125.754 181.222C125.754 182.288 125.973 183.128 126.41 183.74C126.847 184.346 127.459 184.649 128.246 184.649C129.266 184.649 130.015 184.186 130.493 183.259V178.94C129.997 178.037 129.254 177.585 128.263 177.585C127.476 177.585 126.862 177.891 126.419 178.503C125.976 179.115 125.754 180.021 125.754 181.222ZM136.632 177.533C137.348 176.652 138.281 176.212 139.429 176.212C141.428 176.212 142.437 177.34 142.454 179.596V185.847H140.837V179.587C140.831 178.905 140.674 178.401 140.365 178.075C140.062 177.748 139.587 177.585 138.94 177.585C138.415 177.585 137.955 177.725 137.558 178.005C137.162 178.284 136.853 178.652 136.632 179.106V185.847H135.014V172.418H136.632V177.533Z" fill="white"/>
<defs>
<filter id="filter0_d" x="0.0968885" y="0.474028" width="209.74" height="269.848" filterUnits="userSpaceOnUse" color-interpolation-filters="sRGB">
<feFlood flood-opacity="0" result="BackgroundImageFix"/>
<feColorMatrix in="SourceAlpha" type="matrix" values="0 0 0 0 0 0 0 0 0 0 0 0 0 0 0 0 0 0 127 0"/>
<feOffset dy="2.5578"/>
<feGaussianBlur stdDeviation="1.91835"/>
<feColorMatrix type="matrix" values="0 0 0 0 0 0 0 0 0 0 0 0 0 0 0 0 0 0 0.1 0"/>
<feBlend mode="normal" in2="BackgroundImageFix" result="effect1_dropShadow"/>
<feBlend mode="normal" in="SourceGraphic" in2="effect1_dropShadow" result="shape"/>
</filter>
<radialGradient id="paint0_angular" cx="0" cy="0" r="1" gradientUnits="userSpaceOnUse" gradientTransform="translate(104.967 96.3915) scale(49.8772 25.578)">
<stop offset="0.140625" stop-color="#FF6C4C"/>
<stop offset="0.375" stop-color="#31BFDE"/>
<stop offset="0.666667" stop-color="#36CB83"/>
<stop offset="0.817708" stop-color="#FFAE10"/>
</radialGradient>
</defs>
</svg>
