<svg width="210" height="271" viewBox="0 0 210 271" fill="none" xmlns="http://www.w3.org/2000/svg">
<g filter="url(#filter0_d)">
<path fill-rule="evenodd" clip-rule="evenodd" d="M4 5.58963C4 3.47068 5.71775 1.75293 7.83671 1.75293H202.23C204.349 1.75293 206.066 3.47068 206.066 5.58963V260.091C206.066 262.21 204.349 263.928 202.23 263.928H7.8367C5.71774 263.928 4 262.21 4 260.091L4 5.58963Z" fill="white"/>
<path d="M4.5 5.58963C4.5 3.74682 5.99389 2.25293 7.83671 2.25293H202.23C204.073 2.25293 205.566 3.74682 205.566 5.58963V260.091C205.566 261.934 204.073 263.428 202.23 263.428H7.8367C5.99389 263.428 4.5 261.934 4.5 260.091V5.58963Z" stroke="#E1E1E1"/>
</g>
<path d="M56.0173 35.1897C56.0173 34.5503 55.7908 34.0574 55.3379 33.711C54.8916 33.3646 54.0823 33.0149 52.91 32.6619C51.7376 32.3089 50.8051 31.9159 50.1124 31.4829C48.7868 30.6503 48.1241 29.5646 48.1241 28.2257C48.1241 27.0534 48.6003 26.0876 49.5529 25.3282C50.512 24.5689 51.7543 24.1892 53.2797 24.1892C54.2921 24.1892 55.1947 24.3757 55.9873 24.7487C56.78 25.1217 57.4028 25.6546 57.8557 26.3473C58.3087 27.0334 58.5351 27.7961 58.5351 28.6354H56.0173C56.0173 27.876 55.7775 27.2832 55.2979 26.8569C54.825 26.4239 54.1456 26.2075 53.2597 26.2075C52.4337 26.2075 51.7909 26.384 51.3313 26.737C50.8784 27.09 50.6519 27.5829 50.6519 28.2157C50.6519 28.7486 50.8984 29.1949 51.3913 29.5546C51.8842 29.9076 52.6968 30.254 53.8292 30.5937C54.9615 30.9267 55.8708 31.3097 56.5568 31.7427C57.2429 32.169 57.7458 32.6619 58.0655 33.2214C58.3853 33.7743 58.5451 34.4237 58.5451 35.1698C58.5451 36.3821 58.0789 37.3479 57.1463 38.0673C56.2205 38.78 54.9615 39.1364 53.3696 39.1364C52.3171 39.1364 51.348 38.9432 50.4621 38.5568C49.5828 38.1639 48.8968 37.6243 48.4038 36.9382C47.9176 36.2522 47.6745 35.4528 47.6745 34.5403H50.2023C50.2023 35.3663 50.4754 36.0057 51.0216 36.4587C51.5678 36.9116 52.3505 37.1381 53.3696 37.1381C54.2488 37.1381 54.9083 36.9616 55.3479 36.6085C55.7942 36.2488 56.0173 35.7759 56.0173 35.1897ZM63.8266 25.4981V28.1258H65.735V29.9243H63.8266V35.9591C63.8266 36.3721 63.9065 36.6718 64.0664 36.8583C64.2329 37.0382 64.526 37.1281 64.9456 37.1281C65.2254 37.1281 65.5085 37.0948 65.7949 37.0282V38.9065C65.242 39.0598 64.7092 39.1364 64.1963 39.1364C62.3312 39.1364 61.3987 38.1072 61.3987 36.049V29.9243H59.6202V28.1258H61.3987V25.4981H63.8266ZM73.5143 30.3439C73.1946 30.2906 72.8648 30.264 72.5251 30.264C71.4127 30.264 70.6634 30.6903 70.2771 31.5429V38.9365H67.8491V28.1258H70.1672L70.2271 29.3348C70.8133 28.3956 71.6259 27.926 72.665 27.926C73.0114 27.926 73.2978 27.9726 73.5243 28.0659L73.5143 30.3439ZM79.8648 39.1364C78.3261 39.1364 77.0772 38.6534 76.118 37.6876C75.1655 36.7151 74.6893 35.4229 74.6893 33.8109V33.5112C74.6893 32.4321 74.8958 31.4696 75.3087 30.6237C75.7284 29.7711 76.3145 29.1083 77.0672 28.6354C77.8199 28.1624 78.6592 27.926 79.5851 27.926C81.0571 27.926 82.1928 28.3956 82.9921 29.3348C83.7981 30.274 84.2011 31.6028 84.2011 33.3213V34.3005H77.1372C77.2104 35.1931 77.5068 35.8991 78.0264 36.4187C78.5526 36.9382 79.2121 37.198 80.0047 37.198C81.1171 37.198 82.023 36.7484 82.7224 35.8492L84.0312 37.0981C83.5983 37.7442 83.0188 38.2471 82.2927 38.6068C81.5734 38.9598 80.7641 39.1364 79.8648 39.1364ZM79.5751 29.8743C78.909 29.8743 78.3694 30.1074 77.9565 30.5737C77.5501 31.04 77.2904 31.6894 77.1771 32.522H81.8032V32.3422C81.7499 31.5296 81.5334 30.9167 81.1537 30.5038C80.774 30.0841 80.2478 29.8743 79.5751 29.8743ZM92.4101 35.999C92.4101 35.5661 92.2302 35.2364 91.8705 35.0099C91.5175 34.7834 90.928 34.5836 90.102 34.4104C89.2761 34.2372 88.5867 34.0174 88.0338 33.751C86.8215 33.1648 86.2154 32.3155 86.2154 31.2032C86.2154 30.2706 86.6084 29.4913 87.3944 28.8652C88.1803 28.239 89.1795 27.926 90.3918 27.926C91.684 27.926 92.7264 28.2457 93.5191 28.8852C94.3184 29.5246 94.7181 30.3539 94.7181 31.373H92.2902C92.2902 30.9068 92.117 30.5204 91.7706 30.214C91.4242 29.9009 90.9646 29.7444 90.3918 29.7444C89.8589 29.7444 89.4226 29.8676 89.0829 30.1141C88.7499 30.3606 88.5833 30.6903 88.5833 31.1033C88.5833 31.4763 88.7399 31.766 89.0529 31.9725C89.366 32.179 89.9988 32.3888 90.9513 32.602C91.9038 32.8085 92.6498 33.0582 93.1894 33.3513C93.7356 33.6377 94.1386 33.9841 94.3983 34.3904C94.6648 34.7967 94.798 35.2897 94.798 35.8692C94.798 36.8417 94.395 37.631 93.589 38.2371C92.7831 38.8366 91.7273 39.1364 90.4218 39.1364C89.5359 39.1364 88.7465 38.9765 88.0538 38.6568C87.3611 38.337 86.8215 37.8974 86.4352 37.3379C86.0488 36.7784 85.8557 36.1756 85.8557 35.5294H88.2137C88.247 36.1023 88.4634 36.5452 88.8631 36.8583C89.2628 37.1647 89.7923 37.3179 90.4517 37.3179C91.0912 37.3179 91.5774 37.198 91.9105 36.9582C92.2435 36.7118 92.4101 36.392 92.4101 35.999ZM103.237 35.999C103.237 35.5661 103.057 35.2364 102.697 35.0099C102.344 34.7834 101.755 34.5836 100.929 34.4104C100.103 34.2372 99.4134 34.0174 98.8605 33.751C97.6482 33.1648 97.0421 32.3155 97.0421 31.2032C97.0421 30.2706 97.4351 29.4913 98.2211 28.8652C99.0071 28.239 100.006 27.926 101.218 27.926C102.511 27.926 103.553 28.2457 104.346 28.8852C105.145 29.5246 105.545 30.3539 105.545 31.373H103.117C103.117 30.9068 102.944 30.5204 102.597 30.214C102.251 29.9009 101.791 29.7444 101.218 29.7444C100.686 29.7444 100.249 29.8676 99.9096 30.1141C99.5766 30.3606 99.41 30.6903 99.41 31.1033C99.41 31.4763 99.5666 31.766 99.8796 31.9725C100.193 32.179 100.825 32.3888 101.778 32.602C102.731 32.8085 103.477 33.0582 104.016 33.3513C104.562 33.6377 104.965 33.9841 105.225 34.3904C105.491 34.7967 105.625 35.2897 105.625 35.8692C105.625 36.8417 105.222 37.631 104.416 38.2371C103.61 38.8366 102.554 39.1364 101.248 39.1364C100.363 39.1364 99.5732 38.9765 98.8805 38.6568C98.1878 38.337 97.6482 37.8974 97.2619 37.3379C96.8756 36.7784 96.6824 36.1756 96.6824 35.5294H99.0404C99.0737 36.1023 99.2901 36.5452 99.6898 36.8583C100.089 37.1647 100.619 37.3179 101.278 37.3179C101.918 37.3179 102.404 37.198 102.737 36.9582C103.07 36.7118 103.237 36.392 103.237 35.999ZM116.258 38.9365H113.74V24.389H116.258V38.9365ZM121.639 28.1258L121.709 29.3747C122.508 28.4089 123.557 27.926 124.856 27.926C127.108 27.926 128.253 29.2149 128.293 31.7927V38.9365H125.865V31.9325C125.865 31.2465 125.715 30.7402 125.416 30.4138C125.123 30.0808 124.64 29.9143 123.967 29.9143C122.988 29.9143 122.258 30.3572 121.779 31.2431V38.9365H119.351V28.1258H121.639ZM130.577 33.4512C130.577 31.786 130.964 30.4505 131.736 29.4447C132.509 28.4322 133.545 27.926 134.844 27.926C135.989 27.926 136.915 28.3256 137.621 29.1249V23.5897H140.049V38.9365H137.851L137.731 37.8175C137.005 38.6967 136.036 39.1364 134.824 39.1364C133.558 39.1364 132.532 38.6268 131.746 37.6077C130.967 36.5885 130.577 35.2031 130.577 33.4512ZM133.005 33.6611C133.005 34.7601 133.215 35.6194 133.635 36.2388C134.061 36.8516 134.664 37.1581 135.443 37.1581C136.436 37.1581 137.162 36.7151 137.621 35.8292V31.2132C137.175 30.3472 136.456 29.9143 135.463 29.9143C134.677 29.9143 134.071 30.2273 133.645 30.8535C133.218 31.4729 133.005 32.4088 133.005 33.6611ZM147.599 39.1364C146.06 39.1364 144.811 38.6534 143.852 37.6876C142.899 36.7151 142.423 35.4229 142.423 33.8109V33.5112C142.423 32.4321 142.63 31.4696 143.043 30.6237C143.462 29.7711 144.048 29.1083 144.801 28.6354C145.554 28.1624 146.393 27.926 147.319 27.926C148.791 27.926 149.927 28.3956 150.726 29.3348C151.532 30.274 151.935 31.6028 151.935 33.3213V34.3005H144.871C144.944 35.1931 145.241 35.8991 145.76 36.4187C146.286 36.9382 146.946 37.198 147.739 37.198C148.851 37.198 149.757 36.7484 150.456 35.8492L151.765 37.0981C151.332 37.7442 150.753 38.2471 150.027 38.6068C149.307 38.9598 148.498 39.1364 147.599 39.1364ZM147.309 29.8743C146.643 29.8743 146.103 30.1074 145.69 30.5737C145.284 31.04 145.024 31.6894 144.911 32.522H149.537V32.3422C149.484 31.5296 149.267 30.9167 148.888 30.5038C148.508 30.0841 147.982 29.8743 147.309 29.8743ZM157.966 31.6828L160.024 28.1258H162.722L159.415 33.4512L162.832 38.9365H160.154L157.996 35.2397L155.848 38.9365H153.15L156.567 33.4512L153.27 28.1258H155.947L157.966 31.6828Z" fill="#121212"/>
<path d="M62.8193 213.481L66.1414 207.09H68.0473L63.6585 215.072V219.819H61.98V215.072L57.5913 207.09H59.5146L62.8193 213.481ZM68.8796 215.002C68.8796 214.076 69.0602 213.242 69.4216 212.502C69.7888 211.762 70.2958 211.19 70.9428 210.788C71.5956 210.386 72.3387 210.185 73.1721 210.185C74.4602 210.185 75.5005 210.631 76.2932 211.523C77.0917 212.414 77.4909 213.601 77.4909 215.081V215.195C77.4909 216.115 77.3132 216.943 76.9576 217.677C76.6079 218.406 76.1038 218.974 75.4452 219.382C74.7924 219.79 74.0405 219.994 73.1896 219.994C71.9074 219.994 70.867 219.548 70.0685 218.657C69.2759 217.765 68.8796 216.585 68.8796 215.116V215.002ZM70.5057 215.195C70.5057 216.244 70.7475 217.086 71.2313 217.721C71.7209 218.356 72.3736 218.674 73.1896 218.674C74.0114 218.674 74.6642 218.354 75.1479 217.712C75.6317 217.065 75.8736 216.162 75.8736 215.002C75.8736 213.965 75.6259 213.126 75.1304 212.484C74.6409 211.837 73.9881 211.514 73.1721 211.514C72.3736 211.514 71.7296 211.832 71.24 212.467C70.7505 213.102 70.5057 214.011 70.5057 215.195ZM85.8068 218.884C85.1773 219.624 84.2535 219.994 83.0354 219.994C82.0271 219.994 81.2578 219.703 80.7274 219.12C80.2028 218.531 79.9377 217.663 79.9318 216.515V210.36H81.5492V216.471C81.5492 217.905 82.132 218.622 83.2977 218.622C84.5333 218.622 85.3551 218.161 85.7631 217.24V210.36H87.3804V219.819H85.8417L85.8068 218.884ZM101.022 219.819C100.929 219.633 100.853 219.301 100.795 218.823C100.043 219.604 99.1455 219.994 98.1022 219.994C97.1697 219.994 96.4033 219.732 95.8029 219.207C95.2085 218.677 94.9112 218.007 94.9112 217.197C94.9112 216.212 95.2842 215.448 96.0302 214.906C96.7821 214.358 97.837 214.084 99.195 214.084H100.769V213.341C100.769 212.776 100.6 212.327 100.262 211.995C99.9236 211.657 99.4252 211.488 98.7666 211.488C98.1896 211.488 97.7059 211.633 97.3154 211.925C96.9249 212.216 96.7296 212.569 96.7296 212.983H95.1035C95.1035 212.511 95.2696 212.056 95.6019 211.619C95.9399 211.176 96.3945 210.826 96.9657 210.57C97.5427 210.313 98.1751 210.185 98.8628 210.185C99.9527 210.185 100.807 210.459 101.424 211.007C102.042 211.549 102.363 212.298 102.386 213.254V217.607C102.386 218.476 102.497 219.167 102.718 219.679V219.819H101.022ZM98.3383 218.587C98.8453 218.587 99.3262 218.456 99.7808 218.193C100.235 217.931 100.565 217.59 100.769 217.17V215.23H99.501C97.5194 215.23 96.5286 215.809 96.5286 216.969C96.5286 217.476 96.6976 217.873 97.0356 218.158C97.3737 218.444 97.8079 218.587 98.3383 218.587ZM109.941 211.811C109.697 211.77 109.431 211.75 109.146 211.75C108.085 211.75 107.365 212.202 106.986 213.105V219.819H105.369V210.36H106.943L106.969 211.453C107.499 210.608 108.251 210.185 109.224 210.185C109.539 210.185 109.778 210.226 109.941 210.308V211.811ZM115.634 219.994C114.352 219.994 113.309 219.575 112.505 218.735C111.7 217.89 111.298 216.762 111.298 215.352V215.055C111.298 214.116 111.476 213.28 111.831 212.546C112.193 211.805 112.694 211.228 113.335 210.815C113.982 210.395 114.681 210.185 115.433 210.185C116.663 210.185 117.619 210.59 118.301 211.4C118.983 212.21 119.324 213.37 119.324 214.88V215.553H112.915C112.939 216.486 113.21 217.24 113.729 217.817C114.253 218.388 114.918 218.674 115.722 218.674C116.293 218.674 116.777 218.558 117.173 218.324C117.569 218.091 117.916 217.782 118.213 217.398L119.201 218.167C118.409 219.385 117.22 219.994 115.634 219.994ZM115.433 211.514C114.781 211.514 114.233 211.753 113.79 212.231C113.347 212.703 113.073 213.367 112.968 214.224H117.706V214.102C117.66 213.28 117.438 212.645 117.042 212.196C116.646 211.741 116.109 211.514 115.433 211.514ZM128.07 210.36L128.122 211.549C128.845 210.64 129.789 210.185 130.955 210.185C132.954 210.185 133.962 211.313 133.98 213.568V219.819H132.362V213.56C132.356 212.878 132.199 212.374 131.89 212.047C131.587 211.721 131.112 211.558 130.465 211.558C129.941 211.558 129.48 211.698 129.084 211.977C128.688 212.257 128.379 212.624 128.157 213.079V219.819H126.54V210.36H128.07ZM136.438 215.002C136.438 214.076 136.619 213.242 136.98 212.502C137.347 211.762 137.854 211.19 138.501 210.788C139.154 210.386 139.897 210.185 140.731 210.185C142.019 210.185 143.059 210.631 143.852 211.523C144.65 212.414 145.049 213.601 145.049 215.081V215.195C145.049 216.115 144.872 216.943 144.516 217.677C144.166 218.406 143.662 218.974 143.004 219.382C142.351 219.79 141.599 219.994 140.748 219.994C139.466 219.994 138.426 219.548 137.627 218.657C136.834 217.765 136.438 216.585 136.438 215.116V215.002ZM138.064 215.195C138.064 216.244 138.306 217.086 138.79 217.721C139.279 218.356 139.932 218.674 140.748 218.674C141.57 218.674 142.223 218.354 142.706 217.712C143.19 217.065 143.432 216.162 143.432 215.002C143.432 213.965 143.184 213.126 142.689 212.484C142.199 211.837 141.547 211.514 140.731 211.514C139.932 211.514 139.288 211.832 138.799 212.467C138.309 213.102 138.064 214.011 138.064 215.195ZM149.72 208.069V210.36H151.486V211.61H149.72V217.476C149.72 217.855 149.798 218.141 149.956 218.333C150.113 218.52 150.381 218.613 150.76 218.613C150.947 218.613 151.203 218.578 151.529 218.508V219.819C151.104 219.936 150.69 219.994 150.288 219.994C149.565 219.994 149.02 219.776 148.653 219.338C148.286 218.901 148.102 218.281 148.102 217.476V211.61H146.38V210.36H148.102V208.069H149.72ZM52.8983 238.31C52.8983 237.873 52.7322 237.535 52.4 237.296C52.0736 237.051 51.4995 236.842 50.6777 236.667C49.8617 236.492 49.2119 236.282 48.7281 236.037C48.2502 235.792 47.8947 235.501 47.6615 235.163C47.4342 234.825 47.3206 234.423 47.3206 233.956C47.3206 233.181 47.647 232.526 48.2997 231.989C48.9583 231.453 49.7976 231.185 50.8176 231.185C51.89 231.185 52.7584 231.462 53.4228 232.016C54.0931 232.569 54.4282 233.277 54.4282 234.14H52.8021C52.8021 233.697 52.6127 233.315 52.2339 232.995C51.8608 232.674 51.3888 232.514 50.8176 232.514C50.2289 232.514 49.7685 232.642 49.4363 232.899C49.104 233.155 48.9379 233.49 48.9379 233.904C48.9379 234.295 49.0924 234.589 49.4013 234.787C49.7102 234.985 50.2668 235.175 51.0711 235.355C51.8812 235.536 52.5369 235.752 53.0382 236.002C53.5394 236.253 53.9095 236.556 54.1485 236.911C54.3933 237.261 54.5157 237.69 54.5157 238.197C54.5157 239.042 54.1776 239.721 53.5015 240.234C52.8254 240.741 51.9483 240.994 50.87 240.994C50.1124 240.994 49.4421 240.86 48.8593 240.592C48.2764 240.324 47.8189 239.951 47.4867 239.473C47.1603 238.989 46.9971 238.468 46.9971 237.908H48.6145C48.6436 238.45 48.8593 238.881 49.2614 239.202C49.6694 239.517 50.2056 239.674 50.87 239.674C51.482 239.674 51.9716 239.552 52.3388 239.307C52.7118 239.056 52.8983 238.724 52.8983 238.31ZM59.2646 229.069V231.36H61.0306V232.61H59.2646V238.476C59.2646 238.855 59.3433 239.141 59.5006 239.333C59.658 239.52 59.9261 239.613 60.3049 239.613C60.4914 239.613 60.7479 239.578 61.0743 239.508V240.819C60.6488 240.936 60.235 240.994 59.8328 240.994C59.1101 240.994 58.5652 240.776 58.198 240.338C57.8308 239.901 57.6472 239.281 57.6472 238.476V232.61H55.9249V231.36H57.6472V229.069H59.2646ZM67.9476 232.811C67.7028 232.77 67.4376 232.75 67.152 232.75C66.0913 232.75 65.3715 233.202 64.9927 234.105V240.819H63.3753V231.36H64.9489L64.9752 232.453C65.5055 231.608 66.2574 231.185 67.2307 231.185C67.5455 231.185 67.7844 231.226 67.9476 231.308V232.811ZM73.6407 240.994C72.3585 240.994 71.3152 240.575 70.5109 239.735C69.7066 238.89 69.3045 237.762 69.3045 236.352V236.055C69.3045 235.116 69.4822 234.28 69.8377 233.546C70.1991 232.805 70.7003 232.228 71.3415 231.815C71.9884 231.395 72.6878 231.185 73.4397 231.185C74.6694 231.185 75.6253 231.59 76.3072 232.4C76.9891 233.21 77.3301 234.37 77.3301 235.88V236.553H70.9218C70.9451 237.486 71.2161 238.24 71.7349 238.817C72.2594 239.388 72.9238 239.674 73.7282 239.674C74.2993 239.674 74.7831 239.558 75.1794 239.324C75.5757 239.091 75.9225 238.782 76.2198 238.398L77.2077 239.167C76.415 240.385 75.226 240.994 73.6407 240.994ZM73.4397 232.514C72.7869 232.514 72.239 232.753 71.7961 233.231C71.3531 233.703 71.0792 234.367 70.9743 235.224H75.7127V235.102C75.6661 234.28 75.4446 233.645 75.0483 233.196C74.6519 232.741 74.1157 232.514 73.4397 232.514ZM85.1651 238.31C85.1651 237.873 84.999 237.535 84.6668 237.296C84.3404 237.051 83.7663 236.842 82.9445 236.667C82.1285 236.492 81.4787 236.282 80.9949 236.037C80.517 235.792 80.1615 235.501 79.9283 235.163C79.701 234.825 79.5874 234.423 79.5874 233.956C79.5874 233.181 79.9138 232.526 80.5665 231.989C81.2251 231.453 82.0644 231.185 83.0844 231.185C84.1568 231.185 85.0252 231.462 85.6896 232.016C86.3599 232.569 86.695 233.277 86.695 234.14H85.0689C85.0689 233.697 84.8795 233.315 84.5007 232.995C84.1276 232.674 83.6555 232.514 83.0844 232.514C82.4957 232.514 82.0353 232.642 81.7031 232.899C81.3708 233.155 81.2047 233.49 81.2047 233.904C81.2047 234.295 81.3592 234.589 81.6681 234.787C81.977 234.985 82.5336 235.175 83.3379 235.355C84.148 235.536 84.8037 235.752 85.305 236.002C85.8062 236.253 86.1763 236.556 86.4153 236.911C86.66 237.261 86.7824 237.69 86.7824 238.197C86.7824 239.042 86.4444 239.721 85.7683 240.234C85.0922 240.741 84.2151 240.994 83.1368 240.994C82.3791 240.994 81.7089 240.86 81.126 240.592C80.5432 240.324 80.0857 239.951 79.7535 239.473C79.4271 238.989 79.2639 238.468 79.2639 237.908H80.8813C80.9104 238.45 81.126 238.881 81.5282 239.202C81.9362 239.517 82.4724 239.674 83.1368 239.674C83.7488 239.674 84.2384 239.552 84.6056 239.307C84.9786 239.056 85.1651 238.724 85.1651 238.31ZM94.8448 238.31C94.8448 237.873 94.6787 237.535 94.3464 237.296C94.0201 237.051 93.446 236.842 92.6242 236.667C91.8082 236.492 91.1583 236.282 90.6746 236.037C90.1967 235.792 89.8411 235.501 89.608 235.163C89.3807 234.825 89.2671 234.423 89.2671 233.956C89.2671 233.181 89.5934 232.526 90.2462 231.989C90.9048 231.453 91.7441 231.185 92.7641 231.185C93.8365 231.185 94.7049 231.462 95.3693 232.016C96.0396 232.569 96.3747 233.277 96.3747 234.14H94.7486C94.7486 233.697 94.5592 233.315 94.1803 232.995C93.8073 232.674 93.3352 232.514 92.7641 232.514C92.1754 232.514 91.715 232.642 91.3827 232.899C91.0505 233.155 90.8844 233.49 90.8844 233.904C90.8844 234.295 91.0389 234.589 91.3478 234.787C91.6567 234.985 92.2133 235.175 93.0176 235.355C93.8277 235.536 94.4834 235.752 94.9846 236.002C95.4859 236.253 95.856 236.556 96.0949 236.911C96.3397 237.261 96.4621 237.69 96.4621 238.197C96.4621 239.042 96.1241 239.721 95.448 240.234C94.7719 240.741 93.8947 240.994 92.8165 240.994C92.0588 240.994 91.3886 240.86 90.8057 240.592C90.2229 240.324 89.7654 239.951 89.4332 239.473C89.1068 238.989 88.9436 238.468 88.9436 237.908H90.5609C90.5901 238.45 90.8057 238.881 91.2079 239.202C91.6159 239.517 92.1521 239.674 92.8165 239.674C93.4285 239.674 93.9181 239.552 94.2852 239.307C94.6583 239.056 94.8448 238.724 94.8448 238.31ZM102.942 240.994C101.66 240.994 100.617 240.575 99.8122 239.735C99.0079 238.89 98.6058 237.762 98.6058 236.352V236.055C98.6058 235.116 98.7835 234.28 99.1391 233.546C99.5004 232.805 100.002 232.228 100.643 231.815C101.29 231.395 101.989 231.185 102.741 231.185C103.971 231.185 104.927 231.59 105.609 232.4C106.29 233.21 106.631 234.37 106.631 235.88V236.553H100.223C100.246 237.486 100.517 238.24 101.036 238.817C101.561 239.388 102.225 239.674 103.029 239.674C103.601 239.674 104.084 239.558 104.481 239.324C104.877 239.091 105.224 238.782 105.521 238.398L106.509 239.167C105.716 240.385 104.527 240.994 102.942 240.994ZM102.741 232.514C102.088 232.514 101.54 232.753 101.097 233.231C100.654 233.703 100.381 234.367 100.276 235.224H105.014V235.102C104.967 234.28 104.746 233.645 104.35 233.196C103.953 232.741 103.417 232.514 102.741 232.514ZM108.565 236.011C108.565 234.56 108.909 233.394 109.597 232.514C110.285 231.628 111.185 231.185 112.298 231.185C113.406 231.185 114.283 231.564 114.93 232.322V227.391H116.547V240.819H115.061L114.982 239.805C114.335 240.598 113.435 240.994 112.281 240.994C111.185 240.994 110.29 240.545 109.597 239.648C108.909 238.75 108.565 237.579 108.565 236.133V236.011ZM110.183 236.195C110.183 237.267 110.404 238.106 110.847 238.712C111.29 239.319 111.902 239.622 112.683 239.622C113.709 239.622 114.458 239.161 114.93 238.24V233.895C114.446 233.004 113.703 232.558 112.7 232.558C111.908 232.558 111.29 232.864 110.847 233.476C110.404 234.088 110.183 234.994 110.183 236.195ZM130.241 240.819C130.148 240.633 130.072 240.301 130.014 239.823C129.262 240.604 128.365 240.994 127.321 240.994C126.389 240.994 125.622 240.732 125.022 240.207C124.428 239.677 124.13 239.007 124.13 238.197C124.13 237.212 124.503 236.448 125.249 235.906C126.001 235.358 127.056 235.084 128.414 235.084H129.988V234.341C129.988 233.776 129.819 233.327 129.481 232.995C129.143 232.657 128.644 232.488 127.986 232.488C127.409 232.488 126.925 232.633 126.535 232.925C126.144 233.216 125.949 233.569 125.949 233.983H124.323C124.323 233.511 124.489 233.056 124.821 232.619C125.159 232.176 125.614 231.826 126.185 231.57C126.762 231.313 127.394 231.185 128.082 231.185C129.172 231.185 130.026 231.459 130.644 232.007C131.261 232.549 131.582 233.298 131.605 234.254V238.607C131.605 239.476 131.716 240.167 131.937 240.679V240.819H130.241ZM127.557 239.587C128.064 239.587 128.545 239.456 129 239.193C129.455 238.931 129.784 238.59 129.988 238.17V236.23H128.72C126.739 236.23 125.748 236.809 125.748 237.969C125.748 238.476 125.917 238.873 126.255 239.158C126.593 239.444 127.027 239.587 127.557 239.587ZM136.782 229.069V231.36H138.548V232.61H136.782V238.476C136.782 238.855 136.861 239.141 137.019 239.333C137.176 239.52 137.444 239.613 137.823 239.613C138.009 239.613 138.266 239.578 138.592 239.508V240.819C138.167 240.936 137.753 240.994 137.351 240.994C136.628 240.994 136.083 240.776 135.716 240.338C135.349 239.901 135.165 239.281 135.165 238.476V232.61H133.443V231.36H135.165V229.069H136.782ZM151.622 240.819C151.529 240.633 151.453 240.301 151.395 239.823C150.643 240.604 149.745 240.994 148.702 240.994C147.769 240.994 147.003 240.732 146.403 240.207C145.808 239.677 145.511 239.007 145.511 238.197C145.511 237.212 145.884 236.448 146.63 235.906C147.382 235.358 148.437 235.084 149.795 235.084H151.368V234.341C151.368 233.776 151.199 233.327 150.861 232.995C150.523 232.657 150.025 232.488 149.366 232.488C148.789 232.488 148.306 232.633 147.915 232.925C147.525 233.216 147.329 233.569 147.329 233.983H145.703C145.703 233.511 145.869 233.056 146.202 232.619C146.54 232.176 146.994 231.826 147.565 231.57C148.142 231.313 148.775 231.185 149.463 231.185C150.553 231.185 151.406 231.459 152.024 232.007C152.642 232.549 152.963 233.298 152.986 234.254V238.607C152.986 239.476 153.097 240.167 153.318 240.679V240.819H151.622ZM148.938 239.587C149.445 239.587 149.926 239.456 150.381 239.193C150.835 238.931 151.164 238.59 151.368 238.17V236.23H150.101C148.119 236.23 147.128 236.809 147.128 237.969C147.128 238.476 147.297 238.873 147.635 239.158C147.973 239.444 148.408 239.587 148.938 239.587ZM157.726 240.819H156.109V227.391H157.726V240.819ZM162.527 240.819H160.91V227.391H162.527V240.819Z" fill="#121212"/>
<path d="M85.6549 149.759H83.4893V141.411L80.904 142.213V140.452L85.4226 138.833H85.6549V149.759ZM89.7209 144.393L90.3504 138.848H96.4651V140.654H92.1263L91.8566 143C92.3711 142.725 92.9182 142.587 93.4977 142.587C94.5368 142.587 95.3511 142.91 95.9406 143.554C96.5301 144.199 96.8248 145.1 96.8248 146.259C96.8248 146.964 96.6749 147.596 96.3752 148.155C96.0805 148.71 95.6558 149.142 95.1013 149.452C94.5468 149.756 93.8923 149.909 93.138 149.909C92.4785 149.909 91.8666 149.776 91.3021 149.512C90.7375 149.242 90.2904 148.865 89.9607 148.38C89.636 147.895 89.4636 147.343 89.4437 146.724H91.5868C91.6318 147.179 91.7891 147.533 92.0589 147.788C92.3337 148.038 92.6909 148.163 93.1305 148.163C93.6201 148.163 93.9972 147.988 94.262 147.638C94.5268 147.283 94.6592 146.784 94.6592 146.139C94.6592 145.52 94.5068 145.045 94.2021 144.716C93.8973 144.386 93.4652 144.221 92.9057 144.221C92.3911 144.221 91.974 144.356 91.6543 144.626L91.4444 144.821L89.7209 144.393ZM99.1748 150.695H97.5637L101.58 138.848H103.191L99.1748 150.695ZM109.595 149.759H107.43V141.411L104.844 142.213V140.452L109.363 138.833H109.595V149.759ZM120.683 145.248C120.683 146.756 120.371 147.91 119.746 148.71C119.122 149.509 118.207 149.909 117.003 149.909C115.815 149.909 114.905 149.516 114.276 148.732C113.646 147.948 113.324 146.824 113.309 145.36V143.352C113.309 141.828 113.624 140.672 114.253 139.882C114.888 139.093 115.8 138.698 116.988 138.698C118.177 138.698 119.087 139.09 119.716 139.875C120.346 140.654 120.668 141.776 120.683 143.239V145.248ZM118.517 143.045C118.517 142.14 118.392 141.483 118.143 141.074C117.898 140.659 117.513 140.452 116.988 140.452C116.479 140.452 116.102 140.649 115.857 141.044C115.617 141.433 115.49 142.045 115.475 142.88V145.532C115.475 146.422 115.595 147.084 115.834 147.518C116.079 147.948 116.469 148.163 117.003 148.163C117.533 148.163 117.915 147.955 118.15 147.541C118.385 147.126 118.507 146.492 118.517 145.637V143.045ZM129.687 145.248C129.687 146.756 129.375 147.91 128.75 148.71C128.126 149.509 127.212 149.909 126.008 149.909C124.819 149.909 123.91 149.516 123.28 148.732C122.651 147.948 122.328 146.824 122.313 145.36V143.352C122.313 141.828 122.628 140.672 123.258 139.882C123.892 139.093 124.804 138.698 125.993 138.698C127.182 138.698 128.091 139.09 128.72 139.875C129.35 140.654 129.672 141.776 129.687 143.239V145.248ZM127.521 143.045C127.521 142.14 127.397 141.483 127.147 141.074C126.902 140.659 126.517 140.452 125.993 140.452C125.483 140.452 125.106 140.649 124.861 141.044C124.621 141.433 124.494 142.045 124.479 142.88V145.532C124.479 146.422 124.599 147.084 124.839 147.518C125.084 147.948 125.473 148.163 126.008 148.163C126.537 148.163 126.919 147.955 127.154 147.541C127.389 147.126 127.511 146.492 127.521 145.637V143.045Z" fill="#121212"/>
<path d="M154.911 121.97C154.911 93.7168 132.58 70.8135 105.033 70.8135C77.4871 70.8135 55.1563 93.7168 55.1563 121.97" stroke="url(#paint0_angular)" stroke-width="8.95231" stroke-linecap="round"/>
<path d="M64.3559 81.6182L72.1565 89.5009" stroke="white" stroke-width="1.2789"/>
<path d="M145.839 82.667L138.038 90.5497" stroke="white" stroke-width="1.2789"/>
<path d="M105.033 64.4189V75.9291" stroke="white" stroke-width="1.2789"/>
<path fill-rule="evenodd" clip-rule="evenodd" d="M55.1563 120.691C59.3942 120.691 62.8297 117.255 62.8297 113.017C62.8297 108.779 59.3942 105.344 55.1563 105.344C50.9184 105.344 47.4829 108.779 47.4829 113.017C47.4829 117.255 50.9184 120.691 55.1563 120.691Z" fill="#31BFDE" stroke="white" stroke-width="1.2789"/>
<path fill-rule="evenodd" clip-rule="evenodd" d="M85.5671 114.576C84.9213 114.738 84.9213 115.656 85.5671 115.817L104.398 120.525C107.864 121.391 111.222 118.77 111.222 115.197C111.222 111.624 107.864 109.002 104.398 109.869L85.5671 114.576ZM107.385 115.196C107.385 114.136 106.526 113.277 105.466 113.277C104.407 113.277 103.548 114.136 103.548 115.196C103.548 116.255 104.407 117.114 105.466 117.114C106.526 117.114 107.385 116.255 107.385 115.196Z" fill="#575A60"/>
<rect x="69.224" y="166.731" width="71.6185" height="25.578" rx="12.789" fill="#31BFDE"/>
<path d="M91.0953 184.474H97.1277V185.847H89.408V173.118H91.0953V184.474ZM98.808 181.03C98.808 180.103 98.9886 179.269 99.35 178.529C99.7172 177.789 100.224 177.218 100.871 176.816C101.524 176.414 102.267 176.212 103.101 176.212C104.389 176.212 105.429 176.658 106.222 177.55C107.02 178.442 107.419 179.628 107.419 181.108V181.222C107.419 182.143 107.242 182.97 106.886 183.705C106.536 184.433 106.032 185.002 105.374 185.41C104.721 185.818 103.969 186.022 103.118 186.022C101.836 186.022 100.795 185.576 99.9969 184.684C99.2043 183.792 98.808 182.612 98.808 181.143V181.03ZM100.434 181.222C100.434 182.271 100.676 183.113 101.16 183.748C101.649 184.384 102.302 184.701 103.118 184.701C103.94 184.701 104.593 184.381 105.076 183.74C105.56 183.093 105.802 182.189 105.802 181.03C105.802 179.992 105.554 179.153 105.059 178.512C104.569 177.865 103.916 177.541 103.101 177.541C102.302 177.541 101.658 177.859 101.168 178.494C100.679 179.13 100.434 180.039 100.434 181.222ZM118.27 183.617L120.089 176.387H121.706L118.952 185.847H117.641L115.342 178.678L113.104 185.847H111.792L109.047 176.387H110.656L112.518 183.469L114.721 176.387H116.024L118.27 183.617Z" fill="white"/>
<defs>
<filter id="filter0_d" x="0.163295" y="0.474028" width="209.74" height="269.848" filterUnits="userSpaceOnUse" color-interpolation-filters="sRGB">
<feFlood flood-opacity="0" result="BackgroundImageFix"/>
<feColorMatrix in="SourceAlpha" type="matrix" values="0 0 0 0 0 0 0 0 0 0 0 0 0 0 0 0 0 0 127 0"/>
<feOffset dy="2.5578"/>
<feGaussianBlur stdDeviation="1.91835"/>
<feColorMatrix type="matrix" values="0 0 0 0 0 0 0 0 0 0 0 0 0 0 0 0 0 0 0.1 0"/>
<feBlend mode="normal" in2="BackgroundImageFix" result="effect1_dropShadow"/>
<feBlend mode="normal" in="SourceGraphic" in2="effect1_dropShadow" result="shape"/>
</filter>
<radialGradient id="paint0_angular" cx="0" cy="0" r="1" gradientUnits="userSpaceOnUse" gradientTransform="translate(105.033 96.3915) scale(49.8772 25.578)">
<stop offset="0.140625" stop-color="#FF6C4C"/>
<stop offset="0.375" stop-color="#31BFDE"/>
<stop offset="0.666667" stop-color="#36CB83"/>
<stop offset="0.817708" stop-color="#FFAE10"/>
</radialGradient>
</defs>
</svg>
