<svg width="211" height="271" viewBox="0 0 211 271" fill="none" xmlns="http://www.w3.org/2000/svg">
<g filter="url(#filter0_d)">
<path fill-rule="evenodd" clip-rule="evenodd" d="M4.64453 5.58963C4.64453 3.47068 6.36228 1.75293 8.48124 1.75293H202.874C204.993 1.75293 206.711 3.47068 206.711 5.58963V260.091C206.711 262.21 204.993 263.928 202.874 263.928H8.48123C6.36227 263.928 4.64453 262.21 4.64453 260.091L4.64453 5.58963Z" fill="white"/>
<path d="M5.14453 5.58963C5.14453 3.74682 6.63842 2.25293 8.48124 2.25293H202.874C204.717 2.25293 206.211 3.74682 206.211 5.58963V260.091C206.211 261.934 204.717 263.428 202.874 263.428H8.48123C6.63842 263.428 5.14453 261.934 5.14453 260.091V5.58963Z" stroke="#E1E1E1"/>
</g>
<path d="M56.6618 35.1897C56.6618 34.5503 56.4353 34.0574 55.9824 33.711C55.5361 33.3646 54.7268 33.0149 53.5545 32.6619C52.3821 32.3089 51.4496 31.9159 50.7569 31.4829C49.4313 30.6503 48.7686 29.5646 48.7686 28.2257C48.7686 27.0534 49.2448 26.0876 50.1974 25.3282C51.1565 24.5689 52.3988 24.1892 53.9242 24.1892C54.9366 24.1892 55.8392 24.3757 56.6318 24.7487C57.4245 25.1217 58.0473 25.6546 58.5002 26.3473C58.9532 27.0334 59.1796 27.7961 59.1796 28.6354H56.6618C56.6618 27.876 56.422 27.2832 55.9424 26.8569C55.4695 26.4239 54.7901 26.2075 53.9042 26.2075C53.0782 26.2075 52.4354 26.384 51.9758 26.737C51.5229 27.09 51.2964 27.5829 51.2964 28.2157C51.2964 28.7486 51.5429 29.1949 52.0358 29.5546C52.5287 29.9076 53.3413 30.254 54.4737 30.5937C55.606 30.9267 56.5153 31.3097 57.2013 31.7427C57.8874 32.169 58.3903 32.6619 58.71 33.2214C59.0298 33.7743 59.1896 34.4237 59.1896 35.1698C59.1896 36.3821 58.7234 37.3479 57.7908 38.0673C56.865 38.78 55.606 39.1364 54.0141 39.1364C52.9616 39.1364 51.9925 38.9432 51.1066 38.5568C50.2273 38.1639 49.5413 37.6243 49.0483 36.9382C48.5621 36.2522 48.319 35.4528 48.319 34.5403H50.8468C50.8468 35.3663 51.1199 36.0057 51.6661 36.4587C52.2123 36.9116 52.995 37.1381 54.0141 37.1381C54.8933 37.1381 55.5528 36.9616 55.9924 36.6085C56.4387 36.2488 56.6618 35.7759 56.6618 35.1897ZM64.4711 25.4981V28.1258H66.3795V29.9243H64.4711V35.9591C64.4711 36.3721 64.551 36.6718 64.7109 36.8583C64.8774 37.0382 65.1705 37.1281 65.5901 37.1281C65.8699 37.1281 66.153 37.0948 66.4394 37.0282V38.9065C65.8866 39.0598 65.3537 39.1364 64.8408 39.1364C62.9757 39.1364 62.0432 38.1072 62.0432 36.049V29.9243H60.2647V28.1258H62.0432V25.4981H64.4711ZM74.1588 30.3439C73.8391 30.2906 73.5093 30.264 73.1696 30.264C72.0572 30.264 71.3079 30.6903 70.9216 31.5429V38.9365H68.4936V28.1258H70.8117L70.8716 29.3348C71.4578 28.3956 72.2704 27.926 73.3095 27.926C73.6559 27.926 73.9423 27.9726 74.1688 28.0659L74.1588 30.3439ZM80.5093 39.1364C78.9706 39.1364 77.7217 38.6534 76.7625 37.6876C75.81 36.7151 75.3338 35.4229 75.3338 33.8109V33.5112C75.3338 32.4321 75.5403 31.4696 75.9532 30.6237C76.3729 29.7711 76.959 29.1083 77.7117 28.6354C78.4644 28.1624 79.3037 27.926 80.2296 27.926C81.7016 27.926 82.8373 28.3956 83.6366 29.3348C84.4426 30.274 84.8456 31.6028 84.8456 33.3213V34.3005H77.7817C77.8549 35.1931 78.1514 35.8991 78.6709 36.4187C79.1971 36.9382 79.8566 37.198 80.6492 37.198C81.7616 37.198 82.6675 36.7484 83.3669 35.8492L84.6757 37.0981C84.2428 37.7442 83.6633 38.2471 82.9372 38.6068C82.2179 38.9598 81.4086 39.1364 80.5093 39.1364ZM80.2196 29.8743C79.5535 29.8743 79.0139 30.1074 78.601 30.5737C78.1946 31.04 77.9349 31.6894 77.8216 32.522H82.4477V32.3422C82.3944 31.5296 82.1779 30.9167 81.7982 30.5038C81.4185 30.0841 80.8923 29.8743 80.2196 29.8743ZM93.0546 35.999C93.0546 35.5661 92.8747 35.2364 92.515 35.0099C92.162 34.7834 91.5725 34.5836 90.7465 34.4104C89.9206 34.2372 89.2312 34.0174 88.6783 33.751C87.466 33.1648 86.8599 32.3155 86.8599 31.2032C86.8599 30.2706 87.2529 29.4913 88.0389 28.8652C88.8249 28.239 89.824 27.926 91.0363 27.926C92.3285 27.926 93.3709 28.2457 94.1636 28.8852C94.9629 29.5246 95.3626 30.3539 95.3626 31.373H92.9347C92.9347 30.9068 92.7615 30.5204 92.4151 30.214C92.0687 29.9009 91.6091 29.7444 91.0363 29.7444C90.5034 29.7444 90.0671 29.8676 89.7274 30.1141C89.3944 30.3606 89.2278 30.6903 89.2278 31.1033C89.2278 31.4763 89.3844 31.766 89.6974 31.9725C90.0105 32.179 90.6433 32.3888 91.5958 32.602C92.5483 32.8085 93.2943 33.0582 93.8339 33.3513C94.3801 33.6377 94.7831 33.9841 95.0428 34.3904C95.3093 34.7967 95.4425 35.2897 95.4425 35.8692C95.4425 36.8417 95.0395 37.631 94.2335 38.2371C93.4276 38.8366 92.3718 39.1364 91.0663 39.1364C90.1804 39.1364 89.391 38.9765 88.6983 38.6568C88.0056 38.337 87.466 37.8974 87.0797 37.3379C86.6933 36.7784 86.5002 36.1756 86.5002 35.5294H88.8582C88.8915 36.1023 89.1079 36.5452 89.5076 36.8583C89.9073 37.1647 90.4368 37.3179 91.0962 37.3179C91.7357 37.3179 92.2219 37.198 92.555 36.9582C92.888 36.7118 93.0546 36.392 93.0546 35.999ZM103.881 35.999C103.881 35.5661 103.701 35.2364 103.342 35.0099C102.989 34.7834 102.399 34.5836 101.573 34.4104C100.747 34.2372 100.058 34.0174 99.505 33.751C98.2927 33.1648 97.6866 32.3155 97.6866 31.2032C97.6866 30.2706 98.0796 29.4913 98.8656 28.8652C99.6516 28.239 100.651 27.926 101.863 27.926C103.155 27.926 104.198 28.2457 104.99 28.8852C105.79 29.5246 106.189 30.3539 106.189 31.373H103.761C103.761 30.9068 103.588 30.5204 103.242 30.214C102.895 29.9009 102.436 29.7444 101.863 29.7444C101.33 29.7444 100.894 29.8676 100.554 30.1141C100.221 30.3606 100.055 30.6903 100.055 31.1033C100.055 31.4763 100.211 31.766 100.524 31.9725C100.837 32.179 101.47 32.3888 102.423 32.602C103.375 32.8085 104.121 33.0582 104.661 33.3513C105.207 33.6377 105.61 33.9841 105.87 34.3904C106.136 34.7967 106.269 35.2897 106.269 35.8692C106.269 36.8417 105.866 37.631 105.06 38.2371C104.254 38.8366 103.199 39.1364 101.893 39.1364C101.007 39.1364 100.218 38.9765 99.525 38.6568C98.8323 38.337 98.2927 37.8974 97.9064 37.3379C97.5201 36.7784 97.3269 36.1756 97.3269 35.5294H99.6849C99.7182 36.1023 99.9346 36.5452 100.334 36.8583C100.734 37.1647 101.264 37.3179 101.923 37.3179C102.562 37.3179 103.049 37.198 103.382 36.9582C103.715 36.7118 103.881 36.392 103.881 35.999ZM116.902 38.9365H114.384V24.389H116.902V38.9365ZM122.283 28.1258L122.353 29.3747C123.153 28.4089 124.202 27.926 125.501 27.926C127.752 27.926 128.898 29.2149 128.938 31.7927V38.9365H126.51V31.9325C126.51 31.2465 126.36 30.7402 126.06 30.4138C125.767 30.0808 125.284 29.9143 124.611 29.9143C123.632 29.9143 122.903 30.3572 122.423 31.2431V38.9365H119.995V28.1258H122.283ZM131.222 33.4512C131.222 31.786 131.608 30.4505 132.381 29.4447C133.153 28.4322 134.189 27.926 135.488 27.926C136.634 27.926 137.56 28.3256 138.266 29.1249V23.5897H140.694V38.9365H138.496L138.376 37.8175C137.65 38.6967 136.68 39.1364 135.468 39.1364C134.203 39.1364 133.177 38.6268 132.391 37.6077C131.611 36.5885 131.222 35.2031 131.222 33.4512ZM133.65 33.6611C133.65 34.7601 133.86 35.6194 134.279 36.2388C134.705 36.8516 135.308 37.1581 136.088 37.1581C137.08 37.1581 137.806 36.7151 138.266 35.8292V31.2132C137.819 30.3472 137.1 29.9143 136.108 29.9143C135.322 29.9143 134.715 30.2273 134.289 30.8535C133.863 31.4729 133.65 32.4088 133.65 33.6611ZM148.243 39.1364C146.704 39.1364 145.456 38.6534 144.496 37.6876C143.544 36.7151 143.068 35.4229 143.068 33.8109V33.5112C143.068 32.4321 143.274 31.4696 143.687 30.6237C144.107 29.7711 144.693 29.1083 145.446 28.6354C146.198 28.1624 147.038 27.926 147.963 27.926C149.435 27.926 150.571 28.3956 151.37 29.3348C152.176 30.274 152.579 31.6028 152.579 33.3213V34.3005H145.515C145.589 35.1931 145.885 35.8991 146.405 36.4187C146.931 36.9382 147.59 37.198 148.383 37.198C149.495 37.198 150.401 36.7484 151.101 35.8492L152.41 37.0981C151.977 37.7442 151.397 38.2471 150.671 38.6068C149.952 38.9598 149.142 39.1364 148.243 39.1364ZM147.953 29.8743C147.287 29.8743 146.748 30.1074 146.335 30.5737C145.928 31.04 145.669 31.6894 145.555 32.522H150.181V32.3422C150.128 31.5296 149.912 30.9167 149.532 30.5038C149.152 30.0841 148.626 29.8743 147.953 29.8743ZM158.61 31.6828L160.668 28.1258H163.366L160.059 33.4512L163.476 38.9365H160.798L158.64 35.2397L156.492 38.9365H153.794L157.211 33.4512L153.914 28.1258H156.592L158.61 31.6828Z" fill="#121212"/>
<path d="M58.7673 213.481L62.0894 207.09H63.9953L59.6065 215.072V219.819H57.928V215.072L53.5393 207.09H55.4626L58.7673 213.481ZM64.8276 215.002C64.8276 214.076 65.0082 213.242 65.3696 212.502C65.7368 211.762 66.2438 211.19 66.8908 210.788C67.5436 210.386 68.2867 210.185 69.1201 210.185C70.4082 210.185 71.4485 210.631 72.2412 211.523C73.0397 212.414 73.4389 213.601 73.4389 215.081V215.195C73.4389 216.115 73.2612 216.943 72.9056 217.677C72.5559 218.406 72.0518 218.974 71.3932 219.382C70.7404 219.79 69.9885 219.994 69.1376 219.994C67.8554 219.994 66.815 219.548 66.0165 218.657C65.2239 217.765 64.8276 216.585 64.8276 215.116V215.002ZM66.4537 215.195C66.4537 216.244 66.6955 217.086 67.1793 217.721C67.6689 218.356 68.3216 218.674 69.1376 218.674C69.9594 218.674 70.6122 218.354 71.0959 217.712C71.5797 217.065 71.8216 216.162 71.8216 215.002C71.8216 213.965 71.5739 213.126 71.0784 212.484C70.5889 211.837 69.9361 211.514 69.1201 211.514C68.3216 211.514 67.6776 211.832 67.188 212.467C66.6985 213.102 66.4537 214.011 66.4537 215.195ZM81.7548 218.884C81.1253 219.624 80.2015 219.994 78.9834 219.994C77.9751 219.994 77.2058 219.703 76.6754 219.12C76.1508 218.531 75.8856 217.663 75.8798 216.515V210.36H77.4972V216.471C77.4972 217.905 78.08 218.622 79.2457 218.622C80.4813 218.622 81.3031 218.161 81.7111 217.24V210.36H83.3284V219.819H81.7897L81.7548 218.884ZM96.9702 219.819C96.877 219.633 96.8012 219.301 96.7429 218.823C95.9911 219.604 95.0935 219.994 94.0502 219.994C93.1177 219.994 92.3513 219.732 91.7509 219.207C91.1565 218.677 90.8592 218.007 90.8592 217.197C90.8592 216.212 91.2322 215.448 91.9782 214.906C92.7301 214.358 93.785 214.084 95.143 214.084H96.7167V213.341C96.7167 212.776 96.5477 212.327 96.2096 211.995C95.8716 211.657 95.3732 211.488 94.7146 211.488C94.1376 211.488 93.6539 211.633 93.2634 211.925C92.8729 212.216 92.6776 212.569 92.6776 212.983H91.0515C91.0515 212.511 91.2177 212.056 91.5499 211.619C91.8879 211.176 92.3425 210.826 92.9137 210.57C93.4907 210.313 94.1231 210.185 94.8108 210.185C95.9007 210.185 96.7546 210.459 97.3724 211.007C97.9902 211.549 98.3107 212.298 98.334 213.254V217.607C98.334 218.476 98.4448 219.167 98.6663 219.679V219.819H96.9702ZM94.2863 218.587C94.7933 218.587 95.2742 218.456 95.7288 218.193C96.1834 217.931 96.5127 217.59 96.7167 217.17V215.23H95.449C93.4674 215.23 92.4766 215.809 92.4766 216.969C92.4766 217.476 92.6456 217.873 92.9836 218.158C93.3217 218.444 93.7559 218.587 94.2863 218.587ZM105.889 211.811C105.645 211.77 105.379 211.75 105.094 211.75C104.033 211.75 103.313 212.202 102.934 213.105V219.819H101.317V210.36H102.891L102.917 211.453C103.447 210.608 104.199 210.185 105.172 210.185C105.487 210.185 105.726 210.226 105.889 210.308V211.811ZM111.582 219.994C110.3 219.994 109.257 219.575 108.453 218.735C107.648 217.89 107.246 216.762 107.246 215.352V215.055C107.246 214.116 107.424 213.28 107.779 212.546C108.141 211.805 108.642 211.228 109.283 210.815C109.93 210.395 110.629 210.185 111.381 210.185C112.611 210.185 113.567 210.59 114.249 211.4C114.931 212.21 115.272 213.37 115.272 214.88V215.553H108.863C108.887 216.486 109.158 217.24 109.677 217.817C110.201 218.388 110.866 218.674 111.67 218.674C112.241 218.674 112.725 218.558 113.121 218.324C113.517 218.091 113.864 217.782 114.161 217.398L115.149 218.167C114.357 219.385 113.168 219.994 111.582 219.994ZM111.381 211.514C110.729 211.514 110.181 211.753 109.738 212.231C109.295 212.703 109.021 213.367 108.916 214.224H113.654V214.102C113.608 213.28 113.386 212.645 112.99 212.196C112.594 211.741 112.057 211.514 111.381 211.514ZM128.328 219.819C128.235 219.633 128.159 219.301 128.1 218.823C127.349 219.604 126.451 219.994 125.408 219.994C124.475 219.994 123.709 219.732 123.109 219.207C122.514 218.677 122.217 218.007 122.217 217.197C122.217 216.212 122.59 215.448 123.336 214.906C124.088 214.358 125.143 214.084 126.501 214.084H128.074V213.341C128.074 212.776 127.905 212.327 127.567 211.995C127.229 211.657 126.731 211.488 126.072 211.488C125.495 211.488 125.011 211.633 124.621 211.925C124.23 212.216 124.035 212.569 124.035 212.983H122.409C122.409 212.511 122.575 212.056 122.907 211.619C123.245 211.176 123.7 210.826 124.271 210.57C124.848 210.313 125.481 210.185 126.168 210.185C127.258 210.185 128.112 210.459 128.73 211.007C129.348 211.549 129.668 212.298 129.692 213.254V217.607C129.692 218.476 129.802 219.167 130.024 219.679V219.819H128.328ZM125.644 218.587C126.151 218.587 126.632 218.456 127.086 218.193C127.541 217.931 127.87 217.59 128.074 217.17V215.23H126.807C124.825 215.23 123.834 215.809 123.834 216.969C123.834 217.476 124.003 217.873 124.341 218.158C124.679 218.444 125.113 218.587 125.644 218.587ZM145.571 215.195C145.571 216.64 145.239 217.803 144.575 218.683C143.91 219.557 143.019 219.994 141.9 219.994C140.705 219.994 139.781 219.572 139.128 218.727L139.05 219.819H137.563V206.391H139.181V211.4C139.833 210.59 140.734 210.185 141.882 210.185C143.03 210.185 143.931 210.619 144.584 211.488C145.242 212.356 145.571 213.545 145.571 215.055V215.195ZM143.954 215.011C143.954 213.909 143.741 213.058 143.316 212.458C142.89 211.858 142.278 211.558 141.48 211.558C140.413 211.558 139.647 212.053 139.181 213.044V217.135C139.676 218.126 140.448 218.622 141.497 218.622C142.273 218.622 142.876 218.321 143.307 217.721C143.738 217.121 143.954 216.217 143.954 215.011ZM149.822 219.819H148.205V210.36H149.822V219.819ZM148.074 207.851C148.074 207.589 148.152 207.367 148.31 207.186C148.473 207.006 148.712 206.915 149.027 206.915C149.341 206.915 149.58 207.006 149.743 207.186C149.907 207.367 149.988 207.589 149.988 207.851C149.988 208.113 149.907 208.332 149.743 208.507C149.58 208.681 149.341 208.769 149.027 208.769C148.712 208.769 148.473 208.681 148.31 208.507C148.152 208.332 148.074 208.113 148.074 207.851ZM155.061 208.069V210.36H156.827V211.61H155.061V217.476C155.061 217.855 155.139 218.141 155.297 218.333C155.454 218.52 155.722 218.613 156.101 218.613C156.287 218.613 156.544 218.578 156.87 218.508V219.819C156.445 219.936 156.031 219.994 155.629 219.994C154.906 219.994 154.361 219.776 153.994 219.338C153.627 218.901 153.443 218.281 153.443 217.476V211.61H151.721V210.36H153.443V208.069H155.061ZM76.5722 238.31C76.5722 237.873 76.4061 237.535 76.0739 237.296C75.7475 237.051 75.1734 236.842 74.3516 236.667C73.5357 236.492 72.8858 236.282 72.4021 236.037C71.9241 235.792 71.5686 235.501 71.3355 235.163C71.1082 234.825 70.9945 234.423 70.9945 233.956C70.9945 233.181 71.3209 232.526 71.9737 231.989C72.6323 231.453 73.4716 231.185 74.4915 231.185C75.5639 231.185 76.4324 231.462 77.0968 232.016C77.767 232.569 78.1022 233.277 78.1022 234.14H76.4761C76.4761 233.697 76.2866 233.315 75.9078 232.995C75.5348 232.674 75.0627 232.514 74.4915 232.514C73.9029 232.514 73.4424 232.642 73.1102 232.899C72.778 233.155 72.6119 233.49 72.6119 233.904C72.6119 234.295 72.7663 234.589 73.0752 234.787C73.3841 234.985 73.9407 235.175 74.745 235.355C75.5552 235.536 76.2109 235.752 76.7121 236.002C77.2133 236.253 77.5834 236.556 77.8224 236.911C78.0672 237.261 78.1896 237.69 78.1896 238.197C78.1896 239.042 77.8515 239.721 77.1755 240.234C76.4994 240.741 75.6222 240.994 74.544 240.994C73.7863 240.994 73.116 240.86 72.5332 240.592C71.9504 240.324 71.4928 239.951 71.1606 239.473C70.8342 238.989 70.671 238.468 70.671 237.908H72.2884C72.3176 238.45 72.5332 238.881 72.9354 239.202C73.3433 239.517 73.8795 239.674 74.544 239.674C75.1559 239.674 75.6455 239.552 76.0127 239.307C76.3857 239.056 76.5722 238.724 76.5722 238.31ZM82.9385 229.069V231.36H84.7045V232.61H82.9385V238.476C82.9385 238.855 83.0172 239.141 83.1746 239.333C83.3319 239.52 83.6 239.613 83.9789 239.613C84.1654 239.613 84.4218 239.578 84.7482 239.508V240.819C84.3227 240.936 83.9089 240.994 83.5068 240.994C82.7841 240.994 82.2391 240.776 81.8719 240.338C81.5047 239.901 81.3212 239.281 81.3212 238.476V232.61H79.5989V231.36H81.3212V229.069H82.9385ZM91.6216 232.811C91.3768 232.77 91.1116 232.75 90.826 232.75C89.7652 232.75 89.0454 233.202 88.6666 234.105V240.819H87.0492V231.36H88.6229L88.6491 232.453C89.1795 231.608 89.9313 231.185 90.9047 231.185C91.2194 231.185 91.4584 231.226 91.6216 231.308V232.811ZM97.3147 240.994C96.0324 240.994 94.9892 240.575 94.1849 239.735C93.3805 238.89 92.9784 237.762 92.9784 236.352V236.055C92.9784 235.116 93.1562 234.28 93.5117 233.546C93.873 232.805 94.3743 232.228 95.0154 231.815C95.6623 231.395 96.3617 231.185 97.1136 231.185C98.3434 231.185 99.2992 231.59 99.9811 232.4C100.663 233.21 101.004 234.37 101.004 235.88V236.553H94.5957C94.6191 237.486 94.8901 238.24 95.4088 238.817C95.9334 239.388 96.5978 239.674 97.4021 239.674C97.9733 239.674 98.457 239.558 98.8533 239.324C99.2497 239.091 99.5965 238.782 99.8937 238.398L100.882 239.167C100.089 240.385 98.9 240.994 97.3147 240.994ZM97.1136 232.514C96.4608 232.514 95.913 232.753 95.47 233.231C95.027 233.703 94.7531 234.367 94.6482 235.224H99.3866V235.102C99.34 234.28 99.1185 233.645 98.7222 233.196C98.3259 232.741 97.7897 232.514 97.1136 232.514ZM108.839 238.31C108.839 237.873 108.673 237.535 108.341 237.296C108.014 237.051 107.44 236.842 106.618 236.667C105.802 236.492 105.153 236.282 104.669 236.037C104.191 235.792 103.835 235.501 103.602 235.163C103.375 234.825 103.261 234.423 103.261 233.956C103.261 233.181 103.588 232.526 104.24 231.989C104.899 231.453 105.738 231.185 106.758 231.185C107.831 231.185 108.699 231.462 109.364 232.016C110.034 232.569 110.369 233.277 110.369 234.14H108.743C108.743 233.697 108.553 233.315 108.175 232.995C107.802 232.674 107.329 232.514 106.758 232.514C106.17 232.514 105.709 232.642 105.377 232.899C105.045 233.155 104.879 233.49 104.879 233.904C104.879 234.295 105.033 234.589 105.342 234.787C105.651 234.985 106.208 235.175 107.012 235.355C107.822 235.536 108.478 235.752 108.979 236.002C109.48 236.253 109.85 236.556 110.089 236.911C110.334 237.261 110.456 237.69 110.456 238.197C110.456 239.042 110.118 239.721 109.442 240.234C108.766 240.741 107.889 240.994 106.811 240.994C106.053 240.994 105.383 240.86 104.8 240.592C104.217 240.324 103.76 239.951 103.427 239.473C103.101 238.989 102.938 238.468 102.938 237.908H104.555C104.584 238.45 104.8 238.881 105.202 239.202C105.61 239.517 106.146 239.674 106.811 239.674C107.423 239.674 107.912 239.552 108.279 239.307C108.653 239.056 108.839 238.724 108.839 238.31ZM118.519 238.31C118.519 237.873 118.353 237.535 118.02 237.296C117.694 237.051 117.12 236.842 116.298 236.667C115.482 236.492 114.832 236.282 114.349 236.037C113.871 235.792 113.515 235.501 113.282 235.163C113.055 234.825 112.941 234.423 112.941 233.956C112.941 233.181 113.267 232.526 113.92 231.989C114.579 231.453 115.418 231.185 116.438 231.185C117.51 231.185 118.379 231.462 119.043 232.016C119.714 232.569 120.049 233.277 120.049 234.14H118.423C118.423 233.697 118.233 233.315 117.854 232.995C117.481 232.674 117.009 232.514 116.438 232.514C115.849 232.514 115.389 232.642 115.057 232.899C114.724 233.155 114.558 233.49 114.558 233.904C114.558 234.295 114.713 234.589 115.022 234.787C115.331 234.985 115.887 235.175 116.692 235.355C117.502 235.536 118.157 235.752 118.659 236.002C119.16 236.253 119.53 236.556 119.769 236.911C120.014 237.261 120.136 237.69 120.136 238.197C120.136 239.042 119.798 239.721 119.122 240.234C118.446 240.741 117.569 240.994 116.49 240.994C115.733 240.994 115.063 240.86 114.48 240.592C113.897 240.324 113.439 239.951 113.107 239.473C112.781 238.989 112.618 238.468 112.618 237.908H114.235C114.264 238.45 114.48 238.881 114.882 239.202C115.29 239.517 115.826 239.674 116.49 239.674C117.102 239.674 117.592 239.552 117.959 239.307C118.332 239.056 118.519 238.724 118.519 238.31ZM126.616 240.994C125.334 240.994 124.29 240.575 123.486 239.735C122.682 238.89 122.28 237.762 122.28 236.352V236.055C122.28 235.116 122.457 234.28 122.813 233.546C123.174 232.805 123.676 232.228 124.317 231.815C124.964 231.395 125.663 231.185 126.415 231.185C127.645 231.185 128.601 231.59 129.282 232.4C129.964 233.21 130.305 234.37 130.305 235.88V236.553H123.897C123.92 237.486 124.191 238.24 124.71 238.817C125.235 239.388 125.899 239.674 126.703 239.674C127.275 239.674 127.758 239.558 128.155 239.324C128.551 239.091 128.898 238.782 129.195 238.398L130.183 239.167C129.39 240.385 128.201 240.994 126.616 240.994ZM126.415 232.514C125.762 232.514 125.214 232.753 124.771 233.231C124.328 233.703 124.054 234.367 123.95 235.224H128.688V235.102C128.641 234.28 128.42 233.645 128.024 233.196C127.627 232.741 127.091 232.514 126.415 232.514ZM132.239 236.011C132.239 234.56 132.583 233.394 133.271 232.514C133.959 231.628 134.859 231.185 135.972 231.185C137.08 231.185 137.957 231.564 138.604 232.322V227.391H140.221V240.819H138.735L138.656 239.805C138.009 240.598 137.109 240.994 135.955 240.994C134.859 240.994 133.964 240.545 133.271 239.648C132.583 238.75 132.239 237.579 132.239 236.133V236.011ZM133.857 236.195C133.857 237.267 134.078 238.106 134.521 238.712C134.964 239.319 135.576 239.622 136.357 239.622C137.383 239.622 138.132 239.161 138.604 238.24V233.895C138.12 233.004 137.377 232.558 136.374 232.558C135.582 232.558 134.964 232.864 134.521 233.476C134.078 234.088 133.857 234.994 133.857 236.195Z" fill="#121212"/>
<path d="M87.4459 145.652H88.6823V147.398H87.4459V149.759H85.2802V147.398H80.8066L80.7092 146.034L85.2578 138.848H87.4459V145.652ZM82.8673 145.652H85.2802V141.801L85.1379 142.048L82.8673 145.652ZM97.3869 145.248C97.3869 146.756 97.0746 147.91 96.4502 148.71C95.8257 149.509 94.9115 149.909 93.7075 149.909C92.5185 149.909 91.6093 149.516 90.9799 148.732C90.3504 147.948 90.0282 146.824 90.0132 145.36V143.352C90.0132 141.828 90.3279 140.672 90.9574 139.882C91.5918 139.093 92.5035 138.698 93.6925 138.698C94.8815 138.698 95.7907 139.09 96.4202 139.875C97.0496 140.654 97.3719 141.776 97.3869 143.239V145.248ZM95.2212 143.045C95.2212 142.14 95.0963 141.483 94.8465 141.074C94.6017 140.659 94.2171 140.452 93.6925 140.452C93.183 140.452 92.8058 140.649 92.561 141.044C92.3212 141.433 92.1938 142.045 92.1788 142.88V145.532C92.1788 146.422 92.2987 147.084 92.5385 147.518C92.7833 147.948 93.173 148.163 93.7075 148.163C94.2371 148.163 94.6192 147.955 94.854 147.541C95.0888 147.126 95.2112 146.492 95.2212 145.637V143.045ZM99.8193 150.695H98.2081L102.225 138.848H103.836L99.8193 150.695ZM110.24 149.759H108.074V141.411L105.489 142.213V140.452L110.008 138.833H110.24V149.759ZM121.327 145.248C121.327 146.756 121.015 147.91 120.391 148.71C119.766 149.509 118.852 149.909 117.648 149.909C116.459 149.909 115.55 149.516 114.92 148.732C114.291 147.948 113.969 146.824 113.954 145.36V143.352C113.954 141.828 114.268 140.672 114.898 139.882C115.532 139.093 116.444 138.698 117.633 138.698C118.822 138.698 119.731 139.09 120.361 139.875C120.99 140.654 121.312 141.776 121.327 143.239V145.248ZM119.162 143.045C119.162 142.14 119.037 141.483 118.787 141.074C118.542 140.659 118.158 140.452 117.633 140.452C117.123 140.452 116.746 140.649 116.501 141.044C116.262 141.433 116.134 142.045 116.119 142.88V145.532C116.119 146.422 116.239 147.084 116.479 147.518C116.724 147.948 117.113 148.163 117.648 148.163C118.177 148.163 118.56 147.955 118.794 147.541C119.029 147.126 119.152 146.492 119.162 145.637V143.045ZM130.332 145.248C130.332 146.756 130.019 147.91 129.395 148.71C128.77 149.509 127.856 149.909 126.652 149.909C125.463 149.909 124.554 149.516 123.925 148.732C123.295 147.948 122.973 146.824 122.958 145.36V143.352C122.958 141.828 123.273 140.672 123.902 139.882C124.537 139.093 125.448 138.698 126.637 138.698C127.826 138.698 128.735 139.09 129.365 139.875C129.994 140.654 130.317 141.776 130.332 143.239V145.248ZM128.166 143.045C128.166 142.14 128.041 141.483 127.791 141.074C127.546 140.659 127.162 140.452 126.637 140.452C126.128 140.452 125.75 140.649 125.506 141.044C125.266 141.433 125.139 142.045 125.124 142.88V145.532C125.124 146.422 125.243 147.084 125.483 147.518C125.728 147.948 126.118 148.163 126.652 148.163C127.182 148.163 127.564 147.955 127.799 147.541C128.034 147.126 128.156 146.492 128.166 145.637V143.045Z" fill="#121212"/>
<path d="M155.555 121.97C155.555 93.7168 133.224 70.8135 105.678 70.8135C78.1312 70.8135 55.8004 93.7168 55.8004 121.97" stroke="url(#paint0_angular)" stroke-width="8.95231" stroke-linecap="round"/>
<path d="M65 81.6182L72.8006 89.5009" stroke="white" stroke-width="1.2789"/>
<path d="M146.483 82.667L138.682 90.5497" stroke="white" stroke-width="1.2789"/>
<path d="M105.678 64.4189V75.9291" stroke="white" stroke-width="1.2789"/>
<path fill-rule="evenodd" clip-rule="evenodd" d="M85.2152 83.6027C89.4531 83.6027 92.8886 80.1672 92.8886 75.9293C92.8886 71.6914 89.4531 68.2559 85.2152 68.2559C80.9773 68.2559 77.5417 71.6914 77.5417 75.9293C77.5417 80.1672 80.9773 83.6027 85.2152 83.6027Z" fill="#36CB83" stroke="white" stroke-width="1.2789"/>
<path fill-rule="evenodd" clip-rule="evenodd" d="M96.4248 97.5895C95.962 97.1109 95.1672 97.5698 95.3503 98.2099L100.689 116.871C101.671 120.306 105.621 121.903 108.715 120.117C111.809 118.331 112.4 114.112 109.917 111.543L96.4248 97.5895ZM106.795 116.794C107.712 116.265 108.027 115.091 107.497 114.174C106.967 113.256 105.794 112.942 104.876 113.472C103.959 114.001 103.645 115.175 104.174 116.092C104.704 117.01 105.877 117.324 106.795 116.794Z" fill="#575A60"/>
<rect x="37.896" y="166.731" width="135.564" height="25.578" rx="12.789" fill="#36CB83"/>
<path d="M75.6213 173.118L79.7827 183.504L83.9442 173.118H86.1211V185.847H84.4425V180.89L84.5999 175.539L80.421 185.847H79.1358L74.9656 175.566L75.1317 180.89V185.847H73.4532V173.118H75.6213ZM93.2042 186.022C91.922 186.022 90.8787 185.602 90.0744 184.763C89.2701 183.918 88.8679 182.79 88.8679 181.379V181.082C88.8679 180.144 89.0457 179.307 89.4012 178.573C89.7626 177.833 90.2638 177.256 90.9049 176.842C91.5519 176.422 92.2513 176.212 93.0031 176.212C94.2329 176.212 95.1888 176.618 95.8707 177.428C96.5526 178.238 96.8936 179.398 96.8936 180.907V181.58H90.4853C90.5086 182.513 90.7796 183.268 91.2984 183.845C91.8229 184.416 92.4873 184.701 93.2916 184.701C93.8628 184.701 94.3466 184.585 94.7429 184.352C95.1392 184.119 95.486 183.81 95.7833 183.425L96.7712 184.194C95.9785 185.412 94.7895 186.022 93.2042 186.022ZM93.0031 177.541C92.3504 177.541 91.8025 177.78 91.3596 178.258C90.9166 178.73 90.6427 179.395 90.5378 180.251H95.2762V180.129C95.2296 179.307 95.0081 178.672 94.6118 178.223C94.2154 177.769 93.6792 177.541 93.0031 177.541ZM98.8274 181.038C98.8274 179.587 99.1713 178.421 99.859 177.541C100.547 176.655 101.447 176.212 102.56 176.212C103.668 176.212 104.545 176.591 105.192 177.349V172.418H106.809V185.847H105.323L105.244 184.833C104.597 185.625 103.697 186.022 102.543 186.022C101.447 186.022 100.553 185.573 99.859 184.675C99.1713 183.778 98.8274 182.606 98.8274 181.161V181.038ZM100.445 181.222C100.445 182.294 100.666 183.134 101.109 183.74C101.552 184.346 102.164 184.649 102.945 184.649C103.971 184.649 104.72 184.189 105.192 183.268V178.923C104.708 178.031 103.965 177.585 102.963 177.585C102.17 177.585 101.552 177.891 101.109 178.503C100.666 179.115 100.445 180.021 100.445 181.222ZM111.532 185.847H109.915V176.387H111.532V185.847ZM109.783 173.878C109.783 173.616 109.862 173.394 110.02 173.214C110.183 173.033 110.422 172.943 110.736 172.943C111.051 172.943 111.29 173.033 111.453 173.214C111.616 173.394 111.698 173.616 111.698 173.878C111.698 174.14 111.616 174.359 111.453 174.534C111.29 174.709 111.051 174.796 110.736 174.796C110.422 174.796 110.183 174.709 110.02 174.534C109.862 174.359 109.783 174.14 109.783 173.878ZM120.416 184.911C119.787 185.651 118.863 186.022 117.645 186.022C116.636 186.022 115.867 185.73 115.337 185.147C114.812 184.559 114.547 183.69 114.541 182.542V176.387H116.159V182.498C116.159 183.932 116.741 184.649 117.907 184.649C119.143 184.649 119.964 184.189 120.372 183.268V176.387H121.99V185.847H120.451L120.416 184.911ZM126.424 176.387L126.468 177.436C127.161 176.62 128.097 176.212 129.274 176.212C130.597 176.212 131.498 176.72 131.975 177.734C132.29 177.279 132.698 176.912 133.199 176.632C133.706 176.352 134.304 176.212 134.992 176.212C137.066 176.212 138.121 177.311 138.156 179.508V185.847H136.539V179.605C136.539 178.928 136.385 178.424 136.076 178.092C135.767 177.754 135.248 177.585 134.519 177.585C133.919 177.585 133.421 177.766 133.025 178.127C132.628 178.483 132.398 178.963 132.334 179.57V185.847H130.708V179.648C130.708 178.273 130.035 177.585 128.688 177.585C127.627 177.585 126.902 178.037 126.511 178.94V185.847H124.894V176.387H126.424Z" fill="white"/>
<defs>
<filter id="filter0_d" x="0.807826" y="0.474028" width="209.74" height="269.848" filterUnits="userSpaceOnUse" color-interpolation-filters="sRGB">
<feFlood flood-opacity="0" result="BackgroundImageFix"/>
<feColorMatrix in="SourceAlpha" type="matrix" values="0 0 0 0 0 0 0 0 0 0 0 0 0 0 0 0 0 0 127 0"/>
<feOffset dy="2.5578"/>
<feGaussianBlur stdDeviation="1.91835"/>
<feColorMatrix type="matrix" values="0 0 0 0 0 0 0 0 0 0 0 0 0 0 0 0 0 0 0.1 0"/>
<feBlend mode="normal" in2="BackgroundImageFix" result="effect1_dropShadow"/>
<feBlend mode="normal" in="SourceGraphic" in2="effect1_dropShadow" result="shape"/>
</filter>
<radialGradient id="paint0_angular" cx="0" cy="0" r="1" gradientUnits="userSpaceOnUse" gradientTransform="translate(105.678 96.3915) scale(49.8772 25.578)">
<stop offset="0.140625" stop-color="#FF6C4C"/>
<stop offset="0.375" stop-color="#31BFDE"/>
<stop offset="0.666667" stop-color="#36CB83"/>
<stop offset="0.817708" stop-color="#FFAE10"/>
</radialGradient>
</defs>
</svg>
