<svg width="211" height="271" viewBox="0 0 211 271" fill="none" xmlns="http://www.w3.org/2000/svg">
<g filter="url(#filter0_d)">
<path fill-rule="evenodd" clip-rule="evenodd" d="M4.64453 5.8367C4.64453 3.71775 6.36228 2 8.48124 2H202.874C204.993 2 206.711 3.71775 206.711 5.83671V260.338C206.711 262.457 204.993 264.175 202.874 264.175H8.48123C6.36227 264.175 4.64453 262.457 4.64453 260.338L4.64453 5.8367Z" fill="white"/>
<path d="M5.14453 5.8367C5.14453 3.99389 6.63842 2.5 8.48124 2.5H202.874C204.717 2.5 206.211 3.99389 206.211 5.83671V260.338C206.211 262.181 204.717 263.675 202.874 263.675H8.48123C6.63842 263.675 5.14453 262.181 5.14453 260.338V5.8367Z" stroke="#E1E1E1"/>
</g>
<path d="M38.3456 33.5784H35.528V39.1836H33.0002V24.6361H38.1158C39.7944 24.6361 41.0899 25.0124 42.0025 25.7651C42.915 26.5178 43.3713 27.6069 43.3713 29.0323C43.3713 30.0048 43.1348 30.8208 42.6619 31.4802C42.1956 32.133 41.5429 32.6359 40.7036 32.9889L43.9708 39.0537V39.1836H41.2631L38.3456 33.5784ZM35.528 31.5501H38.1258C38.9784 31.5501 39.6445 31.337 40.1241 30.9107C40.6037 30.4777 40.8435 29.8882 40.8435 29.1422C40.8435 28.3629 40.6203 27.7601 40.174 27.3338C39.7344 26.9075 39.075 26.6877 38.1957 26.6743H35.528V31.5501ZM50.5511 39.3834C49.0124 39.3834 47.7635 38.9005 46.8043 37.9347C45.8518 36.9622 45.3756 35.6699 45.3756 34.058V33.7583C45.3756 32.6792 45.5821 31.7167 45.995 30.8707C46.4147 30.0181 47.0008 29.3554 47.7535 28.8824C48.5062 28.4095 49.3455 28.173 50.2714 28.173C51.7434 28.173 52.8791 28.6426 53.6784 29.5818C54.4844 30.521 54.8874 31.8499 54.8874 33.5684V34.5476H47.8235C47.8967 35.4401 48.1932 36.1462 48.7127 36.6658C49.2389 37.1853 49.8984 37.4451 50.691 37.4451C51.8034 37.4451 52.7093 36.9955 53.4087 36.0962L54.7175 37.3452C54.2846 37.9913 53.7051 38.4942 52.979 38.8539C52.2597 39.2069 51.4504 39.3834 50.5511 39.3834ZM50.2614 30.1214C49.5953 30.1214 49.0557 30.3545 48.6428 30.8208C48.2364 31.287 47.9767 31.9365 47.8634 32.7691H52.4895V32.5893C52.4362 31.7766 52.2197 31.1638 51.84 30.7508C51.4603 30.3312 50.9341 30.1214 50.2614 30.1214ZM61.4777 37.4451C62.0839 37.4451 62.5868 37.2686 62.9864 36.9155C63.3861 36.5625 63.5993 36.1262 63.6259 35.6067H65.9139C65.8873 36.2794 65.6775 36.9089 65.2845 37.495C64.8915 38.0745 64.3586 38.5342 63.6858 38.8739C63.0131 39.2136 62.287 39.3834 61.5077 39.3834C59.9957 39.3834 58.7967 38.8938 57.9108 37.9147C57.0249 36.9355 56.5819 35.5834 56.5819 33.8582V33.6084C56.5819 31.9631 57.0216 30.6476 57.9008 29.6618C58.7801 28.6693 59.979 28.173 61.4977 28.173C62.7833 28.173 63.8291 28.5494 64.635 29.3021C65.4477 30.0481 65.874 31.0306 65.9139 32.2495H63.6259C63.5993 31.6301 63.3861 31.1205 62.9864 30.7209C62.5935 30.3212 62.0906 30.1214 61.4777 30.1214C60.6918 30.1214 60.0856 30.4078 59.6593 30.9806C59.233 31.5468 59.0165 32.4094 59.0099 33.5684V33.9581C59.0099 35.1304 59.2197 36.0063 59.6393 36.5858C60.0656 37.1587 60.6784 37.4451 61.4777 37.4451ZM67.5485 33.6783C67.5485 32.6192 67.7584 31.6667 68.178 30.8208C68.5976 29.9682 69.1871 29.3154 69.9465 28.8625C70.7058 28.4029 71.5784 28.173 72.5642 28.173C74.023 28.173 75.2053 28.6426 76.1112 29.5818C77.0237 30.521 77.5166 31.7666 77.5899 33.3186L77.5999 33.8881C77.5999 34.9539 77.3934 35.9064 76.9804 36.7457C76.5741 37.585 75.9879 38.2344 75.2219 38.694C74.4626 39.1536 73.5833 39.3834 72.5842 39.3834C71.0588 39.3834 69.8366 38.8772 68.9174 37.8647C68.0048 36.8456 67.5485 35.4901 67.5485 33.7982V33.6783ZM69.9764 33.8881C69.9764 35.0005 70.2062 35.8731 70.6659 36.5059C71.1255 37.132 71.7649 37.4451 72.5842 37.4451C73.4035 37.4451 74.0396 37.1254 74.4926 36.4859C74.9522 35.8465 75.182 34.9106 75.182 33.6783C75.182 32.5859 74.9455 31.72 74.4726 31.0806C74.0063 30.4411 73.3702 30.1214 72.5642 30.1214C71.7716 30.1214 71.1421 30.4378 70.6758 31.0706C70.2096 31.6967 69.9764 32.6359 69.9764 33.8881ZM83.5608 36.1062L85.8488 28.3729H88.3567L84.6099 39.1836H82.5017L78.7249 28.3729H81.2428L83.5608 36.1062ZM94.7572 39.3834C93.2185 39.3834 91.9696 38.9005 91.0104 37.9347C90.0579 36.9622 89.5816 35.6699 89.5816 34.058V33.7583C89.5816 32.6792 89.7881 31.7167 90.2011 30.8707C90.6207 30.0181 91.2069 29.3554 91.9596 28.8824C92.7123 28.4095 93.5515 28.173 94.4774 28.173C95.9495 28.173 97.0852 28.6426 97.8845 29.5818C98.6905 30.521 99.0934 31.8499 99.0934 33.5684V34.5476H92.0295C92.1028 35.4401 92.3992 36.1462 92.9187 36.6658C93.445 37.1853 94.1044 37.4451 94.897 37.4451C96.0094 37.4451 96.9153 36.9955 97.6147 36.0962L98.9236 37.3452C98.4906 37.9913 97.9111 38.4942 97.1851 38.8539C96.4657 39.2069 95.6564 39.3834 94.7572 39.3834ZM94.4674 30.1214C93.8013 30.1214 93.2618 30.3545 92.8488 30.8208C92.4425 31.287 92.1827 31.9365 92.0695 32.7691H96.6955V32.5893C96.6422 31.7766 96.4257 31.1638 96.0461 30.7508C95.6664 30.3312 95.1402 30.1214 94.4674 30.1214ZM106.903 30.591C106.583 30.5377 106.253 30.511 105.914 30.511C104.801 30.511 104.052 30.9373 103.666 31.7899V39.1836H101.238V28.3729H103.556L103.616 29.5818C104.202 28.6426 105.014 28.173 106.053 28.173C106.4 28.173 106.686 28.2197 106.913 28.3129L106.903 30.591ZM112.654 35.7066L114.852 28.3729H117.44L113.143 40.8222C112.484 42.6406 111.365 43.5498 109.786 43.5498C109.433 43.5498 109.044 43.4899 108.617 43.37V41.4916L109.077 41.5216C109.69 41.5216 110.149 41.4083 110.456 41.1819C110.769 40.9621 111.015 40.5891 111.195 40.0628L111.545 39.1336L107.748 28.3729H110.366L112.654 35.7066ZM130.91 39.1836C130.804 38.9771 130.71 38.6407 130.63 38.1745C129.858 38.9804 128.912 39.3834 127.793 39.3834C126.707 39.3834 125.821 39.0737 125.135 38.4542C124.449 37.8348 124.106 37.0687 124.106 36.1562C124.106 35.0038 124.532 34.1213 125.385 33.5085C126.244 32.889 127.47 32.5793 129.062 32.5793H130.55V31.8699C130.55 31.3104 130.394 30.8641 130.081 30.531C129.768 30.1913 129.292 30.0215 128.652 30.0215C128.099 30.0215 127.646 30.1613 127.293 30.4411C126.94 30.7142 126.764 31.0639 126.764 31.4902H124.336C124.336 30.8974 124.532 30.3445 124.925 29.8316C125.318 29.3121 125.851 28.9058 126.524 28.6127C127.203 28.3196 127.959 28.173 128.792 28.173C130.058 28.173 131.067 28.4928 131.819 29.1322C132.572 29.765 132.958 30.6576 132.978 31.8099V36.6857C132.978 37.6582 133.115 38.4342 133.388 39.0137V39.1836H130.91ZM128.242 37.4351C128.722 37.4351 129.172 37.3185 129.591 37.0854C130.018 36.8523 130.337 36.5392 130.55 36.1462V34.108H129.242C128.342 34.108 127.666 34.2645 127.213 34.5775C126.76 34.8906 126.534 35.3336 126.534 35.9064C126.534 36.3727 126.687 36.7457 126.993 37.0254C127.307 37.2985 127.723 37.4351 128.242 37.4351ZM145.264 33.8881C145.264 35.5667 144.887 36.9022 144.135 37.8947C143.389 38.8872 142.36 39.3834 141.047 39.3834C139.782 39.3834 138.796 38.9271 138.09 38.0146L137.97 39.1836H135.772V23.8368H138.2V29.412C138.899 28.586 139.842 28.173 141.027 28.173C142.346 28.173 143.382 28.6626 144.135 29.6418C144.887 30.6209 145.264 31.9898 145.264 33.7483V33.8881ZM142.836 33.6783C142.836 32.506 142.629 31.6268 142.216 31.0406C141.803 30.4544 141.204 30.1613 140.418 30.1613C139.366 30.1613 138.626 30.6209 138.2 31.5402V35.9963C138.633 36.9355 139.379 37.4051 140.438 37.4051C141.197 37.4051 141.783 37.122 142.196 36.5559C142.609 35.9897 142.823 35.1337 142.836 33.9881V33.6783ZM150.146 39.1836H147.718V28.3729H150.146V39.1836ZM147.568 25.5653C147.568 25.1923 147.684 24.8825 147.918 24.6361C148.157 24.3896 148.497 24.2664 148.937 24.2664C149.376 24.2664 149.716 24.3896 149.956 24.6361C150.196 24.8825 150.315 25.1923 150.315 25.5653C150.315 25.9316 150.196 26.238 149.956 26.4845C149.716 26.7243 149.376 26.8442 148.937 26.8442C148.497 26.8442 148.157 26.7243 147.918 26.4845C147.684 26.238 147.568 25.9316 147.568 25.5653ZM155.637 39.1836H153.209V23.8368H155.637V39.1836ZM161.128 39.1836H158.7V28.3729H161.128V39.1836ZM158.55 25.5653C158.55 25.1923 158.667 24.8825 158.9 24.6361C159.14 24.3896 159.48 24.2664 159.919 24.2664C160.359 24.2664 160.699 24.3896 160.938 24.6361C161.178 24.8825 161.298 25.1923 161.298 25.5653C161.298 25.9316 161.178 26.238 160.938 26.4845C160.699 26.7243 160.359 26.8442 159.919 26.8442C159.48 26.8442 159.14 26.7243 158.9 26.4845C158.667 26.238 158.55 25.9316 158.55 25.5653ZM167.079 25.7451V28.3729H168.987V30.1713H167.079V36.2062C167.079 36.6191 167.159 36.9189 167.319 37.1054C167.485 37.2852 167.778 37.3751 168.198 37.3751C168.478 37.3751 168.761 37.3418 169.047 37.2752V39.1536C168.495 39.3068 167.962 39.3834 167.449 39.3834C165.584 39.3834 164.651 38.3543 164.651 36.2961V30.1713H162.873V28.3729H164.651V25.7451H167.079ZM174.888 35.7066L177.086 28.3729H179.674L175.378 40.8222C174.719 42.6406 173.599 43.5498 172.021 43.5498C171.668 43.5498 171.278 43.4899 170.852 43.37V41.4916L171.311 41.5216C171.924 41.5216 172.384 41.4083 172.69 41.1819C173.003 40.9621 173.25 40.5891 173.43 40.0628L173.779 39.1336L169.983 28.3729H172.6L174.888 35.7066Z" fill="#121212"/>
<rect x="64.7529" y="165.699" width="81.8497" height="25.578" rx="12.789" fill="#36CB83"/>
<path d="M94.5163 183.146C94.085 183.763 93.4818 184.227 92.7066 184.536C91.9373 184.839 91.0397 184.99 90.0139 184.99C88.9765 184.99 88.0556 184.748 87.2513 184.265C86.447 183.775 85.8234 183.082 85.3804 182.184C84.9433 181.286 84.7189 180.246 84.7073 179.063V177.953C84.7073 176.035 85.1531 174.549 86.0449 173.494C86.9424 172.439 88.2013 171.912 89.8216 171.912C91.1505 171.912 92.22 172.252 93.0301 172.934C93.8402 173.61 94.3357 174.572 94.5163 175.819H92.8378C92.523 174.135 91.5206 173.293 89.8304 173.293C88.7055 173.293 87.8516 173.689 87.2688 174.482C86.6918 175.269 86.4004 176.411 86.3946 177.909V178.949C86.3946 180.377 86.7209 181.514 87.3737 182.359C88.0265 183.198 88.9095 183.618 90.0227 183.618C90.6521 183.618 91.2029 183.548 91.675 183.408C92.1471 183.268 92.5376 183.032 92.8465 182.7V179.841H89.9003V178.477H94.5163V183.146ZM97.0884 179.998C97.0884 179.072 97.269 178.238 97.6304 177.498C97.9976 176.758 98.5047 176.187 99.1516 175.784C99.8044 175.382 100.547 175.181 101.381 175.181C102.669 175.181 103.709 175.627 104.502 176.519C105.3 177.411 105.7 178.597 105.7 180.077V180.191C105.7 181.112 105.522 181.939 105.166 182.674C104.817 183.402 104.313 183.97 103.654 184.378C103.001 184.786 102.249 184.99 101.398 184.99C100.116 184.99 99.0758 184.544 98.2774 183.653C97.4847 182.761 97.0884 181.581 97.0884 180.112V179.998ZM98.7145 180.191C98.7145 181.24 98.9564 182.082 99.4401 182.717C99.9297 183.353 100.582 183.67 101.398 183.67C102.22 183.67 102.873 183.35 103.357 182.708C103.84 182.062 104.082 181.158 104.082 179.998C104.082 178.961 103.835 178.122 103.339 177.48C102.85 176.834 102.197 176.51 101.381 176.51C100.582 176.51 99.9384 176.828 99.4488 177.463C98.9593 178.098 98.7145 179.008 98.7145 180.191ZM107.747 179.998C107.747 179.072 107.928 178.238 108.289 177.498C108.656 176.758 109.164 176.187 109.81 175.784C110.463 175.382 111.206 175.181 112.04 175.181C113.328 175.181 114.368 175.627 115.161 176.519C115.959 177.411 116.359 178.597 116.359 180.077V180.191C116.359 181.112 116.181 181.939 115.825 182.674C115.476 183.402 114.971 183.97 114.313 184.378C113.66 184.786 112.908 184.99 112.057 184.99C110.775 184.99 109.735 184.544 108.936 183.653C108.144 182.761 107.747 181.581 107.747 180.112V179.998ZM109.373 180.191C109.373 181.24 109.615 182.082 110.099 182.717C110.589 183.353 111.241 183.67 112.057 183.67C112.879 183.67 113.532 183.35 114.016 182.708C114.499 182.062 114.741 181.158 114.741 179.998C114.741 178.961 114.494 178.122 113.998 177.48C113.509 176.834 112.856 176.51 112.04 176.51C111.241 176.51 110.597 176.828 110.108 177.463C109.618 178.098 109.373 179.008 109.373 180.191ZM118.441 180.007C118.441 178.556 118.785 177.39 119.473 176.51C120.16 175.624 121.061 175.181 122.174 175.181C123.281 175.181 124.159 175.56 124.806 176.318V171.387H126.423V184.815H124.937L124.858 183.801C124.211 184.594 123.311 184.99 122.157 184.99C121.061 184.99 120.166 184.541 119.473 183.644C118.785 182.746 118.441 181.575 118.441 180.129V180.007ZM120.058 180.191C120.058 181.263 120.28 182.102 120.723 182.708C121.166 183.315 121.778 183.618 122.559 183.618C123.585 183.618 124.333 183.157 124.806 182.236V177.891C124.322 177 123.579 176.554 122.576 176.554C121.784 176.554 121.166 176.86 120.723 177.472C120.28 178.084 120.058 178.99 120.058 180.191Z" fill="white"/>
<path d="M51.6771 213.728L54.9993 207.337H56.9051L52.5164 215.319V220.066H50.8378V215.319L46.4491 207.337H48.3725L51.6771 213.728ZM57.7374 215.249C57.7374 214.323 57.9181 213.489 58.2794 212.749C58.6466 212.009 59.1537 211.438 59.8006 211.035C60.4534 210.633 61.1965 210.432 62.03 210.432C63.318 210.432 64.3584 210.878 65.151 211.77C65.9495 212.662 66.3488 213.848 66.3488 215.328V215.442C66.3488 216.363 66.171 217.19 65.8155 217.924C65.4658 218.653 64.9616 219.221 64.303 219.629C63.6503 220.037 62.8984 220.241 62.0475 220.241C60.7652 220.241 59.7249 219.795 58.9264 218.904C58.1337 218.012 57.7374 216.832 57.7374 215.363V215.249ZM59.3635 215.442C59.3635 216.491 59.6054 217.333 60.0891 217.968C60.5787 218.603 61.2315 218.921 62.0475 218.921C62.8693 218.921 63.522 218.601 64.0058 217.959C64.4895 217.313 64.7314 216.409 64.7314 215.249C64.7314 214.212 64.4837 213.373 63.9883 212.731C63.4987 212.085 62.8459 211.761 62.03 211.761C61.2315 211.761 60.5875 212.079 60.0979 212.714C59.6083 213.349 59.3635 214.258 59.3635 215.442ZM74.6646 219.131C74.0352 219.871 73.1114 220.241 71.8933 220.241C70.885 220.241 70.1156 219.95 69.5852 219.367C69.0607 218.778 68.7955 217.91 68.7897 216.762V210.607H70.407V216.718C70.407 218.152 70.9899 218.869 72.1555 218.869C73.3911 218.869 74.2129 218.408 74.6209 217.487V210.607H76.2383V220.066H74.6996L74.6646 219.131ZM83.7236 212.058C83.4788 212.017 83.2136 211.997 82.928 211.997C81.8673 211.997 81.1475 212.449 80.7686 213.352V220.066H79.1513V210.607H80.7249L80.7511 211.7C81.2815 210.855 82.0334 210.432 83.0067 210.432C83.3214 210.432 83.5604 210.473 83.7236 210.555V212.058ZM98.5631 215.442C98.5631 216.887 98.2309 218.05 97.5665 218.93C96.902 219.804 96.0103 220.241 94.8912 220.241C93.6964 220.241 92.7727 219.819 92.1199 218.974L92.0412 220.066H90.555V206.638H92.1723V211.647C92.8251 210.837 93.7256 210.432 94.8738 210.432C96.0219 210.432 96.9224 210.866 97.5752 211.735C98.2338 212.603 98.5631 213.792 98.5631 215.302V215.442ZM96.9457 215.258C96.9457 214.156 96.733 213.306 96.3075 212.705C95.8821 212.105 95.2701 211.805 94.4716 211.805C93.405 211.805 92.6386 212.3 92.1723 213.291V217.382C92.6677 218.373 93.44 218.869 94.4891 218.869C95.2643 218.869 95.8675 218.569 96.2988 217.968C96.7301 217.368 96.9457 216.464 96.9457 215.258ZM100.628 215.249C100.628 214.323 100.809 213.489 101.17 212.749C101.537 212.009 102.044 211.438 102.691 211.035C103.344 210.633 104.087 210.432 104.921 210.432C106.209 210.432 107.249 210.878 108.042 211.77C108.84 212.662 109.239 213.848 109.239 215.328V215.442C109.239 216.363 109.062 217.19 108.706 217.924C108.356 218.653 107.852 219.221 107.194 219.629C106.541 220.037 105.789 220.241 104.938 220.241C103.656 220.241 102.616 219.795 101.817 218.904C101.024 218.012 100.628 216.832 100.628 215.363V215.249ZM102.254 215.442C102.254 216.491 102.496 217.333 102.98 217.968C103.469 218.603 104.122 218.921 104.938 218.921C105.76 218.921 106.413 218.601 106.896 217.959C107.38 217.313 107.622 216.409 107.622 215.249C107.622 214.212 107.374 213.373 106.879 212.731C106.389 212.085 105.737 211.761 104.921 211.761C104.122 211.761 103.478 212.079 102.989 212.714C102.499 213.349 102.254 214.258 102.254 215.442ZM111.322 215.258C111.322 213.807 111.666 212.641 112.354 211.761C113.041 210.875 113.942 210.432 115.055 210.432C116.162 210.432 117.039 210.811 117.686 211.569V206.638H119.304V220.066H117.818L117.739 219.052C117.092 219.845 116.191 220.241 115.037 220.241C113.942 220.241 113.047 219.792 112.354 218.895C111.666 217.997 111.322 216.826 111.322 215.38V215.258ZM112.939 215.442C112.939 216.514 113.161 217.353 113.604 217.959C114.047 218.566 114.659 218.869 115.44 218.869C116.465 218.869 117.214 218.408 117.686 217.487V213.142C117.203 212.251 116.46 211.805 115.457 211.805C114.664 211.805 114.047 212.111 113.604 212.723C113.161 213.335 112.939 214.241 112.939 215.442ZM125.364 217.697L127.567 210.607H129.298L125.495 221.526C124.907 223.1 123.971 223.887 122.689 223.887L122.383 223.861L121.78 223.747V222.436L122.217 222.471C122.765 222.471 123.19 222.36 123.493 222.138C123.802 221.917 124.056 221.512 124.254 220.923L124.612 219.961L121.238 210.607H123.004L125.364 217.697ZM137.703 211.752C138.42 210.872 139.353 210.432 140.501 210.432C142.5 210.432 143.508 211.56 143.526 213.816V220.066H141.908V213.807C141.903 213.125 141.745 212.621 141.436 212.294C141.133 211.968 140.658 211.805 140.011 211.805C139.487 211.805 139.026 211.945 138.63 212.224C138.234 212.504 137.925 212.871 137.703 213.326V220.066H136.086V206.638H137.703V211.752ZM152.235 220.066C152.142 219.88 152.066 219.548 152.008 219.07C151.256 219.851 150.358 220.241 149.315 220.241C148.382 220.241 147.616 219.979 147.016 219.454C146.421 218.924 146.124 218.254 146.124 217.444C146.124 216.459 146.497 215.695 147.243 215.153C147.995 214.605 149.05 214.331 150.408 214.331H151.981V213.588C151.981 213.023 151.812 212.574 151.474 212.242C151.136 211.904 150.638 211.735 149.979 211.735C149.402 211.735 148.919 211.881 148.528 212.172C148.138 212.463 147.942 212.816 147.942 213.23H146.316C146.316 212.758 146.482 212.303 146.815 211.866C147.153 211.423 147.607 211.073 148.178 210.817C148.755 210.56 149.388 210.432 150.076 210.432C151.166 210.432 152.019 210.706 152.637 211.254C153.255 211.796 153.576 212.545 153.599 213.501V217.855C153.599 218.723 153.71 219.414 153.931 219.927V220.066H152.235ZM149.551 218.834C150.058 218.834 150.539 218.703 150.994 218.44C151.448 218.178 151.777 217.837 151.981 217.417V215.477H150.714C148.732 215.477 147.741 216.057 147.741 217.216C147.741 217.723 147.91 218.12 148.248 218.405C148.586 218.691 149.021 218.834 149.551 218.834ZM162.09 217.557C162.09 217.12 161.923 216.782 161.591 216.543C161.265 216.298 160.691 216.089 159.869 215.914C159.053 215.739 158.403 215.529 157.919 215.284C157.441 215.039 157.086 214.748 156.853 214.41C156.625 214.072 156.512 213.67 156.512 213.204C156.512 212.428 156.838 211.773 157.491 211.236C158.15 210.7 158.989 210.432 160.009 210.432C161.081 210.432 161.95 210.709 162.614 211.263C163.284 211.816 163.619 212.525 163.619 213.387H161.993C161.993 212.944 161.804 212.562 161.425 212.242C161.052 211.921 160.58 211.761 160.009 211.761C159.42 211.761 158.96 211.889 158.628 212.146C158.295 212.402 158.129 212.737 158.129 213.151C158.129 213.542 158.284 213.836 158.593 214.034C158.901 214.232 159.458 214.422 160.262 214.602C161.072 214.783 161.728 214.999 162.229 215.249C162.731 215.5 163.101 215.803 163.34 216.159C163.585 216.508 163.707 216.937 163.707 217.444C163.707 218.289 163.369 218.968 162.693 219.481C162.017 219.988 161.14 220.241 160.061 220.241C159.304 220.241 158.633 220.107 158.051 219.839C157.468 219.571 157.01 219.198 156.678 218.72C156.352 218.236 156.188 217.715 156.188 217.155H157.806C157.835 217.697 158.051 218.128 158.453 218.449C158.861 218.764 159.397 218.921 160.061 218.921C160.673 218.921 161.163 218.799 161.53 218.554C161.903 218.303 162.09 217.971 162.09 217.557ZM41.9765 241.241C40.6942 241.241 39.651 240.822 38.8466 239.982C38.0423 239.137 37.6402 238.009 37.6402 236.599V236.302C37.6402 235.363 37.8179 234.527 38.1735 233.793C38.5348 233.052 39.0361 232.475 39.6772 232.062C40.3241 231.642 41.0235 231.432 41.7754 231.432C43.0052 231.432 43.961 231.837 44.6429 232.647C45.3248 233.458 45.6658 234.617 45.6658 236.127V236.8H39.2575C39.2809 237.733 39.5519 238.487 40.0706 239.064C40.5951 239.636 41.2596 239.921 42.0639 239.921C42.6351 239.921 43.1188 239.805 43.5151 239.571C43.9115 239.338 44.2582 239.029 44.5555 238.645L45.5434 239.414C44.7507 240.632 43.5618 241.241 41.9765 241.241ZM41.7754 232.761C41.1226 232.761 40.5747 233 40.1318 233.478C39.6888 233.95 39.4149 234.614 39.31 235.471H44.0484V235.349C44.0018 234.527 43.7803 233.892 43.384 233.443C42.9877 232.988 42.4515 232.761 41.7754 232.761ZM49.523 231.607L49.5754 232.796C50.2981 231.887 51.2423 231.432 52.408 231.432C54.4071 231.432 55.4154 232.56 55.4329 234.816V241.066H53.8155V234.807C53.8097 234.125 53.6523 233.621 53.3434 233.294C53.0404 232.968 52.5654 232.805 51.9184 232.805C51.3939 232.805 50.9334 232.945 50.5371 233.224C50.1408 233.504 49.8319 233.871 49.6104 234.326V241.066H47.993V231.607H49.523ZM57.8913 236.249C57.8913 235.323 58.072 234.489 58.4333 233.749C58.8005 233.009 59.3076 232.438 59.9545 232.035C60.6073 231.633 61.3504 231.432 62.1838 231.432C63.4719 231.432 64.5123 231.878 65.3049 232.77C66.1034 233.662 66.5026 234.848 66.5026 236.328V236.442C66.5026 237.363 66.3249 238.19 65.9693 238.924C65.6196 239.653 65.1155 240.221 64.4569 240.629C63.8041 241.037 63.0523 241.241 62.2013 241.241C60.9191 241.241 59.8787 240.795 59.0803 239.904C58.2876 239.012 57.8913 237.832 57.8913 236.363V236.249ZM59.5174 236.442C59.5174 237.491 59.7593 238.333 60.243 238.968C60.7326 239.603 61.3854 239.921 62.2013 239.921C63.0231 239.921 63.6759 239.601 64.1597 238.959C64.6434 238.313 64.8853 237.409 64.8853 236.249C64.8853 235.212 64.6376 234.373 64.1422 233.731C63.6526 233.085 62.9998 232.761 62.1838 232.761C61.3854 232.761 60.7413 233.079 60.2518 233.714C59.7622 234.349 59.5174 235.258 59.5174 236.442ZM74.8185 240.131C74.189 240.871 73.2652 241.241 72.0471 241.241C71.0388 241.241 70.2695 240.95 69.7391 240.367C69.2146 239.778 68.9494 238.91 68.9435 237.762V231.607H70.5609V237.718C70.5609 239.152 71.1437 239.869 72.3094 239.869C73.545 239.869 74.3668 239.408 74.7748 238.487V231.607H76.3921V241.066H74.8535L74.8185 240.131ZM78.9205 236.258C78.9205 234.783 79.2614 233.612 79.9433 232.744C80.6253 231.869 81.5287 231.432 82.6535 231.432C83.8075 231.432 84.708 231.84 85.3549 232.656L85.4336 231.607H86.9111V240.839C86.9111 242.063 86.5468 243.028 85.8183 243.733C85.0956 244.438 84.1223 244.791 82.8983 244.791C82.2164 244.791 81.5491 244.645 80.8963 244.354C80.2435 244.062 79.7452 243.663 79.4013 243.156L80.2406 242.185C80.9342 243.042 81.7822 243.471 82.7847 243.471C83.5715 243.471 84.1835 243.249 84.6206 242.806C85.0635 242.363 85.285 241.74 85.285 240.935V240.122C84.6381 240.868 83.7551 241.241 82.636 241.241C81.5287 241.241 80.6311 240.795 79.9433 239.904C79.2614 239.012 78.9205 237.797 78.9205 236.258ZM80.5466 236.442C80.5466 237.508 80.7651 238.347 81.2023 238.959C81.6394 239.566 82.2514 239.869 83.0382 239.869C84.0581 239.869 84.8071 239.405 85.285 238.479V234.16C84.7896 233.256 84.0465 232.805 83.0557 232.805C82.2688 232.805 81.654 233.111 81.211 233.723C80.7681 234.335 80.5466 235.241 80.5466 236.442ZM91.424 232.752C92.1409 231.872 93.0734 231.432 94.2216 231.432C96.2207 231.432 97.229 232.56 97.2465 234.816V241.066H95.6291V234.807C95.6233 234.125 95.4659 233.621 95.157 233.294C94.854 232.968 94.3789 232.805 93.732 232.805C93.2075 232.805 92.747 232.945 92.3507 233.224C91.9544 233.504 91.6455 233.871 91.424 234.326V241.066H89.8066V227.638H91.424V232.752ZM109.577 233.058C109.332 233.017 109.067 232.997 108.781 232.997C107.721 232.997 107.001 233.449 106.622 234.352V241.066H105.005V231.607H106.578L106.604 232.7C107.135 231.855 107.887 231.432 108.86 231.432C109.175 231.432 109.414 231.473 109.577 231.555V233.058ZM115.27 241.241C113.988 241.241 112.945 240.822 112.14 239.982C111.336 239.137 110.934 238.009 110.934 236.599V236.302C110.934 235.363 111.111 234.527 111.467 233.793C111.828 233.052 112.33 232.475 112.971 232.062C113.618 231.642 114.317 231.432 115.069 231.432C116.299 231.432 117.255 231.837 117.936 232.647C118.618 233.458 118.959 234.617 118.959 236.127V236.8H112.551C112.574 237.733 112.845 238.487 113.364 239.064C113.889 239.636 114.553 239.921 115.357 239.921C115.929 239.921 116.412 239.805 116.809 239.571C117.205 239.338 117.552 239.029 117.849 238.645L118.837 239.414C118.044 240.632 116.855 241.241 115.27 241.241ZM115.069 232.761C114.416 232.761 113.868 233 113.425 233.478C112.982 233.95 112.708 234.614 112.604 235.471H117.342V235.349C117.295 234.527 117.074 233.892 116.678 233.443C116.281 232.988 115.745 232.761 115.069 232.761ZM126.794 238.557C126.794 238.12 126.628 237.782 126.296 237.543C125.97 237.298 125.396 237.089 124.574 236.914C123.758 236.739 123.108 236.529 122.624 236.284C122.146 236.039 121.791 235.748 121.558 235.41C121.33 235.072 121.217 234.67 121.217 234.204C121.217 233.428 121.543 232.773 122.196 232.236C122.854 231.7 123.694 231.432 124.714 231.432C125.786 231.432 126.654 231.709 127.319 232.263C127.989 232.816 128.324 233.525 128.324 234.387H126.698C126.698 233.944 126.509 233.562 126.13 233.242C125.757 232.921 125.285 232.761 124.714 232.761C124.125 232.761 123.665 232.889 123.332 233.146C123 233.402 122.834 233.737 122.834 234.151C122.834 234.542 122.988 234.836 123.297 235.034C123.606 235.232 124.163 235.422 124.967 235.602C125.777 235.783 126.433 235.999 126.934 236.249C127.435 236.5 127.806 236.803 128.045 237.159C128.289 237.508 128.412 237.937 128.412 238.444C128.412 239.289 128.074 239.968 127.398 240.481C126.722 240.988 125.844 241.241 124.766 241.241C124.008 241.241 123.338 241.107 122.755 240.839C122.172 240.571 121.715 240.198 121.383 239.72C121.056 239.236 120.893 238.715 120.893 238.155H122.511C122.54 238.697 122.755 239.128 123.157 239.449C123.565 239.764 124.102 239.921 124.766 239.921C125.378 239.921 125.868 239.799 126.235 239.554C126.608 239.303 126.794 238.971 126.794 238.557ZM134.892 241.241C133.609 241.241 132.566 240.822 131.762 239.982C130.958 239.137 130.555 238.009 130.555 236.599V236.302C130.555 235.363 130.733 234.527 131.089 233.793C131.45 233.052 131.951 232.475 132.592 232.062C133.239 231.642 133.939 231.432 134.691 231.432C135.92 231.432 136.876 231.837 137.558 232.647C138.24 233.458 138.581 234.617 138.581 236.127V236.8H132.173C132.196 237.733 132.467 238.487 132.986 239.064C133.51 239.636 134.175 239.921 134.979 239.921C135.55 239.921 136.034 239.805 136.43 239.571C136.827 239.338 137.173 239.029 137.471 238.645L138.459 239.414C137.666 240.632 136.477 241.241 134.892 241.241ZM134.691 232.761C134.038 232.761 133.49 233 133.047 233.478C132.604 233.95 132.33 234.614 132.225 235.471H136.964V235.349C136.917 234.527 136.696 233.892 136.299 233.443C135.903 232.988 135.367 232.761 134.691 232.761ZM145.481 233.058C145.236 233.017 144.971 232.997 144.685 232.997C143.624 232.997 142.904 233.449 142.526 234.352V241.066H140.908V231.607H142.482L142.508 232.7C143.038 231.855 143.79 231.432 144.764 231.432C145.078 231.432 145.317 231.473 145.481 231.555V233.058ZM150.702 238.872L153.045 231.607H154.697L151.305 241.066H150.072L146.645 231.607H148.297L150.702 238.872ZM160.504 241.241C159.221 241.241 158.178 240.822 157.374 239.982C156.57 239.137 156.167 238.009 156.167 236.599V236.302C156.167 235.363 156.345 234.527 156.701 233.793C157.062 233.052 157.563 232.475 158.204 232.062C158.851 231.642 159.551 231.432 160.303 231.432C161.532 231.432 162.488 231.837 163.17 232.647C163.852 233.458 164.193 234.617 164.193 236.127V236.8H157.785C157.808 237.733 158.079 238.487 158.598 239.064C159.122 239.636 159.787 239.921 160.591 239.921C161.162 239.921 161.646 239.805 162.042 239.571C162.439 239.338 162.785 239.029 163.083 238.645L164.071 239.414C163.278 240.632 162.089 241.241 160.504 241.241ZM160.303 232.761C159.65 232.761 159.102 233 158.659 233.478C158.216 233.95 157.942 234.614 157.837 235.471H162.576V235.349C162.529 234.527 162.308 233.892 161.911 233.443C161.515 232.988 160.979 232.761 160.303 232.761ZM172.028 238.557C172.028 238.12 171.862 237.782 171.53 237.543C171.203 237.298 170.629 237.089 169.807 236.914C168.991 236.739 168.342 236.529 167.858 236.284C167.38 236.039 167.024 235.748 166.791 235.41C166.564 235.072 166.45 234.67 166.45 234.204C166.45 233.428 166.777 232.773 167.429 232.236C168.088 231.7 168.927 231.432 169.947 231.432C171.02 231.432 171.888 231.709 172.553 232.263C173.223 232.816 173.558 233.525 173.558 234.387H171.932C171.932 233.944 171.742 233.562 171.364 233.242C170.991 232.921 170.518 232.761 169.947 232.761C169.359 232.761 168.898 232.889 168.566 233.146C168.234 233.402 168.068 233.737 168.068 234.151C168.068 234.542 168.222 234.836 168.531 235.034C168.84 235.232 169.397 235.422 170.201 235.602C171.011 235.783 171.667 235.999 172.168 236.249C172.669 236.5 173.039 236.803 173.278 237.159C173.523 237.508 173.645 237.937 173.645 238.444C173.645 239.289 173.307 239.968 172.631 240.481C171.955 240.988 171.078 241.241 170 241.241C169.242 241.241 168.572 241.107 167.989 240.839C167.406 240.571 166.949 240.198 166.616 239.72C166.29 239.236 166.127 238.715 166.127 238.155H167.744C167.773 238.697 167.989 239.128 168.391 239.449C168.799 239.764 169.335 239.921 170 239.921C170.612 239.921 171.101 239.799 171.468 239.554C171.842 239.303 172.028 238.971 172.028 238.557Z" fill="#121212"/>
<rect x="152.497" y="81.292" width="54.6243" height="97.9769" rx="10.2312" transform="rotate(90 152.497 81.292)" fill="#575A60"/>
<rect x="149.897" y="83.8936" width="49.422" height="92.7746" rx="6.39451" transform="rotate(90 149.897 83.8936)" fill="white"/>
<path d="M79.6649 86.4941L79.6649 130.714L63.5594 130.714C61.4405 130.714 59.7227 128.996 59.7227 126.877L59.7227 90.3308C59.7227 88.2119 61.4405 86.4941 63.5594 86.4941L79.6649 86.4941Z" fill="#36CB83"/>
<path d="M102.211 86.4941L102.211 130.714L82.2684 130.714L82.2684 86.4941L102.211 86.4941Z" fill="#36CB83"/>
<path d="M124.754 86.4941L124.754 130.714L104.811 130.714L104.811 86.4941L124.754 86.4941Z" fill="#36CB83"/>
<path d="M152.997 97.7666C155.116 97.7666 156.834 99.4844 156.834 101.603L156.834 115.606C156.834 117.725 155.116 119.443 152.997 119.443L149.897 119.443L149.897 97.7666L152.997 97.7666Z" fill="#575A60"/>
<defs>
<filter id="filter0_d" x="0.807826" y="0.721098" width="209.74" height="269.848" filterUnits="userSpaceOnUse" color-interpolation-filters="sRGB">
<feFlood flood-opacity="0" result="BackgroundImageFix"/>
<feColorMatrix in="SourceAlpha" type="matrix" values="0 0 0 0 0 0 0 0 0 0 0 0 0 0 0 0 0 0 127 0"/>
<feOffset dy="2.5578"/>
<feGaussianBlur stdDeviation="1.91835"/>
<feColorMatrix type="matrix" values="0 0 0 0 0 0 0 0 0 0 0 0 0 0 0 0 0 0 0.1 0"/>
<feBlend mode="normal" in2="BackgroundImageFix" result="effect1_dropShadow"/>
<feBlend mode="normal" in="SourceGraphic" in2="effect1_dropShadow" result="shape"/>
</filter>
</defs>
</svg>
