<svg width="203" height="262" viewBox="0 0 203 262" fill="none" xmlns="http://www.w3.org/2000/svg">
<path d="M0.636585 8.9122C0.636585 4.3417 4.3417 0.636585 8.9122 0.636585H194.088C198.658 0.636585 202.363 4.3417 202.363 8.9122V253.088C202.363 257.658 198.658 261.363 194.088 261.363H8.9122C4.34171 261.363 0.636585 257.658 0.636585 253.088V8.9122Z" fill="white" stroke="#E1E1E1" stroke-width="1.27317"/>
<path d="M52.7038 33.4409C52.7038 32.8043 52.4783 32.3136 52.0274 31.9688C51.5831 31.624 50.7775 31.2759 49.6104 30.9244C48.4433 30.573 47.515 30.1817 46.8253 29.7507C45.5057 28.9218 44.8459 27.8409 44.8459 26.5081C44.8459 25.341 45.3201 24.3795 46.2683 23.6236C47.2232 22.8676 48.4599 22.4896 49.9784 22.4896C50.9863 22.4896 51.8849 22.6753 52.674 23.0467C53.4631 23.418 54.0831 23.9485 54.534 24.6381C54.9849 25.3211 55.2104 26.0804 55.2104 26.9159H52.7038C52.7038 26.16 52.4651 25.5698 51.9876 25.1454C51.5168 24.7144 50.8405 24.4989 49.9585 24.4989C49.1363 24.4989 48.4964 24.6746 48.0388 25.026C47.5879 25.3775 47.3624 25.8682 47.3624 26.4981C47.3624 27.0286 47.6078 27.4729 48.0985 27.831C48.5892 28.1824 49.3982 28.5273 50.5255 28.8654C51.6528 29.197 52.5579 29.5783 53.2409 30.0093C53.9239 30.4337 54.4246 30.9244 54.7429 31.4814C55.0612 32.0318 55.2203 32.6783 55.2203 33.421C55.2203 34.6279 54.7561 35.5894 53.8278 36.3055C52.906 37.0151 51.6528 37.3698 50.0679 37.3698C49.0202 37.3698 48.0554 37.1775 47.1735 36.7929C46.2982 36.4017 45.6152 35.8646 45.1245 35.1816C44.6404 34.4986 44.3983 33.7028 44.3983 32.7944H46.9148C46.9148 33.6166 47.1867 34.2532 47.7305 34.7041C48.2742 35.155 49.0534 35.3805 50.0679 35.3805C50.9432 35.3805 51.5997 35.2048 52.0374 34.8533C52.4817 34.4953 52.7038 34.0244 52.7038 33.4409ZM60.4781 23.7927V26.4086H62.3779V28.199H60.4781V34.2068C60.4781 34.6179 60.5577 34.9163 60.7168 35.102C60.8826 35.281 61.1744 35.3706 61.5921 35.3706C61.8706 35.3706 62.1524 35.3374 62.4376 35.2711V37.1411C61.8872 37.2936 61.3567 37.3698 60.8461 37.3698C58.9894 37.3698 58.0611 36.3453 58.0611 34.2963V28.199H56.2906V26.4086H58.0611V23.7927H60.4781ZM70.1224 28.6168C69.8041 28.5637 69.4758 28.5372 69.1376 28.5372C68.0303 28.5372 67.2843 28.9616 66.8997 29.8104V37.1709H64.4826V26.4086H66.7902L66.8499 27.6122C67.4335 26.6772 68.2424 26.2097 69.2769 26.2097C69.6217 26.2097 69.9069 26.2561 70.1323 26.3489L70.1224 28.6168ZM76.4445 37.3698C74.9127 37.3698 73.6693 36.8891 72.7145 35.9276C71.7662 34.9594 71.2921 33.673 71.2921 32.0683V31.7699C71.2921 30.6956 71.4977 29.7374 71.9088 28.8953C72.3265 28.0465 72.9101 27.3867 73.6594 26.9159C74.4087 26.4451 75.2442 26.2097 76.1659 26.2097C77.6314 26.2097 78.762 26.6772 79.5578 27.6122C80.3601 28.5472 80.7613 29.8701 80.7613 31.5809V32.5557H73.729C73.802 33.4442 74.097 34.1471 74.6143 34.6643C75.1381 35.1816 75.7946 35.4402 76.5837 35.4402C77.6911 35.4402 78.5929 34.9926 79.2892 34.0974L80.5922 35.3407C80.1612 35.9839 79.5843 36.4846 78.8615 36.8427C78.1453 37.1941 77.3397 37.3698 76.4445 37.3698ZM76.156 28.1493C75.4929 28.1493 74.9558 28.3814 74.5446 28.8456C74.1401 29.3097 73.8815 29.9563 73.7688 30.7852H78.3741V30.6061C78.3211 29.7971 78.1055 29.1871 77.7276 28.7759C77.3496 28.3582 76.8257 28.1493 76.156 28.1493ZM88.9335 34.2466C88.9335 33.8156 88.7544 33.4873 88.3963 33.2619C88.0449 33.0364 87.458 32.8375 86.6358 32.6651C85.8135 32.4927 85.1272 32.2738 84.5768 32.0086C83.37 31.4251 82.7665 30.5796 82.7665 29.4722C82.7665 28.5438 83.1578 27.768 83.9402 27.1447C84.7227 26.5214 85.7174 26.2097 86.9242 26.2097C88.2107 26.2097 89.2484 26.528 90.0375 27.1646C90.8333 27.8012 91.2311 28.6267 91.2311 29.6413H88.8141C88.8141 29.1771 88.6417 28.7925 88.2969 28.4875C87.9521 28.1758 87.4945 28.02 86.9242 28.02C86.3938 28.02 85.9594 28.1427 85.6212 28.388C85.2897 28.6334 85.1239 28.9616 85.1239 29.3727C85.1239 29.7441 85.2797 30.0325 85.5914 30.2381C85.9031 30.4437 86.533 30.6525 87.4813 30.8647C88.4295 31.0703 89.1722 31.319 89.7093 31.6107C90.2531 31.8959 90.6542 32.2407 90.9128 32.6452C91.1781 33.0497 91.3107 33.5404 91.3107 34.1173C91.3107 35.0854 90.9095 35.8712 90.1072 36.4746C89.3048 37.0714 88.2538 37.3698 86.9541 37.3698C86.0721 37.3698 85.2864 37.2107 84.5967 36.8924C83.9071 36.5741 83.37 36.1364 82.9854 35.5794C82.6008 35.0224 82.4085 34.4223 82.4085 33.7791H84.7559C84.789 34.3494 85.0045 34.7903 85.4024 35.102C85.8003 35.407 86.3274 35.5595 86.9839 35.5595C87.6205 35.5595 88.1046 35.4402 88.4361 35.2015C88.7677 34.9561 88.9335 34.6378 88.9335 34.2466ZM99.7116 34.2466C99.7116 33.8156 99.5326 33.4873 99.1745 33.2619C98.8231 33.0364 98.2362 32.8375 97.414 32.6651C96.5917 32.4927 95.9054 32.2738 95.355 32.0086C94.1482 31.4251 93.5447 30.5796 93.5447 29.4722C93.5447 28.5438 93.936 27.768 94.7184 27.1447C95.5009 26.5214 96.4956 26.2097 97.7024 26.2097C98.9889 26.2097 100.027 26.528 100.816 27.1646C101.611 27.8012 102.009 28.6267 102.009 29.6413H99.5923C99.5923 29.1771 99.4199 28.7925 99.0751 28.4875C98.7302 28.1758 98.2727 28.02 97.7024 28.02C97.1719 28.02 96.7376 28.1427 96.3994 28.388C96.0679 28.6334 95.9021 28.9616 95.9021 29.3727C95.9021 29.7441 96.0579 30.0325 96.3696 30.2381C96.6812 30.4437 97.3112 30.6525 98.2594 30.8647C99.2077 31.0703 99.9504 31.319 100.487 31.6107C101.031 31.8959 101.432 32.2407 101.691 32.6452C101.956 33.0497 102.089 33.5404 102.089 34.1173C102.089 35.0854 101.688 35.8712 100.885 36.4746C100.083 37.0714 99.032 37.3698 97.7323 37.3698C96.8503 37.3698 96.0645 37.2107 95.3749 36.8924C94.6853 36.5741 94.1482 36.1364 93.7636 35.5794C93.379 35.0224 93.1866 34.4223 93.1866 33.7791H95.5341C95.5672 34.3494 95.7827 34.7903 96.1806 35.102C96.5785 35.407 97.1056 35.5595 97.7621 35.5595C98.3987 35.5595 98.8828 35.4402 99.2143 35.2015C99.5459 34.9561 99.7116 34.6378 99.7116 34.2466ZM112.674 37.1709H110.168V22.6886H112.674V37.1709ZM118.031 26.4086L118.101 27.652C118.897 26.6904 119.941 26.2097 121.234 26.2097C123.476 26.2097 124.616 27.4928 124.656 30.059V37.1709H122.239V30.1983C122.239 29.5153 122.09 29.0113 121.791 28.6864C121.499 28.3549 121.019 28.1891 120.349 28.1891C119.374 28.1891 118.648 28.63 118.171 29.512V37.1709H115.754V26.4086H118.031ZM126.93 31.7102C126.93 30.0524 127.314 28.7229 128.083 27.7216C128.853 26.7137 129.884 26.2097 131.177 26.2097C132.317 26.2097 133.239 26.6076 133.942 27.4033V21.8928H136.359V37.1709H134.171L134.051 36.0569C133.329 36.9322 132.364 37.3698 131.157 37.3698C129.897 37.3698 128.876 36.8626 128.093 35.848C127.318 34.8334 126.93 33.4542 126.93 31.7102ZM129.347 31.9191C129.347 33.0132 129.556 33.8686 129.973 34.4853C130.398 35.0954 130.998 35.4004 131.774 35.4004C132.762 35.4004 133.484 34.9594 133.942 34.0775V29.4821C133.498 28.6201 132.782 28.1891 131.794 28.1891C131.011 28.1891 130.408 28.5007 129.983 29.1241C129.559 29.7408 129.347 30.6724 129.347 31.9191ZM143.875 37.3698C142.343 37.3698 141.1 36.8891 140.145 35.9276C139.197 34.9594 138.722 33.673 138.722 32.0683V31.7699C138.722 30.6956 138.928 29.7374 139.339 28.8953C139.757 28.0465 140.34 27.3867 141.09 26.9159C141.839 26.4451 142.675 26.2097 143.596 26.2097C145.062 26.2097 146.192 26.6772 146.988 27.6122C147.79 28.5472 148.192 29.8701 148.192 31.5809V32.5557H141.159C141.232 33.4442 141.527 34.1471 142.045 34.6643C142.568 35.1816 143.225 35.4402 144.014 35.4402C145.121 35.4402 146.023 34.9926 146.719 34.0974L148.023 35.3407C147.591 35.9839 147.015 36.4846 146.292 36.8427C145.576 37.1941 144.77 37.3698 143.875 37.3698ZM143.586 28.1493C142.923 28.1493 142.386 28.3814 141.975 28.8456C141.57 29.3097 141.312 29.9563 141.199 30.7852H145.804V30.6061C145.751 29.7971 145.536 29.1871 145.158 28.7759C144.78 28.3582 144.256 28.1493 143.586 28.1493ZM154.195 29.9496L156.244 26.4086H158.93L155.638 31.7102L159.039 37.1709H156.374L154.225 33.4906L152.087 37.1709H149.401L152.803 31.7102L149.52 26.4086H152.186L154.195 29.9496Z" fill="#121212"/>
<path d="M26.4536 211.011L29.7609 204.649H31.6582L27.2892 212.595V217.321H25.6181V212.595L21.249 204.649H23.1638L26.4536 211.011ZM32.4868 212.526C32.4868 211.603 32.6666 210.773 33.0264 210.037C33.3919 209.3 33.8967 208.731 34.5408 208.331C35.1906 207.93 35.9304 207.73 36.7601 207.73C38.0424 207.73 39.0781 208.174 39.8672 209.062C40.6621 209.95 41.0595 211.13 41.0595 212.604V212.717C41.0595 213.634 40.8826 214.458 40.5286 215.189C40.1805 215.914 39.6786 216.48 39.023 216.886C38.3731 217.292 37.6246 217.495 36.7775 217.495C35.501 217.495 34.4653 217.051 33.6704 216.164C32.8813 215.276 32.4868 214.101 32.4868 212.639V212.526ZM34.1056 212.717C34.1056 213.762 34.3464 214.6 34.828 215.232C35.3153 215.865 35.9652 216.181 36.7775 216.181C37.5956 216.181 38.2455 215.862 38.727 215.224C39.2086 214.58 39.4494 213.68 39.4494 212.526C39.4494 211.493 39.2028 210.657 38.7096 210.019C38.2223 209.375 37.5724 209.053 36.7601 209.053C35.9652 209.053 35.3241 209.369 34.8367 210.002C34.3493 210.634 34.1056 211.539 34.1056 212.717ZM49.3381 216.39C48.7115 217.127 47.7918 217.495 46.5792 217.495C45.5754 217.495 44.8095 217.205 44.2815 216.625C43.7593 216.039 43.4953 215.174 43.4895 214.031V207.904H45.0996V213.988C45.0996 215.415 45.6798 216.129 46.8403 216.129C48.0703 216.129 48.8885 215.671 49.2946 214.754V207.904H50.9047V217.321H49.3729L49.3381 216.39ZM64.4854 217.321C64.3925 217.136 64.3171 216.805 64.2591 216.329C63.5106 217.107 62.6171 217.495 61.5785 217.495C60.6501 217.495 59.8871 217.234 59.2895 216.712C58.6977 216.184 58.4018 215.517 58.4018 214.71C58.4018 213.73 58.7731 212.97 59.5158 212.43C60.2643 211.885 61.3145 211.612 62.6664 211.612H64.233V210.872C64.233 210.309 64.0647 209.863 63.7282 209.532C63.3917 209.195 62.8956 209.027 62.2399 209.027C61.6655 209.027 61.1839 209.172 60.7952 209.462C60.4064 209.752 60.2121 210.103 60.2121 210.515H58.5932C58.5932 210.045 58.7586 209.593 59.0893 209.158C59.4259 208.717 59.8784 208.368 60.447 208.113C61.0215 207.858 61.651 207.73 62.3357 207.73C63.4207 207.73 64.2707 208.003 64.8857 208.548C65.5008 209.088 65.8199 209.834 65.8431 210.785V215.119C65.8431 215.984 65.9533 216.671 66.1738 217.182V217.321H64.4854ZM61.8135 216.094C62.3183 216.094 62.7969 215.964 63.2495 215.702C63.7021 215.441 64.0299 215.102 64.233 214.684V212.752H62.971C60.9983 212.752 60.0119 213.329 60.0119 214.484C60.0119 214.989 60.1801 215.383 60.5167 215.668C60.8532 215.952 61.2855 216.094 61.8135 216.094ZM73.3645 209.349C73.1208 209.308 72.8568 209.288 72.5725 209.288C71.5165 209.288 70.7999 209.738 70.4228 210.637V217.321H68.8127V207.904H70.3793L70.4054 208.992C70.9334 208.151 71.6819 207.73 72.6508 207.73C72.9641 207.73 73.202 207.771 73.3645 207.852V209.349ZM79.0321 217.495C77.7556 217.495 76.717 217.078 75.9163 216.242C75.1156 215.401 74.7153 214.278 74.7153 212.874V212.578C74.7153 211.644 74.8922 210.811 75.2462 210.08C75.6059 209.343 76.1049 208.769 76.7431 208.357C77.3872 207.939 78.0834 207.73 78.8319 207.73C80.0562 207.73 81.0078 208.133 81.6866 208.94C82.3655 209.747 82.7049 210.901 82.7049 212.404V213.074H76.3254C76.3486 214.002 76.6184 214.754 77.1348 215.328C77.657 215.897 78.3184 216.181 79.1191 216.181C79.6878 216.181 80.1693 216.065 80.5639 215.833C80.9584 215.601 81.3037 215.293 81.5996 214.91L82.5831 215.676C81.794 216.889 80.6103 217.495 79.0321 217.495ZM78.8319 209.053C78.1821 209.053 77.6367 209.291 77.1957 209.767C76.7547 210.237 76.482 210.898 76.3776 211.751H81.0948V211.629C81.0484 210.811 80.8279 210.179 80.4333 209.732C80.0388 209.279 79.505 209.053 78.8319 209.053ZM91.403 207.904L91.4465 208.949C92.137 208.136 93.0682 207.73 94.2403 207.73C95.5574 207.73 96.4538 208.235 96.9296 209.245C97.2429 208.792 97.6491 208.427 98.1481 208.148C98.6529 207.869 99.2476 207.73 99.9322 207.73C101.998 207.73 103.048 208.824 103.083 211.011V217.321H101.473V211.107C101.473 210.434 101.319 209.932 101.011 209.601C100.704 209.265 100.188 209.097 99.4623 209.097C98.8646 209.097 98.3685 209.277 97.974 209.636C97.5794 209.99 97.3503 210.469 97.2864 211.072V217.321H95.6676V211.151C95.6676 209.781 94.9975 209.097 93.6572 209.097C92.6011 209.097 91.8788 209.546 91.49 210.446V217.321H89.8799V207.904H91.403ZM105.539 212.526C105.539 211.603 105.719 210.773 106.079 210.037C106.444 209.3 106.949 208.731 107.593 208.331C108.243 207.93 108.983 207.73 109.812 207.73C111.095 207.73 112.13 208.174 112.919 209.062C113.714 209.95 114.112 211.13 114.112 212.604V212.717C114.112 213.634 113.935 214.458 113.581 215.189C113.233 215.914 112.731 216.48 112.075 216.886C111.425 217.292 110.677 217.495 109.83 217.495C108.553 217.495 107.517 217.051 106.723 216.164C105.933 215.276 105.539 214.101 105.539 212.639V212.526ZM107.158 212.717C107.158 213.762 107.399 214.6 107.88 215.232C108.367 215.865 109.017 216.181 109.83 216.181C110.648 216.181 111.298 215.862 111.779 215.224C112.261 214.58 112.502 213.68 112.502 212.526C112.502 211.493 112.255 210.657 111.762 210.019C111.274 209.375 110.625 209.053 109.812 209.053C109.017 209.053 108.376 209.369 107.889 210.002C107.401 210.634 107.158 211.539 107.158 212.717ZM116.185 212.534C116.185 211.09 116.527 209.929 117.212 209.053C117.896 208.171 118.793 207.73 119.901 207.73C121.004 207.73 121.877 208.107 122.521 208.862V203.953H124.131V217.321H122.651L122.573 216.312C121.929 217.101 121.033 217.495 119.884 217.495C118.793 217.495 117.902 217.049 117.212 216.155C116.527 215.262 116.185 214.095 116.185 212.656V212.534ZM117.795 212.717C117.795 213.785 118.015 214.62 118.456 215.224C118.897 215.827 119.507 216.129 120.284 216.129C121.305 216.129 122.051 215.671 122.521 214.754V210.428C122.039 209.541 121.299 209.097 120.301 209.097C119.512 209.097 118.897 209.401 118.456 210.011C118.015 210.62 117.795 211.522 117.795 212.717ZM130.991 217.495C129.714 217.495 128.676 217.078 127.875 216.242C127.074 215.401 126.674 214.278 126.674 212.874V212.578C126.674 211.644 126.851 210.811 127.205 210.08C127.565 209.343 128.064 208.769 128.702 208.357C129.346 207.939 130.042 207.73 130.791 207.73C132.015 207.73 132.967 208.133 133.645 208.94C134.324 209.747 134.664 210.901 134.664 212.404V213.074H128.284C128.307 214.002 128.577 214.754 129.094 215.328C129.616 215.897 130.277 216.181 131.078 216.181C131.647 216.181 132.128 216.065 132.523 215.833C132.917 215.601 133.262 215.293 133.558 214.91L134.542 215.676C133.753 216.889 132.569 217.495 130.991 217.495ZM130.791 209.053C130.141 209.053 129.595 209.291 129.155 209.767C128.714 210.237 128.441 210.898 128.336 211.751H133.054V211.629C133.007 210.811 132.787 210.179 132.392 209.732C131.998 209.279 131.464 209.053 130.791 209.053ZM141.532 209.349C141.289 209.308 141.025 209.288 140.74 209.288C139.684 209.288 138.968 209.738 138.591 210.637V217.321H136.981V207.904H138.547L138.573 208.992C139.101 208.151 139.85 207.73 140.819 207.73C141.132 207.73 141.37 207.771 141.532 207.852V209.349ZM148.932 217.321C148.839 217.136 148.764 216.805 148.706 216.329C147.957 217.107 147.064 217.495 146.025 217.495C145.097 217.495 144.334 217.234 143.736 216.712C143.144 216.184 142.848 215.517 142.848 214.71C142.848 213.73 143.22 212.97 143.962 212.43C144.711 211.885 145.761 211.612 147.113 211.612H148.68V210.872C148.68 210.309 148.511 209.863 148.175 209.532C147.838 209.195 147.342 209.027 146.686 209.027C146.112 209.027 145.63 209.172 145.242 209.462C144.853 209.752 144.659 210.103 144.659 210.515H143.04C143.04 210.045 143.205 209.593 143.536 209.158C143.872 208.717 144.325 208.368 144.894 208.113C145.468 207.858 146.098 207.73 146.782 207.73C147.867 207.73 148.717 208.003 149.332 208.548C149.947 209.088 150.266 209.834 150.29 210.785V215.119C150.29 215.984 150.4 216.671 150.62 217.182V217.321H148.932ZM146.26 216.094C146.765 216.094 147.243 215.964 147.696 215.702C148.149 215.441 148.476 215.102 148.68 214.684V212.752H147.418C145.445 212.752 144.458 213.329 144.458 214.484C144.458 214.989 144.627 215.383 144.963 215.668C145.3 215.952 145.732 216.094 146.26 216.094ZM155.444 205.624V207.904H157.202V209.149H155.444V214.989C155.444 215.366 155.522 215.65 155.679 215.842C155.835 216.027 156.102 216.12 156.479 216.12C156.665 216.12 156.92 216.085 157.245 216.016V217.321C156.822 217.437 156.41 217.495 156.009 217.495C155.29 217.495 154.747 217.278 154.382 216.843C154.016 216.407 153.834 215.79 153.834 214.989V209.149H152.119V207.904H153.834V205.624H155.444ZM163.444 217.495C162.167 217.495 161.129 217.078 160.328 216.242C159.527 215.401 159.127 214.278 159.127 212.874V212.578C159.127 211.644 159.304 210.811 159.658 210.08C160.018 209.343 160.517 208.769 161.155 208.357C161.799 207.939 162.495 207.73 163.244 207.73C164.468 207.73 165.419 208.133 166.098 208.94C166.777 209.747 167.117 210.901 167.117 212.404V213.074H160.737C160.76 214.002 161.03 214.754 161.546 215.328C162.069 215.897 162.73 216.181 163.531 216.181C164.099 216.181 164.581 216.065 164.976 215.833C165.37 215.601 165.715 215.293 166.011 214.91L166.995 215.676C166.206 216.889 165.022 217.495 163.444 217.495ZM163.244 209.053C162.594 209.053 162.048 209.291 161.607 209.767C161.166 210.237 160.894 210.898 160.789 211.751H165.507V211.629C165.46 210.811 165.24 210.179 164.845 209.732C164.451 209.279 163.917 209.053 163.244 209.053ZM171.183 217.321H169.573V203.953H171.183V217.321ZM177.294 214.963L179.488 207.904H181.211L177.425 218.775C176.839 220.341 175.908 221.125 174.631 221.125L174.326 221.099L173.726 220.985V219.68L174.161 219.715C174.706 219.715 175.13 219.604 175.432 219.384C175.739 219.163 175.992 218.76 176.189 218.174L176.546 217.217L173.186 207.904H174.944L177.294 214.963ZM72.5255 235.823C72.5255 235.388 72.3601 235.052 72.0294 234.814C71.7045 234.57 71.133 234.361 70.3149 234.187C69.5025 234.013 68.8556 233.804 68.374 233.561C67.8982 233.317 67.5443 233.027 67.3122 232.69C67.0859 232.354 66.9728 231.953 66.9728 231.489C66.9728 230.717 67.2977 230.065 67.9476 229.531C68.6032 228.997 69.4387 228.73 70.4541 228.73C71.5217 228.73 72.3862 229.006 73.0477 229.557C73.715 230.108 74.0486 230.813 74.0486 231.672H72.4298C72.4298 231.231 72.2412 230.851 71.864 230.532C71.4927 230.213 71.0227 230.053 70.4541 230.053C69.8681 230.053 69.4097 230.181 69.079 230.436C68.7483 230.691 68.5829 231.025 68.5829 231.437C68.5829 231.826 68.7367 232.119 69.0442 232.316C69.3517 232.513 69.9058 232.702 70.7065 232.882C71.513 233.062 72.1658 233.276 72.6648 233.526C73.1637 233.775 73.5322 234.077 73.7701 234.431C74.0138 234.779 74.1356 235.206 74.1356 235.71C74.1356 236.552 73.7991 237.228 73.126 237.738C72.453 238.243 71.5797 238.495 70.5063 238.495C69.752 238.495 69.0848 238.362 68.5046 238.095C67.9243 237.828 67.4689 237.457 67.1381 236.981C66.8132 236.499 66.6508 235.98 66.6508 235.423H68.2609C68.2899 235.963 68.5046 236.392 68.9049 236.711C69.3111 237.024 69.8449 237.181 70.5063 237.181C71.1156 237.181 71.6029 237.059 71.9685 236.816C72.3398 236.566 72.5255 236.235 72.5255 235.823ZM78.8633 226.624V228.904H80.6213V230.149H78.8633V235.989C78.8633 236.366 78.9416 236.65 79.0982 236.842C79.2549 237.027 79.5218 237.12 79.8989 237.12C80.0846 237.12 80.3399 237.085 80.6648 237.016V238.321C80.2413 238.437 79.8293 238.495 79.429 238.495C78.7095 238.495 78.167 238.278 77.8015 237.843C77.4359 237.407 77.2531 236.79 77.2531 235.989V230.149H75.5386V228.904H77.2531V226.624H78.8633ZM87.5074 230.349C87.2637 230.308 86.9997 230.288 86.7154 230.288C85.6594 230.288 84.9428 230.738 84.5657 231.637V238.321H82.9556V228.904H84.5222L84.5483 229.992C85.0763 229.151 85.8247 228.73 86.7937 228.73C87.107 228.73 87.3449 228.771 87.5074 228.852V230.349ZM93.175 238.495C91.8985 238.495 90.8599 238.078 90.0592 237.242C89.2585 236.401 88.8581 235.278 88.8581 233.874V233.578C88.8581 232.644 89.0351 231.811 89.389 231.08C89.7488 230.343 90.2478 229.769 90.886 229.357C91.5301 228.939 92.2263 228.73 92.9748 228.73C94.1991 228.73 95.1506 229.133 95.8295 229.94C96.5084 230.747 96.8478 231.901 96.8478 233.404V234.074H90.4683C90.4915 235.002 90.7613 235.754 91.2777 236.328C91.7999 236.897 92.4613 237.181 93.262 237.181C93.8306 237.181 94.3122 237.065 94.7068 236.833C95.1013 236.601 95.4466 236.293 95.7425 235.91L96.7259 236.676C95.9368 237.889 94.7532 238.495 93.175 238.495ZM92.9748 230.053C92.325 230.053 91.7796 230.291 91.3386 230.767C90.8976 231.237 90.6249 231.898 90.5205 232.751H95.2377V232.629C95.1913 231.811 94.9708 231.179 94.5762 230.732C94.1817 230.279 93.6479 230.053 92.9748 230.053ZM104.648 235.823C104.648 235.388 104.482 235.052 104.152 234.814C103.827 234.57 103.255 234.361 102.437 234.187C101.625 234.013 100.978 233.804 100.496 233.561C100.02 233.317 99.6665 233.027 99.4344 232.69C99.2081 232.354 99.095 231.953 99.095 231.489C99.095 230.717 99.4199 230.065 100.07 229.531C100.725 228.997 101.561 228.73 102.576 228.73C103.644 228.73 104.508 229.006 105.17 229.557C105.837 230.108 106.171 230.813 106.171 231.672H104.552C104.552 231.231 104.363 230.851 103.986 230.532C103.615 230.213 103.145 230.053 102.576 230.053C101.99 230.053 101.532 230.181 101.201 230.436C100.87 230.691 100.705 231.025 100.705 231.437C100.705 231.826 100.859 232.119 101.166 232.316C101.474 232.513 102.028 232.702 102.829 232.882C103.635 233.062 104.288 233.276 104.787 233.526C105.286 233.775 105.654 234.077 105.892 234.431C106.136 234.779 106.258 235.206 106.258 235.71C106.258 236.552 105.921 237.228 105.248 237.738C104.575 238.243 103.702 238.495 102.629 238.495C101.874 238.495 101.207 238.362 100.627 238.095C100.047 237.828 99.5911 237.457 99.2603 236.981C98.9354 236.499 98.773 235.98 98.773 235.423H100.383C100.412 235.963 100.627 236.392 101.027 236.711C101.433 237.024 101.967 237.181 102.629 237.181C103.238 237.181 103.725 237.059 104.091 236.816C104.462 236.566 104.648 236.235 104.648 235.823ZM114.284 235.823C114.284 235.388 114.119 235.052 113.788 234.814C113.463 234.57 112.891 234.361 112.073 234.187C111.261 234.013 110.614 233.804 110.133 233.561C109.657 233.317 109.303 233.027 109.071 232.69C108.844 232.354 108.731 231.953 108.731 231.489C108.731 230.717 109.056 230.065 109.706 229.531C110.362 228.997 111.197 228.73 112.213 228.73C113.28 228.73 114.145 229.006 114.806 229.557C115.473 230.108 115.807 230.813 115.807 231.672H114.188C114.188 231.231 114 230.851 113.623 230.532C113.251 230.213 112.781 230.053 112.213 230.053C111.627 230.053 111.168 230.181 110.837 230.436C110.507 230.691 110.341 231.025 110.341 231.437C110.341 231.826 110.495 232.119 110.803 232.316C111.11 232.513 111.664 232.702 112.465 232.882C113.272 233.062 113.924 233.276 114.423 233.526C114.922 233.775 115.291 234.077 115.529 234.431C115.772 234.779 115.894 235.206 115.894 235.71C115.894 236.552 115.558 237.228 114.885 237.738C114.211 238.243 113.338 238.495 112.265 238.495C111.511 238.495 110.843 238.362 110.263 238.095C109.683 237.828 109.227 237.457 108.897 236.981C108.572 236.499 108.409 235.98 108.409 235.423H110.019C110.048 235.963 110.263 236.392 110.663 236.711C111.07 237.024 111.603 237.181 112.265 237.181C112.874 237.181 113.361 237.059 113.727 236.816C114.098 236.566 114.284 236.235 114.284 235.823ZM122.345 238.495C121.069 238.495 120.03 238.078 119.229 237.242C118.429 236.401 118.028 235.278 118.028 233.874V233.578C118.028 232.644 118.205 231.811 118.559 231.08C118.919 230.343 119.418 229.769 120.056 229.357C120.7 228.939 121.396 228.73 122.145 228.73C123.369 228.73 124.321 229.133 125 229.94C125.678 230.747 126.018 231.901 126.018 233.404V234.074H119.638C119.661 235.002 119.931 235.754 120.448 236.328C120.97 236.897 121.631 237.181 122.432 237.181C123.001 237.181 123.482 237.065 123.877 236.833C124.271 236.601 124.617 236.293 124.912 235.91L125.896 236.676C125.107 237.889 123.923 238.495 122.345 238.495ZM122.145 230.053C121.495 230.053 120.95 230.291 120.509 230.767C120.068 231.237 119.795 231.898 119.691 232.751H124.408V232.629C124.361 231.811 124.141 231.179 123.746 230.732C123.352 230.279 122.818 230.053 122.145 230.053ZM127.943 233.534C127.943 232.09 128.285 230.929 128.97 230.053C129.655 229.171 130.551 228.73 131.659 228.73C132.762 228.73 133.635 229.107 134.279 229.862V224.953H135.889V238.321H134.41L134.331 237.312C133.687 238.101 132.791 238.495 131.642 238.495C130.551 238.495 129.66 238.049 128.97 237.155C128.285 236.262 127.943 235.095 127.943 233.656V233.534ZM129.553 233.717C129.553 234.785 129.774 235.62 130.215 236.224C130.656 236.827 131.265 237.129 132.042 237.129C133.063 237.129 133.809 236.671 134.279 235.754V231.428C133.797 230.541 133.058 230.097 132.06 230.097C131.271 230.097 130.656 230.401 130.215 231.011C129.774 231.62 129.553 232.522 129.553 233.717Z" fill="#121212"/>
<path d="M77.2918 141.297L77.9185 135.776H84.0058V137.574H79.6865L79.4179 139.909C79.9302 139.636 80.4748 139.499 81.0517 139.499C82.0861 139.499 82.8968 139.82 83.4836 140.461C84.0705 141.103 84.3639 142.001 84.3639 143.154C84.3639 143.856 84.2147 144.485 83.9163 145.042C83.6229 145.594 83.2001 146.024 82.6481 146.332C82.0961 146.636 81.4446 146.787 80.6936 146.787C80.0371 146.787 79.4279 146.656 78.8659 146.392C78.3039 146.123 77.8588 145.748 77.5306 145.266C77.2073 144.783 77.0357 144.234 77.0158 143.617H79.1494C79.1941 144.069 79.3508 144.423 79.6193 144.676C79.8929 144.925 80.2485 145.049 80.6861 145.049C81.1735 145.049 81.549 144.875 81.8126 144.527C82.0762 144.174 82.208 143.677 82.208 143.035C82.208 142.418 82.0563 141.946 81.7529 141.618C81.4495 141.289 81.0193 141.125 80.4623 141.125C79.9501 141.125 79.5348 141.26 79.2165 141.528L79.0076 141.722L77.2918 141.297ZM91.1719 146.638H89.0159V138.328L86.4422 139.126V137.373L90.9406 135.762H91.1719V146.638ZM95.6673 147.571H94.0634L98.0619 135.776H99.6658L95.6673 147.571ZM106.041 146.638H103.885V138.328L101.311 139.126V137.373L105.81 135.762H106.041V146.638ZM117.079 142.147C117.079 143.649 116.768 144.798 116.146 145.594C115.525 146.39 114.615 146.787 113.416 146.787C112.232 146.787 111.327 146.397 110.701 145.616C110.074 144.835 109.753 143.716 109.738 142.259V140.26C109.738 138.743 110.052 137.592 110.678 136.806C111.31 136.02 112.217 135.627 113.401 135.627C114.585 135.627 115.49 136.018 116.117 136.798C116.743 137.574 117.064 138.691 117.079 140.148V142.147ZM114.923 139.954C114.923 139.054 114.799 138.4 114.55 137.992C114.306 137.579 113.923 137.373 113.401 137.373C112.894 137.373 112.518 137.569 112.275 137.962C112.036 138.35 111.909 138.959 111.894 139.79V142.431C111.894 143.316 112.014 143.975 112.252 144.408C112.496 144.835 112.884 145.049 113.416 145.049C113.943 145.049 114.324 144.843 114.557 144.43C114.791 144.017 114.913 143.386 114.923 142.535V139.954ZM126.043 142.147C126.043 143.649 125.732 144.798 125.11 145.594C124.489 146.39 123.579 146.787 122.38 146.787C121.196 146.787 120.291 146.397 119.665 145.616C119.038 144.835 118.717 143.716 118.702 142.259V140.26C118.702 138.743 119.016 137.592 119.642 136.806C120.274 136.02 121.181 135.627 122.365 135.627C123.549 135.627 124.454 136.018 125.08 136.798C125.707 137.574 126.028 138.691 126.043 140.148V142.147ZM123.887 139.954C123.887 139.054 123.763 138.4 123.514 137.992C123.27 137.579 122.887 137.373 122.365 137.373C121.858 137.373 121.482 137.569 121.239 137.962C121 138.35 120.873 138.959 120.858 139.79V142.431C120.858 143.316 120.978 143.975 121.216 144.408C121.46 144.835 121.848 145.049 122.38 145.049C122.907 145.049 123.288 144.843 123.521 144.43C123.755 144.017 123.877 143.386 123.887 142.535V139.954Z" fill="#121212"/>
<path d="M74.2194 114.979L77.242 123.513L80.2483 114.979H83.4325V126.746H80.9999V123.529L81.2424 117.977L78.0663 126.746H76.4015L73.2335 117.985L73.4759 123.529V126.746H71.0514V114.979H74.2194ZM89.8666 126.907C88.5843 126.907 87.5391 126.514 86.731 125.727C85.9282 124.941 85.5268 123.893 85.5268 122.584V122.357C85.5268 121.479 85.6965 120.695 86.0359 120.006C86.3754 119.31 86.8549 118.777 87.4745 118.405C88.0994 118.028 88.8106 117.84 89.608 117.84C90.8041 117.84 91.7443 118.217 92.4285 118.971C93.1182 119.725 93.463 120.795 93.463 122.179V123.133H87.8947C87.9701 123.704 88.1964 124.162 88.5736 124.507C88.9561 124.852 89.4383 125.024 90.0202 125.024C90.9199 125.024 91.623 124.698 92.1295 124.046L93.2771 125.331C92.9269 125.827 92.4528 126.215 91.8547 126.495C91.2567 126.77 90.594 126.907 89.8666 126.907ZM89.5999 119.731C89.1366 119.731 88.7594 119.887 88.4685 120.199C88.183 120.512 87.9998 120.959 87.919 121.541H91.1678V121.355C91.157 120.838 91.0169 120.439 90.7475 120.159C90.4781 119.874 90.0956 119.731 89.5999 119.731ZM94.8784 122.309C94.8784 120.946 95.1828 119.86 95.7916 119.052C96.4058 118.244 97.2436 117.84 98.305 117.84C99.1563 117.84 99.8594 118.158 100.414 118.793V114.332H102.758V126.746H100.649L100.536 125.816C99.9537 126.544 99.2048 126.907 98.2888 126.907C97.2598 126.907 96.4327 126.503 95.8078 125.695C95.1882 124.881 94.8784 123.753 94.8784 122.309ZM97.214 122.478C97.214 123.297 97.3567 123.925 97.6423 124.362C97.9279 124.798 98.3427 125.016 98.8869 125.016C99.6088 125.016 100.118 124.712 100.414 124.103V120.652C100.123 120.043 99.6196 119.739 98.903 119.739C97.777 119.739 97.214 120.652 97.214 122.478ZM107.479 126.746H105.135V118.001H107.479V126.746ZM104.998 115.738C104.998 115.388 105.114 115.1 105.345 114.874C105.582 114.647 105.903 114.534 106.307 114.534C106.706 114.534 107.024 114.647 107.261 114.874C107.498 115.1 107.616 115.388 107.616 115.738C107.616 116.094 107.495 116.385 107.253 116.611C107.015 116.838 106.7 116.951 106.307 116.951C105.914 116.951 105.596 116.838 105.353 116.611C105.116 116.385 104.998 116.094 104.998 115.738ZM115.093 125.857C114.516 126.557 113.719 126.907 112.701 126.907C111.763 126.907 111.047 126.638 110.551 126.099C110.061 125.56 109.81 124.771 109.799 123.731V118.001H112.135V123.65C112.135 124.561 112.55 125.016 113.38 125.016C114.172 125.016 114.716 124.741 115.012 124.192V118.001H117.356V126.746H115.157L115.093 125.857ZM121.753 118.001L121.826 118.979C122.446 118.219 123.283 117.84 124.339 117.84C125.465 117.84 126.239 118.284 126.659 119.173C127.273 118.284 128.148 117.84 129.285 117.84C130.234 117.84 130.939 118.117 131.403 118.672C131.866 119.222 132.098 120.051 132.098 121.161V126.746H129.754V121.169C129.754 120.674 129.657 120.313 129.463 120.086C129.269 119.855 128.927 119.739 128.437 119.739C127.736 119.739 127.251 120.073 126.982 120.741L126.99 126.746H124.655V121.177C124.655 120.671 124.555 120.305 124.356 120.078C124.156 119.852 123.817 119.739 123.337 119.739C122.675 119.739 122.195 120.014 121.899 120.563V126.746H119.563V118.001H121.753Z" fill="#121212"/>
<path opacity="0.3" d="M101.5 176.37C129.883 176.37 152.892 153.482 152.892 125.248C152.892 97.0145 129.883 74.1265 101.5 74.1265" stroke="black" stroke-width="12.7317" stroke-linecap="round" stroke-linejoin="round"/>
<path d="M100.216 176.37C71.8332 176.37 48.824 153.482 48.824 125.248C48.824 97.0145 71.8332 74.1265 100.216 74.1265" stroke="#686868" stroke-width="12.7317" stroke-linecap="round" stroke-linejoin="round"/>
</svg>
