<svg width="202" height="262" viewBox="0 0 202 262" fill="none" xmlns="http://www.w3.org/2000/svg">
<path d="M0.639241 8.94938C0.639241 4.35982 4.35981 0.639241 8.94937 0.639241H193.051C197.64 0.639241 201.361 4.35981 201.361 8.94937V253.051C201.361 257.64 197.64 261.361 193.051 261.361H8.94937C4.35982 261.361 0.639241 257.64 0.639241 253.051V8.94938Z" fill="white" stroke="#E1E1E1" stroke-width="1.27848"/>
<path d="M52.0006 33.4249C52.0006 32.7856 51.7742 32.2929 51.3214 31.9466C50.8753 31.6004 50.0662 31.2508 48.8943 30.8979C47.7223 30.5449 46.7901 30.1521 46.0976 29.7193C44.7725 28.8869 44.11 27.8015 44.11 26.4631C44.11 25.2912 44.5861 24.3257 45.5383 23.5666C46.4971 22.8075 47.739 22.4279 49.2638 22.4279C50.276 22.4279 51.1782 22.6144 51.9706 22.9873C52.763 23.3602 53.3856 23.8929 53.8384 24.5854C54.2912 25.2712 54.5176 26.0336 54.5176 26.8726H52.0006C52.0006 26.1135 51.7609 25.5209 51.2814 25.0948C50.8087 24.6619 50.1295 24.4455 49.2439 24.4455C48.4182 24.4455 47.7756 24.622 47.3162 24.9749C46.8634 25.3278 46.637 25.8206 46.637 26.4531C46.637 26.9858 46.8833 27.432 47.3761 27.7916C47.8688 28.1445 48.6812 28.4907 49.8132 28.8303C50.9452 29.1633 51.8541 29.5461 52.54 29.979C53.2258 30.4051 53.7285 30.8979 54.0482 31.4572C54.3678 32.0099 54.5276 32.6591 54.5276 33.4049C54.5276 34.6168 54.0615 35.5823 53.1293 36.3014C52.2037 37.0139 50.9452 37.3702 49.3537 37.3702C48.3017 37.3702 47.3328 37.1771 46.4472 36.7909C45.5682 36.398 44.8824 35.8586 44.3896 35.1728C43.9035 34.4869 43.6605 33.6879 43.6605 32.7756H46.1875C46.1875 33.6013 46.4605 34.2406 47.0065 34.6934C47.5525 35.1461 48.3349 35.3725 49.3537 35.3725C50.2327 35.3725 50.8919 35.1961 51.3314 34.8432C51.7775 34.4836 52.0006 34.0108 52.0006 33.4249ZM59.8073 23.7364V26.3633H61.715V28.1611H59.8073V34.1939C59.8073 34.6068 59.8872 34.9064 60.047 35.0929C60.2135 35.2727 60.5065 35.3626 60.926 35.3626C61.2057 35.3626 61.4887 35.3293 61.775 35.2627V37.1404C61.2223 37.2936 60.6896 37.3702 60.1769 37.3702C58.3124 37.3702 57.3802 36.3414 57.3802 34.2838V28.1611H55.6023V26.3633H57.3802V23.7364H59.8073ZM69.4918 28.5806C69.1722 28.5273 68.8426 28.5007 68.503 28.5007C67.391 28.5007 66.6419 28.9269 66.2557 29.7792V37.1704H63.8285V26.3633H66.1458L66.2057 27.5718C66.7917 26.6329 67.6041 26.1635 68.6428 26.1635C68.9891 26.1635 69.2754 26.2101 69.5018 26.3033L69.4918 28.5806ZM75.8403 37.3702C74.3021 37.3702 73.0536 36.8874 72.0947 35.9219C71.1425 34.9497 70.6664 33.6579 70.6664 32.0465V31.7469C70.6664 30.6681 70.8728 29.7059 71.2857 28.8603C71.7052 28.008 72.2912 27.3454 73.0436 26.8726C73.796 26.3999 74.635 26.1635 75.5606 26.1635C77.0322 26.1635 78.1675 26.6329 78.9666 27.5718C79.7723 28.5107 80.1751 29.8391 80.1751 31.5571V32.5359H73.1135C73.1868 33.4282 73.4831 34.134 74.0025 34.6534C74.5285 35.1728 75.1877 35.4325 75.9801 35.4325C77.0921 35.4325 77.9977 34.983 78.6969 34.0841L80.0053 35.3326C79.5725 35.9785 78.9932 36.4812 78.2674 36.8408C77.5482 37.1937 76.7392 37.3702 75.8403 37.3702ZM75.5506 28.1112C74.8847 28.1112 74.3454 28.3442 73.9325 28.8103C73.5264 29.2765 73.2667 29.9257 73.1535 30.758H77.778V30.5782C77.7247 29.7659 77.5083 29.1533 77.1287 28.7404C76.7492 28.3209 76.2231 28.1112 75.5506 28.1112ZM88.3814 34.2339C88.3814 33.8011 88.2016 33.4715 87.842 33.2451C87.4891 33.0187 86.8998 32.8189 86.0741 32.6458C85.2484 32.4727 84.5592 32.2529 84.0066 31.9866C82.7947 31.4006 82.1887 30.5516 82.1887 29.4396C82.1887 28.5074 82.5816 27.7283 83.3673 27.1024C84.1531 26.4764 85.1519 26.1635 86.3638 26.1635C87.6556 26.1635 88.6977 26.4831 89.4901 27.1223C90.2891 27.7616 90.6886 28.5906 90.6886 29.6094H88.2615C88.2615 29.1433 88.0884 28.7571 87.7421 28.4508C87.3959 28.1378 86.9364 27.9813 86.3638 27.9813C85.8311 27.9813 85.3949 28.1045 85.0553 28.3509C84.7224 28.5973 84.5559 28.9269 84.5559 29.3397C84.5559 29.7126 84.7124 30.0023 85.0254 30.2087C85.3383 30.4151 85.9709 30.6249 86.9231 30.8379C87.8753 31.0444 88.6211 31.2941 89.1604 31.587C89.7065 31.8734 90.1093 32.2196 90.369 32.6258C90.6354 33.032 90.7685 33.5247 90.7685 34.1041C90.7685 35.0762 90.3657 35.8653 89.56 36.4712C88.7543 37.0705 87.6988 37.3702 86.3937 37.3702C85.5081 37.3702 84.7191 37.2104 84.0265 36.8907C83.334 36.5711 82.7947 36.1316 82.4085 35.5723C82.0223 35.013 81.8292 34.4104 81.8292 33.7645H84.1864C84.2196 34.3371 84.4361 34.7799 84.8356 35.0929C85.2351 35.3992 85.7645 35.5523 86.4237 35.5523C87.0629 35.5523 87.549 35.4325 87.882 35.1928C88.2149 34.9464 88.3814 34.6268 88.3814 34.2339ZM99.2045 34.2339C99.2045 33.8011 99.0247 33.4715 98.6651 33.2451C98.3122 33.0187 97.7229 32.8189 96.8972 32.6458C96.0716 32.4727 95.3824 32.2529 94.8297 31.9866C93.6178 31.4006 93.0119 30.5516 93.0119 29.4396C93.0119 28.5074 93.4047 27.7283 94.1905 27.1024C94.9762 26.4764 95.975 26.1635 97.1869 26.1635C98.4787 26.1635 99.5208 26.4831 100.313 27.1223C101.112 27.7616 101.512 28.5906 101.512 29.6094H99.0847C99.0847 29.1433 98.9115 28.7571 98.5653 28.4508C98.219 28.1378 97.7596 27.9813 97.1869 27.9813C96.6542 27.9813 96.2181 28.1045 95.8785 28.3509C95.5455 28.5973 95.3791 28.9269 95.3791 29.3397C95.3791 29.7126 95.5355 30.0023 95.8485 30.2087C96.1615 30.4151 96.794 30.6249 97.7462 30.8379C98.6984 31.0444 99.4442 31.2941 99.9836 31.587C100.53 31.8734 100.932 32.2196 101.192 32.6258C101.458 33.032 101.592 33.5247 101.592 34.1041C101.592 35.0762 101.189 35.8653 100.383 36.4712C99.5774 37.0705 98.522 37.3702 97.2169 37.3702C96.3313 37.3702 95.5422 37.2104 94.8497 36.8907C94.1572 36.5711 93.6178 36.1316 93.2316 35.5723C92.8454 35.013 92.6523 34.4104 92.6523 33.7645H95.0095C95.0428 34.3371 95.2592 34.7799 95.6587 35.0929C96.0582 35.3992 96.5876 35.5523 97.2468 35.5523C97.8861 35.5523 98.3722 35.4325 98.7051 35.1928C99.038 34.9464 99.2045 34.6268 99.2045 34.2339ZM112.221 37.1704H109.704V22.6277H112.221V37.1704ZM117.601 26.3633L117.671 27.6118C118.47 26.6462 119.518 26.1635 120.817 26.1635C123.067 26.1635 124.213 27.452 124.253 30.0289V37.1704H121.826V30.1687C121.826 29.4829 121.676 28.9768 121.376 28.6505C121.083 28.3176 120.6 28.1511 119.928 28.1511C118.949 28.1511 118.22 28.5939 117.74 29.4795V37.1704H115.313V26.3633H117.601ZM126.536 31.6869C126.536 30.0222 126.922 28.6872 127.695 27.6817C128.467 26.6696 129.503 26.1635 130.801 26.1635C131.946 26.1635 132.872 26.563 133.578 27.3621V21.8286H136.005V37.1704H133.807L133.688 36.0517C132.962 36.9307 131.993 37.3702 130.781 37.3702C129.516 37.3702 128.49 36.8608 127.705 35.842C126.926 34.8232 126.536 33.4382 126.536 31.6869ZM128.963 31.8967C128.963 32.9954 129.173 33.8544 129.592 34.4736C130.019 35.0862 130.621 35.3925 131.4 35.3925C132.392 35.3925 133.118 34.9497 133.578 34.0641V29.4496C133.132 28.5839 132.412 28.1511 131.42 28.1511C130.634 28.1511 130.029 28.4641 129.602 29.09C129.176 29.7093 128.963 30.6448 128.963 31.8967ZM143.552 37.3702C142.014 37.3702 140.765 36.8874 139.806 35.9219C138.854 34.9497 138.378 33.6579 138.378 32.0465V31.7469C138.378 30.6681 138.584 29.7059 138.997 28.8603C139.417 28.008 140.003 27.3454 140.755 26.8726C141.508 26.3999 142.347 26.1635 143.272 26.1635C144.744 26.1635 145.879 26.6329 146.678 27.5718C147.484 28.5107 147.887 29.8391 147.887 31.5571V32.5359H140.825C140.898 33.4282 141.195 34.134 141.714 34.6534C142.24 35.1728 142.899 35.4325 143.692 35.4325C144.804 35.4325 145.709 34.983 146.408 34.0841L147.717 35.3326C147.284 35.9785 146.705 36.4812 145.979 36.8408C145.26 37.1937 144.451 37.3702 143.552 37.3702ZM143.262 28.1112C142.596 28.1112 142.057 28.3442 141.644 28.8103C141.238 29.2765 140.978 29.9257 140.865 30.758H145.49V30.5782C145.436 29.7659 145.22 29.1533 144.84 28.7404C144.461 28.3209 143.935 28.1112 143.262 28.1112ZM153.916 29.919L155.973 26.3633H158.67L155.364 31.6869L158.78 37.1704H156.103L153.945 33.4748L151.798 37.1704H149.101L152.517 31.6869L149.221 26.3633H151.898L153.916 29.919Z" fill="#121212"/>
<path d="M25.6409 211.595L28.9619 205.207H30.8672L26.4799 213.186V217.932H24.8019V213.186L20.4146 205.207H22.3373L25.6409 211.595ZM31.6992 213.116C31.6992 212.19 31.8798 211.357 32.241 210.617C32.6081 209.877 33.115 209.306 33.7617 208.904C34.4143 208.502 35.1571 208.301 35.9903 208.301C37.278 208.301 38.318 208.746 39.1104 209.638C39.9086 210.529 40.3077 211.715 40.3077 213.195V213.308C40.3077 214.229 40.13 215.056 39.7746 215.79C39.425 216.519 38.921 217.087 38.2626 217.495C37.6101 217.903 36.8585 218.106 36.0078 218.106C34.726 218.106 33.686 217.661 32.8878 216.769C32.0954 215.878 31.6992 214.698 31.6992 213.23V213.116ZM33.3247 213.308C33.3247 214.357 33.5665 215.199 34.0501 215.834C34.5395 216.469 35.1921 216.787 36.0078 216.787C36.8293 216.787 37.4819 216.466 37.9655 215.825C38.4491 215.179 38.6909 214.276 38.6909 213.116C38.6909 212.079 38.4432 211.24 37.948 210.599C37.4586 209.952 36.806 209.629 35.9903 209.629C35.1921 209.629 34.5483 209.947 34.0589 210.582C33.5695 211.217 33.3247 212.126 33.3247 213.308ZM48.6208 216.997C47.9916 217.736 47.0681 218.106 45.8504 218.106C44.8424 218.106 44.0733 217.815 43.5431 217.232C43.0187 216.644 42.7536 215.776 42.7478 214.628V208.475H44.3646V214.584C44.3646 216.018 44.9473 216.734 46.1125 216.734C47.3477 216.734 48.1693 216.274 48.5771 215.353V208.475H50.1939V217.932H48.6558L48.6208 216.997ZM63.8312 217.932C63.738 217.745 63.6623 217.413 63.604 216.935C62.8524 217.716 61.9551 218.106 60.9122 218.106C59.98 218.106 59.2138 217.844 58.6137 217.32C58.0194 216.79 57.7223 216.12 57.7223 215.31C57.7223 214.325 58.0951 213.562 58.8409 213.02C59.5925 212.472 60.6471 212.198 62.0047 212.198H63.5778V211.456C63.5778 210.89 63.4088 210.442 63.0709 210.11C62.733 209.772 62.2348 209.603 61.5764 209.603C60.9996 209.603 60.516 209.748 60.1257 210.04C59.7353 210.331 59.5401 210.684 59.5401 211.097H57.9145C57.9145 210.625 58.0806 210.171 58.4127 209.734C58.7506 209.291 59.2051 208.941 59.7761 208.685C60.3529 208.429 60.985 208.301 61.6726 208.301C62.7621 208.301 63.6157 208.574 64.2333 209.122C64.8509 209.664 65.1713 210.413 65.1946 211.368V215.721C65.1946 216.589 65.3053 217.279 65.5267 217.792V217.932H63.8312ZM61.1482 216.699C61.6551 216.699 62.1358 216.568 62.5902 216.306C63.0447 216.044 63.3739 215.703 63.5778 215.284V213.343H62.3106C60.3296 213.343 59.3391 213.923 59.3391 215.083C59.3391 215.589 59.5081 215.986 59.846 216.271C60.1839 216.557 60.618 216.699 61.1482 216.699ZM72.7474 209.926C72.5027 209.885 72.2376 209.865 71.9521 209.865C70.8917 209.865 70.1721 210.317 69.7934 211.22V217.932H68.1766V208.475H69.7497L69.7759 209.568C70.3061 208.723 71.0577 208.301 72.0308 208.301C72.3454 208.301 72.5843 208.341 72.7474 208.423V209.926ZM78.4386 218.106C77.1568 218.106 76.1139 217.687 75.3099 216.848C74.5058 216.003 74.1038 214.876 74.1038 213.466V213.169C74.1038 212.23 74.2815 211.394 74.6369 210.66C74.9981 209.92 75.4992 209.344 76.1401 208.93C76.7869 208.51 77.486 208.301 78.2376 208.301C79.467 208.301 80.4225 208.706 81.1042 209.515C81.7859 210.325 82.1268 211.485 82.1268 212.994V213.667H75.7206C75.7439 214.599 76.0149 215.353 76.5334 215.93C77.0578 216.501 77.722 216.787 78.526 216.787C79.097 216.787 79.5806 216.67 79.9768 216.437C80.373 216.204 80.7197 215.895 81.0168 215.511L82.0044 216.28C81.212 217.498 80.0234 218.106 78.4386 218.106ZM78.2376 209.629C77.5851 209.629 77.0374 209.868 76.5946 210.346C76.1518 210.818 75.8779 211.482 75.7731 212.338H80.5099V212.216C80.4633 211.394 80.2419 210.759 79.8457 210.311C79.4495 209.856 78.9135 209.629 78.2376 209.629ZM90.8611 208.475L90.9048 209.524C91.5982 208.708 92.5333 208.301 93.7102 208.301C95.0328 208.301 95.933 208.807 96.4108 209.821C96.7254 209.367 97.1333 209 97.6343 208.72C98.1412 208.44 98.7384 208.301 99.426 208.301C101.5 208.301 102.555 209.399 102.59 211.595V217.932H100.973V211.692C100.973 211.016 100.818 210.512 100.51 210.18C100.201 209.842 99.6823 209.673 98.954 209.673C98.3539 209.673 97.8557 209.853 97.4595 210.215C97.0633 210.57 96.8332 211.051 96.7691 211.657V217.932H95.1435V211.735C95.1435 210.36 94.4706 209.673 93.1247 209.673C92.0643 209.673 91.3389 210.124 90.9485 211.027V217.932H89.3317V208.475H90.8611ZM105.056 213.116C105.056 212.19 105.237 211.357 105.598 210.617C105.965 209.877 106.472 209.306 107.119 208.904C107.771 208.502 108.514 208.301 109.347 208.301C110.635 208.301 111.675 208.746 112.467 209.638C113.265 210.529 113.665 211.715 113.665 213.195V213.308C113.665 214.229 113.487 215.056 113.131 215.79C112.782 216.519 112.278 217.087 111.619 217.495C110.967 217.903 110.215 218.106 109.365 218.106C108.083 218.106 107.043 217.661 106.245 216.769C105.452 215.878 105.056 214.698 105.056 213.23V213.116ZM106.682 213.308C106.682 214.357 106.923 215.199 107.407 215.834C107.896 216.469 108.549 216.787 109.365 216.787C110.186 216.787 110.839 216.466 111.322 215.825C111.806 215.179 112.048 214.276 112.048 213.116C112.048 212.079 111.8 211.24 111.305 210.599C110.815 209.952 110.163 209.629 109.347 209.629C108.549 209.629 107.905 209.947 107.416 210.582C106.926 211.217 106.682 212.126 106.682 213.308ZM115.746 213.125C115.746 211.674 116.09 210.509 116.778 209.629C117.465 208.743 118.365 208.301 119.478 208.301C120.585 208.301 121.462 208.679 122.109 209.437V204.508H123.726V217.932H122.24L122.161 216.918C121.514 217.71 120.614 218.106 119.461 218.106C118.365 218.106 117.471 217.658 116.778 216.761C116.09 215.863 115.746 214.692 115.746 213.247V213.125ZM117.363 213.308C117.363 214.38 117.585 215.219 118.027 215.825C118.47 216.431 119.082 216.734 119.863 216.734C120.888 216.734 121.637 216.274 122.109 215.353V211.01C121.625 210.118 120.882 209.673 119.88 209.673C119.088 209.673 118.47 209.979 118.027 210.59C117.585 211.202 117.363 212.108 117.363 213.308ZM130.614 218.106C129.332 218.106 128.289 217.687 127.485 216.848C126.681 216.003 126.279 214.876 126.279 213.466V213.169C126.279 212.23 126.457 211.394 126.812 210.66C127.174 209.92 127.675 209.344 128.316 208.93C128.962 208.51 129.662 208.301 130.413 208.301C131.643 208.301 132.598 208.706 133.28 209.515C133.961 210.325 134.302 211.485 134.302 212.994V213.667H127.896C127.919 214.599 128.19 215.353 128.709 215.93C129.233 216.501 129.898 216.787 130.702 216.787C131.273 216.787 131.756 216.67 132.152 216.437C132.549 216.204 132.895 215.895 133.192 215.511L134.18 216.28C133.388 217.498 132.199 218.106 130.614 218.106ZM130.413 209.629C129.761 209.629 129.213 209.868 128.77 210.346C128.327 210.818 128.053 211.482 127.949 212.338H132.685V212.216C132.639 211.394 132.417 210.759 132.021 210.311C131.625 209.856 131.089 209.629 130.413 209.629ZM141.2 209.926C140.955 209.885 140.69 209.865 140.404 209.865C139.344 209.865 138.624 210.317 138.246 211.22V217.932H136.629V208.475H138.202L138.228 209.568C138.758 208.723 139.51 208.301 140.483 208.301C140.798 208.301 141.036 208.341 141.2 208.423V209.926ZM148.63 217.932C148.537 217.745 148.461 217.413 148.403 216.935C147.651 217.716 146.754 218.106 145.711 218.106C144.779 218.106 144.013 217.844 143.412 217.32C142.818 216.79 142.521 216.12 142.521 215.31C142.521 214.325 142.894 213.562 143.64 213.02C144.391 212.472 145.446 212.198 146.803 212.198H148.377V211.456C148.377 210.89 148.208 210.442 147.87 210.11C147.532 209.772 147.034 209.603 146.375 209.603C145.798 209.603 145.315 209.748 144.924 210.04C144.534 210.331 144.339 210.684 144.339 211.097H142.713C142.713 210.625 142.879 210.171 143.211 209.734C143.549 209.291 144.004 208.941 144.575 208.685C145.152 208.429 145.784 208.301 146.471 208.301C147.561 208.301 148.414 208.574 149.032 209.122C149.65 209.664 149.97 210.413 149.993 211.368V215.721C149.993 216.589 150.104 217.279 150.325 217.792V217.932H148.63ZM145.947 216.699C146.454 216.699 146.935 216.568 147.389 216.306C147.843 216.044 148.173 215.703 148.377 215.284V213.343H147.109C145.128 213.343 144.138 213.923 144.138 215.083C144.138 215.589 144.307 215.986 144.645 216.271C144.983 216.557 145.417 216.699 145.947 216.699ZM155.169 206.186V208.475H156.934V209.725H155.169V215.589C155.169 215.968 155.248 216.254 155.405 216.446C155.562 216.632 155.83 216.726 156.209 216.726C156.395 216.726 156.652 216.691 156.978 216.621V217.932C156.553 218.048 156.139 218.106 155.737 218.106C155.015 218.106 154.47 217.888 154.103 217.451C153.736 217.014 153.552 216.393 153.552 215.589V209.725H151.83V208.475H153.552V206.186H155.169ZM163.202 218.106C161.921 218.106 160.878 217.687 160.074 216.848C159.27 216.003 158.868 214.876 158.868 213.466V213.169C158.868 212.23 159.045 211.394 159.401 210.66C159.762 209.92 160.263 209.344 160.904 208.93C161.551 208.51 162.25 208.301 163.001 208.301C164.231 208.301 165.186 208.706 165.868 209.515C166.55 210.325 166.891 211.485 166.891 212.994V213.667H160.484C160.508 214.599 160.779 215.353 161.297 215.93C161.822 216.501 162.486 216.787 163.29 216.787C163.861 216.787 164.344 216.67 164.741 216.437C165.137 216.204 165.483 215.895 165.781 215.511L166.768 216.28C165.976 217.498 164.787 218.106 163.202 218.106ZM163.001 209.629C162.349 209.629 161.801 209.868 161.358 210.346C160.916 210.818 160.642 211.482 160.537 212.338H165.274V212.216C165.227 211.394 165.006 210.759 164.61 210.311C164.213 209.856 163.677 209.629 163.001 209.629ZM170.974 217.932H169.357V204.508H170.974V217.932ZM177.111 215.563L179.313 208.475H181.044L177.242 219.391C176.653 220.964 175.718 221.751 174.436 221.751L174.13 221.725L173.527 221.611V220.3L173.964 220.335C174.512 220.335 174.937 220.224 175.24 220.003C175.549 219.782 175.803 219.377 176.001 218.788L176.359 217.827L172.986 208.475H174.751L177.111 215.563ZM71.9049 236.423C71.9049 235.986 71.7389 235.648 71.4068 235.41C71.0805 235.165 70.5066 234.955 69.685 234.78C68.8693 234.606 68.2197 234.396 67.7361 234.151C67.2583 233.906 66.9029 233.615 66.6699 233.277C66.4426 232.939 66.329 232.537 66.329 232.071C66.329 231.296 66.6553 230.641 67.3079 230.105C67.9663 229.569 68.8053 229.301 69.8249 229.301C70.8969 229.301 71.7651 229.577 72.4293 230.131C73.0993 230.684 73.4343 231.392 73.4343 232.255H71.8088C71.8088 231.812 71.6194 231.43 71.2407 231.11C70.8678 230.789 70.3959 230.629 69.8249 230.629C69.2364 230.629 68.7761 230.757 68.444 231.014C68.1119 231.27 67.9459 231.605 67.9459 232.019C67.9459 232.409 68.1003 232.703 68.4091 232.901C68.7179 233.099 69.2743 233.289 70.0783 233.469C70.8882 233.65 71.5437 233.866 72.0447 234.116C72.5458 234.367 72.9158 234.67 73.1547 235.025C73.3994 235.375 73.5217 235.803 73.5217 236.31C73.5217 237.155 73.1838 237.833 72.5079 238.346C71.8321 238.853 70.9552 239.106 69.8773 239.106C69.1199 239.106 68.4498 238.972 67.8672 238.704C67.2846 238.436 66.8272 238.064 66.4951 237.586C66.1688 237.102 66.0057 236.581 66.0057 236.021H67.6225C67.6516 236.563 67.8672 236.994 68.2692 237.315C68.6771 237.629 69.2131 237.787 69.8773 237.787C70.4891 237.787 70.9785 237.664 71.3456 237.42C71.7185 237.169 71.9049 236.837 71.9049 236.423ZM78.2691 227.186V229.475H80.0345V230.725H78.2691V236.589C78.2691 236.968 78.3478 237.254 78.5051 237.446C78.6624 237.632 78.9304 237.726 79.3091 237.726C79.4956 237.726 79.7519 237.691 80.0782 237.621V238.932C79.6529 239.048 79.2392 239.106 78.8372 239.106C78.1147 239.106 77.5699 238.888 77.2029 238.451C76.8358 238.014 76.6523 237.393 76.6523 236.589V230.725H74.9306V229.475H76.6523V227.186H78.2691ZM86.9493 230.926C86.7046 230.885 86.4395 230.865 86.154 230.865C85.0936 230.865 84.374 231.317 83.9953 232.22V238.932H82.3785V229.475H83.9516L83.9778 230.568C84.508 229.723 85.2596 229.301 86.2326 229.301C86.5473 229.301 86.7861 229.341 86.9493 229.423V230.926ZM92.6405 239.106C91.3587 239.106 90.3158 238.687 89.5117 237.848C88.7077 237.003 88.3057 235.876 88.3057 234.466V234.169C88.3057 233.23 88.4834 232.394 88.8388 231.66C89.2 230.92 89.7011 230.344 90.342 229.93C90.9887 229.51 91.6879 229.301 92.4395 229.301C93.6689 229.301 94.6244 229.706 95.3061 230.515C95.9878 231.325 96.3286 232.485 96.3286 233.994V234.667H89.9225C89.9458 235.599 90.2167 236.353 90.7353 236.93C91.2597 237.501 91.9239 237.787 92.7279 237.787C93.2989 237.787 93.7825 237.67 94.1787 237.437C94.5749 237.204 94.9216 236.895 95.2187 236.511L96.2063 237.28C95.4139 238.498 94.2253 239.106 92.6405 239.106ZM92.4395 230.629C91.787 230.629 91.2393 230.868 90.7965 231.346C90.3537 231.818 90.0798 232.482 89.9749 233.338H94.7118V233.216C94.6652 232.394 94.4438 231.759 94.0476 231.311C93.6514 230.856 93.1154 230.629 92.4395 230.629ZM104.161 236.423C104.161 235.986 103.995 235.648 103.663 235.41C103.337 235.165 102.763 234.955 101.941 234.78C101.126 234.606 100.476 234.396 99.9923 234.151C99.5145 233.906 99.1591 233.615 98.9261 233.277C98.6988 232.939 98.5852 232.537 98.5852 232.071C98.5852 231.296 98.9115 230.641 99.564 230.105C100.222 229.569 101.061 229.301 102.081 229.301C103.153 229.301 104.021 229.577 104.685 230.131C105.355 230.684 105.691 231.392 105.691 232.255H104.065C104.065 231.812 103.876 231.43 103.497 231.11C103.124 230.789 102.652 230.629 102.081 230.629C101.493 230.629 101.032 230.757 100.7 231.014C100.368 231.27 100.202 231.605 100.202 232.019C100.202 232.409 100.356 232.703 100.665 232.901C100.974 233.099 101.53 233.289 102.335 233.469C103.144 233.65 103.8 233.866 104.301 234.116C104.802 234.367 105.172 234.67 105.411 235.025C105.656 235.375 105.778 235.803 105.778 236.31C105.778 237.155 105.44 237.833 104.764 238.346C104.088 238.853 103.211 239.106 102.133 239.106C101.376 239.106 100.706 238.972 100.123 238.704C99.5407 238.436 99.0834 238.064 98.7513 237.586C98.425 237.102 98.2618 236.581 98.2618 236.021H99.8787C99.9078 236.563 100.123 236.994 100.525 237.315C100.933 237.629 101.469 237.787 102.133 237.787C102.745 237.787 103.235 237.664 103.602 237.42C103.975 237.169 104.161 236.837 104.161 236.423ZM113.838 236.423C113.838 235.986 113.672 235.648 113.339 235.41C113.013 235.165 112.439 234.955 111.618 234.78C110.802 234.606 110.152 234.396 109.669 234.151C109.191 233.906 108.836 233.615 108.603 233.277C108.375 232.939 108.262 232.537 108.262 232.071C108.262 231.296 108.588 230.641 109.241 230.105C109.899 229.569 110.738 229.301 111.758 229.301C112.83 229.301 113.698 229.577 114.362 230.131C115.032 230.684 115.367 231.392 115.367 232.255H113.741C113.741 231.812 113.552 231.43 113.173 231.11C112.8 230.789 112.329 230.629 111.758 230.629C111.169 230.629 110.709 230.757 110.377 231.014C110.045 231.27 109.879 231.605 109.879 232.019C109.879 232.409 110.033 232.703 110.342 232.901C110.651 233.099 111.207 233.289 112.011 233.469C112.821 233.65 113.476 233.866 113.977 234.116C114.478 234.367 114.848 234.67 115.087 235.025C115.332 235.375 115.454 235.803 115.454 236.31C115.454 237.155 115.116 237.833 114.441 238.346C113.765 238.853 112.888 239.106 111.81 239.106C111.053 239.106 110.383 238.972 109.8 238.704C109.217 238.436 108.76 238.064 108.428 237.586C108.101 237.102 107.938 236.581 107.938 236.021H109.555C109.584 236.563 109.8 236.994 110.202 237.315C110.61 237.629 111.146 237.787 111.81 237.787C112.422 237.787 112.911 237.664 113.278 237.42C113.651 237.169 113.838 236.837 113.838 236.423ZM121.932 239.106C120.65 239.106 119.607 238.687 118.803 237.848C117.999 237.003 117.597 235.876 117.597 234.466V234.169C117.597 233.23 117.775 232.394 118.13 231.66C118.492 230.92 118.993 230.344 119.634 229.93C120.28 229.51 120.98 229.301 121.731 229.301C122.961 229.301 123.916 229.706 124.598 230.515C125.279 231.325 125.62 232.485 125.62 233.994V234.667H119.214C119.238 235.599 119.508 236.353 120.027 236.93C120.551 237.501 121.216 237.787 122.02 237.787C122.591 237.787 123.074 237.67 123.47 237.437C123.867 237.204 124.213 236.895 124.51 236.511L125.498 237.28C124.706 238.498 123.517 239.106 121.932 239.106ZM121.731 230.629C121.079 230.629 120.531 230.868 120.088 231.346C119.645 231.818 119.372 232.482 119.267 233.338H124.004V233.216C123.957 232.394 123.736 231.759 123.339 231.311C122.943 230.856 122.407 230.629 121.731 230.629ZM127.554 234.125C127.554 232.674 127.897 231.509 128.585 230.629C129.272 229.743 130.173 229.301 131.285 229.301C132.392 229.301 133.269 229.679 133.916 230.437V225.508H135.533V238.932H134.047L133.968 237.918C133.322 238.71 132.422 239.106 131.268 239.106C130.173 239.106 129.278 238.658 128.585 237.761C127.897 236.863 127.554 235.692 127.554 234.247V234.125ZM129.17 234.308C129.17 235.38 129.392 236.219 129.835 236.825C130.277 237.431 130.889 237.734 131.67 237.734C132.695 237.734 133.444 237.274 133.916 236.353V232.01C133.432 231.118 132.69 230.673 131.687 230.673C130.895 230.673 130.277 230.979 129.835 231.59C129.392 232.202 129.17 233.108 129.17 234.308Z" fill="#121212"/>
<path d="M35.1456 154.487C35.1456 155.704 34.9377 156.608 34.522 157.2C34.1062 157.792 33.4564 158.088 32.5724 158.088C31.6997 158.088 31.0536 157.8 30.6341 157.223C30.2146 156.642 29.9973 155.777 29.9824 154.627V153.239C29.9824 152.037 30.1902 151.144 30.606 150.559C31.0217 149.975 31.6735 149.683 32.5612 149.683C33.4414 149.683 34.0893 149.966 34.5051 150.531C34.9209 151.093 35.1344 151.962 35.1456 153.138V154.487ZM34.1062 153.065C34.1062 152.185 33.9826 151.544 33.7354 151.144C33.4882 150.739 33.0968 150.537 32.5612 150.537C32.0293 150.537 31.6416 150.737 31.3982 151.138C31.1547 151.539 31.0292 152.155 31.0217 152.987V154.65C31.0217 155.533 31.1491 156.187 31.4038 156.61C31.6622 157.03 32.0518 157.24 32.5724 157.24C33.0855 157.24 33.4657 157.041 33.7129 156.644C33.9639 156.247 34.095 155.622 34.1062 154.768V153.065Z" fill="#121212"/>
<path d="M24.6189 126.54H25.3998C25.8905 126.533 26.2763 126.404 26.5572 126.153C26.8381 125.902 26.9785 125.563 26.9785 125.136C26.9785 124.177 26.501 123.698 25.5459 123.698C25.0964 123.698 24.7368 123.827 24.4672 124.085C24.2012 124.34 24.0683 124.679 24.0683 125.102H23.0289C23.0289 124.454 23.2648 123.917 23.7368 123.49C24.2125 123.059 24.8155 122.844 25.5459 122.844C26.3175 122.844 26.9224 123.048 27.3606 123.456C27.7988 123.864 28.0179 124.432 28.0179 125.158C28.0179 125.514 27.9018 125.859 27.6696 126.192C27.4411 126.525 27.1284 126.775 26.7313 126.939C27.1808 127.082 27.5273 127.318 27.7707 127.647C28.0179 127.977 28.1415 128.38 28.1415 128.855C28.1415 129.589 27.9018 130.172 27.4224 130.602C26.943 131.033 26.3193 131.249 25.5515 131.249C24.7837 131.249 24.1581 131.041 23.675 130.625C23.1955 130.209 22.9558 129.66 22.9558 128.979H24.0008C24.0008 129.41 24.1413 129.754 24.4222 130.013C24.7031 130.271 25.0796 130.4 25.5515 130.4C26.0534 130.4 26.4373 130.269 26.7032 130.007C26.9692 129.745 27.1021 129.368 27.1021 128.878C27.1021 128.402 26.9561 128.037 26.6639 127.782C26.3718 127.527 25.9504 127.396 25.3998 127.389H24.6189V126.54ZM30.4936 127.035L30.9094 122.956H35.1006V123.917H31.7915L31.5442 126.147C31.945 125.911 32.4001 125.793 32.9095 125.793C33.6549 125.793 34.2467 126.04 34.6849 126.535C35.1231 127.025 35.3422 127.69 35.3422 128.529C35.3422 129.372 35.1138 130.037 34.6568 130.524C34.2036 131.007 33.5687 131.249 32.7522 131.249C32.0293 131.249 31.4394 131.048 30.9824 130.647C30.5255 130.247 30.2651 129.692 30.2015 128.984H31.1847C31.2483 129.453 31.415 129.807 31.6847 130.046C31.9544 130.282 32.3102 130.4 32.7522 130.4C33.2354 130.4 33.6137 130.235 33.8871 129.906C34.1643 129.576 34.3028 129.121 34.3028 128.541C34.3028 127.994 34.153 127.555 33.8534 127.226C33.5575 126.893 33.1623 126.726 32.6679 126.726C32.2147 126.726 31.8589 126.825 31.6004 127.024L31.3251 127.248L30.4936 127.035Z" fill="#121212"/>
<path d="M28.3887 97.9792L25.0009 105.575H23.9109L27.2876 98.2489H22.8603V97.3949H28.3887V97.9792ZM30.4936 101.474L30.9094 97.3949H35.1006V98.3556H31.7915L31.5442 100.586C31.945 100.35 32.4001 100.232 32.9095 100.232C33.6549 100.232 34.2467 100.479 34.6849 100.974C35.1231 101.464 35.3422 102.129 35.3422 102.968C35.3422 103.811 35.1138 104.476 34.6568 104.963C34.2036 105.446 33.5687 105.688 32.7522 105.688C32.0293 105.688 31.4394 105.487 30.9824 105.086C30.5255 104.686 30.2651 104.131 30.2015 103.423H31.1847C31.2483 103.892 31.415 104.246 31.6847 104.485C31.9544 104.721 32.3102 104.839 32.7522 104.839C33.2354 104.839 33.6137 104.674 33.8871 104.345C34.1643 104.015 34.3028 103.56 34.3028 102.98C34.3028 102.433 34.153 101.994 33.8534 101.665C33.5575 101.331 33.1623 101.165 32.6679 101.165C32.2147 101.165 31.8589 101.264 31.6004 101.463L31.3251 101.687L30.4936 101.474Z" fill="#121212"/>
<path d="M19.6149 80.0146H18.5699V73.0873L16.4743 73.857V72.9131L19.452 71.795H19.6149V80.0146ZM28.2371 76.5257C28.2371 77.743 28.0292 78.6475 27.6134 79.2393C27.1977 79.8311 26.5478 80.127 25.6639 80.127C24.7911 80.127 24.145 79.8386 23.7255 79.2618C23.306 78.6812 23.0888 77.816 23.0738 76.6661V75.2784C23.0738 74.0761 23.2817 73.1828 23.6974 72.5985C24.1132 72.0142 24.7649 71.722 25.6526 71.722C26.5328 71.722 27.1808 72.0048 27.5966 72.5704C28.0123 73.1322 28.2258 74.0012 28.2371 75.1773V76.5257ZM27.1977 75.1042C27.1977 74.224 27.0741 73.5835 26.8269 73.1828C26.5796 72.7782 26.1882 72.576 25.6526 72.576C25.1208 72.576 24.7331 72.7764 24.4896 73.1771C24.2462 73.5779 24.1207 74.1941 24.1132 75.0256V76.6886C24.1132 77.5726 24.2406 78.2261 24.4952 78.6494C24.7537 79.0689 25.1432 79.2786 25.6639 79.2786C26.177 79.2786 26.5572 79.0801 26.8044 78.6831C27.0553 78.2861 27.1864 77.6606 27.1977 76.8066V75.1042ZM35.1456 76.5257C35.1456 77.743 34.9377 78.6475 34.522 79.2393C34.1062 79.8311 33.4564 80.127 32.5724 80.127C31.6997 80.127 31.0536 79.8386 30.6341 79.2618C30.2146 78.6812 29.9973 77.816 29.9824 76.6661V75.2784C29.9824 74.0761 30.1902 73.1828 30.606 72.5985C31.0217 72.0142 31.6735 71.722 32.5612 71.722C33.4414 71.722 34.0893 72.0048 34.5051 72.5704C34.9209 73.1322 35.1344 74.0012 35.1456 75.1773V76.5257ZM34.1062 75.1042C34.1062 74.224 33.9826 73.5835 33.7354 73.1828C33.4882 72.7782 33.0968 72.576 32.5612 72.576C32.0293 72.576 31.6416 72.7764 31.3982 73.1771C31.1547 73.5779 31.0292 74.1941 31.0217 75.0256V76.6886C31.0217 77.5726 31.1491 78.2261 31.4038 78.6494C31.6622 79.0689 32.0518 79.2786 32.5724 79.2786C33.0855 79.2786 33.4657 79.0801 33.7129 78.6831C33.9639 78.2861 34.095 77.6606 34.1062 76.8066V75.1042Z" fill="#121212"/>
<path d="M92.9972 190.371H90.3753V184.918H85.2627V190.371H82.6408V177.646H85.2627V182.803H90.3753V177.646H92.9972V190.371ZM98.2427 190.371H95.7082V180.915H98.2427V190.371ZM95.5597 178.468C95.5597 178.089 95.6849 177.777 95.9355 177.533C96.1918 177.288 96.5385 177.166 96.9755 177.166C97.4066 177.166 97.7504 177.288 98.0068 177.533C98.2631 177.777 98.3913 178.089 98.3913 178.468C98.3913 178.852 98.2602 179.167 97.998 179.412C97.7417 179.656 97.4008 179.779 96.9755 179.779C96.5502 179.779 96.2064 179.656 95.9442 179.412C95.6879 179.167 95.5597 178.852 95.5597 178.468ZM100.412 185.573C100.412 184.122 100.756 182.954 101.443 182.068C102.137 181.183 103.069 180.74 104.24 180.74C105.277 180.74 106.084 181.095 106.661 181.806L106.766 180.915H109.055V190.056C109.055 190.884 108.866 191.603 108.487 192.215C108.114 192.827 107.587 193.293 106.905 193.613C106.224 193.934 105.426 194.094 104.511 194.094C103.817 194.094 103.142 193.954 102.483 193.675C101.825 193.401 101.327 193.045 100.989 192.608L102.107 191.07C102.737 191.775 103.5 192.128 104.397 192.128C105.067 192.128 105.589 191.947 105.962 191.586C106.334 191.23 106.521 190.724 106.521 190.065V189.558C105.938 190.217 105.172 190.546 104.222 190.546C103.086 190.546 102.166 190.103 101.461 189.217C100.761 188.326 100.412 187.146 100.412 185.678V185.573ZM102.938 185.757C102.938 186.613 103.11 187.286 103.453 187.775C103.797 188.259 104.269 188.501 104.869 188.501C105.638 188.501 106.189 188.212 106.521 187.636V183.659C106.183 183.082 105.638 182.794 104.887 182.794C104.281 182.794 103.803 183.041 103.453 183.537C103.11 184.032 102.938 184.772 102.938 185.757ZM113.916 181.946C114.586 181.142 115.428 180.74 116.442 180.74C118.493 180.74 119.533 181.932 119.562 184.315V190.371H117.036V184.384C117.036 183.843 116.92 183.443 116.687 183.187C116.454 182.925 116.066 182.794 115.524 182.794C114.785 182.794 114.248 183.079 113.916 183.65V190.371H111.391V176.947H113.916V181.946Z" fill="#121212"/>
<path d="M41.5508 157.839H166.842" stroke="#B3B3B3" stroke-width="1.27848"/>
<path d="M41.5508 132.278H166.842" stroke="#B3B3B3" stroke-width="1.27848"/>
<path d="M41.5508 106.717H166.842" stroke="#B3B3B3" stroke-width="1.27848"/>
<path d="M41.5508 81.1562H166.842" stroke="#B3B3B3" stroke-width="1.27848"/>
<rect x="90.7715" y="112.468" width="20.4557" height="46.0098" fill="#686868"/>
</svg>
