<svg width="202" height="262" viewBox="0 0 202 262" fill="none" xmlns="http://www.w3.org/2000/svg">
<path d="M0.63924 8.94938C0.63924 4.35982 4.35981 0.63924 8.94937 0.63924H193.051C197.64 0.63924 201.361 4.35981 201.361 8.94937V253.051C201.361 257.64 197.64 261.361 193.051 261.361H8.94937C4.35982 261.361 0.63924 257.64 0.63924 253.051V8.94938Z" fill="white" stroke="#E1E1E1" stroke-width="1.27848"/>
<path d="M52.0006 33.4249C52.0006 32.7856 51.7742 32.2929 51.3214 31.9466C50.8753 31.6004 50.0662 31.2508 48.8943 30.8979C47.7223 30.5449 46.7901 30.1521 46.0976 29.7193C44.7725 28.8869 44.11 27.8015 44.11 26.4631C44.11 25.2912 44.5861 24.3257 45.5383 23.5666C46.4971 22.8075 47.739 22.4279 49.2638 22.4279C50.276 22.4279 51.1782 22.6144 51.9706 22.9873C52.763 23.3602 53.3856 23.8929 53.8384 24.5854C54.2912 25.2712 54.5176 26.0336 54.5176 26.8726H52.0006C52.0006 26.1135 51.7609 25.5209 51.2814 25.0948C50.8087 24.6619 50.1295 24.4455 49.2439 24.4455C48.4182 24.4455 47.7756 24.622 47.3162 24.9749C46.8634 25.3278 46.637 25.8206 46.637 26.4531C46.637 26.9858 46.8833 27.432 47.3761 27.7916C47.8688 28.1445 48.6812 28.4907 49.8132 28.8303C50.9452 29.1633 51.8541 29.5461 52.5399 29.979C53.2258 30.4051 53.7285 30.8979 54.0482 31.4572C54.3678 32.0099 54.5276 32.6591 54.5276 33.4049C54.5276 34.6168 54.0615 35.5823 53.1292 36.3014C52.2037 37.0139 50.9452 37.3702 49.3537 37.3702C48.3016 37.3702 47.3328 37.1771 46.4472 36.7909C45.5682 36.398 44.8824 35.8586 44.3896 35.1728C43.9035 34.4869 43.6605 33.6879 43.6605 32.7756H46.1875C46.1875 33.6013 46.4605 34.2406 47.0065 34.6934C47.5525 35.1461 48.3349 35.3725 49.3537 35.3725C50.2327 35.3725 50.8919 35.1961 51.3314 34.8432C51.7775 34.4836 52.0006 34.0108 52.0006 33.4249ZM59.8073 23.7364V26.3633H61.715V28.1611H59.8073V34.1939C59.8073 34.6068 59.8872 34.9064 60.047 35.0929C60.2135 35.2727 60.5065 35.3626 60.926 35.3626C61.2057 35.3626 61.4886 35.3293 61.775 35.2627V37.1404C61.2223 37.2936 60.6896 37.3702 60.1769 37.3702C58.3124 37.3702 57.3802 36.3414 57.3802 34.2838V28.1611H55.6023V26.3633H57.3802V23.7364H59.8073ZM69.4918 28.5806C69.1722 28.5273 68.8426 28.5007 68.503 28.5007C67.391 28.5007 66.6419 28.9269 66.2556 29.7792V37.1704H63.8285V26.3633H66.1458L66.2057 27.5718C66.7917 26.6329 67.604 26.1635 68.6428 26.1635C68.9891 26.1635 69.2754 26.2101 69.5018 26.3033L69.4918 28.5806ZM75.8403 37.3702C74.3021 37.3702 73.0536 36.8874 72.0947 35.9219C71.1425 34.9497 70.6664 33.6579 70.6664 32.0465V31.7469C70.6664 30.6681 70.8728 29.7059 71.2857 28.8603C71.7052 28.008 72.2911 27.3454 73.0436 26.8726C73.796 26.3999 74.635 26.1635 75.5606 26.1635C77.0322 26.1635 78.1675 26.6329 78.9665 27.5718C79.7723 28.5107 80.1751 29.8391 80.1751 31.5571V32.5359H73.1135C73.1867 33.4282 73.4831 34.134 74.0024 34.6534C74.5285 35.1728 75.1877 35.4325 75.9801 35.4325C77.0921 35.4325 77.9977 34.983 78.6969 34.0841L80.0053 35.3326C79.5725 35.9785 78.9932 36.4812 78.2674 36.8408C77.5482 37.1937 76.7392 37.3702 75.8403 37.3702ZM75.5506 28.1112C74.8847 28.1112 74.3454 28.3442 73.9325 28.8103C73.5263 29.2765 73.2667 29.9257 73.1535 30.758H77.778V30.5782C77.7247 29.7659 77.5083 29.1533 77.1287 28.7404C76.7492 28.3209 76.2231 28.1112 75.5506 28.1112ZM88.3814 34.2339C88.3814 33.8011 88.2016 33.4715 87.842 33.2451C87.4891 33.0187 86.8998 32.8189 86.0741 32.6458C85.2484 32.4727 84.5592 32.2529 84.0066 31.9866C82.7947 31.4006 82.1887 30.5516 82.1887 29.4396C82.1887 28.5074 82.5816 27.7283 83.3673 27.1024C84.1531 26.4765 85.1519 26.1635 86.3638 26.1635C87.6556 26.1635 88.6977 26.4831 89.49 27.1223C90.2891 27.7616 90.6886 28.5906 90.6886 29.6094H88.2615C88.2615 29.1433 88.0884 28.7571 87.7421 28.4508C87.3959 28.1378 86.9364 27.9813 86.3638 27.9813C85.8311 27.9813 85.3949 28.1045 85.0553 28.3509C84.7224 28.5973 84.5559 28.9269 84.5559 29.3397C84.5559 29.7126 84.7124 30.0023 85.0253 30.2087C85.3383 30.4151 85.9709 30.6249 86.9231 30.8379C87.8753 31.0444 88.6211 31.2941 89.1604 31.587C89.7065 31.8734 90.1093 32.2196 90.369 32.6258C90.6353 33.032 90.7685 33.5247 90.7685 34.1041C90.7685 35.0762 90.3657 35.8653 89.56 36.4712C88.7543 37.0705 87.6988 37.3702 86.3937 37.3702C85.5081 37.3702 84.719 37.2104 84.0265 36.8907C83.334 36.5711 82.7947 36.1316 82.4085 35.5723C82.0222 35.013 81.8291 34.4104 81.8291 33.7645H84.1863C84.2196 34.3371 84.436 34.7799 84.8356 35.0929C85.2351 35.3992 85.7645 35.5523 86.4237 35.5523C87.0629 35.5523 87.549 35.4325 87.882 35.1928C88.2149 34.9464 88.3814 34.6268 88.3814 34.2339ZM99.2045 34.2339C99.2045 33.8011 99.0247 33.4715 98.6651 33.2451C98.3122 33.0187 97.7229 32.8189 96.8972 32.6458C96.0716 32.4727 95.3824 32.2529 94.8297 31.9866C93.6178 31.4006 93.0119 30.5516 93.0119 29.4396C93.0119 28.5074 93.4047 27.7283 94.1905 27.1024C94.9762 26.4765 95.975 26.1635 97.1869 26.1635C98.4787 26.1635 99.5208 26.4831 100.313 27.1223C101.112 27.7616 101.512 28.5906 101.512 29.6094H99.0846C99.0846 29.1433 98.9115 28.7571 98.5653 28.4508C98.219 28.1378 97.7596 27.9813 97.1869 27.9813C96.6542 27.9813 96.218 28.1045 95.8785 28.3509C95.5455 28.5973 95.379 28.9269 95.379 29.3397C95.379 29.7126 95.5355 30.0023 95.8485 30.2087C96.1614 30.4151 96.794 30.6249 97.7462 30.8379C98.6984 31.0444 99.4442 31.2941 99.9836 31.587C100.53 31.8734 100.932 32.2196 101.192 32.6258C101.458 33.032 101.592 33.5247 101.592 34.1041C101.592 35.0762 101.189 35.8653 100.383 36.4712C99.5774 37.0705 98.522 37.3702 97.2169 37.3702C96.3312 37.3702 95.5422 37.2104 94.8497 36.8907C94.1572 36.5711 93.6178 36.1316 93.2316 35.5723C92.8454 35.013 92.6523 34.4104 92.6523 33.7645H95.0095C95.0428 34.3371 95.2592 34.7799 95.6587 35.0929C96.0582 35.3992 96.5876 35.5523 97.2468 35.5523C97.8861 35.5523 98.3722 35.4325 98.7051 35.1928C99.038 34.9464 99.2045 34.6268 99.2045 34.2339ZM112.221 37.1704H109.704V22.6277H112.221V37.1704ZM117.601 26.3633L117.671 27.6118C118.47 26.6462 119.518 26.1635 120.817 26.1635C123.067 26.1635 124.213 27.452 124.253 30.0289V37.1704H121.826V30.1687C121.826 29.4829 121.676 28.9768 121.376 28.6505C121.083 28.3176 120.6 28.1511 119.928 28.1511C118.949 28.1511 118.22 28.5939 117.74 29.4795V37.1704H115.313V26.3633H117.601ZM126.536 31.6869C126.536 30.0222 126.922 28.6872 127.695 27.6817C128.467 26.6696 129.503 26.1635 130.801 26.1635C131.946 26.1635 132.872 26.563 133.578 27.3621V21.8286H136.005V37.1704H133.807L133.688 36.0517C132.962 36.9307 131.993 37.3702 130.781 37.3702C129.516 37.3702 128.49 36.8608 127.705 35.842C126.926 34.8232 126.536 33.4382 126.536 31.6869ZM128.963 31.8967C128.963 32.9954 129.173 33.8544 129.592 34.4736C130.019 35.0862 130.621 35.3925 131.4 35.3925C132.392 35.3925 133.118 34.9497 133.578 34.0641V29.4496C133.132 28.5839 132.412 28.1511 131.42 28.1511C130.634 28.1511 130.029 28.4641 129.602 29.09C129.176 29.7093 128.963 30.6448 128.963 31.8967ZM143.552 37.3702C142.014 37.3702 140.765 36.8874 139.806 35.9219C138.854 34.9497 138.378 33.6579 138.378 32.0465V31.7469C138.378 30.6681 138.584 29.7059 138.997 28.8603C139.417 28.008 140.003 27.3454 140.755 26.8726C141.508 26.3999 142.347 26.1635 143.272 26.1635C144.744 26.1635 145.879 26.6329 146.678 27.5718C147.484 28.5107 147.887 29.8391 147.887 31.5571V32.5359H140.825C140.898 33.4282 141.195 34.134 141.714 34.6534C142.24 35.1728 142.899 35.4325 143.692 35.4325C144.804 35.4325 145.709 34.983 146.408 34.0841L147.717 35.3326C147.284 35.9785 146.705 36.4812 145.979 36.8408C145.26 37.1937 144.451 37.3702 143.552 37.3702ZM143.262 28.1112C142.596 28.1112 142.057 28.3442 141.644 28.8103C141.238 29.2765 140.978 29.9257 140.865 30.758H145.489V30.5782C145.436 29.7659 145.22 29.1533 144.84 28.7404C144.461 28.3209 143.935 28.1112 143.262 28.1112ZM153.915 29.919L155.973 26.3633H158.67L155.364 31.6869L158.78 37.1704H156.103L153.945 33.4748L151.798 37.1704H149.101L152.517 31.6869L149.221 26.3633H151.898L153.915 29.919Z" fill="#121212"/>
<path d="M25.6389 211.595L28.96 205.207H30.8652L26.4779 213.186V217.932H24.7999V213.186L20.4126 205.207H22.3354L25.6389 211.595ZM31.6972 213.116C31.6972 212.19 31.8779 211.357 32.2391 210.617C32.6062 209.877 33.1131 209.306 33.7598 208.904C34.4123 208.502 35.1552 208.301 35.9884 208.301C37.276 208.301 38.316 208.746 39.1084 209.638C39.9067 210.529 40.3058 211.715 40.3058 213.195V213.308C40.3058 214.229 40.1281 215.056 39.7726 215.79C39.4231 216.519 38.9191 217.087 38.2607 217.495C37.6081 217.903 36.8565 218.106 36.0059 218.106C34.7241 218.106 33.684 217.661 32.8858 216.769C32.0934 215.878 31.6972 214.698 31.6972 213.23V213.116ZM33.3228 213.308C33.3228 214.357 33.5646 215.199 34.0482 215.834C34.5376 216.469 35.1902 216.787 36.0059 216.787C36.8274 216.787 37.48 216.466 37.9635 215.825C38.4471 215.179 38.6889 214.276 38.6889 213.116C38.6889 212.079 38.4413 211.24 37.9461 210.599C37.4566 209.952 36.8041 209.629 35.9884 209.629C35.1902 209.629 34.5464 209.947 34.0569 210.582C33.5675 211.217 33.3228 212.126 33.3228 213.308ZM48.6189 216.997C47.9896 217.736 47.0661 218.106 45.8484 218.106C44.8405 218.106 44.0714 217.815 43.5412 217.232C43.0168 216.644 42.7517 215.776 42.7459 214.628V208.475H44.3627V214.584C44.3627 216.018 44.9453 216.734 46.1106 216.734C47.3458 216.734 48.1673 216.274 48.5752 215.353V208.475H50.192V217.932H48.6538L48.6189 216.997ZM63.8293 217.932C63.7361 217.745 63.6603 217.413 63.6021 216.935C62.8505 217.716 61.9532 218.106 60.9103 218.106C59.9781 218.106 59.2119 217.844 58.6118 217.32C58.0175 216.79 57.7203 216.12 57.7203 215.31C57.7203 214.325 58.0932 213.562 58.839 213.02C59.5906 212.472 60.6452 212.198 62.0027 212.198H63.5759V211.456C63.5759 210.89 63.4069 210.442 63.069 210.11C62.731 209.772 62.2329 209.603 61.5745 209.603C60.9977 209.603 60.5141 209.748 60.1237 210.04C59.7333 210.331 59.5382 210.684 59.5382 211.097H57.9126C57.9126 210.625 58.0786 210.171 58.4107 209.734C58.7487 209.291 59.2031 208.941 59.7741 208.685C60.3509 208.429 60.9831 208.301 61.6706 208.301C62.7602 208.301 63.6137 208.574 64.2313 209.122C64.8489 209.664 65.1694 210.413 65.1927 211.368V215.721C65.1927 216.589 65.3034 217.279 65.5248 217.792V217.932H63.8293ZM61.1462 216.699C61.6531 216.699 62.1338 216.568 62.5883 216.306C63.0427 216.044 63.3719 215.703 63.5759 215.284V213.343H62.3086C60.3276 213.343 59.3371 213.923 59.3371 215.083C59.3371 215.589 59.5061 215.986 59.844 216.271C60.182 216.557 60.616 216.699 61.1462 216.699ZM72.7455 209.926C72.5008 209.885 72.2357 209.865 71.9502 209.865C70.8898 209.865 70.1702 210.317 69.7915 211.22V217.932H68.1746V208.475H69.7478L69.774 209.568C70.3042 208.723 71.0558 208.301 72.0288 208.301C72.3434 208.301 72.5823 208.341 72.7455 208.423V209.926ZM78.4367 218.106C77.1549 218.106 76.112 217.687 75.3079 216.848C74.5039 216.003 74.1019 214.876 74.1019 213.466V213.169C74.1019 212.23 74.2796 211.394 74.635 210.66C74.9962 209.92 75.4973 209.344 76.1382 208.93C76.7849 208.51 77.4841 208.301 78.2357 208.301C79.4651 208.301 80.4206 208.706 81.1023 209.515C81.784 210.325 82.1248 211.485 82.1248 212.994V213.667H75.7187C75.742 214.599 76.0129 215.353 76.5315 215.93C77.0558 216.501 77.7201 216.787 78.5241 216.787C79.0951 216.787 79.5787 216.67 79.9749 216.437C80.3711 216.204 80.7177 215.895 81.0149 215.511L82.0025 216.28C81.2101 217.498 80.0215 218.106 78.4367 218.106ZM78.2357 209.629C77.5831 209.629 77.0355 209.868 76.5926 210.346C76.1498 210.818 75.876 211.482 75.7711 212.338H80.508V212.216C80.4614 211.394 80.24 210.759 79.8438 210.311C79.4476 209.856 78.9116 209.629 78.2357 209.629ZM90.8592 208.475L90.9029 209.524C91.5962 208.708 92.5314 208.301 93.7083 208.301C95.0309 208.301 95.9311 208.807 96.4088 209.821C96.7235 209.367 97.1313 209 97.6324 208.72C98.1393 208.44 98.7365 208.301 99.424 208.301C101.498 208.301 102.553 209.399 102.588 211.595V217.932H100.971V211.692C100.971 211.016 100.817 210.512 100.508 210.18C100.199 209.842 99.6804 209.673 98.9521 209.673C98.352 209.673 97.8538 209.853 97.4576 210.215C97.0614 210.57 96.8313 211.051 96.7672 211.657V217.932H95.1416V211.735C95.1416 210.36 94.4687 209.673 93.1228 209.673C92.0623 209.673 91.337 210.124 90.9466 211.027V217.932H89.3298V208.475H90.8592ZM105.054 213.116C105.054 212.19 105.235 211.357 105.596 210.617C105.963 209.877 106.47 209.306 107.117 208.904C107.769 208.502 108.512 208.301 109.345 208.301C110.633 208.301 111.673 208.746 112.465 209.638C113.263 210.529 113.663 211.715 113.663 213.195V213.308C113.663 214.229 113.485 215.056 113.129 215.79C112.78 216.519 112.276 217.087 111.618 217.495C110.965 217.903 110.213 218.106 109.363 218.106C108.081 218.106 107.041 217.661 106.243 216.769C105.45 215.878 105.054 214.698 105.054 213.23V213.116ZM106.68 213.308C106.68 214.357 106.921 215.199 107.405 215.834C107.894 216.469 108.547 216.787 109.363 216.787C110.184 216.787 110.837 216.466 111.32 215.825C111.804 215.179 112.046 214.276 112.046 213.116C112.046 212.079 111.798 211.24 111.303 210.599C110.813 209.952 110.161 209.629 109.345 209.629C108.547 209.629 107.903 209.947 107.414 210.582C106.924 211.217 106.68 212.126 106.68 213.308ZM115.744 213.125C115.744 211.674 116.088 210.509 116.776 209.629C117.463 208.743 118.363 208.301 119.476 208.301C120.583 208.301 121.46 208.679 122.107 209.437V204.508H123.724V217.932H122.238L122.159 216.918C121.513 217.71 120.612 218.106 119.459 218.106C118.363 218.106 117.469 217.658 116.776 216.761C116.088 215.863 115.744 214.692 115.744 213.247V213.125ZM117.361 213.308C117.361 214.38 117.583 215.219 118.025 215.825C118.468 216.431 119.08 216.734 119.861 216.734C120.886 216.734 121.635 216.274 122.107 215.353V211.01C121.623 210.118 120.88 209.673 119.878 209.673C119.086 209.673 118.468 209.979 118.025 210.59C117.583 211.202 117.361 212.108 117.361 213.308ZM130.612 218.106C129.33 218.106 128.287 217.687 127.483 216.848C126.679 216.003 126.277 214.876 126.277 213.466V213.169C126.277 212.23 126.455 211.394 126.81 210.66C127.172 209.92 127.673 209.344 128.314 208.93C128.96 208.51 129.66 208.301 130.411 208.301C131.641 208.301 132.596 208.706 133.278 209.515C133.959 210.325 134.3 211.485 134.3 212.994V213.667H127.894C127.917 214.599 128.188 215.353 128.707 215.93C129.231 216.501 129.896 216.787 130.7 216.787C131.271 216.787 131.754 216.67 132.15 216.437C132.547 216.204 132.893 215.895 133.19 215.511L134.178 216.28C133.386 217.498 132.197 218.106 130.612 218.106ZM130.411 209.629C129.759 209.629 129.211 209.868 128.768 210.346C128.325 210.818 128.051 211.482 127.947 212.338H132.683V212.216C132.637 211.394 132.415 210.759 132.019 210.311C131.623 209.856 131.087 209.629 130.411 209.629ZM141.198 209.926C140.953 209.885 140.688 209.865 140.402 209.865C139.342 209.865 138.622 210.317 138.244 211.22V217.932H136.627V208.475H138.2L138.226 209.568C138.756 208.723 139.508 208.301 140.481 208.301C140.796 208.301 141.034 208.341 141.198 208.423V209.926ZM148.628 217.932C148.535 217.745 148.459 217.413 148.401 216.935C147.649 217.716 146.752 218.106 145.709 218.106C144.777 218.106 144.011 217.844 143.41 217.32C142.816 216.79 142.519 216.12 142.519 215.31C142.519 214.325 142.892 213.562 143.638 213.02C144.389 212.472 145.444 212.198 146.801 212.198H148.375V211.456C148.375 210.89 148.206 210.442 147.868 210.11C147.53 209.772 147.032 209.603 146.373 209.603C145.796 209.603 145.313 209.748 144.922 210.04C144.532 210.331 144.337 210.684 144.337 211.097H142.711C142.711 210.625 142.877 210.171 143.209 209.734C143.547 209.291 144.002 208.941 144.573 208.685C145.15 208.429 145.782 208.301 146.469 208.301C147.559 208.301 148.412 208.574 149.03 209.122C149.648 209.664 149.968 210.413 149.991 211.368V215.721C149.991 216.589 150.102 217.279 150.324 217.792V217.932H148.628ZM145.945 216.699C146.452 216.699 146.933 216.568 147.387 216.306C147.841 216.044 148.171 215.703 148.375 215.284V213.343H147.107C145.126 213.343 144.136 213.923 144.136 215.083C144.136 215.589 144.305 215.986 144.643 216.271C144.981 216.557 145.415 216.699 145.945 216.699ZM155.167 206.186V208.475H156.932V209.725H155.167V215.589C155.167 215.968 155.246 216.254 155.403 216.446C155.56 216.632 155.828 216.726 156.207 216.726C156.393 216.726 156.65 216.691 156.976 216.621V217.932C156.551 218.048 156.137 218.106 155.735 218.106C155.013 218.106 154.468 217.888 154.101 217.451C153.734 217.014 153.55 216.393 153.55 215.589V209.725H151.828V208.475H153.55V206.186H155.167ZM163.2 218.106C161.919 218.106 160.876 217.687 160.072 216.848C159.268 216.003 158.866 214.876 158.866 213.466V213.169C158.866 212.23 159.043 211.394 159.399 210.66C159.76 209.92 160.261 209.344 160.902 208.93C161.549 208.51 162.248 208.301 162.999 208.301C164.229 208.301 165.184 208.706 165.866 209.515C166.548 210.325 166.889 211.485 166.889 212.994V213.667H160.482C160.506 214.599 160.777 215.353 161.295 215.93C161.82 216.501 162.484 216.787 163.288 216.787C163.859 216.787 164.342 216.67 164.739 216.437C165.135 216.204 165.482 215.895 165.779 215.511L166.766 216.28C165.974 217.498 164.785 218.106 163.2 218.106ZM162.999 209.629C162.347 209.629 161.799 209.868 161.356 210.346C160.914 210.818 160.64 211.482 160.535 212.338H165.272V212.216C165.225 211.394 165.004 210.759 164.608 210.311C164.211 209.856 163.675 209.629 162.999 209.629ZM170.972 217.932H169.355V204.508H170.972V217.932ZM177.109 215.563L179.311 208.475H181.042L177.24 219.391C176.651 220.964 175.716 221.751 174.434 221.751L174.128 221.725L173.525 221.611V220.3L173.962 220.335C174.51 220.335 174.935 220.224 175.238 220.003C175.547 219.782 175.801 219.377 175.999 218.788L176.357 217.827L172.984 208.475H174.749L177.109 215.563ZM71.903 236.423C71.903 235.986 71.7369 235.648 71.4048 235.41C71.0785 235.165 70.5046 234.955 69.6831 234.78C68.8674 234.606 68.2178 234.396 67.7342 234.151C67.2564 233.906 66.901 233.615 66.6679 233.277C66.4407 232.939 66.3271 232.537 66.3271 232.071C66.3271 231.296 66.6534 230.641 67.3059 230.105C67.9643 229.569 68.8033 229.301 69.8229 229.301C70.895 229.301 71.7631 229.577 72.4273 230.131C73.0974 230.684 73.4324 231.392 73.4324 232.255H71.8068C71.8068 231.812 71.6175 231.43 71.2388 231.11C70.8659 230.789 70.3939 230.629 69.8229 230.629C69.2345 230.629 68.7742 230.757 68.4421 231.014C68.11 231.27 67.9439 231.605 67.9439 232.019C67.9439 232.409 68.0983 232.703 68.4071 232.901C68.7159 233.099 69.2723 233.289 70.0764 233.469C70.8863 233.65 71.5417 233.866 72.0428 234.116C72.5439 234.367 72.9139 234.67 73.1527 235.025C73.3974 235.375 73.5198 235.803 73.5198 236.31C73.5198 237.155 73.1819 237.833 72.506 238.346C71.8301 238.853 70.9533 239.106 69.8754 239.106C69.1179 239.106 68.4479 238.972 67.8653 238.704C67.2826 238.436 66.8253 238.064 66.4931 237.586C66.1669 237.102 66.0037 236.581 66.0037 236.021H67.6206C67.6497 236.563 67.8653 236.994 68.2673 237.315C68.6751 237.629 69.2112 237.787 69.8754 237.787C70.4872 237.787 70.9766 237.664 71.3436 237.42C71.7165 237.169 71.903 236.837 71.903 236.423ZM78.2672 227.186V229.475H80.0326V230.725H78.2672V236.589C78.2672 236.968 78.3458 237.254 78.5031 237.446C78.6604 237.632 78.9285 237.726 79.3072 237.726C79.4936 237.726 79.75 237.691 80.0763 237.621V238.932C79.6509 239.048 79.2373 239.106 78.8352 239.106C78.1128 239.106 77.568 238.888 77.2009 238.451C76.8339 238.014 76.6503 237.393 76.6503 236.589V230.725H74.9286V229.475H76.6503V227.186H78.2672ZM86.9473 230.926C86.7026 230.885 86.4375 230.865 86.152 230.865C85.0916 230.865 84.3721 231.317 83.9934 232.22V238.932H82.3765V229.475H83.9497L83.9759 230.568C84.5061 229.723 85.2577 229.301 86.2307 229.301C86.5453 229.301 86.7842 229.341 86.9473 229.423V230.926ZM92.6386 239.106C91.3568 239.106 90.3138 238.687 89.5098 237.848C88.7058 237.003 88.3037 235.876 88.3037 234.466V234.169C88.3037 233.23 88.4814 232.394 88.8369 231.66C89.1981 230.92 89.6992 230.344 90.3401 229.93C90.9868 229.51 91.686 229.301 92.4376 229.301C93.6669 229.301 94.6225 229.706 95.3042 230.515C95.9859 231.325 96.3267 232.485 96.3267 233.994V234.667H89.9206C89.9439 235.599 90.2148 236.353 90.7333 236.93C91.2577 237.501 91.9219 237.787 92.726 237.787C93.297 237.787 93.7806 237.67 94.1768 237.437C94.573 237.204 94.9196 236.895 95.2168 236.511L96.2043 237.28C95.412 238.498 94.2234 239.106 92.6386 239.106ZM92.4376 230.629C91.785 230.629 91.2373 230.868 90.7945 231.346C90.3517 231.818 90.0779 232.482 89.973 233.338H94.7099V233.216C94.6633 232.394 94.4419 231.759 94.0457 231.311C93.6495 230.856 93.1134 230.629 92.4376 230.629ZM104.159 236.423C104.159 235.986 103.993 235.648 103.661 235.41C103.335 235.165 102.761 234.955 101.939 234.78C101.124 234.606 100.474 234.396 99.9903 234.151C99.5126 233.906 99.1572 233.615 98.9241 233.277C98.6969 232.939 98.5833 232.537 98.5833 232.071C98.5833 231.296 98.9095 230.641 99.5621 230.105C100.22 229.569 101.059 229.301 102.079 229.301C103.151 229.301 104.019 229.577 104.684 230.131C105.354 230.684 105.689 231.392 105.689 232.255H104.063C104.063 231.812 103.874 231.43 103.495 231.11C103.122 230.789 102.65 230.629 102.079 230.629C101.491 230.629 101.03 230.757 100.698 231.014C100.366 231.27 100.2 231.605 100.2 232.019C100.2 232.409 100.354 232.703 100.663 232.901C100.972 233.099 101.529 233.289 102.333 233.469C103.142 233.65 103.798 233.866 104.299 234.116C104.8 234.367 105.17 234.67 105.409 235.025C105.654 235.375 105.776 235.803 105.776 236.31C105.776 237.155 105.438 237.833 104.762 238.346C104.086 238.853 103.209 239.106 102.132 239.106C101.374 239.106 100.704 238.972 100.121 238.704C99.5388 238.436 99.0814 238.064 98.7493 237.586C98.423 237.102 98.2599 236.581 98.2599 236.021H99.8767C99.9059 236.563 100.121 236.994 100.523 237.315C100.931 237.629 101.467 237.787 102.132 237.787C102.743 237.787 103.233 237.664 103.6 237.42C103.973 237.169 104.159 236.837 104.159 236.423ZM113.836 236.423C113.836 235.986 113.67 235.648 113.337 235.41C113.011 235.165 112.437 234.955 111.616 234.78C110.8 234.606 110.15 234.396 109.667 234.151C109.189 233.906 108.834 233.615 108.601 233.277C108.373 232.939 108.26 232.537 108.26 232.071C108.26 231.296 108.586 230.641 109.239 230.105C109.897 229.569 110.736 229.301 111.756 229.301C112.828 229.301 113.696 229.577 114.36 230.131C115.03 230.684 115.365 231.392 115.365 232.255H113.74C113.74 231.812 113.55 231.43 113.171 231.11C112.799 230.789 112.327 230.629 111.756 230.629C111.167 230.629 110.707 230.757 110.375 231.014C110.043 231.27 109.877 231.605 109.877 232.019C109.877 232.409 110.031 232.703 110.34 232.901C110.649 233.099 111.205 233.289 112.009 233.469C112.819 233.65 113.474 233.866 113.975 234.116C114.477 234.367 114.847 234.67 115.085 235.025C115.33 235.375 115.452 235.803 115.452 236.31C115.452 237.155 115.115 237.833 114.439 238.346C113.763 238.853 112.886 239.106 111.808 239.106C111.051 239.106 110.381 238.972 109.798 238.704C109.215 238.436 108.758 238.064 108.426 237.586C108.1 237.102 107.936 236.581 107.936 236.021H109.553C109.582 236.563 109.798 236.994 110.2 237.315C110.608 237.629 111.144 237.787 111.808 237.787C112.42 237.787 112.909 237.664 113.276 237.42C113.649 237.169 113.836 236.837 113.836 236.423ZM121.93 239.106C120.648 239.106 119.606 238.687 118.801 237.848C117.997 237.003 117.595 235.876 117.595 234.466V234.169C117.595 233.23 117.773 232.394 118.129 231.66C118.49 230.92 118.991 230.344 119.632 229.93C120.278 229.51 120.978 229.301 121.729 229.301C122.959 229.301 123.914 229.706 124.596 230.515C125.278 231.325 125.618 232.485 125.618 233.994V234.667H119.212C119.236 235.599 119.506 236.353 120.025 236.93C120.549 237.501 121.214 237.787 122.018 237.787C122.589 237.787 123.072 237.67 123.468 237.437C123.865 237.204 124.211 236.895 124.508 236.511L125.496 237.28C124.704 238.498 123.515 239.106 121.93 239.106ZM121.729 230.629C121.077 230.629 120.529 230.868 120.086 231.346C119.643 231.818 119.37 232.482 119.265 233.338H124.002V233.216C123.955 232.394 123.734 231.759 123.337 231.311C122.941 230.856 122.405 230.629 121.729 230.629ZM127.552 234.125C127.552 232.674 127.895 231.509 128.583 230.629C129.27 229.743 130.171 229.301 131.283 229.301C132.39 229.301 133.267 229.679 133.914 230.437V225.508H135.531V238.932H134.045L133.966 237.918C133.32 238.71 132.42 239.106 131.266 239.106C130.171 239.106 129.276 238.658 128.583 237.761C127.895 236.863 127.552 235.692 127.552 234.247V234.125ZM129.168 234.308C129.168 235.38 129.39 236.219 129.833 236.825C130.275 237.431 130.887 237.734 131.668 237.734C132.693 237.734 133.442 237.274 133.914 236.353V232.01C133.43 231.118 132.688 230.673 131.685 230.673C130.893 230.673 130.275 230.979 129.833 231.59C129.39 232.202 129.168 233.108 129.168 234.308Z" fill="#121212"/>
<path d="M82.243 136.898V138.68H82.0332C81.0544 138.695 80.2653 138.95 79.666 139.445C79.0718 139.939 78.7147 140.626 78.5948 141.505C79.1741 140.915 79.9058 140.621 80.7897 140.621C81.7386 140.621 82.4927 140.96 83.052 141.639C83.6114 142.319 83.891 143.213 83.891 144.321C83.891 145.03 83.7362 145.672 83.4266 146.246C83.1219 146.821 82.6875 147.268 82.1231 147.587C81.5638 147.907 80.9295 148.067 80.2204 148.067C79.0718 148.067 78.1429 147.667 77.4337 146.868C76.7295 146.069 76.3775 145.003 76.3775 143.67V142.89C76.3775 141.707 76.5997 140.663 77.0442 139.759C77.4936 138.85 78.1354 138.149 78.9694 137.654C79.8084 137.155 80.7797 136.903 81.8834 136.898H82.243ZM80.1305 142.359C79.7809 142.359 79.4638 142.451 79.1791 142.636C78.8945 142.816 78.6847 143.055 78.5499 143.355V144.014C78.5499 144.738 78.6922 145.305 78.9769 145.715C79.2615 146.119 79.661 146.321 80.1754 146.321C80.6399 146.321 81.0144 146.139 81.2991 145.775C81.5888 145.405 81.7336 144.928 81.7336 144.344C81.7336 143.749 81.5888 143.27 81.2991 142.905C81.0094 142.541 80.6199 142.359 80.1305 142.359ZM92.4803 139.909C92.4803 140.438 92.348 140.908 92.0833 141.317C91.8186 141.727 91.454 142.054 90.9896 142.299C91.519 142.553 91.9385 142.905 92.2481 143.355C92.5577 143.799 92.7125 144.324 92.7125 144.928C92.7125 145.897 92.3829 146.663 91.7237 147.228C91.0645 147.787 90.1681 148.067 89.0344 148.067C87.9008 148.067 87.0018 147.785 86.3376 147.22C85.6734 146.656 85.3413 145.892 85.3413 144.928C85.3413 144.324 85.4961 143.797 85.8057 143.347C86.1154 142.898 86.5324 142.548 87.0568 142.299C86.5923 142.054 86.2277 141.727 85.9631 141.317C85.7034 140.908 85.5735 140.438 85.5735 139.909C85.5735 138.98 85.8832 138.241 86.5024 137.692C87.1217 137.137 87.9632 136.86 89.0269 136.86C90.0857 136.86 90.9247 137.135 91.5439 137.684C92.1682 138.229 92.4803 138.97 92.4803 139.909ZM90.5401 144.771C90.5401 144.296 90.4028 143.917 90.1281 143.632C89.8534 143.347 89.4839 143.205 89.0194 143.205C88.56 143.205 88.1929 143.347 87.9182 143.632C87.6436 143.912 87.5062 144.291 87.5062 144.771C87.5062 145.235 87.6411 145.61 87.9107 145.894C88.1804 146.179 88.555 146.321 89.0344 146.321C89.5039 146.321 89.8709 146.184 90.1356 145.909C90.4053 145.635 90.5401 145.255 90.5401 144.771ZM90.3154 140.014C90.3154 139.589 90.203 139.25 89.9783 138.995C89.7536 138.735 89.4364 138.606 89.0269 138.606C88.6224 138.606 88.3078 138.73 88.083 138.98C87.8583 139.23 87.7459 139.574 87.7459 140.014C87.7459 140.448 87.8583 140.798 88.083 141.063C88.3078 141.327 88.6249 141.46 89.0344 141.46C89.4439 141.46 89.7586 141.327 89.9783 141.063C90.203 140.798 90.3154 140.448 90.3154 140.014ZM95.1442 148.853H93.5336L97.5488 137.01H99.1594L95.1442 148.853ZM105.561 147.917H103.396V139.572L100.812 140.373V138.613L105.329 136.995H105.561V147.917ZM116.645 143.407C116.645 144.916 116.333 146.069 115.709 146.868C115.084 147.667 114.171 148.067 112.967 148.067C111.778 148.067 110.869 147.675 110.24 146.891C109.611 146.107 109.289 144.983 109.274 143.52V141.512C109.274 139.989 109.588 138.833 110.218 138.044C110.852 137.255 111.763 136.86 112.952 136.86C114.141 136.86 115.05 137.252 115.679 138.036C116.308 138.815 116.63 139.936 116.645 141.4V143.407ZM114.48 141.205C114.48 140.301 114.355 139.644 114.106 139.235C113.861 138.82 113.476 138.613 112.952 138.613C112.443 138.613 112.066 138.81 111.821 139.205C111.581 139.594 111.454 140.206 111.439 141.04V143.692C111.439 144.581 111.559 145.243 111.798 145.677C112.043 146.107 112.433 146.321 112.967 146.321C113.496 146.321 113.878 146.114 114.113 145.7C114.348 145.285 114.47 144.651 114.48 143.797V141.205ZM125.646 143.407C125.646 144.916 125.334 146.069 124.71 146.868C124.086 147.667 123.172 148.067 121.968 148.067C120.78 148.067 119.871 147.675 119.242 146.891C118.612 146.107 118.29 144.983 118.275 143.52V141.512C118.275 139.989 118.59 138.833 119.219 138.044C119.853 137.255 120.765 136.86 121.953 136.86C123.142 136.86 124.051 137.252 124.68 138.036C125.309 138.815 125.631 139.936 125.646 141.4V143.407ZM123.481 141.205C123.481 140.301 123.357 139.644 123.107 139.235C122.862 138.82 122.478 138.613 121.953 138.613C121.444 138.613 121.067 138.81 120.822 139.205C120.582 139.594 120.455 140.206 120.44 141.04V143.692C120.44 144.581 120.56 145.243 120.8 145.677C121.044 146.107 121.434 146.321 121.968 146.321C122.498 146.321 122.88 146.114 123.114 145.7C123.349 145.285 123.471 144.651 123.481 143.797V141.205Z" fill="#121212"/>
<path d="M150.862 120.136C150.862 91.9022 128.539 69.0142 101.001 69.0142C73.464 69.0142 51.1406 91.9022 51.1406 120.136" stroke="url(#paint0_linear)" stroke-width="8.94937" stroke-linecap="round"/>
<path d="M60.3359 79.8125L68.134 87.6899" stroke="white" stroke-width="1.27848"/>
<path d="M141.793 80.8599L133.995 88.7373" stroke="white" stroke-width="1.27848"/>
<path d="M101.001 62.6245V74.127" stroke="white" stroke-width="1.27848"/>
<path fill-rule="evenodd" clip-rule="evenodd" d="M124.013 83.0739C128.249 83.0739 131.684 79.6407 131.684 75.4056C131.684 71.1705 128.249 67.7373 124.013 67.7373C119.776 67.7373 116.342 71.1705 116.342 75.4056C116.342 79.6407 119.776 83.0739 124.013 83.0739Z" fill="#686868" stroke="#ABABAB" stroke-width="1.27848"/>
<path fill-rule="evenodd" clip-rule="evenodd" d="M109.643 95.7721C110.105 95.2938 110.9 95.7524 110.717 96.3921L105.381 115.04C104.398 118.473 100.45 120.07 97.3569 118.284C94.2638 116.499 93.6728 112.283 96.1559 109.716L109.643 95.7721ZM99.2773 114.965C98.36 114.436 98.0458 113.263 98.5755 112.346C99.1052 111.429 100.278 111.114 101.196 111.644C102.113 112.173 102.427 113.346 101.897 114.263C101.368 115.18 100.195 115.495 99.2773 114.965Z" fill="#575A60"/>
<rect x="49.8594" y="164.868" width="102.278" height="25.561" rx="12.7805" fill="#686868"/>
<path d="M93.0759 183.98H91.3891V178.099H84.9743V183.98H83.2962V171.256H84.9743V176.727H91.3891V171.256H93.0759V183.98ZM98.0068 183.98H96.3899V174.524H98.0068V183.98ZM96.2588 172.016C96.2588 171.754 96.3375 171.532 96.4948 171.352C96.658 171.171 96.8968 171.081 97.2115 171.081C97.5261 171.081 97.765 171.171 97.9281 171.352C98.0913 171.532 98.1728 171.754 98.1728 172.016C98.1728 172.278 98.0913 172.497 97.9281 172.671C97.765 172.846 97.5261 172.934 97.2115 172.934C96.8968 172.934 96.658 172.846 96.4948 172.671C96.3375 172.497 96.2588 172.278 96.2588 172.016ZM100.665 179.174C100.665 177.7 101.006 176.528 101.688 175.66C102.37 174.786 103.273 174.349 104.397 174.349C105.551 174.349 106.451 174.757 107.098 175.573L107.176 174.524H108.653V183.753C108.653 184.977 108.289 185.941 107.561 186.646C106.838 187.351 105.865 187.704 104.642 187.704C103.96 187.704 103.293 187.558 102.641 187.267C101.988 186.975 101.49 186.576 101.146 186.069L101.985 185.099C102.678 185.956 103.526 186.384 104.528 186.384C105.315 186.384 105.927 186.162 106.364 185.72C106.806 185.277 107.028 184.653 107.028 183.849V183.037C106.381 183.782 105.498 184.155 104.38 184.155C103.273 184.155 102.375 183.71 101.688 182.818C101.006 181.927 100.665 180.712 100.665 179.174ZM102.291 179.357C102.291 180.423 102.509 181.262 102.946 181.874C103.383 182.48 103.995 182.783 104.782 182.783C105.801 182.783 106.55 182.32 107.028 181.394V177.076C106.533 176.173 105.79 175.722 104.799 175.722C104.013 175.722 103.398 176.027 102.955 176.639C102.512 177.251 102.291 178.157 102.291 179.357ZM113.165 175.669C113.881 174.789 114.814 174.349 115.961 174.349C117.96 174.349 118.968 175.477 118.985 177.732V183.98H117.369V177.723C117.363 177.041 117.205 176.537 116.897 176.211C116.594 175.885 116.119 175.722 115.472 175.722C114.948 175.722 114.487 175.861 114.091 176.141C113.695 176.421 113.386 176.788 113.165 177.242V183.98H111.548V170.556H113.165V175.669Z" fill="white"/>
<defs>
<linearGradient id="paint0_linear" x1="150.862" y1="120.136" x2="51.1406" y2="120.136" gradientUnits="userSpaceOnUse">
<stop stop-color="#A1A1A1"/>
<stop offset="1" stop-color="#E1E1E1"/>
</linearGradient>
</defs>
</svg>
