<svg width="203" height="262" viewBox="0 0 203 262" fill="none" xmlns="http://www.w3.org/2000/svg">
<path d="M0.642405 8.99367C0.642405 4.38139 4.38139 0.642405 8.99367 0.642405H194.006C198.619 0.642405 202.358 4.38139 202.358 8.99367V253.006C202.358 257.619 198.619 261.358 194.006 261.358H8.99367C4.38139 261.358 0.642405 257.619 0.642405 253.006V8.99367Z" fill="white" stroke="#E1E1E1" stroke-width="1.28481"/>
<path d="M52.2577 33.5079C52.2577 32.8655 52.0302 32.3703 51.5751 32.0223C51.1268 31.6743 50.3137 31.323 49.136 30.9684C47.9583 30.6137 47.0214 30.2189 46.3255 29.7839C44.9938 28.9475 44.328 27.8567 44.328 26.5117C44.328 25.3339 44.8065 24.3636 45.7634 23.6008C46.727 22.8379 47.975 22.4565 49.5074 22.4565C50.5245 22.4565 51.4313 22.6439 52.2276 23.0186C53.0239 23.3933 53.6496 23.9287 54.1046 24.6246C54.5596 25.3139 54.7872 26.0801 54.7872 26.9232H52.2577C52.2577 26.1604 52.0168 25.5648 51.535 25.1365C51.0599 24.7016 50.3773 24.4841 49.4873 24.4841C48.6575 24.4841 48.0118 24.6614 47.5501 25.0161C47.095 25.3708 46.8675 25.8659 46.8675 26.5017C46.8675 27.037 47.1151 27.4853 47.6103 27.8467C48.1055 28.2013 48.9219 28.5493 50.0595 28.8906C51.1971 29.2252 52.1105 29.61 52.7997 30.0449C53.489 30.4732 53.9942 30.9684 54.3154 31.5305C54.6366 32.0859 54.7972 32.7383 54.7972 33.4878C54.7972 34.7057 54.3288 35.676 53.3919 36.3987C52.4618 37.1147 51.1971 37.4727 49.5977 37.4727C48.5404 37.4727 47.5668 37.2787 46.6768 36.8905C45.7935 36.4957 45.1042 35.9537 44.6091 35.2645C44.1206 34.5752 43.8763 33.7722 43.8763 32.8554H46.4158C46.4158 33.6852 46.6902 34.3276 47.2389 34.7827C47.7876 35.2377 48.5739 35.4652 49.5977 35.4652C50.481 35.4652 51.1435 35.2879 51.5852 34.9332C52.0335 34.5719 52.2577 34.0968 52.2577 33.5079ZM60.1031 23.7714V26.4113H62.0202V28.2181H60.1031V34.2808C60.1031 34.6957 60.1834 34.9968 60.344 35.1842C60.5113 35.3648 60.8057 35.4552 61.2273 35.4552C61.5083 35.4552 61.7927 35.4217 62.0805 35.3548V37.2419C61.5251 37.3958 60.9897 37.4727 60.4745 37.4727C58.6008 37.4727 57.6639 36.4389 57.6639 34.3711V28.2181H55.8772V26.4113H57.6639V23.7714H60.1031ZM69.8355 28.6397C69.5143 28.5861 69.1831 28.5594 68.8418 28.5594C67.7243 28.5594 66.9714 28.9876 66.5833 29.8442V37.272H64.1442V26.4113H66.4729L66.5331 27.6259C67.122 26.6823 67.9384 26.2106 68.9823 26.2106C69.3303 26.2106 69.618 26.2574 69.8455 26.3511L69.8355 28.6397ZM76.2154 37.4727C74.6696 37.4727 73.4149 36.9876 72.4513 36.0173C71.4944 35.0403 71.0159 33.7421 71.0159 32.1227V31.8216C71.0159 30.7375 71.2234 29.7706 71.6382 28.9207C72.0598 28.0642 72.6487 27.3983 73.4049 26.9232C74.161 26.4481 75.0042 26.2106 75.9343 26.2106C77.4132 26.2106 78.5541 26.6823 79.3571 27.6259C80.1668 28.5694 80.5717 29.9044 80.5717 31.6309V32.6145H73.4751C73.5487 33.5112 73.8465 34.2205 74.3685 34.7425C74.8971 35.2645 75.5596 35.5254 76.3559 35.5254C77.4734 35.5254 78.3835 35.0737 79.0861 34.1704L80.4011 35.4251C79.9661 36.0742 79.3839 36.5794 78.6545 36.9407C77.9318 37.2954 77.1188 37.4727 76.2154 37.4727ZM75.9243 28.1679C75.2551 28.1679 74.7131 28.4021 74.2982 28.8705C73.89 29.3389 73.629 29.9914 73.5153 30.8278H78.1627V30.6472C78.1091 29.8308 77.8917 29.2151 77.5102 28.8003C77.1288 28.3787 76.6002 28.1679 75.9243 28.1679ZM88.8186 34.3209C88.8186 33.886 88.6379 33.5547 88.2765 33.3272C87.9219 33.0997 87.3297 32.8989 86.4999 32.7249C85.6701 32.551 84.9775 32.3301 84.4221 32.0625C83.2042 31.4736 82.5953 30.6204 82.5953 29.5029C82.5953 28.566 82.9901 27.7831 83.7797 27.1541C84.5693 26.5251 85.5731 26.2106 86.791 26.2106C88.0892 26.2106 89.1364 26.5318 89.9327 27.1742C90.7357 27.8166 91.1372 28.6497 91.1372 29.6735H88.6981C88.6981 29.2051 88.5241 28.817 88.1762 28.5092C87.8282 28.1947 87.3665 28.0374 86.791 28.0374C86.2556 28.0374 85.8173 28.1612 85.4761 28.4088C85.1415 28.6564 84.9742 28.9876 84.9742 29.4025C84.9742 29.7772 85.1314 30.0683 85.4459 30.2758C85.7605 30.4832 86.3962 30.694 87.3531 30.9081C88.31 31.1156 89.0595 31.3665 89.6015 31.661C90.1502 31.9487 90.5551 32.2967 90.816 32.7049C91.0837 33.1131 91.2175 33.6083 91.2175 34.1904C91.2175 35.1674 90.8127 35.9604 90.003 36.5693C89.1933 37.1716 88.1327 37.4727 86.8211 37.4727C85.9311 37.4727 85.1381 37.3121 84.4422 36.9909C83.7462 36.6697 83.2042 36.2281 82.8161 35.666C82.428 35.1039 82.2339 34.4983 82.2339 33.8492H84.6028C84.6362 34.4246 84.8537 34.8696 85.2552 35.1842C85.6567 35.492 86.1887 35.6459 86.8512 35.6459C87.4936 35.6459 87.9821 35.5254 88.3167 35.2845C88.6513 35.0369 88.8186 34.7157 88.8186 34.3209ZM99.6953 34.3209C99.6953 33.886 99.5146 33.5547 99.1533 33.3272C98.7986 33.0997 98.2064 32.8989 97.3766 32.7249C96.5468 32.551 95.8542 32.3301 95.2988 32.0625C94.0809 31.4736 93.472 30.6204 93.472 29.5029C93.472 28.566 93.8668 27.7831 94.6564 27.1541C95.446 26.5251 96.4498 26.2106 97.6677 26.2106C98.9659 26.2106 100.013 26.5318 100.809 27.1742C101.612 27.8166 102.014 28.6497 102.014 29.6735H99.5748C99.5748 29.2051 99.4009 28.817 99.0529 28.5092C98.7049 28.1947 98.2432 28.0374 97.6677 28.0374C97.1324 28.0374 96.6941 28.1612 96.3528 28.4088C96.0182 28.6564 95.8509 28.9876 95.8509 29.4025C95.8509 29.7772 96.0082 30.0683 96.3227 30.2758C96.6372 30.4832 97.2729 30.694 98.2298 30.9081C99.1867 31.1156 99.9362 31.3665 100.478 31.661C101.027 31.9487 101.432 32.2967 101.693 32.7049C101.96 33.1131 102.094 33.6083 102.094 34.1904C102.094 35.1674 101.689 35.9604 100.88 36.5693C100.07 37.1716 99.0094 37.4727 97.6978 37.4727C96.8078 37.4727 96.0148 37.3121 95.3189 36.9909C94.623 36.6697 94.0809 36.2281 93.6928 35.666C93.3047 35.1039 93.1106 34.4983 93.1106 33.8492H95.4795C95.513 34.4246 95.7304 34.8696 96.1319 35.1842C96.5335 35.492 97.0654 35.6459 97.7279 35.6459C98.3703 35.6459 98.8588 35.5254 99.1934 35.2845C99.528 35.0369 99.6953 34.7157 99.6953 34.3209ZM112.776 37.272H110.247V22.6573H112.776V37.272ZM118.183 26.4113L118.253 27.666C119.056 26.6957 120.11 26.2106 121.415 26.2106C123.676 26.2106 124.827 27.5054 124.868 30.0951V37.272H122.428V30.2356C122.428 29.5464 122.278 29.0378 121.977 28.7099C121.682 28.3753 121.197 28.208 120.521 28.208C119.538 28.208 118.805 28.653 118.323 29.543V37.272H115.884V26.4113H118.183ZM127.162 31.7613C127.162 30.0884 127.55 28.7467 128.326 27.7363C129.103 26.7191 130.143 26.2106 131.448 26.2106C132.599 26.2106 133.529 26.6121 134.239 27.4151V21.8543H136.678V37.272H134.469L134.349 36.1478C133.62 37.0311 132.646 37.4727 131.428 37.4727C130.157 37.4727 129.126 36.9608 128.337 35.937C127.554 34.9131 127.162 33.5213 127.162 31.7613ZM129.601 31.9721C129.601 33.0763 129.812 33.9395 130.234 34.5618C130.662 35.1775 131.267 35.4853 132.05 35.4853C133.047 35.4853 133.777 35.0403 134.239 34.1503V29.5129C133.79 28.643 133.068 28.208 132.071 28.208C131.281 28.208 130.672 28.5225 130.244 29.1516C129.815 29.7739 129.601 30.7141 129.601 31.9721ZM144.262 37.4727C142.716 37.4727 141.462 36.9876 140.498 36.0173C139.541 35.0403 139.063 33.7421 139.063 32.1227V31.8216C139.063 30.7375 139.27 29.7706 139.685 28.9207C140.107 28.0642 140.695 27.3983 141.452 26.9232C142.208 26.4481 143.051 26.2106 143.981 26.2106C145.46 26.2106 146.601 26.6823 147.404 27.6259C148.214 28.5694 148.618 29.9044 148.618 31.6309V32.6145H141.522C141.595 33.5112 141.893 34.2205 142.415 34.7425C142.944 35.2645 143.606 35.5254 144.403 35.5254C145.52 35.5254 146.43 35.0737 147.133 34.1704L148.448 35.4251C148.013 36.0742 147.431 36.5794 146.701 36.9407C145.979 37.2954 145.166 37.4727 144.262 37.4727ZM143.971 28.1679C143.302 28.1679 142.76 28.4021 142.345 28.8705C141.937 29.3389 141.676 29.9914 141.562 30.8278H146.209V30.6472C146.156 29.8308 145.938 29.2151 145.557 28.8003C145.176 28.3787 144.647 28.1679 143.971 28.1679ZM154.677 29.9847L156.745 26.4113H159.455L156.133 31.7613L159.565 37.272H156.875L154.707 33.5581L152.549 37.272H149.839L153.272 31.7613L149.959 26.4113H152.65L154.677 29.9847Z" fill="#121212"/>
<path d="M36.7971 211.36L40.1346 204.94H42.0493L37.6403 212.958V217.728H35.954V212.958L31.5449 204.94H33.4772L36.7971 211.36ZM42.8854 212.888C42.8854 211.957 43.0669 211.12 43.4299 210.376C43.7988 209.633 44.3082 209.059 44.9582 208.655C45.6139 208.251 46.3605 208.049 47.1978 208.049C48.4918 208.049 49.537 208.497 50.3333 209.393C51.1355 210.288 51.5365 211.48 51.5365 212.967V213.081C51.5365 214.007 51.358 214.838 51.0008 215.576C50.6495 216.308 50.143 216.879 49.4813 217.288C48.8256 217.698 48.0702 217.903 47.2154 217.903C45.9272 217.903 44.882 217.455 44.0799 216.559C43.2836 215.664 42.8854 214.478 42.8854 213.002V212.888ZM44.519 213.081C44.519 214.135 44.762 214.981 45.248 215.62C45.7398 216.258 46.3956 216.577 47.2154 216.577C48.041 216.577 48.6967 216.255 49.1827 215.611C49.6687 214.961 49.9117 214.053 49.9117 212.888C49.9117 211.846 49.6629 211.003 49.1652 210.359C48.6733 209.709 48.0175 209.384 47.1978 209.384C46.3956 209.384 45.7486 209.703 45.2568 210.341C44.7649 210.979 44.519 211.893 44.519 213.081ZM59.8908 216.788C59.2584 217.531 58.3304 217.903 57.1066 217.903C56.0937 217.903 55.3208 217.61 54.788 217.025C54.261 216.434 53.9946 215.561 53.9887 214.408V208.224H55.6136V214.364C55.6136 215.804 56.1991 216.524 57.3701 216.524C58.6114 216.524 59.437 216.062 59.8469 215.137V208.224H61.4717V217.728H59.9259L59.8908 216.788ZM75.1765 217.728C75.0829 217.54 75.0067 217.206 74.9482 216.726C74.1929 217.511 73.2912 217.903 72.2431 217.903C71.3062 217.903 70.5363 217.64 69.9332 217.113C69.3359 216.58 69.0373 215.907 69.0373 215.093C69.0373 214.103 69.412 213.336 70.1615 212.792C70.9168 212.241 71.9766 211.966 73.3409 211.966H74.9218V211.219C74.9218 210.651 74.752 210.201 74.4124 209.867C74.0728 209.527 73.5722 209.357 72.9106 209.357C72.3309 209.357 71.8449 209.504 71.4526 209.797C71.0603 210.089 70.8641 210.444 70.8641 210.859H69.2305C69.2305 210.385 69.3974 209.928 69.7312 209.489C70.0708 209.044 70.5275 208.693 71.1013 208.435C71.681 208.178 72.3163 208.049 73.0072 208.049C74.1021 208.049 74.9599 208.324 75.5806 208.874C76.2012 209.419 76.5233 210.171 76.5467 211.132V215.505C76.5467 216.378 76.6579 217.072 76.8804 217.587V217.728H75.1765ZM72.4802 216.489C72.9896 216.489 73.4727 216.357 73.9294 216.094C74.3861 215.83 74.7169 215.488 74.9218 215.066V213.117H73.6483C71.6575 213.117 70.6621 213.699 70.6621 214.864C70.6621 215.374 70.8319 215.772 71.1715 216.059C71.5112 216.346 71.9474 216.489 72.4802 216.489ZM84.1368 209.682C83.8909 209.641 83.6245 209.621 83.3376 209.621C82.2719 209.621 81.5488 210.075 81.1682 210.982V217.728H79.5434V208.224H81.1243L81.1507 209.322C81.6835 208.473 82.4388 208.049 83.4166 208.049C83.7328 208.049 83.9729 208.09 84.1368 208.172V209.682ZM89.8563 217.903C88.5681 217.903 87.52 217.482 86.712 216.638C85.904 215.789 85.4999 214.656 85.4999 213.239V212.941C85.4999 211.998 85.6785 211.158 86.0357 210.42C86.3987 209.677 86.9023 209.097 87.5464 208.681C88.1963 208.26 88.8989 208.049 89.6542 208.049C90.8897 208.049 91.85 208.456 92.535 209.27C93.2201 210.084 93.5626 211.249 93.5626 212.765V213.441H87.1248C87.1482 214.378 87.4205 215.137 87.9416 215.716C88.4686 216.29 89.1361 216.577 89.9441 216.577C90.5179 216.577 91.0039 216.46 91.402 216.226C91.8002 215.991 92.1486 215.681 92.4472 215.295L93.4397 216.068C92.6434 217.291 91.4489 217.903 89.8563 217.903ZM89.6542 209.384C88.9985 209.384 88.4481 209.624 88.0031 210.104C87.5581 210.578 87.2829 211.246 87.1775 212.106H91.9378V211.984C91.891 211.158 91.6685 210.52 91.2703 210.069C90.8721 209.612 90.3335 209.384 89.6542 209.384ZM106.345 215.207C106.345 214.768 106.178 214.428 105.845 214.188C105.517 213.942 104.94 213.731 104.114 213.556C103.295 213.38 102.642 213.169 102.156 212.923C101.676 212.677 101.318 212.385 101.084 212.045C100.856 211.705 100.742 211.301 100.742 210.833C100.742 210.054 101.07 209.396 101.725 208.857C102.387 208.318 103.23 208.049 104.255 208.049C105.332 208.049 106.205 208.327 106.872 208.883C107.546 209.439 107.882 210.151 107.882 211.017H106.249C106.249 210.572 106.058 210.189 105.678 209.867C105.303 209.545 104.829 209.384 104.255 209.384C103.664 209.384 103.201 209.513 102.867 209.77C102.533 210.028 102.367 210.365 102.367 210.78C102.367 211.173 102.522 211.468 102.832 211.667C103.142 211.866 103.702 212.057 104.51 212.238C105.323 212.42 105.982 212.636 106.486 212.888C106.989 213.14 107.361 213.444 107.601 213.802C107.847 214.153 107.97 214.583 107.97 215.093C107.97 215.942 107.63 216.624 106.951 217.139C106.272 217.648 105.391 217.903 104.308 217.903C103.546 217.903 102.873 217.769 102.288 217.499C101.702 217.23 101.242 216.855 100.909 216.375C100.581 215.889 100.417 215.365 100.417 214.803H102.042C102.071 215.347 102.288 215.781 102.692 216.103C103.101 216.419 103.64 216.577 104.308 216.577C104.922 216.577 105.414 216.454 105.783 216.208C106.158 215.956 106.345 215.623 106.345 215.207ZM112.741 205.923V208.224H114.515V209.48H112.741V215.374C112.741 215.754 112.82 216.041 112.978 216.234C113.136 216.422 113.405 216.516 113.786 216.516C113.973 216.516 114.231 216.48 114.559 216.41V217.728C114.132 217.845 113.716 217.903 113.312 217.903C112.586 217.903 112.038 217.684 111.669 217.244C111.301 216.805 111.116 216.182 111.116 215.374V209.48H109.386V208.224H111.116V205.923H112.741ZM121.464 209.682C121.218 209.641 120.952 209.621 120.665 209.621C119.599 209.621 118.876 210.075 118.495 210.982V217.728H116.871V208.224H118.452L118.478 209.322C119.011 208.473 119.766 208.049 120.744 208.049C121.06 208.049 121.3 208.09 121.464 208.172V209.682ZM127.183 217.903C125.895 217.903 124.847 217.482 124.039 216.638C123.231 215.789 122.827 214.656 122.827 213.239V212.941C122.827 211.998 123.006 211.158 123.363 210.42C123.726 209.677 124.23 209.097 124.874 208.681C125.524 208.26 126.226 208.049 126.981 208.049C128.217 208.049 129.177 208.456 129.862 209.27C130.547 210.084 130.89 211.249 130.89 212.765V213.441H124.452C124.475 214.378 124.748 215.137 125.269 215.716C125.796 216.29 126.463 216.577 127.271 216.577C127.845 216.577 128.331 216.46 128.729 216.226C129.127 215.991 129.476 215.681 129.774 215.295L130.767 216.068C129.971 217.291 128.776 217.903 127.183 217.903ZM126.981 209.384C126.326 209.384 125.775 209.624 125.33 210.104C124.885 210.578 124.61 211.246 124.505 212.106H129.265V211.984C129.218 211.158 128.996 210.52 128.598 210.069C128.199 209.612 127.661 209.384 126.981 209.384ZM138.761 215.207C138.761 214.768 138.594 214.428 138.26 214.188C137.933 213.942 137.356 213.731 136.53 213.556C135.71 213.38 135.058 213.169 134.572 212.923C134.092 212.677 133.734 212.385 133.5 212.045C133.272 211.705 133.158 211.301 133.158 210.833C133.158 210.054 133.486 209.396 134.141 208.857C134.803 208.318 135.646 208.049 136.671 208.049C137.748 208.049 138.621 208.327 139.288 208.883C139.961 209.439 140.298 210.151 140.298 211.017H138.664C138.664 210.572 138.474 210.189 138.094 209.867C137.719 209.545 137.245 209.384 136.671 209.384C136.079 209.384 135.617 209.513 135.283 209.77C134.949 210.028 134.782 210.365 134.782 210.78C134.782 211.173 134.938 211.468 135.248 211.667C135.558 211.866 136.117 212.057 136.925 212.238C137.739 212.42 138.398 212.636 138.902 212.888C139.405 213.14 139.777 213.444 140.017 213.802C140.263 214.153 140.386 214.583 140.386 215.093C140.386 215.942 140.046 216.624 139.367 217.139C138.688 217.648 137.807 217.903 136.723 217.903C135.962 217.903 135.289 217.769 134.703 217.499C134.118 217.23 133.658 216.855 133.324 216.375C132.997 215.889 132.833 215.365 132.833 214.803H134.457C134.487 215.347 134.703 215.781 135.107 216.103C135.517 216.419 136.056 216.577 136.723 216.577C137.338 216.577 137.83 216.454 138.199 216.208C138.574 215.956 138.761 215.623 138.761 215.207ZM148.485 215.207C148.485 214.768 148.319 214.428 147.985 214.188C147.657 213.942 147.08 213.731 146.255 213.556C145.435 213.38 144.782 213.169 144.296 212.923C143.816 212.677 143.459 212.385 143.225 212.045C142.996 211.705 142.882 211.301 142.882 210.833C142.882 210.054 143.21 209.396 143.866 208.857C144.527 208.318 145.371 208.049 146.395 208.049C147.473 208.049 148.345 208.327 149.012 208.883C149.686 209.439 150.023 210.151 150.023 211.017H148.389C148.389 210.572 148.199 210.189 147.818 209.867C147.443 209.545 146.969 209.384 146.395 209.384C145.804 209.384 145.341 209.513 145.007 209.77C144.674 210.028 144.507 210.365 144.507 210.78C144.507 211.173 144.662 211.468 144.972 211.667C145.283 211.866 145.842 212.057 146.65 212.238C147.464 212.42 148.122 212.636 148.626 212.888C149.13 213.14 149.501 213.444 149.741 213.802C149.987 214.153 150.11 214.583 150.11 215.093C150.11 215.942 149.771 216.624 149.092 217.139C148.412 217.648 147.531 217.903 146.448 217.903C145.687 217.903 145.013 217.769 144.428 217.499C143.842 217.23 143.383 216.855 143.049 216.375C142.721 215.889 142.557 215.365 142.557 214.803H144.182C144.211 215.347 144.428 215.781 144.832 216.103C145.242 216.419 145.78 216.577 146.448 216.577C147.063 216.577 147.555 216.454 147.923 216.208C148.298 215.956 148.485 215.623 148.485 215.207ZM156.62 217.903C155.332 217.903 154.284 217.482 153.476 216.638C152.668 215.789 152.264 214.656 152.264 213.239V212.941C152.264 211.998 152.442 211.158 152.8 210.42C153.163 209.677 153.666 209.097 154.31 208.681C154.96 208.26 155.663 208.049 156.418 208.049C157.654 208.049 158.614 208.456 159.299 209.27C159.984 210.084 160.327 211.249 160.327 212.765V213.441H153.889C153.912 214.378 154.184 215.137 154.706 215.716C155.233 216.29 155.9 216.577 156.708 216.577C157.282 216.577 157.768 216.46 158.166 216.226C158.564 215.991 158.913 215.681 159.211 215.295L160.204 216.068C159.407 217.291 158.213 217.903 156.62 217.903ZM156.418 209.384C155.762 209.384 155.212 209.624 154.767 210.104C154.322 210.578 154.047 211.246 153.941 212.106H158.702V211.984C158.655 211.158 158.432 210.52 158.034 210.069C157.636 209.612 157.097 209.384 156.418 209.384ZM162.269 212.897C162.269 211.439 162.615 210.268 163.306 209.384C163.997 208.494 164.901 208.049 166.02 208.049C167.132 208.049 168.013 208.429 168.663 209.191V204.237H170.288V217.728H168.795L168.716 216.709C168.066 217.505 167.161 217.903 166.002 217.903C164.901 217.903 164.002 217.452 163.306 216.551C162.615 215.649 162.269 214.472 162.269 213.02V212.897ZM163.894 213.081C163.894 214.159 164.117 215.002 164.562 215.611C165.007 216.22 165.621 216.524 166.406 216.524C167.437 216.524 168.189 216.062 168.663 215.137V210.771C168.177 209.876 167.431 209.428 166.424 209.428C165.627 209.428 165.007 209.735 164.562 210.35C164.117 210.965 163.894 211.875 163.894 213.081Z" fill="#121212"/>
<path d="M82.6494 138.546V140.338H82.4386C81.4549 140.353 80.6619 140.609 80.0597 141.106C79.4625 141.603 79.1036 142.293 78.9832 143.176C79.5653 142.584 80.3006 142.288 81.1889 142.288C82.1425 142.288 82.9003 142.629 83.4624 143.311C84.0245 143.994 84.3056 144.892 84.3056 146.007C84.3056 146.719 84.15 147.364 83.8388 147.941C83.5327 148.518 83.0961 148.968 82.5289 149.289C81.9668 149.61 81.3294 149.771 80.6168 149.771C79.4625 149.771 78.529 149.369 77.8163 148.566C77.1086 147.763 76.7548 146.692 76.7548 145.352V144.569C76.7548 143.379 76.9782 142.33 77.4248 141.422C77.8765 140.509 78.5214 139.803 79.3596 139.307C80.2027 138.805 81.1789 138.551 82.288 138.546H82.6494ZM80.5264 144.034C80.1751 144.034 79.8564 144.127 79.5704 144.313C79.2843 144.493 79.0735 144.734 78.938 145.035V145.698C78.938 146.426 79.081 146.995 79.3671 147.407C79.6532 147.813 80.0547 148.017 80.5716 148.017C81.0384 148.017 81.4148 147.833 81.7008 147.467C81.9919 147.096 82.1375 146.616 82.1375 146.029C82.1375 145.432 81.9919 144.95 81.7008 144.584C81.4097 144.217 81.0183 144.034 80.5264 144.034ZM92.9374 141.572C92.9374 142.104 92.8044 142.576 92.5384 142.988C92.2724 143.399 91.906 143.728 91.4393 143.974C91.9713 144.23 92.3929 144.584 92.704 145.035C93.0152 145.482 93.1708 146.009 93.1708 146.616C93.1708 147.59 92.8395 148.36 92.1771 148.928C91.5146 149.49 90.6137 149.771 89.4744 149.771C88.3352 149.771 87.4318 149.487 86.7643 148.92C86.0968 148.353 85.763 147.585 85.763 146.616C85.763 146.009 85.9186 145.48 86.2298 145.028C86.541 144.576 86.96 144.225 87.487 143.974C87.0203 143.728 86.6539 143.399 86.3879 142.988C86.1269 142.576 85.9964 142.104 85.9964 141.572C85.9964 140.639 86.3076 139.896 86.9299 139.344C87.5522 138.787 88.3979 138.509 89.4669 138.509C90.5309 138.509 91.3741 138.785 91.9964 139.337C92.6237 139.884 92.9374 140.629 92.9374 141.572ZM90.9876 146.458C90.9876 145.981 90.8496 145.6 90.5736 145.314C90.2975 145.028 89.9261 144.885 89.4594 144.885C88.9977 144.885 88.6288 145.028 88.3527 145.314C88.0767 145.595 87.9387 145.976 87.9387 146.458C87.9387 146.925 88.0742 147.301 88.3452 147.588C88.6162 147.874 88.9926 148.017 89.4744 148.017C89.9462 148.017 90.3151 147.879 90.5811 147.603C90.8521 147.327 90.9876 146.945 90.9876 146.458ZM90.7618 141.678C90.7618 141.251 90.6488 140.91 90.423 140.654C90.1971 140.393 89.8785 140.263 89.4669 140.263C89.0604 140.263 88.7442 140.388 88.5184 140.639C88.2925 140.89 88.1796 141.236 88.1796 141.678C88.1796 142.115 88.2925 142.466 88.5184 142.732C88.7442 142.998 89.0629 143.131 89.4744 143.131C89.886 143.131 90.2022 142.998 90.423 142.732C90.6488 142.466 90.7618 142.115 90.7618 141.678ZM95.6144 150.561H93.9959L98.031 138.659H99.6495L95.6144 150.561ZM106.083 149.62H103.907V141.234L101.31 142.039V140.27L105.85 138.644H106.083V149.62ZM117.222 145.088C117.222 146.604 116.908 147.763 116.281 148.566C115.653 149.369 114.735 149.771 113.525 149.771C112.331 149.771 111.418 149.377 110.785 148.589C110.153 147.801 109.829 146.672 109.814 145.201V143.184C109.814 141.653 110.13 140.491 110.763 139.698C111.4 138.905 112.316 138.509 113.51 138.509C114.705 138.509 115.618 138.902 116.251 139.69C116.883 140.473 117.207 141.6 117.222 143.071V145.088ZM115.046 142.875C115.046 141.966 114.921 141.306 114.67 140.895C114.424 140.478 114.037 140.27 113.51 140.27C112.999 140.27 112.62 140.468 112.374 140.865C112.133 141.256 112.005 141.871 111.99 142.709V145.374C111.99 146.268 112.11 146.933 112.351 147.369C112.597 147.801 112.988 148.017 113.525 148.017C114.057 148.017 114.441 147.808 114.677 147.392C114.913 146.975 115.036 146.338 115.046 145.48V142.875ZM126.268 145.088C126.268 146.604 125.954 147.763 125.327 148.566C124.699 149.369 123.781 149.771 122.571 149.771C121.377 149.771 120.463 149.377 119.831 148.589C119.199 147.801 118.875 146.672 118.86 145.201V143.184C118.86 141.653 119.176 140.491 119.809 139.698C120.446 138.905 121.362 138.509 122.556 138.509C123.751 138.509 124.664 138.902 125.297 139.69C125.929 140.473 126.253 141.6 126.268 143.071V145.088ZM124.092 142.875C124.092 141.966 123.967 141.306 123.716 140.895C123.47 140.478 123.083 140.27 122.556 140.27C122.044 140.27 121.665 140.468 121.42 140.865C121.179 141.256 121.051 141.871 121.036 142.709V145.374C121.036 146.268 121.156 146.933 121.397 147.369C121.643 147.801 122.034 148.017 122.571 148.017C123.103 148.017 123.487 147.808 123.723 147.392C123.959 146.975 124.082 146.338 124.092 145.48V142.875Z" fill="#121212"/>
<path d="M151.608 120.772C151.608 92.389 129.174 69.3799 101.5 69.3799C73.8264 69.3799 51.3925 92.389 51.3925 120.772" stroke="url(#paint0_linear)" stroke-width="8.99367" stroke-linecap="round"/>
<path d="M93.4574 123.209H90.8225V117.728H85.6845V123.209H83.0497V110.421H85.6845V115.603H90.8225V110.421H93.4574V123.209ZM98.7289 123.209H96.1818V113.706H98.7289V123.209ZM96.0325 111.247C96.0325 110.866 96.1584 110.553 96.4102 110.307C96.6678 110.061 97.0162 109.938 97.4554 109.938C97.8886 109.938 98.2341 110.061 98.4917 110.307C98.7494 110.553 98.8782 110.866 98.8782 111.247C98.8782 111.633 98.7464 111.949 98.4829 112.195C98.2253 112.441 97.8828 112.564 97.4554 112.564C97.0279 112.564 96.6825 112.441 96.419 112.195C96.1613 111.949 96.0325 111.633 96.0325 111.247ZM100.909 118.387C100.909 116.929 101.254 115.755 101.945 114.865C102.642 113.975 103.579 113.53 104.756 113.53C105.798 113.53 106.609 113.887 107.189 114.602L107.294 113.706H109.595V122.893C109.595 123.724 109.405 124.447 109.024 125.062C108.649 125.677 108.12 126.145 107.434 126.467C106.749 126.789 105.947 126.95 105.028 126.95C104.331 126.95 103.652 126.81 102.99 126.529C102.329 126.254 101.828 125.897 101.488 125.457L102.613 123.912C103.245 124.62 104.012 124.974 104.914 124.974C105.587 124.974 106.111 124.793 106.486 124.43C106.861 124.073 107.048 123.563 107.048 122.902V122.392C106.462 123.054 105.693 123.385 104.738 123.385C103.596 123.385 102.671 122.94 101.963 122.05C101.26 121.154 100.909 119.968 100.909 118.493V118.387ZM103.447 118.572C103.447 119.432 103.62 120.109 103.965 120.6C104.311 121.086 104.785 121.329 105.388 121.329C106.161 121.329 106.714 121.04 107.048 120.46V116.464C106.708 115.884 106.161 115.594 105.406 115.594C104.797 115.594 104.317 115.843 103.965 116.341C103.62 116.838 103.447 117.582 103.447 118.572ZM114.48 114.742C115.153 113.934 116 113.53 117.018 113.53C119.079 113.53 120.125 114.728 120.154 117.122V123.209H117.616V117.193C117.616 116.648 117.498 116.247 117.264 115.989C117.03 115.726 116.641 115.594 116.096 115.594C115.353 115.594 114.814 115.881 114.48 116.455V123.209H111.942V109.718H114.48V114.742Z" fill="#121212"/>
<path fill-rule="evenodd" clip-rule="evenodd" d="M124.627 83.5124C128.884 83.5124 132.335 80.0611 132.335 75.8036C132.335 71.5461 128.884 68.0947 124.627 68.0947C120.369 68.0947 116.918 71.5461 116.918 75.8036C116.918 80.0611 120.369 83.5124 124.627 83.5124Z" fill="#6B6B6B" stroke="#696969" stroke-width="1.28481"/>
<defs>
<linearGradient id="paint0_linear" x1="101.5" y1="69.3799" x2="158.674" y2="120.772" gradientUnits="userSpaceOnUse">
<stop stop-color="#E1E1E1"/>
<stop offset="0.960104" stop-color="#686868"/>
</linearGradient>
</defs>
</svg>
